<svg xmlns="http://www.w3.org/2000/svg" xmlns:xlink="http://www.w3.org/1999/xlink" width="415.25" height="415.25" viewBox="0 0 415.25 415.25"><defs><style>.cls-1{fill:url(#radial-gradient);}.cls-2{fill:none;}.cls-3{fill:#a57c52;}.cls-4{fill:#fff;}.cls-5{fill:#8b6239;}.cls-6{fill:#f1f1f1;}</style><radialGradient id="radial-gradient" cx="208.96" cy="200.86" r="177.9" gradientTransform="translate(-1.47 63.56) rotate(-0.61) scale(1 0.69)" gradientUnits="userSpaceOnUse"><stop offset="0" stop-color="#c59b6d"/><stop offset="0.26" stop-color="#bb9164"/><stop offset="0.71" stop-color="#a0764b"/><stop offset="1" stop-color="#8b6239"/></radialGradient></defs><title>Artboard 58</title><g id="UI-elementer"><path class="cls-1" d="M358.6,179.38a151,151,0,0,1-301.94,0"/><ellipse class="cls-2" cx="207.63" cy="179.38" rx="150.97" ry="36.33"/><path class="cls-3" d="M207.63,210.2c-39.91,0-77.36-3.72-105.47-10.48-13.17-3.17-23.86-7-30.92-11-5.77-3.29-9.08-6.7-9.08-9.36s3.31-6.07,9.08-9.36c7.06-4,17.75-7.81,30.92-11,28.11-6.76,65.56-10.49,105.47-10.49S285,152.28,313.09,159c13.18,3.17,23.87,7,30.92,11,5.77,3.29,9.08,6.7,9.08,9.36s-3.31,6.07-9.08,9.36c-7.05,4-17.74,7.81-30.92,11C285,206.48,247.53,210.2,207.63,210.2Z"/><circle class="cls-4" cx="98.91" cy="165.39" r="33.13"/><circle class="cls-4" cx="144.32" cy="132.27" r="33.13"/><circle class="cls-4" cx="190.77" cy="118.03" r="33.13"/><circle class="cls-4" cx="241.91" cy="122.37" r="25.98"/><circle class="cls-4" cx="276.8" cy="138.4" r="38.11"/><circle class="cls-4" cx="109.51" cy="143.05" r="16.78"/><circle class="cls-4" cx="163.68" cy="113.17" r="16.78"/><circle class="cls-4" cx="306.84" cy="135.82" r="16.78"/><circle class="cls-4" cx="318.53" cy="158.17" r="21.21"/><circle class="cls-4" cx="320.7" cy="133.4" r="7.13"/><circle class="cls-4" cx="221.92" cy="109.49" r="16.78"/><path class="cls-2" d="M353.09,179.38c0-1.67-1.29-3.63-3.68-5.67a26,26,0,0,1,2.15,9.16A5.83,5.83,0,0,0,353.09,179.38Z"/><path class="cls-4" d="M349.41,173.71h0a26.1,26.1,0,0,0-10-11.6h0A26,26,0,0,0,303.8,170a108.46,108.46,0,0,0-194.94.65,27.74,27.74,0,0,0-46.1,10.8c1.2,2.24,4.15,4.78,8.48,7.25,6.61,3.76,16.41,7.32,28.45,10.37l2.47.61c3.8.91,7.78,1.77,11.9,2.57,26.38,5.13,59.06,7.91,93.57,7.91,36.68,0,71.29-3.14,98.47-8.9q3.58-.77,7-1.58l.29-.07c13-3.16,23.63-6.93,30.63-10.91a26.91,26.91,0,0,0,7.55-5.87A26,26,0,0,0,349.41,173.71Z"/><path class="cls-5" d="M349.41,173.71h0a26.1,26.1,0,0,0-10-11.6h0A26.1,26.1,0,0,1,349.41,173.71Z"/><path class="cls-5" d="M339.45,161.66c0,.15-.05.3-.08.45a26.1,26.1,0,0,1,10,11.6c2.39,2,3.68,4,3.68,5.67,0,2.66-3.31,6.07-9.08,9.36-7.05,4-17.74,7.81-30.92,11-28.1,6.76-65.56,10.48-105.46,10.48s-77.36-3.72-105.47-10.48c-13.17-3.17-23.86-7-30.92-11-5.77-3.29-9.08-6.7-9.08-9.36,0-1.85,1.6-4.06,4.51-6.34a32.78,32.78,0,0,1-.85-6.15c-5.93,3.89-9.16,8.1-9.16,12.49,0,20.06,67.59,36.33,151,36.33s151-16.27,151-36.33C358.6,172.94,351.64,166.9,339.45,161.66Z"/><path class="cls-6" d="M133.16,149.69l-2.8-2.21a20,20,0,0,0-22.84-1.38,4,4,0,1,1-4.17-6.82,28,28,0,0,1,29.25,0,20.9,20.9,0,0,1,13.13-3.89,13.26,13.26,0,0,1,22.73-5.34,4,4,0,0,1-6,5.3,5.26,5.26,0,0,0-9.2,3.49c0,.21,0,.44,0,.67l.76,6-5.81-1.65a12.78,12.78,0,0,0-12.58,3.29Z"/><path class="cls-6" d="M168,198.06a4,4,0,0,1-4-3.8,12.08,12.08,0,0,0-16.53-10.57L144.19,185l-1.69-3.14a7.28,7.28,0,0,0-1.19-1.62,7.16,7.16,0,0,0-5.08-2.19,7,7,0,0,0-5.15,2,7.25,7.25,0,0,0-1.62,2.37,4,4,0,0,1-7.37-3.11,15.22,15.22,0,0,1,14-9.3h.23a15.13,15.13,0,0,1,10.7,4.62c.2.2.39.41.58.62A20.06,20.06,0,0,1,172,193.85a4,4,0,0,1-3.78,4.2Z"/><path class="cls-6" d="M313.37,155.17a4,4,0,0,1-3.92-3.25,15.36,15.36,0,0,0-22.95-10.3l-4.93,2.94-1.06-5.64a6,6,0,0,0-1.66-3.16,6.07,6.07,0,0,0-8.56,0,5.47,5.47,0,0,0-.45.51L267.63,139l-3-1.85a9.29,9.29,0,0,0-11.47,1.34,4,4,0,1,1-5.65-5.67,17.28,17.28,0,0,1,18.46-3.9,14.09,14.09,0,0,1,20.63,3.86,23.39,23.39,0,0,1,30.71,17.64,4,4,0,0,1-3.94,4.76Z"/><path class="cls-6" d="M211.76,195.6a4,4,0,0,1-4-3.49,16.42,16.42,0,0,1,25.58-15.62,23.49,23.49,0,0,1,20.29,1,14.59,14.59,0,0,1,2.48-2.29A14,14,0,0,1,274.65,177a17.26,17.26,0,0,1,17.6,6.79,4,4,0,0,1-6.48,4.7,9.29,9.29,0,0,0-11.11-3.15l-3.26,1.35-1.75-3.07a6.65,6.65,0,0,0-.36-.56,6,6,0,0,0-10.59,1.5l-1.94,5.41-4.4-3.7a15.37,15.37,0,0,0-17.53-1.53l-2.65,1.52L230,184.06a8.42,8.42,0,0,0-14.28,7,4,4,0,0,1-3.47,4.47Z"/><path class="cls-6" d="M182.71,134.92a3.86,3.86,0,0,1-1.2-.19,4,4,0,0,1-2.62-5A23.39,23.39,0,0,1,209.8,115,16.42,16.42,0,0,1,233,119.18a4,4,0,0,1-6.64,4.47,8.41,8.41,0,0,0-13-1.14l-2.12,2.2-2.68-1.46a15.17,15.17,0,0,0-5.78-1.79,15.42,15.42,0,0,0-16.23,10.66A4,4,0,0,1,182.71,134.92Z"/></g></svg>