<svg xmlns="http://www.w3.org/2000/svg" width="550" height="290" viewBox="0 0 550 290"><title>Counter</title><g id="Spilskærm_med_elementer" data-name="Spilskærm med elementer"><path d="M331.87,153.43a1.29,1.29,0,0,1,1.24-1c1.16,0,2.56,1.16,4.22,3.47a11.49,11.49,0,0,1,2.42,6.88q-.06,3.42-6.89,20.72t-9.67,24.62q-2.87,7.32-4.78,12.41t-3.22,8.56c-.87,2.31-1.66,4.55-2.36,6.7s-1.47,4.46-2.3,6.94-1.82,5.54-3,9.18c-.17.25-.58.37-1.24.37-1.33,0-2.73-1.07-4.22-3.22s-2.23-3.85-2.23-5.09a9.56,9.56,0,0,1,.37-3Z"/><path d="M354,178.74c-.74,0-1.12-1-1.12-3.11A15.17,15.17,0,0,1,357.3,165,22.74,22.74,0,0,1,368,158.51l5.46-1.73c2.06-.66,4.9-1.53,8.49-2.61a30.37,30.37,0,0,1,9.37-1.49q1.86,0,3.6,4.22a11.36,11.36,0,0,1,.49,3.91q0,2.67-1.8,10.73t-4,18.23q-6.33,27.79-7.44,42.68H396.5q5,.24,5,2.6a8.66,8.66,0,0,1-.74,2.61c-.5,1.24-1,2.52-1.37,3.84-.83,2.73-2.56,4.1-5.21,4.1l-25.92-.87a84.1,84.1,0,0,0-14.33,1.11l-9.18,1.62a27,27,0,0,1-4.53.49c-1.15,0-1.74-.41-1.74-1.24q0-4.59,7.2-9.18t17.74-5.08v-2q0-12.65,7.94-40.93,3.46-12.4,6.57-20.72l-4.46,1.12a42.45,42.45,0,0,0-9.43,4q-5,2.79-6.82,3.78A7.16,7.16,0,0,1,354,178.74Z"/><path d="M429.37,202.8q-5.46-1.74-6.57-5.46A134.91,134.91,0,0,1,428,173.52a51.3,51.3,0,0,1,3-7.81c-2.64.25-4.67.37-6.07.37s-2.11-.41-2.11-1.24c0-1.49.82-3.08,2.48-4.77a25.67,25.67,0,0,1,6.94-4.78q10.17-5,24.82-4.84l25,.37c1.32,0,2,.79,2,2.36a10.12,10.12,0,0,1-.62,2.61c-.42,1.24-.79,2.52-1.12,3.84q-1,4.1-4.22,4.1l-18.85-.87a132,132,0,0,0-15.38,1.24q-1.25,5.21-3.11,11.41t-3.84,14a45.14,45.14,0,0,1,7.63-.5,42.9,42.9,0,0,1,10.79,1.55,28.65,28.65,0,0,1,10.36,5q9.79,7.58,9.8,22.52T465.35,240.7q-10.19,7.62-26.67,7.62a33.22,33.22,0,0,1-20.47-6.69,24.19,24.19,0,0,1-6-6.45,12.31,12.31,0,0,1-2.1-6.14c0-1.78.82-2.67,2.48-2.67a8.71,8.71,0,0,1,4.83,1.55q2.35,1.54,5.09,3.53,6.94,5,13.4,5,9.68,0,14.32-4.72a16.37,16.37,0,0,0,4.66-12q0-18.85-16.38-18.86l-4.59.13Q432.6,202.8,429.37,202.8Z"/></g></svg>
