<svg xmlns="http://www.w3.org/2000/svg" width="600" height="290" viewBox="0 0 600 290"><title>Counter</title><g id="Spilskærm_med_elementer" data-name="Spilskærm med elementer"><path d="M142.89,145.53q-27.49,0-26.94-13.46,0-12.64,25.56-12.65a42.11,42.11,0,0,1,9.9,1.65A51.33,51.33,0,0,0,163,87.81q0-12.65-6.88-19.51t-17.73-6.88q-10.86,0-17.18,1.93-11.53,3.3-18.41,11Q92,87.54,85.44,87.54c-2.39,0-3.57-1.93-3.57-5.78s1.41-8.61,4.26-14.29a55,55,0,0,1,12-15.67q18.15-17,46.73-16.9t44.94,12.78q16.35,12.65,16.36,36.83A54.63,54.63,0,0,1,199,111a67.31,67.31,0,0,1-19.51,22.13q31.34,20.06,31.33,54.42,0,28-26.93,45.63-23.1,14.85-51.68,14.85T83.79,233.22A53.22,53.22,0,0,1,70.6,218.93q-4.68-7.69-4.68-13.61t5.5-5.91a20,20,0,0,1,10.86,3.44q5.35,3.43,11.41,7.83,15.38,11,28,11,22,0,32.71-12t10.72-25.43q0-23.08-11.54-39.85A52.19,52.19,0,0,1,142.89,145.53Z"/><path d="M300.58,100.62a2,2,0,0,1,1.9-1.52c1.78,0,3.93,1.78,6.47,5.33A17.49,17.49,0,0,1,312.66,115q-.09,5.24-10.56,31.78t-14.84,37.78q-4.38,11.22-7.33,19T275,216.71Q273,222,271.37,227t-3.52,10.66q-1.91,5.72-4.57,14.08c-.26.38-.89.57-1.9.57q-3,0-6.47-4.94c-2.29-3.31-3.43-5.9-3.43-7.81a14.83,14.83,0,0,1,.57-4.56Z"/><path d="M334.45,139.45q-1.71,0-1.71-4.76,0-8.94,6.85-16.27a34.91,34.91,0,0,1,16.36-10l8.38-2.67q4.76-1.52,13-4a46.41,46.41,0,0,1,14.37-2.29c1.91,0,3.74,2.16,5.52,6.47a17.3,17.3,0,0,1,.76,6q0,4.1-2.76,16.46t-6.18,28q-9.7,42.63-11.42,65.47h22.07q7.62.38,7.62,4a12.92,12.92,0,0,1-1.15,4c-.76,1.9-1.45,3.87-2.09,5.9q-1.91,6.27-8,6.28l-39.77-1.33a128.42,128.42,0,0,0-22,1.71l-14.09,2.47a41.08,41.08,0,0,1-6.94.76c-1.78,0-2.67-.63-2.67-1.9q0-7,11-14.08t27.22-7.8v-3q0-19.41,12.17-62.8,5.32-19,10.09-31.78l-6.85,1.71a65.74,65.74,0,0,0-14.46,6.19q-7.62,4.27-10.47,5.8A10.84,10.84,0,0,1,334.45,139.45Z"/><path d="M450.16,176.36q-8.39-2.66-10.09-8.37a207.17,207.17,0,0,1,8-36.54,78.79,78.79,0,0,1,4.57-12q-6.09.57-9.33.57c-2.16,0-3.23-.63-3.23-1.9,0-2.28,1.26-4.72,3.81-7.32a39.36,39.36,0,0,1,10.65-7.33q15.6-7.61,38.06-7.42l38.44.57c2,0,3.05,1.21,3.05,3.61a15.35,15.35,0,0,1-1,4q-1,2.85-1.72,5.9-1.53,6.28-6.47,6.28L496,115.09a203.3,203.3,0,0,0-23.6,1.9q-1.91,8-4.76,17.51t-5.9,21.5a70,70,0,0,1,11.7-.76A65.25,65.25,0,0,1,490,157.62a43.75,43.75,0,0,1,15.89,7.71q15,11.61,15,34.54t-15.6,34.63q-15.6,11.7-40.91,11.7A50.93,50.93,0,0,1,433,235.93a36.83,36.83,0,0,1-9.14-9.9q-3.24-5.33-3.23-9.42c0-2.72,1.26-4.09,3.81-4.09a13.38,13.38,0,0,1,7.41,2.38q3.62,2.39,7.81,5.42,10.65,7.62,20.55,7.62,14.85,0,22-7.24t7.14-18.45q0-28.93-25.12-28.93l-7,.19Q455.1,176.36,450.16,176.36Z"/></g></svg>
