<svg id="Figurelementer" xmlns="http://www.w3.org/2000/svg" xmlns:xlink="http://www.w3.org/1999/xlink" width="360" height="740" viewBox="0 0 360 740"><defs><style>.cls-1{fill:#19328b;}.cls-2{fill:url(#radial-gradient);}.cls-3{fill:#fff;}.cls-4{fill:#f99;}</style><radialGradient id="radial-gradient" cx="1864.34" cy="56.62" r="109.29" gradientTransform="matrix(-1, 0, 0, 1, 1999.38, 0)" gradientUnits="userSpaceOnUse"><stop offset="0" stop-color="#19328b"/><stop offset="1" stop-color="#162a40"/></radialGradient></defs><title>Crayon Blue</title><path class="cls-1" d="M134.9,649.93c28.56,12.82,54.64,17.22,59.79,10.31.27-.57.54-1.14.8-1.71A604.52,604.52,0,0,0,252,402.42a604.48,604.48,0,0,0-54-250.59c1.17,4.87-12.32,12.32-30.15,16.66s-33.26,3.9-34.45-1h0a556.55,556.55,0,0,1,26.3,169.61A554.32,554.32,0,0,1,88,610.62l0,0c-.05.08-.09.16-.13.24a1.34,1.34,0,0,0-.12.24C84.12,619.24,105.23,636.61,134.9,649.93Z"/><path class="cls-2" d="M129.5,36.73l67.9,113.72.63,1.38c1.17,4.87-12.32,12.32-30.15,16.66s-33.26,3.9-34.45-1a4.83,4.83,0,0,1-.05-.79Z"/><path d="M231.07,218.91l-27.66,20.92a144.48,144.48,0,0,0,11.42-32.54Z"/><path d="M146,235.14l34,7.05a334,334,0,0,1-24.27-24.51Z"/><polygon class="cls-3" points="255.49 250.29 200.17 256.33 249.56 226.46 255.49 250.29"/><path d="M200.16,257.83a1.5,1.5,0,0,1-.77-2.78l49.39-29.88a1.5,1.5,0,0,1,1.35-.1,1.48,1.48,0,0,1,.88,1L257,249.93a1.51,1.51,0,0,1-.23,1.22,1.48,1.48,0,0,1-1.07.63l-55.32,6Zm48.43-29L206.75,254.1,253.62,249Z"/><polygon points="238.44 247.63 234.32 239.08 228.97 246.92 238.44 247.63"/><path d="M200.16,257.83a1.5,1.5,0,0,1-.77-2.78l54.17-32.77a1.5,1.5,0,1,1,1.56,2.56L206.75,254.1l55.07-6a1.5,1.5,0,0,1,.32,3l-61.81,6.74Z"/><polygon class="cls-3" points="132.22 266.66 187.28 258.49 131.93 242.1 132.22 266.66"/><path d="M132.22,268.16a1.51,1.51,0,0,1-1.5-1.48l-.29-24.57a1.53,1.53,0,0,1,.6-1.21,1.47,1.47,0,0,1,1.33-.24l55.34,16.4a1.5,1.5,0,0,1-.2,2.92l-55.06,8.16Zm1.24-24.05.24,20.81L180.35,258Z"/><polygon points="145.34 260.61 147.16 251.29 154.32 257.53 145.34 260.61"/><path d="M125.77,269.12a1.5,1.5,0,0,1-.22-3l54.8-8.12L126.14,242a1.5,1.5,0,1,1,.86-2.88l60.7,18a1.5,1.5,0,0,1-.2,2.92L126,269.1Z"/><path class="cls-1" d="M242.5,355.37c12.79-2.12,25.81-4.5,38.38-7.3,3.13-.7,6.24-1.45,9.24-2.25,1.49-.41,3-.83,4.33-1.26l1-.33.93-.32,1.37-.51c.27-.11,0,0,0,.16s0,0-.06.08a1.75,1.75,0,0,0-.23.24,3.57,3.57,0,0,0-.41.55c-.06.1-.12.2-.17.3l-.07.14,0,0-.06.13a.7.7,0,0,0,0,.14s0,.07,0,.05l0-.08.18-.36a8,8,0,0,0,.42-.87c.58-1.29,1.16-2.82,1.73-4.3,1.15-3,2.25-6.09,3.35-9.18,4.37-12.43,8.54-25,12.68-37.6s8.21-25.22,12.24-37.86q-2.76,19.71-5.67,39.41c-2,13.14-3.95,26.25-6.18,39.43-.57,3.3-1.15,6.6-1.81,10-.34,1.7-.67,3.35-1.13,5.2-.11.45-.22.9-.4,1.46l-.25.81-.06.2-.13.34-.31.7-.32.69-.09.17-.16.26-.37.53a11.46,11.46,0,0,1-.81,1l-.43.48c-.16.16-.19.18-.3.28a20,20,0,0,1-2,1.62c-.55.39-1.13.79-1.56,1s-1,.61-1.4.84l-1.31.74-1.26.67c-1.68.87-3.28,1.63-4.89,2.39-3.2,1.48-6.36,2.83-9.52,4.13-12.64,5.18-25.14,9.75-38,14.19A13.55,13.55,0,0,1,240.2,356a12.85,12.85,0,0,1,2.15-.56Z"/><path class="cls-1" d="M163.88,391.8a1.32,1.32,0,0,0-.28-.14l-.39-.18-.85-.37-1.79-.73c-1.21-.48-2.45-.95-3.7-1.4-2.51-.9-5.06-1.75-7.64-2.53-5.17-1.57-10.44-2.91-15.75-4a145.78,145.78,0,0,0-16.1-2.3c-2.7-.22-5.4-.38-8.11-.43l-4-.09c-1.36,0-2.72,0-4.09.05a213.65,213.65,0,0,0-33.6,4c-11.25,2.17-22.49,4.89-33.6,8.2q15.24-8.41,31.42-15.32A222.94,222.94,0,0,1,99.06,365c3-.73,6-1.4,9-1.87s6.11-.81,9.17-1.08a164.35,164.35,0,0,1,18.43-.53,183.47,183.47,0,0,1,18.41,1.4c3.06.38,6.12.84,9.2,1.39,1.53.27,3.07.57,4.63.89l2.35.52,1.21.29.63.16.75.2a13.5,13.5,0,1,1-9,25.46Z"/><polygon points="167.09 324.79 235.89 298.99 169.27 283.25 167.09 324.79"/><path d="M160.31,328.83a1.5,1.5,0,0,1-.52-2.9l71-26.62-68.28-16.12a1.5,1.5,0,0,1,.69-2.92l73.08,17.26a1.5,1.5,0,0,1,.18,2.86l-75.58,28.35A1.64,1.64,0,0,1,160.31,328.83Z"/><path d="M167.09,326.29H167a1.49,1.49,0,0,1-1.42-1.58l2.18-41.54a1.53,1.53,0,0,1,1.58-1.42,1.51,1.51,0,0,1,1.42,1.58l-2.19,41.54A1.49,1.49,0,0,1,167.09,326.29Z"/><path class="cls-4" d="M200.81,303c1.19,4.61,2.14,9.28,2.87,14,.6,3.91,1,8,0,11.79a19.61,19.61,0,0,1-6.1,9.42,13.57,13.57,0,0,1-6.18,3.37c-3.53.69-7.18-.75-10.1-2.86-3.21-2.32-5.91-5.67-6.48-9.59a19.64,19.64,0,0,1,1.15-8.46,96.77,96.77,0,0,1,3.68-10.06Z"/></svg>