<svg xmlns="http://www.w3.org/2000/svg" xmlns:xlink="http://www.w3.org/1999/xlink" width="640" height="640" viewBox="0 0 640 640"><defs><style>.cls-1{fill:#006837;}.cls-2{fill:url(#radial-gradient);}.cls-3{fill:url(#radial-gradient-2);}.cls-4{fill:#fff;}.cls-5{fill:#00341c;}</style><radialGradient id="radial-gradient" cx="363.27" cy="76.7" r="131.05" gradientUnits="userSpaceOnUse"><stop offset="0" stop-color="#37785a"/><stop offset="1" stop-color="#004e29"/></radialGradient><radialGradient id="radial-gradient-2" cx="343.19" cy="550.64" r="25.96" gradientTransform="matrix(0.94, -0.33, 0.15, 0.43, -63.09, 426.5)" gradientUnits="userSpaceOnUse"><stop offset="0" stop-color="#10603a"/><stop offset="0.49" stop-color="#06542f"/><stop offset="1" stop-color="#004e29"/></radialGradient></defs><title>Crayons counter</title><g id="Spilskærm_med_elementer" data-name="Spilskærm med elementer"><path class="cls-1" d="M347.27,562c-15,5.38-28.95,4.88-31.62-1.06l-.15-.36v0A669.92,669.92,0,0,1,283.5,184c-1.08,8.78,13.77,20.59,34.39,27,21.15,6.59,40.52,5.08,43.94-3.29a505.53,505.53,0,0,0,8.91,332.64c.05.1.09.21.14.32v0C373.11,547,362.54,556.53,347.27,562Z"/><path class="cls-2" d="M362.28,203.79c0,1,0,1.74,0,2.29v0a5.12,5.12,0,0,1-.1.54,0,0,0,0,1,0,0l-.12.38c-.07.23-.14.45-.23.68-3.42,8.37-22.79,9.88-43.94,3.29-20.62-6.43-35.47-18.24-34.39-27,.06-.32.13-.64.2-1a2.74,2.74,0,0,1,.05-.28h0l2.55-3.7c11.12-16.13,53.5-77.44,73.46-103.9a2.25,2.25,0,0,1,4.05,1.44c-1.71,48.74-1.59,112-1.54,127.17C362.29,203.78,362.29,203.78,362.28,203.79Z"/><path class="cls-3" d="M347.27,562c-15,5.38-28.95,4.88-31.62-1.06l-.15-.36v0c-2.21-6.28,8.35-15.79,23.62-21.28,15-5.39,29-4.88,31.63,1.11.05.1.09.21.14.32v0C373.11,547,362.54,556.53,347.27,562Z"/><polygon class="cls-4" points="352.12 355.47 265.55 311.32 261.75 349.27 352.12 355.47"/><path class="cls-1" d="M352.12,357.56a2.13,2.13,0,0,1-.6-.09L263.18,331a2.09,2.09,0,0,1,1.2-4l88.34,26.48a2.09,2.09,0,0,1-.6,4.09Z"/><path class="cls-1" d="M278.64,352.52h-.21a2.1,2.1,0,0,1-1.87-2.29l3.09-30.86a2.12,2.12,0,0,1,2.29-1.87,2.1,2.1,0,0,1,1.87,2.29l-3.09,30.86A2.09,2.09,0,0,1,278.64,352.52Z"/><path class="cls-1" d="M295.14,353.65h-.21a2.09,2.09,0,0,1-1.87-2.29l2.4-23.93a2.09,2.09,0,0,1,4.15.42l-2.39,23.93A2.09,2.09,0,0,1,295.14,353.65Z"/><path class="cls-1" d="M313,354.88l-.21,0a2.08,2.08,0,0,1-1.87-2.28l1.65-16.43a2.09,2.09,0,1,1,4.15.42L315.08,353A2.1,2.1,0,0,1,313,354.88Z"/><path class="cls-1" d="M352.13,357.56H352l-90.37-6.21a2.08,2.08,0,0,1-1.93-2.29l3.8-37.95a2.07,2.07,0,0,1,1.07-1.62,2.1,2.1,0,0,1,1.95,0l86.57,44.16a2.08,2.08,0,0,1-.94,3.94ZM264,347.34l78,5.35-74.74-38.12Z"/><path class="cls-1" d="M274.62,401.82c-4.6-1.65-8.92-3.32-13.35-5.09s-8.77-3.61-13.15-5.61a124.92,124.92,0,0,1-13.24-6.85l-1.75-1.16-.86-.58a13.16,13.16,0,0,1-1.63-1.31,12.73,12.73,0,0,1-2.16-2.78,17.5,17.5,0,0,1-1.17-2.53,29.52,29.52,0,0,1-1.54-8.44,90.13,90.13,0,0,1,.6-14.65c.53-4.71,1.25-9.34,2.06-13.93,1.66-9.18,3.68-18.22,6-27.16-.41,9.22-.51,18.44-.23,27.58.15,4.57.4,9.12.85,13.59a80.22,80.22,0,0,0,2.15,12.83,16.88,16.88,0,0,0,2,4.83,2.43,2.43,0,0,0,.47.51c.1,0,.18,0,.07-.17a1.62,1.62,0,0,0-.25-.28l.64.24,1.28.49a112.92,112.92,0,0,0,12.33,3.35c4.32,1,8.73,1.81,13.16,2.58s8.94,1.49,13.26,2.08A11.63,11.63,0,1,1,277,402.41a11.81,11.81,0,0,1-2.31-.56Z"/><path class="cls-1" d="M338.53,376c5.76,4.27,11.66,8.54,17.53,12.71s11.84,8.34,17.69,12l2.05,1.21.84.48,1,.41c1.45.54,3.17,1,4.87,1.5,3.42.92,7,1.75,10.48,2.56,7.08,1.62,14.21,3.11,21.36,4.54-7.28.49-14.56.92-21.88,1.22-3.67.15-7.33.27-11.07.28-1.89,0-3.75,0-5.84-.2-.55-.06-1.1-.11-1.66-.2l-1.73-.38c-.62-.13-1-.26-1.52-.4l-1.46-.4C361.81,409.07,355,406.57,348,404s-13.76-5.13-20.66-7.82a11.67,11.67,0,0,1,8.48-21.74A12.6,12.6,0,0,1,338.53,376Z"/><ellipse class="cls-4" cx="292.92" cy="260.93" rx="31.63" ry="15.64" transform="translate(-34.19 477.46) rotate(-75.2)"/><path class="cls-5" d="M282.94,240.47c5.52-8.56,12.39-13.36,18.35-11.78,8.47,2.24,12.19,16.61,9.16,33.35Z"/><ellipse class="cls-4" cx="339.32" cy="269.11" rx="31.63" ry="15.64" transform="matrix(0.14, -0.99, 0.99, 0.14, 24.12, 566.1)"/><path class="cls-5" d="M355.59,251c-2-8.12-6.06-13.68-11.36-14.46-8-1.16-16.37,9-20.43,23.76Z"/><polygon points="328.75 238.2 347.09 222.83 352.45 230.19 328.75 238.2"/><polygon points="315.61 236.23 304.42 215.08 296.68 219.88 315.61 236.23"/><path d="M296.32,273.52l2.57-4.45A1.37,1.37,0,0,0,297.7,267h-5.13a1.37,1.37,0,0,0-1.19,2.05l2.57,4.45A1.37,1.37,0,0,0,296.32,273.52Z"/><path d="M343.61,283.11l2.57-4.45a1.36,1.36,0,0,0-1.18-2.05h-5.14a1.36,1.36,0,0,0-1.18,2.05l2.57,4.45A1.36,1.36,0,0,0,343.61,283.11Z"/></g></svg>