<svg xmlns="http://www.w3.org/2000/svg" xmlns:xlink="http://www.w3.org/1999/xlink" width="2500" height="500" viewBox="0 0 2500 500"><defs><style>.cls-1{fill:#006837;}.cls-2{fill:none;}.cls-3{fill:url(#radial-gradient);}.cls-4{fill:url(#radial-gradient-2);}.cls-5,.cls-7{fill:#fff;}.cls-6{fill:url(#radial-gradient-3);}.cls-7{stroke:#000;stroke-miterlimit:10;stroke-width:2px;}.cls-8{fill:#f99;}</style><radialGradient id="radial-gradient" cx="1771.39" cy="277.94" r="93.69" gradientUnits="userSpaceOnUse"><stop offset="0" stop-color="#10603a"/><stop offset="0.49" stop-color="#06542f"/><stop offset="1" stop-color="#004e29"/></radialGradient><radialGradient id="radial-gradient-2" cx="304.75" cy="41.31" r="82.6" gradientUnits="userSpaceOnUse"><stop offset="0" stop-color="#37785a"/><stop offset="1" stop-color="#004e29"/></radialGradient><radialGradient id="radial-gradient-3" cx="804.63" cy="41.31" r="82.6" gradientTransform="translate(-584.53) scale(1.78 1)" xlink:href="#radial-gradient-2"/></defs><title>crayon-explode1</title><g id="Spilskærm_med_elementer" data-name="Spilskærm med elementer"><path class="cls-1" d="M1275.13,101.47l21.22,70.3c3.64,12,7.31,24.35,7,36.93a195.2,195.2,0,0,1,65.77-47.87,178.73,178.73,0,0,1-50.2,81.71,162.66,162.66,0,0,1,79,16.18q-37.65,18.21-76.59,33.54c-.67-1.75,10.3,6.67,16.44,12.64,19.64,19.07,39.57,38.52,52.76,62.5-43.61-2.2-72.15.62-110-25.74.87,13-10.49,49.67-15.13,56.51a150.07,150.07,0,0,1-46.26-57.27,170.49,170.49,0,0,1-79,61.57,234.13,234.13,0,0,1,32.55-89.33,105.54,105.54,0,0,1-70.61-20.51A175,175,0,0,1,1188,261.69a904.82,904.82,0,0,1-50.14-129.36c21.51,17.95,43.23,36,68.08,49.21,7.8,4.15,20.17,14.35,27.45,5.84,8.52-10,13.08-28.77,18.84-40.73q5.6-11.6,11.42-23.09C1265.48,120,1276.18,105,1275.13,101.47Z"/><rect class="cls-2" x="0.18" width="500" height="500"/><rect class="cls-2" x="500.06" width="500" height="500"/><rect class="cls-2" x="1000" y="1.97" width="500" height="500"/><path class="cls-1" d="M1788.32,22.46l32.36,107.2c5.55,18.38,11.15,37.14,10.68,56.33a297.57,297.57,0,0,1,100.3-73,272.64,272.64,0,0,1-76.56,124.61,248,248,0,0,1,120.45,24.67q-57.4,27.76-116.79,51.15c-1-2.67,15.7,10.18,25.07,19.27,30,29.08,60.34,58.74,80.46,95.32-66.5-3.36-110,.94-167.7-39.25,1.32,19.85-16,75.74-23.08,86.17A229,229,0,0,1,1703,387.58a259.91,259.91,0,0,1-120.49,93.9,357.37,357.37,0,0,1,49.65-136.23A160.89,160.89,0,0,1,1524.45,314a266.82,266.82,0,0,1,131-47.18A1379.27,1379.27,0,0,1,1579,69.52c32.8,27.37,65.93,54.9,103.81,75,11.91,6.34,30.77,21.88,41.87,8.91,13-15.19,19.94-43.87,28.73-62.11q8.53-17.69,17.42-35.22C1773.61,50.69,1789.92,27.78,1788.32,22.46Z"/><path class="cls-3" d="M1865.88,293.71,1821.75,307c-7.57,2.28-15.29,4.59-23.19,4.4a122.57,122.57,0,0,1,30.06,41.29,112.23,112.23,0,0,1-51.31-31.52,102.08,102.08,0,0,1-10.16,49.6q-11.43-23.64-21.06-48.09c1.1-.42-4.19,6.46-7.93,10.32-12,12.33-24.19,24.85-39.25,33.13,1.38-27.38-.38-45.3,16.16-69.05-8.17.54-31.18-6.59-35.48-9.5a94.28,94.28,0,0,1,36-29.05A107,107,0,0,1,1676.89,209,147.19,147.19,0,0,1,1733,229.4a66.24,66.24,0,0,1,12.88-44.33,109.92,109.92,0,0,1,19.43,54,568.57,568.57,0,0,1,81.22-31.48c-11.27,13.51-22.6,27.14-30.9,42.74-2.61,4.91-9,12.67-3.66,17.24,6.25,5.35,18.06,8.21,25.57,11.83q7.27,3.51,14.5,7.17C1854.26,287.66,1863.7,294.38,1865.88,293.71Z"/><rect class="cls-2" x="1500" y="1.97" width="500" height="500"/><rect class="cls-2" x="2000" width="500" height="500"/><path class="cls-1" d="M300.91,450.5c-19.1,8.57-36.54,11.51-40,6.89-.18-.38-.36-.76-.53-1.14a406.86,406.86,0,0,1-1.7-338.85c-.78,3.26,8.24,8.24,20.16,11.14s22.24,2.61,23-.64h0a373.6,373.6,0,0,0,30.34,296.31l0,0a.83.83,0,0,1,.09.16.8.8,0,0,1,.08.16C334.87,430,320.75,441.59,300.91,450.5Z"/><path class="cls-4" d="M304.52,40.43l-45.41,76.05-.42.92c-.78,3.26,8.24,8.24,20.16,11.14s22.24,2.61,23-.64a3.42,3.42,0,0,0,0-.53Z"/><polygon points="282.28 232.21 234.3 221.59 276.93 204.91 282.28 232.21"/><path d="M287.33,165.1l-20,11.7a96.49,96.49,0,0,0,10.17-20.71Z"/><path d="M241.18,158.13l16.7,16.09a224.22,224.22,0,0,1-5-22.51Z"/><polygon class="cls-5" points="245.37 217.26 245.37 220.59 278.85 214.7 276.93 204.91 245.37 217.26"/><polygon class="cls-5" points="247.46 224.5 247.46 222.33 280 220.59 282.28 232.21 247.46 224.5"/><path d="M287,234.26l-.22,0-52.7-11.67a1,1,0,0,1-.78-.91,1,1,0,0,1,.63-1l46.77-18.29a1,1,0,1,1,.73,1.87l-43.7,17.09,49.49,11a1,1,0,0,1-.22,2Z"/><polygon class="cls-5" points="301.33 190.12 264.2 187.63 300.21 173.73 301.33 190.12"/><path d="M301.33,191.12h-.07l-37.13-2.49a1,1,0,0,1-.3-1.94l36-13.89a1,1,0,0,1,.9.09,1,1,0,0,1,.46.77l1.12,16.39a1,1,0,0,1-1,1.07Zm-32.54-4.19L300.25,189l-.95-13.88Z"/><polygon points="285.84 187.29 284.13 181.18 279.69 185.72 285.84 187.29"/><path d="M305.69,191.42h-.07l-41.49-2.78a1,1,0,0,1-.3-1.94l39.51-15.24a1,1,0,0,1,.72,1.87l-35.27,13.61,37,2.48a1,1,0,0,1-.06,2Z"/><polygon class="cls-5" points="219.42 177.26 255.65 185.79 225.31 161.93 219.42 177.26"/><path d="M255.65,186.79l-.23,0-36.23-8.53a1,1,0,0,1-.65-.51,1,1,0,0,1,0-.83l5.89-15.33a1,1,0,0,1,1.55-.43L256.27,185a1,1,0,0,1-.62,1.79Zm-34.88-10.24,30.7,7.22-25.71-20.22Z"/><polygon points="235.41 179.2 238.85 173.86 241.76 179.5 235.41 179.2"/><path d="M255.65,186.79l-.23,0L215,177.24a1,1,0,1,1,.46-2l36.06,8.49L221.75,160.4a1,1,0,1,1,1.24-1.58L256.27,185a1,1,0,0,1-.62,1.79Z"/><path d="M282.28,233.22a1,1,0,0,1-1-.81L276,205.11a1,1,0,1,1,2-.39l5.35,27.3a1,1,0,0,1-.79,1.18Z"/><path class="cls-1" d="M279.6,253.51c8.55-1.41,17.26-3,25.66-4.87,2.1-.48,4.18-1,6.19-1.51,1-.27,2-.55,2.89-.84l.68-.22.61-.22.92-.34c.18-.07,0,0,0,.11s0,0,0,0l-.16.16a3.18,3.18,0,0,0-.27.37,2.12,2.12,0,0,0-.12.2l0,.09v0a.36.36,0,0,0,0,.09.29.29,0,0,0,0,.1s0,0,0,0l0-.06.12-.24c.08-.13.18-.36.28-.58.39-.86.78-1.88,1.16-2.87.76-2,1.51-4.08,2.24-6.14,2.92-8.31,5.71-16.73,8.48-25.15s5.49-16.86,8.18-25.31q-1.85,13.17-3.79,26.35c-1.31,8.78-2.64,17.56-4.13,26.37-.38,2.21-.77,4.41-1.21,6.66-.23,1.13-.45,2.24-.76,3.47-.07.31-.14.61-.26,1l-.17.53,0,.14-.09.22-.2.47-.22.46-.06.12-.11.17-.24.36c-.17.23-.35.46-.54.68l-.3.33-.19.18a13,13,0,0,1-1.32,1.09c-.37.26-.76.52-1.05.7s-.65.41-.93.56l-.88.5-.84.44c-1.12.59-2.19,1.1-3.27,1.6-2.14,1-4.25,1.89-6.37,2.77C300.93,265,292.57,268.05,284,271a9.07,9.07,0,0,1-5.94-17.13,9.52,9.52,0,0,1,1.44-.37Z"/><path class="cls-1" d="M217,262.46a1.57,1.57,0,0,0,0-.2l-.07-.29-.15-.6-.34-1.24c-.24-.84-.5-1.69-.77-2.54q-.81-2.55-1.76-5.09c-1.27-3.37-2.71-6.71-4.32-10a95.75,95.75,0,0,0-5.34-9.47c-1-1.52-2-3-3.07-4.48l-1.6-2.18c-.56-.72-1.11-1.45-1.69-2.16A143.5,143.5,0,0,0,182,208.08c-5.73-5.09-11.75-9.94-18-14.49q10.67,4.66,20.92,10.43a150.06,150.06,0,0,1,19.92,13.13c1.58,1.27,3.18,2.61,4.68,4s2.91,2.91,4.3,4.43a108.27,108.27,0,0,1,7.79,9.56c2.42,3.32,4.66,6.77,6.75,10.33,1,1.78,2,3.59,3,5.45q.72,1.38,1.41,2.82l.68,1.46.34.76.18.4c.06.14.1.25.19.48A9,9,0,1,1,217,262.46Z"/><path class="cls-1" d="M840.32,450.5c-34,8.57-65,11.51-71.14,6.89l-.95-1.14C725.06,404.21,701,346.18,701,285c0-59.76,23-116.49,64.26-167.58-1.4,3.26,14.66,8.24,35.87,11.14s39.58,2.61,41-.64h0c-20.33,35.77-31.3,73.87-31.3,113.43,0,66.46,31,128.86,85.28,182.88l0,0a1.14,1.14,0,0,1,.15.16.52.52,0,0,1,.14.16C900.75,430,875.63,441.59,840.32,450.5Z"/><path class="cls-6" d="M846.75,40.43,766,116.48l-.75.92c-1.4,3.26,14.66,8.24,35.87,11.14s39.58,2.61,41-.64a1.75,1.75,0,0,0,.06-.53Z"/><path d="M830.48,171.8l-36.94-10.35a300.59,300.59,0,0,0,40.73-2.84Z"/><path d="M712.67,155.14l40.79-3.53s-18.39-4-37.26-9.67Z"/><polygon class="cls-5" points="839 191.25 774.46 182.92 841.63 174.89 839 191.25"/><path d="M838.72,192.24l-.12,0-64.54-8.32c-.82-.11-1.4-.52-1.39-1s.6-.88,1.41-1l67.18-8a2.85,2.85,0,0,1,1.56.24c.42.21.64.52.59.84l-2.63,16.36a1.08,1.08,0,0,1-.73.72A3.07,3.07,0,0,1,838.72,192.24Zm-56-9.29L837.41,190l2.23-13.86Z"/><polygon points="812.58 186.01 811.29 179.7 802.21 183.48 812.58 186.01"/><path d="M846.29,193.21h-.12l-72.11-9.3c-.82-.11-1.4-.52-1.39-1s.6-.88,1.41-1l73.69-8.81c1-.12,1.91.23,2.12.77s-.41,1.07-1.37,1.19L782.72,183,847,191.24c1,.13,1.56.67,1.34,1.21A2,2,0,0,1,846.29,193.21Z"/><polygon class="cls-5" points="697.24 183.16 763.34 180.84 699.38 166.78 697.24 183.16"/><path d="M763.85,181.8a2.57,2.57,0,0,1-.4,0l-66.1,2.32a2.76,2.76,0,0,1-1.38-.3.84.84,0,0,1-.51-.78l2.14-16.38c0-.32.34-.61.82-.78a3,3,0,0,1,1.61-.08l64,14.06c.78.17,1.24.62,1.11,1.09S764.5,181.69,763.85,181.8Zm-64.68.29,56-2L701,168.21Z"/><polygon points="725.48 180.39 728.57 174.29 736.43 178.85 725.48 180.39"/><path d="M763.85,181.8a2.57,2.57,0,0,1-.4,0l-73.85,2.59c-1,0-1.83-.39-1.89-.94s.69-1,1.67-1.06l65.79-2.31-62.64-13.78c-.92-.2-1.37-.78-1-1.3a2.41,2.41,0,0,1,2.32-.56L764,179.91c.78.17,1.24.62,1.11,1.09S764.5,181.69,763.85,181.8Z"/><path class="cls-1" d="M802.41,253.51c14,6,28.4,12.05,42.43,17.56,3.51,1.37,7,2.7,10.39,3.94,1.68.61,3.36,1.21,4.92,1.72l1.16.39,1.07.34,1.6.48c.32.09,0,0,0,.1s0,0-.08,0h-.33a5.06,5.06,0,0,0-.6.09l-.27.08-.12,0h0l-.1.05-.09.06s0,0,0,0l.08,0,.31-.1a6.4,6.4,0,0,0,.71-.28c1-.43,2.11-1,3.18-1.53,2.16-1.12,4.31-2.3,6.44-3.49,8.53-4.81,16.92-9.83,25.27-14.87S915,248,923.21,242.86q-9.19,10-18.54,19.91c-6.25,6.6-12.52,13.18-19.07,19.64-1.65,1.62-3.31,3.23-5.07,4.82-.9.8-1.77,1.59-2.85,2.41a10.26,10.26,0,0,1-.88.64l-.52.33-.13.08-.24.12-.54.24-.57.22-.14.05-.25.06-.56.11c-.37.06-.77.11-1.17.14l-.61,0h-.4c-.9,0-2-.09-2.58-.17s-1.43-.18-2-.28-1.21-.19-1.73-.29l-1.6-.32-1.53-.32c-2-.44-4-.91-5.88-1.38-3.82-1-7.55-2-11.27-3-14.86-4.16-29.38-8.59-44.2-13.27-8.17-2.59-15-9.18-15.35-14.73s6.08-8,14.26-5.37c.82.26,1.63.57,2.43.9Z"/><path class="cls-1" d="M691.66,275.89s-.11-.08-.18-.13l-.27-.15-.57-.32-1.24-.62c-.84-.41-1.72-.81-2.62-1.2q-2.68-1.16-5.58-2.15A95.74,95.74,0,0,0,669.06,268a104.13,104.13,0,0,0-13.29-1.8c-2.31-.15-4.66-.26-7.06-.25l-3.59,0c-1.23,0-2.44,0-3.7.11a237,237,0,0,0-32.2,4.14c-11.21,2.13-22.68,4.73-34.32,7.87q17.93-7.77,36-14.21a337.7,337.7,0,0,1,36.16-11c3-.69,6.09-1.35,9.07-1.82s5.89-.82,8.78-1.11a156.33,156.33,0,0,1,16.81-.76,147.24,147.24,0,0,1,15.82,1q3.84.43,7.56,1.1c1.24.22,2.47.46,3.7.73l1.86.42.94.24.48.13.57.18c5.06,2.11,4.47,9-1.32,15.29S696.71,278,691.66,275.89Z"/><ellipse class="cls-7" cx="767.46" cy="221.99" rx="64.32" ry="13.94"/><path class="cls-8" d="M781.44,225.86c0,2.08-6.26,4.54-14,4.54s-14-2.46-14-4.54,6.26-7.17,14-7.17S781.44,223.78,781.44,225.86Z"/><ellipse class="cls-5" cx="767.46" cy="218.69" rx="10.39" ry="2.99"/></g></svg>
