<svg id="Figurelementer" xmlns="http://www.w3.org/2000/svg" xmlns:xlink="http://www.w3.org/1999/xlink" width="360" height="740" viewBox="0 0 360 740"><defs><style>.cls-1{fill:#fbed21;}.cls-2{fill:url(#radial-gradient);}.cls-3{fill:url(#radial-gradient-2);}.cls-4{fill:#fff;}</style><radialGradient id="radial-gradient" cx="233.67" cy="106.23" r="138.95" gradientUnits="userSpaceOnUse"><stop offset="0" stop-color="#fbed21"/><stop offset="1" stop-color="#bbb119"/></radialGradient><radialGradient id="radial-gradient-2" cx="212.38" cy="608.74" r="27.53" gradientTransform="matrix(0.94, -0.33, 0.15, 0.43, -78.97, 416.78)" gradientUnits="userSpaceOnUse"><stop offset="0" stop-color="#fbed21"/><stop offset="1" stop-color="#d6ca1d"/></radialGradient></defs><title>Crayon Yellow</title><path class="cls-1" d="M208.36,390.53a2.11,2.11,0,0,0,.28.21l.38.27.83.56,1.73,1.14c1.18.75,2.39,1.49,3.62,2.22,2.45,1.47,5,2.88,7.51,4.22,5.11,2.7,10.38,5.17,15.75,7.36a156.44,156.44,0,0,0,16.44,5.68c2.79.78,5.61,1.51,8.44,2.1l4.24.92c1.43.26,2.85.55,4.31.77a227.08,227.08,0,0,0,36,2.54c12.22,0,24.53-.58,36.82-1.8q-17.72,5.49-36.07,9.22A241.21,241.21,0,0,1,271,430.86c-3.23.12-6.53.17-9.81,0s-6.52-.46-9.77-.83a172.35,172.35,0,0,1-19.28-3.37q-9.55-2.21-18.86-5.37-4.65-1.57-9.26-3.4c-1.54-.61-3.08-1.24-4.63-1.91l-2.33-1-1.19-.55-.62-.3c-.23-.11-.39-.19-.72-.37L179,405.41a20,20,0,1,1,29.32-14.88Z"/><path class="cls-1" d="M148.16,417.55c-.38,0-.56,0-.81,0l-.69,0-1.31-.09-2.54-.22c-1.68-.16-3.33-.35-5-.56-3.29-.42-6.53-.92-9.76-1.51q-9.68-1.74-19.1-4.41a175.82,175.82,0,0,1-18.51-6.38c-3-1.25-6-2.55-9-4s-5.81-3.09-8.58-4.75a239.36,239.36,0,0,1-30.55-22.51Q28.14,360.9,15.27,347.54c10.16,7,20.66,13.47,31.36,19.39a228.28,228.28,0,0,0,32.75,15.19c1.38.51,2.77.95,4.15,1.41l4.15,1.25c2.77.85,5.58,1.57,8.4,2.24a155.48,155.48,0,0,0,17.14,3c5.77.68,11.57,1.06,17.34,1.17q4.33.09,8.63-.06c1.42,0,2.84-.11,4.24-.2l2.06-.15,1-.09.46-.05.35-.05a20,20,0,1,1,18.5,27.21Z"/><path class="cls-1" d="M216.71,620.79c-15.9,5.71-30.7,5.17-33.54-1.12,0-.13-.1-.25-.14-.38s0,0,0,0A710.38,710.38,0,0,1,149.09,220c-1.14,9.31,14.6,21.83,36.46,28.65,22.43,7,43,5.38,46.6-3.49a535.88,535.88,0,0,0,9.44,352.69,1.73,1.73,0,0,1,.14.34v0C244.1,604.87,232.89,615,216.71,620.79Z"/><path class="cls-2" d="M232.62,241c0,1,0,1.85,0,2.43v0a5.72,5.72,0,0,1-.11.57,0,0,0,0,1,0,0c0,.14-.09.27-.13.41s-.15.48-.23.72c-3.64,8.87-24.17,10.47-46.6,3.49-21.86-6.82-37.6-19.34-36.46-28.65.06-.34.14-.68.21-1a2.5,2.5,0,0,1,0-.29h0c.38-.55,1.32-1.9,2.71-3.93,11.79-17.1,56.73-82.11,77.89-110.16a2.38,2.38,0,0,1,4.29,1.52c-1.81,51.68-1.68,118.78-1.63,134.84C232.63,241,232.63,241,232.62,241Z"/><path class="cls-3" d="M216.71,620.79c-15.9,5.71-30.7,5.17-33.54-1.12,0-.13-.1-.25-.14-.38s0,0,0,0c-2.34-6.66,8.85-16.74,25-22.56,15.92-5.71,30.76-5.17,33.54,1.18a1.73,1.73,0,0,1,.14.34v0C244.1,604.87,232.89,615,216.71,620.79Z"/><path d="M219.12,305.53l-33.21,10.61s4.46-12.69,21.68-27.06Z"/><path d="M129.93,301.61l32.76,11.95s-4.94-14.39-20.57-27.91Z"/><polygon class="cls-4" points="224.76 354.81 177.32 330.69 234.13 318.85 224.76 354.81"/><path d="M224.76,356.31a1.52,1.52,0,0,1-.68-.17L176.64,332a1.5,1.5,0,0,1,.38-2.8l56.8-11.85a1.51,1.51,0,0,1,1.76,1.85l-9.36,36a1.54,1.54,0,0,1-.84,1A1.68,1.68,0,0,1,224.76,356.31Zm-42.95-25,42,21.34,8.29-31.82Z"/><polygon points="220.64 341.51 219.59 332.02 211.9 337.67 220.64 341.51"/><path d="M232.12,360a1.51,1.51,0,0,1-.68-.16L176.64,332a1.5,1.5,0,0,1,.38-2.8l62.31-13a1.5,1.5,0,0,1,.61,2.94l-58.13,12.12,51,25.92a1.5,1.5,0,0,1-.68,2.83Z"/><polygon class="cls-4" points="115.78 339.11 167.57 330.83 114.9 306.48 115.78 339.11"/><path d="M115.78,340.61a1.49,1.49,0,0,1-1.5-1.46l-.88-32.63a1.5,1.5,0,0,1,2.13-1.4l52.67,24.35a1.5,1.5,0,0,1-.39,2.85L116,340.59A.93.93,0,0,1,115.78,340.61Zm.69-31.76.76,28.51,45.24-7.23Z"/><polygon points="120.55 331.8 123.71 322.8 129.93 330.04 120.55 331.8"/><path d="M107.3,342a1.51,1.51,0,0,1-.24-3l55.41-8.85-53.3-24.65a1.5,1.5,0,0,1,1.26-2.72l57.77,26.71a1.5,1.5,0,0,1-.39,2.85L107.53,342Z"/><polygon points="153.72 392.95 207.82 381.21 149.17 357.99 153.72 392.95"/><path d="M153.72,394.45a1.5,1.5,0,0,1-1.49-1.31l-4.55-35a1.5,1.5,0,0,1,3-.39l4.55,35a1.51,1.51,0,0,1-1.3,1.68Z"/><polygon class="cls-4" points="155.58 360.52 156.17 376.16 164.46 364.04 155.58 360.52"/><polygon class="cls-4" points="175.23 368.3 190.52 374.36 176.65 382.24 175.23 368.3"/><polygon class="cls-4" points="161.1 391.35 173.73 388.61 166.85 377.33 161.1 391.35"/><path d="M142.18,397a1.5,1.5,0,0,1-.31-3l60.82-13.2-73.95-29.28a1.5,1.5,0,1,1,1.1-2.79l78.53,31.1a1.49,1.49,0,0,1,.95,1.51,1.52,1.52,0,0,1-1.18,1.35L142.5,396.92A1.66,1.66,0,0,1,142.18,397Z"/></svg>