<svg xmlns="http://www.w3.org/2000/svg" xmlns:xlink="http://www.w3.org/1999/xlink" width="2500" height="500" viewBox="0 0 2500 500"><defs><style>.cls-1{fill:#fbed21;}.cls-2{fill:none;}.cls-3{fill:url(#radial-gradient);}.cls-4{fill:url(#radial-gradient-2);}.cls-5{fill:url(#radial-gradient-3);}.cls-6,.cls-9{fill:#fff;}.cls-7{fill:url(#radial-gradient-4);}.cls-8{fill:url(#radial-gradient-5);}.cls-9{stroke:#000;stroke-miterlimit:10;stroke-width:2px;}.cls-10{fill:#f99;}</style><radialGradient id="radial-gradient" cx="1771.39" cy="277.94" r="93.69" gradientUnits="userSpaceOnUse"><stop offset="0" stop-color="#fbed21"/><stop offset="1" stop-color="#d6ca1d"/></radialGradient><radialGradient id="radial-gradient-2" cx="292.38" cy="48.22" r="109.28" gradientUnits="userSpaceOnUse"><stop offset="0" stop-color="#fbed21"/><stop offset="1" stop-color="#bbb119"/></radialGradient><radialGradient id="radial-gradient-3" cx="275.64" cy="443.44" r="21.65" gradientTransform="matrix(0.94, -0.33, 0.15, 0.43, -50.85, 343.22)" xlink:href="#radial-gradient"/><radialGradient id="radial-gradient-4" cx="792.27" cy="47.67" r="109.28" gradientTransform="translate(-421.97) scale(1.56 1)" xlink:href="#radial-gradient-2"/><radialGradient id="radial-gradient-5" cx="775.53" cy="442.89" r="21.65" gradientTransform="matrix(1.48, -0.33, 0.23, 0.43, -458.2, 506.68)" xlink:href="#radial-gradient"/></defs><title>crayon-explode2</title><g id="Spilskærm_med_elementer" data-name="Spilskærm med elementer"><path class="cls-1" d="M1275.13,101.47l21.22,70.3c3.64,12,7.31,24.35,7,36.93a195.2,195.2,0,0,1,65.77-47.87,178.73,178.73,0,0,1-50.2,81.71,162.66,162.66,0,0,1,79,16.18q-37.65,18.21-76.59,33.54c-.67-1.75,10.3,6.67,16.44,12.64,19.64,19.07,39.57,38.52,52.76,62.5-43.61-2.2-72.15.62-110-25.74.87,13-10.49,49.67-15.13,56.51a150.07,150.07,0,0,1-46.26-57.27,170.49,170.49,0,0,1-79,61.57,234.13,234.13,0,0,1,32.55-89.33,105.54,105.54,0,0,1-70.61-20.51A175,175,0,0,1,1188,261.69a904.82,904.82,0,0,1-50.14-129.36c21.51,17.95,43.23,36,68.08,49.21,7.8,4.15,20.17,14.35,27.45,5.84,8.52-10,13.08-28.77,18.84-40.73q5.6-11.6,11.42-23.09C1265.48,120,1276.18,105,1275.13,101.47Z"/><rect class="cls-2" x="0.18" y="1.11" width="500" height="500"/><rect class="cls-2" x="500.06" y="0.56" width="500" height="500"/><rect class="cls-2" x="1000" y="1.97" width="500" height="500"/><path class="cls-1" d="M1788.32,22.46l32.36,107.2c5.55,18.38,11.15,37.14,10.68,56.33a297.57,297.57,0,0,1,100.3-73,272.64,272.64,0,0,1-76.56,124.61,248,248,0,0,1,120.45,24.67q-57.4,27.76-116.79,51.15c-1-2.67,15.7,10.18,25.07,19.27,30,29.08,60.34,58.74,80.46,95.32-66.5-3.36-110,.94-167.7-39.25,1.32,19.85-16,75.74-23.08,86.17A229,229,0,0,1,1703,387.58a259.91,259.91,0,0,1-120.49,93.9,357.37,357.37,0,0,1,49.65-136.23A160.89,160.89,0,0,1,1524.45,314a266.82,266.82,0,0,1,131-47.18A1379.27,1379.27,0,0,1,1579,69.52c32.8,27.37,65.93,54.9,103.81,75,11.91,6.34,30.77,21.88,41.87,8.91,13-15.19,19.94-43.87,28.73-62.11q8.53-17.69,17.42-35.22C1773.61,50.69,1789.92,27.78,1788.32,22.46Z"/><path class="cls-3" d="M1865.88,293.71,1821.75,307c-7.57,2.28-15.29,4.59-23.19,4.4a122.57,122.57,0,0,1,30.06,41.29,112.23,112.23,0,0,1-51.31-31.52,102.08,102.08,0,0,1-10.16,49.6q-11.43-23.64-21.06-48.09c1.1-.42-4.19,6.46-7.93,10.32-12,12.33-24.19,24.85-39.25,33.13,1.38-27.38-.38-45.3,16.16-69.05-8.17.54-31.18-6.59-35.48-9.5a94.28,94.28,0,0,1,36-29.05A107,107,0,0,1,1676.89,209,147.19,147.19,0,0,1,1733,229.4a66.24,66.24,0,0,1,12.88-44.33,109.92,109.92,0,0,1,19.43,54,568.57,568.57,0,0,1,81.22-31.48c-11.27,13.51-22.6,27.14-30.9,42.74-2.61,4.91-9,12.67-3.66,17.24,6.25,5.35,18.06,8.21,25.57,11.83q7.27,3.51,14.5,7.17C1854.26,287.66,1863.7,294.38,1865.88,293.71Z"/><rect class="cls-2" x="1500" y="1.97" width="500" height="500"/><rect class="cls-2" x="2000" width="500" height="500"/><path class="cls-1" d="M272.48,271.82a1,1,0,0,0,.22.17l.3.21.65.44,1.37.89c.92.6,1.87,1.18,2.84,1.76q2.89,1.72,5.91,3.32c4,2.12,8.16,4.06,12.39,5.78a120.39,120.39,0,0,0,12.93,4.47c2.19.61,4.4,1.19,6.63,1.65l3.33.72c1.13.21,2.25.44,3.4.61a179.66,179.66,0,0,0,28.33,2c9.61,0,19.29-.46,29-1.42q-13.94,4.32-28.38,7.25a188.34,188.34,0,0,1-29.59,3.87c-2.54.1-5.14.14-7.71,0s-5.13-.36-7.68-.65a138.65,138.65,0,0,1-15.17-2.65q-7.51-1.74-14.83-4.22-3.66-1.25-7.29-2.68c-1.21-.48-2.42-1-3.64-1.5l-1.83-.82-.94-.43-.49-.24-.56-.29-12.21-6.54a15.76,15.76,0,1,1,23.06-11.71Z"/><path class="cls-1" d="M225.13,293.08l-.63,0-.54,0-1-.07-2-.17c-1.32-.13-2.62-.28-3.91-.45-2.59-.32-5.14-.72-7.68-1.18a153.48,153.48,0,0,1-15-3.47,139,139,0,0,1-14.56-5c-2.37-1-4.73-2-7-3.14s-4.57-2.43-6.74-3.74a188.3,188.3,0,0,1-24-17.7q-11.2-9.57-21.33-20.07c8,5.52,16.25,10.6,24.66,15.25A179.43,179.43,0,0,0,171,265.21c1.09.4,2.18.74,3.27,1.11l3.26,1c2.18.67,4.39,1.24,6.61,1.76a120.18,120.18,0,0,0,13.48,2.34c4.53.54,9.09.84,13.64.93,2.27,0,4.53,0,6.78-.05,1.12,0,2.23-.08,3.33-.16L223,272l.78-.07.37,0,.27,0A15.76,15.76,0,1,1,239,293.25Z"/><path class="cls-1" d="M279.05,452.92c-12.51,4.49-24.15,4.07-26.38-.88,0-.1-.08-.2-.11-.3v0a558.7,558.7,0,0,1-26.69-314c-.89,7.32,11.49,17.17,28.68,22.53,17.64,5.5,33.79,4.24,36.65-2.74a421.43,421.43,0,0,0,7.43,277.38c0,.09.08.18.11.27s0,0,0,0C300.59,440.4,291.78,448.35,279.05,452.92Z"/><path class="cls-4" d="M291.56,154.21c0,.8,0,1.45,0,1.91v0a3.58,3.58,0,0,1-.09.45v0l-.11.32q-.08.28-.18.57c-2.86,7-19,8.24-36.65,2.74C237.35,154.88,225,145,225.86,137.71c0-.27.11-.54.17-.8,0-.08,0-.15,0-.23h0l2.13-3.08c9.28-13.46,44.61-64.59,61.26-86.65a1.88,1.88,0,0,1,3.38,1.2c-1.43,40.65-1.33,93.42-1.29,106.05C291.57,154.2,291.57,154.2,291.56,154.21Z"/><path class="cls-5" d="M279.05,452.92c-12.51,4.49-24.15,4.07-26.38-.88,0-.1-.08-.2-.11-.3v0c-1.85-5.25,7-13.17,19.69-17.75,12.52-4.49,24.19-4.07,26.38.92,0,.09.08.18.11.27s0,0,0,0C300.59,440.4,291.78,448.35,279.05,452.92Z"/><path d="M281,205l-26.13,8.34s3.51-10,17.06-21.27Z"/><path d="M210.8,201.89l25.76,9.4s-3.88-11.32-16.18-22Z"/><polygon class="cls-6" points="285.38 243.73 248.07 224.76 292.75 215.45 285.38 243.73"/><path d="M285.38,244.91a1.25,1.25,0,0,1-.53-.13l-37.31-19a1.18,1.18,0,0,1,.29-2.21l44.68-9.32a1.19,1.19,0,0,1,1.09.34,1.21,1.21,0,0,1,.29,1.12L286.52,244a1.17,1.17,0,0,1-.65.77A1.21,1.21,0,0,1,285.38,244.91ZM251.6,225.23l33,16.78,6.52-25Z"/><polygon points="282.14 233.27 281.32 225.81 275.27 230.25 282.14 233.27"/><path d="M291.17,247.85a1.16,1.16,0,0,1-.54-.13l-43.09-21.9a1.18,1.18,0,0,1,.29-2.21l49-10.22a1.18,1.18,0,0,1,.48,2.31l-45.72,9.53,40.1,20.39a1.18,1.18,0,0,1-.53,2.23Z"/><polygon class="cls-6" points="199.67 231.38 240.4 224.87 198.98 205.72 199.67 231.38"/><path d="M199.67,232.56a1.18,1.18,0,0,1-.76-.27,1.19,1.19,0,0,1-.42-.88l-.69-25.66a1.17,1.17,0,0,1,1.67-1.1L240.9,223.8a1.18,1.18,0,0,1-.31,2.24l-40.74,6.51Zm.54-25,.6,22.42,35.58-5.69Z"/><polygon points="203.42 225.63 205.91 218.55 210.8 224.25 203.42 225.63"/><path d="M193,233.63a1.18,1.18,0,0,1-.19-2.35l43.58-7-41.92-19.39a1.18,1.18,0,0,1-.58-1.56,1.19,1.19,0,0,1,1.57-.58l45.44,21a1.18,1.18,0,0,1-.31,2.24l-47.41,7.57Z"/><polygon points="229.51 273.73 272.06 264.49 225.93 246.23 229.51 273.73"/><path d="M229.51,274.91a1.18,1.18,0,0,1-1.17-1l-3.58-27.5a1.18,1.18,0,0,1,2.34-.3l3.58,27.5a1.19,1.19,0,0,1-1,1.32Z"/><polygon class="cls-6" points="230.97 248.22 231.44 260.52 237.96 250.99 230.97 248.22"/><polygon class="cls-6" points="246.42 254.34 258.45 259.1 247.54 265.3 246.42 254.34"/><polygon class="cls-6" points="235.31 272.47 245.25 270.31 239.83 261.44 235.31 272.47"/><path d="M220.43,276.88a1.18,1.18,0,0,1-.24-2.34L268,264.16l-58.16-23a1.18,1.18,0,0,1,.87-2.19l61.76,24.46a1.15,1.15,0,0,1,.74,1.19,1.17,1.17,0,0,1-.92,1.06l-51.62,11.2A1.15,1.15,0,0,1,220.43,276.88Z"/><path class="cls-1" d="M780.77,252.64a1.67,1.67,0,0,0,.37-.06l.5-.11,1.08-.24,2.25-.54c1.52-.38,3.06-.79,4.62-1.22,3.11-.85,6.26-1.78,9.41-2.78,6.32-2,12.69-4.26,19-6.77s12.68-5.29,18.94-8.34c3.13-1.54,6.26-3.12,9.34-4.8l4.63-2.5c1.54-.87,3.09-1.72,4.63-2.64a436.29,436.29,0,0,0,36.89-24.55c12.11-8.89,24-18.19,35.66-27.9q-15,16.35-31.47,32.06a456.28,456.28,0,0,1-35,30.45c-3.14,2.42-6.4,4.86-9.72,7.13s-6.68,4.45-10.07,6.58c-6.78,4.23-13.7,8.18-20.68,11.87s-14.06,7.11-21.19,10.29q-5.34,2.39-10.77,4.57-2.72,1.1-5.47,2.15l-2.79,1-1.44.52-.75.26-.89.29-19.25,6c-12.1,3.76-21.38-1.28-20.73-11.27s11-21.14,23.09-24.91C770.4,244.28,778.12,246.72,780.77,252.64Z"/><path class="cls-1" d="M721.42,301.64c-.43.19-.64.27-.92.38l-.79.31-1.5.59L715.28,304c-1.94.72-3.86,1.4-5.77,2.06-3.83,1.32-7.64,2.56-11.46,3.74q-11.43,3.53-22.88,6.26c-7.63,1.82-15.26,3.36-22.85,4.56-3.79.6-7.57,1.14-11.33,1.55s-7.52.65-11.16.82a324,324,0,0,1-41.5-1.1q-19.87-1.71-38.58-5c13.65,0,27.51-.51,41.41-1.54a372.71,372.71,0,0,0,41.67-5.26c1.71-.32,3.41-.69,5.11-1L643,308c3.38-.76,6.77-1.63,10.15-2.54,6.77-1.85,13.53-4,20.23-6.33s13.35-4.95,19.88-7.73c3.27-1.39,6.51-2.83,9.68-4.31,1.59-.73,3.17-1.48,4.71-2.24l2.28-1.13,1.09-.56.51-.27.37-.2c1.18-9.4,12.58-18.86,25.46-21.12s22.37,3.53,21.19,12.93c-.92,7.31-8,14.66-17.22,18.63Z"/><path class="cls-1" d="M795.17,452.37c-19.53,4.48-37.72,4.06-41.21-.89-.06-.1-.13-.2-.18-.3s0,0,0,0C715.49,388.5,694.47,320.3,694.47,249a365.94,365.94,0,0,1,17.6-111.81c-1.4,7.32,17.95,17.16,44.82,22.53,27.55,5.49,52.79,4.23,57.26-2.74C793.94,197.32,783,240.36,783,285c0,52.59,15.12,102.91,42.73,149.3a1.78,1.78,0,0,1,.17.27h0C828.84,439.85,815.07,447.8,795.17,452.37Z"/><path class="cls-7" d="M814.73,153.65c0,.81,0,1.45,0,1.91v0a3.81,3.81,0,0,1-.13.45s0,0,0,0l-.15.32c-.09.19-.19.37-.29.57-4.47,7-29.71,8.23-57.26,2.74-26.87-5.37-46.22-15.21-44.82-22.53.08-.27.17-.54.26-.81a2,2,0,0,1,.07-.23h0l3.33-3.09c14.49-13.45,69.71-64.58,95.72-86.65,1.73-1.46,5.38-.63,5.28,1.2-2.23,40.65-2.08,93.42-2,106.05C814.74,153.64,814.74,153.64,814.73,153.65Z"/><path class="cls-8" d="M795.17,452.37c-19.53,4.48-37.72,4.06-41.21-.89-.06-.1-.13-.2-.18-.3s0,0,0,0c-2.89-5.24,10.87-13.17,30.76-17.75,19.57-4.49,37.81-4.06,41.23.93a1.78,1.78,0,0,1,.17.27h0C828.84,439.85,815.07,447.8,795.17,452.37Z"/><path d="M798.14,204.41l-40.07-9.72s14-5.62,41.55-6Z"/><path d="M688.53,201.33l38.64-11.86s-16.89-5.13-42.2-3.77Z"/><polygon class="cls-6" points="805.08 243.17 746.77 224.21 816.58 214.89 805.08 243.17"/><path d="M805.07,244.35a2.57,2.57,0,0,1-.83-.13l-58.3-19c-.7-.23-1.1-.71-1-1.21a1.62,1.62,0,0,1,1.46-1l69.81-9.31a2.56,2.56,0,0,1,1.71.34.91.91,0,0,1,.45,1.11l-11.51,28.28a1.51,1.51,0,0,1-1,.78A2.73,2.73,0,0,1,805.07,244.35Zm-52.79-19.67,51.59,16.78,10.18-25Z"/><polygon points="800.01 232.72 798.72 225.25 789.27 229.7 800.01 232.72"/><path d="M814.11,247.29a2.62,2.62,0,0,1-.83-.13l-67.34-21.9c-.7-.23-1.1-.71-1-1.21a1.62,1.62,0,0,1,1.46-1L823,212.84a2,2,0,0,1,2.18.91c.21.64-.43,1.26-1.43,1.4l-71.44,9.53L815,245.06c.91.3,1.27,1,.81,1.59A2.15,2.15,0,0,1,814.11,247.29Z"/><polygon class="cls-6" points="671.13 230.83 734.79 224.32 670.06 205.16 671.13 230.83"/><path d="M671.13,232a2.62,2.62,0,0,1-1.17-.27,1.13,1.13,0,0,1-.67-.88l-1.07-25.67a1.13,1.13,0,0,1,.83-1,2.71,2.71,0,0,1,1.78-.09l64.73,19.16c.74.21,1.16.71,1.05,1.23a1.62,1.62,0,0,1-1.53,1L671.42,232Zm.85-25,.94,22.42,55.6-5.69Z"/><polygon points="677 225.08 680.89 218 688.53 223.69 677 225.08"/><path d="M660.71,233.07a1.79,1.79,0,0,1-1.82-1c-.16-.64.53-1.25,1.53-1.35l68.1-7L663,204.38c-.92-.28-1.32-1-.9-1.57a2.37,2.37,0,0,1,2.45-.57l71,21c.74.21,1.16.71,1.05,1.23a1.62,1.62,0,0,1-1.53,1L661,233.06Z"/><ellipse class="cls-9" cx="741.66" cy="265.08" rx="56.38" ry="13.97" transform="translate(-11.61 35.06) rotate(-2.69)"/><path class="cls-10" d="M754.38,268.3c.26,2.07-4.91,4.81-11.66,5.16s-12.55-1.82-12.81-3.89,4.57-7.43,11.33-7.78S754.12,266.22,754.38,268.3Z"/><ellipse class="cls-6" cx="741.24" cy="261.79" rx="9.11" ry="3" transform="translate(-10.51 31.91) rotate(-2.45)"/></g></svg>
