<svg id="Figurelementer" xmlns="http://www.w3.org/2000/svg" xmlns:xlink="http://www.w3.org/1999/xlink" width="360" height="740" viewBox="0 0 360 740"><defs><style>.cls-1{fill:#006837;}.cls-2{fill:url(#radial-gradient);}.cls-3{fill:#fff;}</style><radialGradient id="radial-gradient" cx="238.2" cy="32.49" r="123.51" gradientUnits="userSpaceOnUse"><stop offset="0" stop-color="#37785a"/><stop offset="1" stop-color="#004e29"/></radialGradient></defs><title>Crayon green</title><path class="cls-1" d="M232.45,644.38c-28.56,12.82-54.64,17.22-59.79,10.31-.27-.57-.54-1.14-.8-1.71a608.38,608.38,0,0,1-2.54-506.7c-1.17,4.87,12.32,12.32,30.15,16.66s33.26,3.9,34.45-1h0a558.52,558.52,0,0,0,45.37,443.09l0,0c.05.08.09.16.13.24a1.34,1.34,0,0,1,.12.24C283.23,613.69,262.12,631.06,232.45,644.38Z"/><path class="cls-2" d="M237.85,31.18,170,144.9l-.63,1.38c-1.17,4.87,12.32,12.32,30.15,16.66s33.26,3.9,34.45-1a4.83,4.83,0,0,0,.05-.79Z"/><polygon points="204.59 317.96 132.84 302.07 196.6 277.14 204.59 317.96"/><path d="M212.15,217.61l-30,17.49a144.85,144.85,0,0,0,15.2-31Z"/><path d="M143.13,207.19l25,24.06a334.19,334.19,0,0,1-7.47-33.67Z"/><polygon class="cls-3" points="149.4 295.6 149.4 300.58 199.46 291.77 196.6 277.14 149.4 295.6"/><polygon class="cls-3" points="152.52 306.43 152.52 303.19 201.19 300.58 204.59 317.96 152.52 306.43"/><path d="M211.66,321a1.24,1.24,0,0,1-.33,0l-78.81-17.45a1.5,1.5,0,0,1-.22-2.86l69.93-27.35a1.5,1.5,0,0,1,1.09,2.79L138,301.67l74,16.39a1.5,1.5,0,0,1-.32,3Z"/><polygon class="cls-3" points="233.08 255.02 177.55 251.29 231.4 230.51 233.08 255.02"/><path d="M233.08,256.52H233l-55.53-3.73a1.5,1.5,0,0,1-.44-2.9l53.85-20.78a1.5,1.5,0,0,1,1.35.14,1.48,1.48,0,0,1,.69,1.16l1.68,24.51a1.52,1.52,0,0,1-.43,1.16A1.54,1.54,0,0,1,233.08,256.52Zm-48.66-6.27,47.05,3.16-1.42-20.77Z"/><polygon points="209.92 250.79 207.36 241.65 200.72 248.44 209.92 250.79"/><path d="M239.6,257h-.1l-62.05-4.16a1.5,1.5,0,0,1-.44-2.9l59.07-22.79a1.5,1.5,0,1,1,1.08,2.8l-52.74,20.35L239.7,254a1.5,1.5,0,0,1-.1,3Z"/><polygon class="cls-3" points="110.6 235.79 164.78 248.54 119.41 212.86 110.6 235.79"/><path d="M164.78,250a1.39,1.39,0,0,1-.35,0l-54.17-12.75a1.51,1.51,0,0,1-1.06-2L118,212.32a1.52,1.52,0,0,1,1-.91,1.49,1.49,0,0,1,1.33.27l45.36,35.68a1.5,1.5,0,0,1-.92,2.68Zm-52.16-15.32,45.9,10.81-38.44-30.24Z"/><polygon points="134.51 238.69 139.65 230.7 144 239.14 134.51 238.69"/><path d="M164.78,250a1.39,1.39,0,0,1-.35,0l-60.52-14.25a1.5,1.5,0,0,1,.68-2.92l53.93,12.7-44.44-34.95a1.5,1.5,0,0,1,1.86-2.36l49.76,39.14a1.5,1.5,0,0,1-.92,2.68Z"/><path d="M204.59,319.46a1.5,1.5,0,0,1-1.47-1.21l-8-40.82a1.5,1.5,0,0,1,2.95-.58l8,40.82a1.49,1.49,0,0,1-1.18,1.76A1.43,1.43,0,0,1,204.59,319.46Z"/><path class="cls-1" d="M200.59,349.82c12.78-2.12,25.8-4.5,38.37-7.3,3.14-.7,6.25-1.45,9.25-2.25,1.48-.41,3-.83,4.33-1.26l1-.33.92-.32,1.38-.51c.27-.11,0,0,0,.15s0,0-.06.09l-.24.24a3.74,3.74,0,0,0-.41.55l-.17.3-.06.13,0,0-.06.13a.74.74,0,0,0,0,.14s0,.07,0,.05l0-.08.19-.36a8.19,8.19,0,0,0,.41-.87c.58-1.29,1.17-2.82,1.74-4.3,1.14-3,2.25-6.09,3.35-9.19,4.36-12.42,8.53-25,12.67-37.6s8.21-25.21,12.25-37.85q-2.76,19.71-5.68,39.41c-2,13.14-3.94,26.25-6.18,39.43-.56,3.3-1.15,6.6-1.8,10-.35,1.69-.67,3.35-1.14,5.2-.11.45-.21.9-.39,1.46l-.25.81-.06.2-.14.33-.3.71-.33.69-.08.17-.16.26-.37.53c-.25.35-.53.7-.81,1l-.44.48c-.15.16-.19.18-.29.28a18.83,18.83,0,0,1-2,1.62c-.54.39-1.12.79-1.56,1.05s-1,.61-1.39.84l-1.32.74-1.26.67c-1.67.87-3.28,1.63-4.89,2.39-3.2,1.48-6.36,2.83-9.51,4.13-12.64,5.18-25.14,9.74-38,14.19a13.55,13.55,0,1,1-8.89-25.6,13.21,13.21,0,0,1,2.16-.56Z"/><path class="cls-1" d="M107,363.19a1.42,1.42,0,0,0,0-.3l-.1-.43-.23-.89-.51-1.86c-.35-1.26-.74-2.53-1.14-3.8-.81-2.54-1.69-5.08-2.64-7.6a161.86,161.86,0,0,0-6.46-14.9,143.71,143.71,0,0,0-8-14.17c-1.47-2.27-3-4.52-4.6-6.69l-2.39-3.27c-.84-1.07-1.65-2.16-2.53-3.22a213,213,0,0,0-23.66-24.19c-8.58-7.6-17.58-14.87-27-21.66q16,7,31.29,15.59a225.25,225.25,0,0,1,29.78,19.63c2.37,1.9,4.76,3.9,7,6s4.35,4.35,6.44,6.61a167.72,167.72,0,0,1,11.64,14.3q5.43,7.46,10.1,15.45,2.34,4,4.49,8.15c.72,1.38,1.43,2.78,2.11,4.22l1,2.18.51,1.13.25.6a6.59,6.59,0,0,1,.29.72A13.5,13.5,0,1,1,107,363.19Z"/></svg>