<svg xmlns="http://www.w3.org/2000/svg" xmlns:xlink="http://www.w3.org/1999/xlink" width="2500" height="500" viewBox="0 0 2500 500"><defs><style>.cls-1{fill:#19328b;}.cls-2{fill:none;}.cls-3{fill:url(#radial-gradient);}.cls-4{fill:url(#radial-gradient-2);}.cls-5,.cls-8{fill:#fff;}.cls-6{fill:#f99;}.cls-7{fill:url(#radial-gradient-3);}.cls-8{stroke:#000;stroke-miterlimit:10;stroke-width:2px;}</style><radialGradient id="radial-gradient" cx="1771.39" cy="277.94" r="93.69" gradientUnits="userSpaceOnUse"><stop offset="0" stop-color="#19328b"/><stop offset="1" stop-color="#162a40"/></radialGradient><radialGradient id="radial-gradient-2" cx="3838.77" cy="50.76" r="74.19" gradientTransform="matrix(-1, 0, 0, 1, 4058.26, 0)" xlink:href="#radial-gradient"/><radialGradient id="radial-gradient-3" cx="3339.16" cy="50.76" r="74.19" gradientTransform="matrix(-2.12, 0, 0, 1, 7770.88, 0)" xlink:href="#radial-gradient"/></defs><title>crayon-explode3</title><g id="Spilskærm_med_elementer" data-name="Spilskærm med elementer"><path class="cls-1" d="M1275.13,101.47l21.22,70.3c3.64,12,7.31,24.35,7,36.93a195.2,195.2,0,0,1,65.77-47.87,178.73,178.73,0,0,1-50.2,81.71,162.66,162.66,0,0,1,79,16.18q-37.65,18.21-76.59,33.54c-.67-1.75,10.3,6.67,16.44,12.64,19.64,19.07,39.57,38.52,52.76,62.5-43.61-2.2-72.15.62-110-25.74.87,13-10.49,49.67-15.13,56.51a150.07,150.07,0,0,1-46.26-57.27,170.49,170.49,0,0,1-79,61.57,234.13,234.13,0,0,1,32.55-89.33,105.54,105.54,0,0,1-70.61-20.51A175,175,0,0,1,1188,261.69a904.82,904.82,0,0,1-50.14-129.36c21.51,17.95,43.23,36,68.08,49.21,7.8,4.15,20.17,14.35,27.45,5.84,8.52-10,13.08-28.77,18.84-40.73q5.6-11.6,11.42-23.09C1265.48,120,1276.18,105,1275.13,101.47Z"/><rect class="cls-2" x="0.45" width="500" height="500"/><rect class="cls-2" x="500.06" width="500" height="500"/><rect class="cls-2" x="1000" y="1.97" width="500" height="500"/><path class="cls-1" d="M1788.32,22.46l32.36,107.2c5.55,18.38,11.15,37.14,10.68,56.33a297.57,297.57,0,0,1,100.3-73,272.64,272.64,0,0,1-76.56,124.61,248,248,0,0,1,120.45,24.67q-57.4,27.76-116.79,51.15c-1-2.67,15.7,10.18,25.07,19.27,30,29.08,60.34,58.74,80.46,95.32-66.5-3.36-110,.94-167.7-39.25,1.32,19.85-16,75.74-23.08,86.17A229,229,0,0,1,1703,387.58a259.91,259.91,0,0,1-120.49,93.9,357.37,357.37,0,0,1,49.65-136.23A160.89,160.89,0,0,1,1524.45,314a266.82,266.82,0,0,1,131-47.18A1379.27,1379.27,0,0,1,1579,69.52c32.8,27.37,65.93,54.9,103.81,75,11.91,6.34,30.77,21.88,41.87,8.91,13-15.19,19.94-43.87,28.73-62.11q8.53-17.69,17.42-35.22C1773.61,50.69,1789.92,27.78,1788.32,22.46Z"/><path class="cls-3" d="M1865.88,293.71,1821.75,307c-7.57,2.28-15.29,4.59-23.19,4.4a122.57,122.57,0,0,1,30.06,41.29,112.23,112.23,0,0,1-51.31-31.52,102.08,102.08,0,0,1-10.16,49.6q-11.43-23.64-21.06-48.09c1.1-.42-4.19,6.46-7.93,10.32-12,12.33-24.19,24.85-39.25,33.13,1.38-27.38-.38-45.3,16.16-69.05-8.17.54-31.18-6.59-35.48-9.5a94.28,94.28,0,0,1,36-29.05A107,107,0,0,1,1676.89,209,147.19,147.19,0,0,1,1733,229.4a66.24,66.24,0,0,1,12.88-44.33,109.92,109.92,0,0,1,19.43,54,568.57,568.57,0,0,1,81.22-31.48c-11.27,13.51-22.6,27.14-30.9,42.74-2.61,4.91-9,12.67-3.66,17.24,6.25,5.35,18.06,8.21,25.57,11.83q7.27,3.51,14.5,7.17C1854.26,287.66,1863.7,294.38,1865.88,293.71Z"/><rect class="cls-2" x="1500" y="1.97" width="500" height="500"/><rect class="cls-2" x="2000" width="500" height="500"/><path class="cls-1" d="M219.4,453.53c19.38,8.71,37.09,11.69,40.59,7l.54-1.16a410.37,410.37,0,0,0,38.38-173.86A410.31,410.31,0,0,0,262.25,115.4c.8,3.3-8.36,8.36-20.46,11.31s-22.58,2.64-23.39-.66h0a378,378,0,0,1,17.85,115.14,376.38,376.38,0,0,1-48.65,185.66l0,0a.7.7,0,0,0-.09.17.6.6,0,0,0-.08.16C184.92,432.7,199.25,444.49,219.4,453.53Z"/><path class="cls-4" d="M215.73,37.26l46.09,77.2.43.94c.8,3.3-8.36,8.36-20.46,11.31s-22.58,2.64-23.39-.66a3.21,3.21,0,0,1,0-.54Z"/><path d="M284.68,160.93,265.9,175.14a97.82,97.82,0,0,0,7.75-22.1Z"/><path d="M227,172,250,176.74a228,228,0,0,1-16.47-16.64Z"/><polygon class="cls-5" points="301.26 182.24 263.7 186.34 297.23 166.06 301.26 182.24"/><path d="M263.7,187.35a1,1,0,0,1-1-.69,1,1,0,0,1,.43-1.2l33.53-20.28a1.06,1.06,0,0,1,.92-.07,1,1,0,0,1,.6.7l4,16.18a1,1,0,0,1-.16.83,1,1,0,0,1-.72.43l-37.56,4.1Zm32.87-19.71-28.4,17.18L300,181.35Z"/><polygon points="289.68 180.43 286.88 174.62 283.25 179.95 289.68 180.43"/><path d="M263.7,187.35a1,1,0,0,1-1-.69,1,1,0,0,1,.43-1.2L300,163.22A1,1,0,1,1,301,165l-32.83,19.86,37.38-4.08a1,1,0,0,1,1.13.91,1,1,0,0,1-.91,1.12l-42,4.58Z"/><polygon class="cls-5" points="217.58 193.35 254.95 187.81 217.38 176.67 217.58 193.35"/><path d="M217.58,194.37a1,1,0,0,1-.66-.25,1,1,0,0,1-.36-.76l-.2-16.67a1,1,0,0,1,.41-.83,1,1,0,0,1,.9-.16l37.57,11.13a1,1,0,0,1,.73,1,1,1,0,0,1-.87.93l-37.37,5.54Zm.84-16.33.16,14.13,31.67-4.7Z"/><polygon points="226.49 189.24 227.72 182.92 232.58 187.15 226.49 189.24"/><path d="M213.19,195a1,1,0,0,1-.14-2l37.2-5.52-36.8-10.9a1,1,0,1,1,.58-1.95l41.21,12.21a1,1,0,0,1,.73,1,1,1,0,0,1-.87.93L213.35,195Z"/><path class="cls-1" d="M292.44,253.57c8.68-1.44,17.52-3,26.05-4.95,2.13-.48,4.24-1,6.28-1.54,1-.27,2-.55,2.94-.85l.68-.22.63-.22.94-.35c.18-.07,0,0,0,.11s0,0,0,0l-.16.17a2,2,0,0,0-.28.37l-.11.2-.05.1v0a.36.36,0,0,0,0,.09l0,.1s0,0,0,0l0-.06.13-.24c.08-.14.18-.37.28-.59.39-.88.79-1.91,1.17-2.92.78-2,1.53-4.13,2.28-6.23,3-8.44,5.79-17,8.6-25.53s5.58-17.12,8.31-25.7q-1.86,13.38-3.85,26.75c-1.33,8.92-2.67,17.83-4.19,26.78-.39,2.24-.78,4.48-1.23,6.75-.23,1.16-.45,2.28-.77,3.53-.07.31-.15.61-.27,1l-.16.55-.05.13-.09.23-.2.48-.23.47-.05.11-.11.18-.25.36c-.17.24-.36.47-.55.69l-.3.33a1.59,1.59,0,0,1-.2.19,15.49,15.49,0,0,1-2.4,1.81c-.31.19-.66.42-.95.58l-.89.5-.85.45c-1.14.6-2.23,1.11-3.32,1.62-2.18,1-4.32,1.92-6.46,2.81-8.59,3.52-17.07,6.61-25.77,9.63a9.2,9.2,0,1,1-6-17.38,9.51,9.51,0,0,1,1.46-.38Z"/><path class="cls-1" d="M239.07,278.3s-.11-.06-.19-.1l-.27-.12-.57-.25-1.22-.49c-.82-.33-1.66-.65-2.51-.95-1.7-.62-3.44-1.19-5.19-1.73-3.51-1.06-7.08-2-10.69-2.68a98.14,98.14,0,0,0-10.93-1.56c-1.83-.15-3.67-.26-5.5-.29l-2.75-.06c-.92,0-1.85,0-2.78,0a144.19,144.19,0,0,0-22.81,2.74c-7.64,1.48-15.27,3.32-22.81,5.57q10.35-5.71,21.33-10.4a153.17,153.17,0,0,1,22.88-7.93c2-.49,4.07-.95,6.14-1.27s4.15-.54,6.23-.73a111.15,111.15,0,0,1,12.51-.36q6.26.16,12.5.95c2.08.26,4.15.57,6.24.95,1,.18,2.09.38,3.14.6l1.6.36.82.19.43.11.51.14a9.16,9.16,0,0,1-6.11,17.28Z"/><polygon points="241.24 232.81 287.95 215.29 242.73 204.61 241.24 232.81"/><path d="M236.65,235.56a1,1,0,0,1-.36-2l48.17-18.06-46.35-11a1,1,0,1,1,.47-2l49.61,11.71a1,1,0,0,1,.12,1.95L237,235.49A1.09,1.09,0,0,1,236.65,235.56Z"/><path d="M241.25,233.83h-.06a1,1,0,0,1-1-1.07l1.48-28.2a1,1,0,1,1,2,.11l-1.48,28.2A1,1,0,0,1,241.25,233.83Z"/><path class="cls-6" d="M264.14,218c.8,3.13,1.45,6.3,1.95,9.49a19.78,19.78,0,0,1,0,8,13.37,13.37,0,0,1-4.15,6.4,9.23,9.23,0,0,1-4.19,2.28,9.08,9.08,0,0,1-6.86-1.94,10.2,10.2,0,0,1-4.4-6.51,13.29,13.29,0,0,1,.78-5.74,66.41,66.41,0,0,1,2.5-6.83Z"/><path class="cls-1" d="M684.15,453.53c41.15,8.71,78.72,11.69,86.14,7,.39-.39.78-.77,1.15-1.16,52.27-52.83,81.46-111.74,81.46-173.86,0-60.66-27.82-118.26-77.8-170.11,1.69,3.3-17.75,8.36-43.43,11.31s-47.92,2.64-49.63-.66h0c24.6,36.31,37.89,75,37.89,115.14,0,67.48-37.52,130.82-103.26,185.66l0,0-.19.17a.88.88,0,0,0-.17.16C611,432.7,641.41,444.49,684.15,453.53Z"/><path class="cls-7" d="M676.37,37.26l97.83,77.2.9.94c1.69,3.3-17.75,8.36-43.43,11.31s-47.92,2.64-49.63-.66a1.66,1.66,0,0,1-.08-.54Z"/><path d="M822.71,160.93,772.77,160a314.77,314.77,0,0,0,42.42-12.2Z"/><path d="M700.18,172l44.72-10.51s-23.85-.7-49.31-2.87Z"/><polygon class="cls-5" points="857.89 182.24 778.18 186.34 849.33 166.06 857.89 182.24"/><path d="M778.18,187.35a2.67,2.67,0,0,1-2-.69c-.32-.45.06-.95.93-1.2l71.15-20.28a4.56,4.56,0,0,1,1.95-.07,1.83,1.83,0,0,1,1.27.7L860,182c.15.29,0,.59-.32.83a3.16,3.16,0,0,1-1.54.43l-79.71,4.1Zm69.76-19.71-60.28,17.18,67.53-3.47Z"/><polygon points="833.31 180.43 827.38 174.62 819.67 179.95 833.31 180.43"/><path d="M778.18,187.35a2.67,2.67,0,0,1-2-.69c-.32-.45.06-.95.93-1.2l78.05-22.24a3.81,3.81,0,0,1,3,.34c.61.48.29,1.11-.73,1.4l-69.69,19.86L867,180.74c1.18-.05,2.25.35,2.38.91s-.73,1.06-1.91,1.12l-89.06,4.58Z"/><polygon class="cls-5" points="680.29 193.35 759.61 187.81 679.88 176.67 680.29 193.35"/><path d="M680.3,194.37a3.85,3.85,0,0,1-1.41-.25c-.47-.19-.75-.47-.76-.76l-.42-16.67c0-.33.32-.63.86-.83a4.34,4.34,0,0,1,1.92-.16l79.73,11.13c1,.13,1.62.57,1.54,1s-.83.86-1.83.93l-79.32,5.54ZM682.07,178l.36,14.13,67.2-4.7Z"/><polygon points="699.2 189.24 701.81 182.92 712.13 187.15 699.2 189.24"/><path d="M671,195c-1,0-2-.37-2.13-.87s.64-1.08,1.82-1.16l79-5.52-78.09-10.9c-1.15-.16-1.8-.73-1.46-1.26a3,3,0,0,1,2.68-.69l87.46,12.21c1,.13,1.62.57,1.54,1s-.83.86-1.83.93L671.31,195Z"/><path class="cls-1" d="M843.36,265.65c15.37,10.25,31.12,20.57,46.54,30.26,3.85,2.41,7.68,4.78,11.42,7,1.85,1.11,3.71,2.21,5.43,3.18l1.28.73,1.19.65,1.77.95c.35.19,0,.06,0,.1s0,0-.1,0l-.37-.08a4.36,4.36,0,0,0-.69-.07h-.32l-.13,0h-.16l-.1.05,0,0h.09l.36,0a6.08,6.08,0,0,0,.84-.1c1.19-.17,2.5-.46,3.76-.75,2.56-.58,5.11-1.24,7.65-1.92,10.15-2.75,20.16-5.75,30.13-8.79s19.88-6.15,29.74-9.31q-11.39,8.07-23,16c-7.73,5.28-15.48,10.51-23.54,15.56-2,1.25-4.07,2.5-6.22,3.7-1.1.6-2.16,1.2-3.46,1.77a9.86,9.86,0,0,1-1.07.43l-.62.21-.15.05-.29.06-.64.11-.66.07-.17,0h-.29l-.64,0a13.11,13.11,0,0,1-1.35-.17l-.7-.13-.44-.11c-1-.27-2.28-.65-2.92-.9s-1.61-.58-2.21-.83-1.37-.54-1.94-.79l-1.79-.77-1.71-.77c-2.27-1-4.4-2-6.54-3.08-4.25-2.06-8.4-4.15-12.52-6.26-16.49-8.49-32.57-17.17-49-26.21-9-5-16.21-13.85-16-19.81s7.67-6.75,16.71-1.77c.91.51,1.8,1.05,2.67,1.63Z"/><path class="cls-1" d="M725.85,277.71a2,2,0,0,0-.38.15l-.54.22-1.14.5-2.4,1.06c-1.62.73-3.27,1.49-4.93,2.26-3.31,1.56-6.66,3.19-10,4.87-6.72,3.37-13.46,7-20.16,10.75s-13.37,7.77-19.93,12c-3.28,2.1-6.55,4.23-9.76,6.43l-4.83,3.28c-1.6,1.12-3.22,2.23-4.83,3.39-12.91,9.22-25.7,19.44-38.17,29.87s-24.73,21.23-36.58,32.2q14.76-17.2,31.23-34.37c11-11.44,22.5-22.86,35.36-34.22,3.21-2.83,6.54-5.71,10-8.48s6.9-5.47,10.42-8.14q10.58-8,21.6-15.45t22.32-14.36q5.65-3.45,11.42-6.78,2.88-1.66,5.83-3.31l3-1.65,1.54-.83.81-.43,1-.5c9.28-4.4,16.63-3.13,16.41,2.84S735.13,273.31,725.85,277.71Z"/><ellipse class="cls-8" cx="780.95" cy="222.46" rx="74.91" ry="14.28" transform="translate(-19.79 87.63) rotate(-6.34)"/><path class="cls-6" d="M812.61,211.92q9.61,1.72,18.84,3.88c5.11,1.19,10.24,2.54,13.9,4.6,3.5,2,5.42,4.51,6,7.07a4.85,4.85,0,0,1-1.15,4.74c-2.12,2.23-6.85,3.69-11.75,4.49-5.4.88-11.59,1.07-16.68-.15a30.35,30.35,0,0,1-9-4,98.41,98.41,0,0,1-8.79-6Z"/></g></svg>
