<svg xmlns="http://www.w3.org/2000/svg" xmlns:xlink="http://www.w3.org/1999/xlink" width="1920" height="1080" viewBox="0 0 1920 1080"><defs><style>.cls-1{fill:none;}.cls-2{fill:#b15353;}.cls-3{fill:url(#linear-gradient);}.cls-4{fill:#a57c52;}.cls-5{fill:#8b6239;}.cls-6{fill:#d20000;}.cls-7{fill:#b13333;}.cls-8{fill:#ea0000;}.cls-9{fill:#b00000;}.cls-10{fill:url(#radial-gradient);}.cls-11{fill:#9e0000;}.cls-12{fill:url(#linear-gradient-2);}.cls-13{clip-path:url(#clip-path);}.cls-14{fill:#fff;}.cls-15{fill:#006837;}.cls-16{fill:#004e29;}</style><linearGradient id="linear-gradient" x1="960" y1="1129.29" x2="960" y2="874.19" gradientUnits="userSpaceOnUse"><stop offset="0" stop-color="#5b5b5b"/><stop offset="1" stop-color="#2a2a2a"/></linearGradient><radialGradient id="radial-gradient" cx="957.43" cy="533.5" r="203.74" gradientUnits="userSpaceOnUse"><stop offset="0" stop-color="#fff"/><stop offset="1" stop-color="#686868"/></radialGradient><linearGradient id="linear-gradient-2" x1="360.35" y1="539.8" x2="360.35" y2="-67.36" gradientUnits="userSpaceOnUse"><stop offset="0" stop-color="#455566"/><stop offset="0.05" stop-color="#3b4c5e"/><stop offset="0.15" stop-color="#2b3d51"/><stop offset="0.29" stop-color="#1f3247"/><stop offset="0.48" stop-color="#182c42"/><stop offset="1" stop-color="#162a40"/></linearGradient><clipPath id="clip-path"><path class="cls-1" d="M363.7,78.1h0A214.88,214.88,0,0,1,578.58,293V474.14a0,0,0,0,1,0,0H148.82a0,0,0,0,1,0,0V293A214.88,214.88,0,0,1,363.7,78.1Z"/></clipPath></defs><title>Game screen background</title><g id="Spilskærm_med_elementer" data-name="Spilskærm med elementer"><rect class="cls-2" width="1920" height="874.19"/><rect class="cls-3" y="874.19" width="1920" height="255.1"/><rect class="cls-4" x="1724.46" y="-138.98" width="100.29" height="455.74" transform="translate(582.63 -1228.8) rotate(45)"/><rect class="cls-4" x="1402.21" y="-136.56" width="100.29" height="455.74" transform="translate(360.82 1053.71) rotate(-45)"/><rect class="cls-5" x="1542.32" y="-48.36" width="142.33" height="999.53"/><rect class="cls-6" x="804.8" y="-6.46" width="308.93" height="316.46"/><rect class="cls-7" x="1009.22" y="133.74" width="104.5" height="36.08"/><rect class="cls-7" x="909.3" y="241.97" width="104.5" height="36.08"/><rect class="cls-8" x="804.8" y="55.23" width="104.5" height="36.08"/><rect class="cls-9" x="857.05" y="205.89" width="104.5" height="36.08"/><rect class="cls-9" x="956.97" y="19.16" width="104.5" height="36.08"/><rect class="cls-6" x="711.51" y="330.35" width="495.5" height="316.46"/><rect class="cls-10" x="783.22" y="377.15" width="352.08" height="224.87"/><rect class="cls-11" x="678.38" y="309.82" width="560.09" height="20.71" rx="10.36"/><rect class="cls-9" x="1154.76" y="413.28" width="52.25" height="36.08"/><rect class="cls-8" x="1083.05" y="341.07" width="104.5" height="36.08"/><rect class="cls-7" x="730.97" y="377.15" width="52.25" height="36.08"/><path class="cls-12" d="M360.35,78.1h0A214.88,214.88,0,0,1,575.23,293V474.14a0,0,0,0,1,0,0H145.47a0,0,0,0,1,0,0V293A214.88,214.88,0,0,1,360.35,78.1Z"/><g class="cls-13"><rect class="cls-1" x="229.18" y="426.03" width="5.71" height="5.71"/><circle class="cls-14" cx="232.04" cy="428.88" r="2.86"/><rect class="cls-1" x="76.58" y="340.47" width="3.66" height="3.66"/><circle class="cls-14" cx="78.41" cy="342.29" r="1.83"/><rect class="cls-1" x="135.46" y="128.3" width="3.24" height="3.24"/><circle class="cls-14" cx="137.08" cy="129.92" r="1.62"/><rect class="cls-1" x="293.28" y="41.27" width="11.44" height="11.44"/><circle class="cls-14" cx="299" cy="46.99" r="5.72"/><rect class="cls-1" x="479.86" y="113.62" width="4.22" height="4.22"/><circle class="cls-14" cx="481.97" cy="115.73" r="2.11"/><rect class="cls-1" x="714.99" y="310.19" width="6.51" height="6.51"/><circle class="cls-14" cx="718.24" cy="313.45" r="3.26"/><rect class="cls-1" x="470.9" y="548.36" width="7.66" height="7.66"/><circle class="cls-14" cx="474.72" cy="552.19" r="3.83"/><rect class="cls-1" x="319.28" y="340.31" width="7.64" height="7.64"/><circle class="cls-14" cx="323.1" cy="344.13" r="3.82"/><rect class="cls-1" x="82.44" y="271.33" width="6.78" height="6.78"/><circle class="cls-14" cx="85.83" cy="274.72" r="3.39"/><rect class="cls-1" x="184.13" y="33.01" width="11.18" height="11.18"/><circle class="cls-14" cx="189.72" cy="38.6" r="5.59"/><rect class="cls-1" x="344.92" y="175.94" width="6.9" height="6.9"/><circle class="cls-14" cx="348.36" cy="179.39" r="3.45"/><rect class="cls-1" x="312.29" y="291.94" width="8.54" height="8.54"/><circle class="cls-14" cx="316.56" cy="296.21" r="4.27"/><rect class="cls-1" x="195.73" y="281.77" width="3.95" height="3.95"/><circle class="cls-14" cx="197.7" cy="283.74" r="1.97"/><rect class="cls-1" x="77.17" y="284.2" width="6.04" height="6.04"/><circle class="cls-14" cx="80.2" cy="287.22" r="3.02"/><rect class="cls-1" x="120.44" y="144.12" width="8.34" height="8.34"/><circle class="cls-14" cx="124.61" cy="148.29" r="4.17"/><rect class="cls-1" x="264.02" y="121.03" width="6.55" height="6.55"/><circle class="cls-14" cx="267.3" cy="124.3" r="3.28"/><rect class="cls-1" x="540.96" y="87.9" width="4.51" height="4.51"/><circle class="cls-14" cx="543.21" cy="90.15" r="2.25"/><rect class="cls-1" x="588.91" y="242.18" width="6.39" height="6.39"/><circle class="cls-14" cx="592.11" cy="245.38" r="3.2"/><rect class="cls-1" x="558.46" y="484.99" width="11.01" height="11.01"/><circle class="cls-14" cx="563.96" cy="490.49" r="5.51"/><rect class="cls-1" x="278.58" y="396.94" width="9.89" height="9.89"/><circle class="cls-14" cx="283.52" cy="401.88" r="4.94"/><rect class="cls-1" x="394.3" y="268.63" width="5.05" height="5.05"/><circle class="cls-14" cx="396.83" cy="271.15" r="2.53"/><rect class="cls-1" x="402.53" y="292.84" width="11.27" height="11.27"/><circle class="cls-14" cx="408.16" cy="298.47" r="5.63"/><rect class="cls-1" x="344.16" y="220.97" width="8.43" height="8.43"/><circle class="cls-14" cx="348.37" cy="225.18" r="4.22"/><rect class="cls-1" x="380.33" y="327.99" width="5.44" height="5.44"/><circle class="cls-14" cx="383.05" cy="330.71" r="2.72"/><rect class="cls-1" x="473.74" y="283.65" width="8.43" height="8.43"/><circle class="cls-14" cx="477.95" cy="287.86" r="4.22"/><rect class="cls-1" x="277.69" y="279.54" width="11.48" height="11.48"/><circle class="cls-14" cx="283.43" cy="285.29" r="5.74"/><rect class="cls-1" x="361.31" y="236.54" width="9.99" height="9.99"/><circle class="cls-14" cx="366.3" cy="241.53" r="4.99"/><rect class="cls-1" x="296.22" y="256.98" width="2.91" height="2.91"/><circle class="cls-14" cx="297.68" cy="258.43" r="1.45"/><rect class="cls-1" x="161.91" y="313.59" width="3.68" height="3.68"/><circle class="cls-14" cx="163.75" cy="315.42" r="1.84"/><rect class="cls-1" x="214.63" y="185.62" width="3.34" height="3.34"/><circle class="cls-14" cx="216.31" cy="187.29" r="1.67"/><rect class="cls-1" x="176.32" y="215.7" width="6.17" height="6.17"/><circle class="cls-14" cx="179.41" cy="218.79" r="3.09"/><rect class="cls-1" x="304.95" y="296.97" width="9.01" height="9.01"/><circle class="cls-14" cx="309.45" cy="301.48" r="4.51"/><rect class="cls-1" x="52.01" y="153.94" width="6.58" height="6.58"/><circle class="cls-14" cx="55.3" cy="157.23" r="3.29"/></g><path class="cls-5" d="M577.93,283.62H148.82a7.5,7.5,0,0,1,0-15H577.93a7.5,7.5,0,0,1,0,15Z"/><path class="cls-5" d="M409,283.62a7.5,7.5,0,0,1-7.5-7.5,37.83,37.83,0,0,0-75.65,0,7.5,7.5,0,0,1-15,0,52.83,52.83,0,0,1,105.65,0A7.5,7.5,0,0,1,409,283.62Z"/><path class="cls-5" d="M363.7,238.3a7.5,7.5,0,0,1-7.5-7.5V78.1a7.5,7.5,0,1,1,15,0V230.8A7.5,7.5,0,0,1,363.7,238.3Z"/><path class="cls-5" d="M292.08,481.64a7.49,7.49,0,0,1-7.5-7.5v-198a7.5,7.5,0,0,1,15,0v198A7.5,7.5,0,0,1,292.08,481.64Z"/><path class="cls-5" d="M435.33,481.64a7.5,7.5,0,0,1-7.5-7.5v-198a7.5,7.5,0,0,1,15,0v198A7.5,7.5,0,0,1,435.33,481.64Z"/><path class="cls-5" d="M577.93,377.84H148.82a7.5,7.5,0,0,1,0-15H577.93a7.5,7.5,0,0,1,0,15Z"/><path class="cls-5" d="M395.75,251.57a7.5,7.5,0,0,1-5.3-12.8l108-108A7.5,7.5,0,1,1,509,141.4l-108,108A7.48,7.48,0,0,1,395.75,251.57Z"/><path class="cls-5" d="M331.65,251.57a7.44,7.44,0,0,1-5.3-2.2l-108-108A7.5,7.5,0,0,1,229,130.8l108,108a7.5,7.5,0,0,1-5.3,12.8Z"/><polygon class="cls-15" points="494.75 426.84 459.69 475.71 529.79 475.71 494.75 426.84"/><polygon class="cls-15" points="494.75 409.14 469.36 444.54 520.13 444.54 494.75 409.14"/><polygon class="cls-16" points="473.9 475.71 515.59 475.71 517.25 478.02 473.9 475.71"/><polygon class="cls-16" points="482.07 444.54 507.45 444.54 508.45 445.94 482.07 444.54"/><path class="cls-14" d="M491.56,408,487.2,414a3.92,3.92,0,0,0,3.19,6.21h8.71a3.92,3.92,0,0,0,3.19-6.21L497.93,408A3.92,3.92,0,0,0,491.56,408Z"/><circle class="cls-14" cx="486.27" cy="420.27" r="2.83"/><circle class="cls-14" cx="491.93" cy="420.27" r="2.83"/><circle class="cls-14" cx="497.59" cy="420.27" r="2.83"/><circle class="cls-14" cx="503.24" cy="420.27" r="2.83"/><path class="cls-14" d="M529.79,478.52H507a2.85,2.85,0,0,1,0-5.69h22.83a2.85,2.85,0,1,1,0,5.69Z"/><path class="cls-5" d="M578.58,481.64H148.82a7.5,7.5,0,0,1-7.5-7.5V293A222.38,222.38,0,0,1,363.7,70.6h0A222.37,222.37,0,0,1,586.08,293V474.14A7.5,7.5,0,0,1,578.58,481.64Zm-422.26-15H571.08V293c0-114.35-93-207.38-207.38-207.38S156.32,178.63,156.32,293Z"/></g></svg>