<svg xmlns="http://www.w3.org/2000/svg" width="1920" height="1080" viewBox="0 0 1920 1080"><defs><style>.cls-1{fill:#fff;}.cls-2{fill:#f1f1f1;}</style></defs><title>Game screen Pudding hide back</title><g id="Spilskærm_med_elementer" data-name="Spilskærm med elementer"><path class="cls-1" d="M477.82,678.79a102.83,102.83,0,0,1,117.38,7.08,71.92,71.92,0,0,1,70.69-18.5,39.66,39.66,0,0,1,69-31.31l118.7,395.87-383.81-7.78Z"/><path class="cls-2" d="M595.84,696.58l-5.61-4.44A94.84,94.84,0,0,0,482,685.61,8,8,0,0,1,473.64,672a110.88,110.88,0,0,1,121,3.52,79.85,79.85,0,0,1,63.16-18,47.67,47.67,0,0,1,83.11-26.72,8,8,0,0,1-12,10.61,31.67,31.67,0,0,0-55.39,21,31.13,31.13,0,0,0,.27,4l1.51,12-11.64-3.3a63.87,63.87,0,0,0-62.82,16.44Z"/><path class="cls-1" d="M1368.42,715.1a83,83,0,0,0-123.91-55.59,43.05,43.05,0,0,0-72.7-22.59,44.12,44.12,0,0,0-3.19,3.54,57.09,57.09,0,0,0-70.2,8.17l-80.37,498.12,366.37-15.44Z"/><path class="cls-2" d="M1368.41,723.1a8,8,0,0,1-7.85-6.49,75,75,0,0,0-112-50.23l-9.86,5.88-2.1-11.29a35.07,35.07,0,0,0-34.39-28.6h-.07a35,35,0,0,0-27.33,13.11l-4.43,5.49-6-3.7a48.93,48.93,0,0,0-60.37,7A8,8,0,0,1,1092.77,643,64.84,64.84,0,0,1,1167,630.45a50.71,50.71,0,0,1,35.2-14.08h.12a51.14,51.14,0,0,1,47.09,31.56,91,91,0,0,1,126.89,65.67,8,8,0,0,1-6.36,9.36A7.72,7.72,0,0,1,1368.41,723.1Z"/><path class="cls-1" d="M1010.05,587.69a53.19,53.19,0,0,0-82.48-7.2,83,83,0,0,0-118.79,47.89l-4,147.65c3.86,207.13,267,260,261.71-23.77C1066.45,751.4,1010.05,587.69,1010.05,587.69Z"/><path class="cls-2" d="M808.78,636.38a8,8,0,0,1-7.64-10.4,91,91,0,0,1,125-55.15,61.17,61.17,0,0,1,90.51,12.4,8,8,0,0,1-13.27,8.93A45.19,45.19,0,0,0,933.33,586l-4.23,4.4-5.36-2.92a75,75,0,0,0-107.33,43.26A8,8,0,0,1,808.78,636.38Z"/></g></svg>