<svg xmlns="http://www.w3.org/2000/svg" xmlns:xlink="http://www.w3.org/1999/xlink" width="1920" height="1080" viewBox="0 0 1920 1080"><defs><style>.cls-1{fill:url(#linear-gradient);}.cls-2{fill:none;}.cls-3{fill:#fff;}.cls-4{fill:#008748;}.cls-5{fill:#006837;}.cls-6{fill:#a57c52;}.cls-7{fill:#004e29;}.cls-8{fill:#e92c0c;}.cls-9{fill:#d20000;}.cls-10{fill:#fbed21;}.cls-11{fill:#9e0000;}.cls-12{fill:#8b6239;}.cls-13{fill:url(#radial-gradient);}.cls-14{fill:#f1f1f1;}.cls-15{fill:#fdf47a;}.cls-16{fill:url(#linear-gradient-2);}.cls-17{fill:url(#linear-gradient-3);}.cls-18{fill:url(#linear-gradient-4);}.cls-19{fill:url(#linear-gradient-5);}.cls-20{fill:#e2cba2;}.cls-21{fill:url(#linear-gradient-6);}.cls-22{fill:#aa987a;}.cls-23{fill:#f99;}.cls-24{fill:red;}</style><linearGradient id="linear-gradient" x1="960" y1="1034.5" x2="960" y2="-18.36" gradientUnits="userSpaceOnUse"><stop offset="0" stop-color="#76828f"/><stop offset="0.06" stop-color="#697684"/><stop offset="0.21" stop-color="#4b5b6c"/><stop offset="0.38" stop-color="#344558"/><stop offset="0.56" stop-color="#23364b"/><stop offset="0.75" stop-color="#192d43"/><stop offset="1" stop-color="#162a40"/></linearGradient><radialGradient id="radial-gradient" cx="1131.51" cy="887.87" r="359.31" gradientTransform="matrix(0.98, -0.22, 0.15, 0.68, -153.17, 489.33)" gradientUnits="userSpaceOnUse"><stop offset="0" stop-color="#c59b6d"/><stop offset="0.26" stop-color="#bb9164"/><stop offset="0.71" stop-color="#a0764b"/><stop offset="1" stop-color="#8b6239"/></radialGradient><linearGradient id="linear-gradient-2" x1="973.41" y1="248.85" x2="973.41" y2="26.94" gradientUnits="userSpaceOnUse"><stop offset="0" stop-color="#fbed21"/><stop offset="1" stop-color="#fdf47a"/></linearGradient><linearGradient id="linear-gradient-3" x1="1212.1" y1="216.9" x2="1212.1" y2="82.75" xlink:href="#linear-gradient-2"/><linearGradient id="linear-gradient-4" x1="734.72" y1="216.9" x2="734.72" y2="82.75" xlink:href="#linear-gradient-2"/><linearGradient id="linear-gradient-5" x1="110.65" y1="1034.6" x2="334.04" y2="1034.6" gradientTransform="matrix(-1, 0, 0, 1, 807.99, 0)" gradientUnits="userSpaceOnUse"><stop offset="0" stop-color="#e2cba2"/><stop offset="0.35" stop-color="#dfc9a0"/><stop offset="0.58" stop-color="#d7c19a"/><stop offset="0.77" stop-color="#c8b38f"/><stop offset="0.94" stop-color="#b3a081"/><stop offset="1" stop-color="#aa987a"/></linearGradient><linearGradient id="linear-gradient-6" x1="304.98" y1="221.47" x2="233.73" y2="481.52" gradientTransform="matrix(-1, 0.06, 0.06, 1, 761.09, 99.69)" gradientUnits="userSpaceOnUse"><stop offset="0" stop-color="#aa987a"/><stop offset="1" stop-color="#aa987a" stop-opacity="0"/></linearGradient></defs><title>Game over win</title><g id="Titelskærm"><g id="Baggrund"><rect class="cls-1" y="-18.36" width="1920" height="1052.86"/><rect class="cls-2" x="1759.26" y="246.15" width="6.39" height="6.39"/><circle class="cls-3" cx="1762.46" cy="249.35" r="3.19"/><rect class="cls-2" x="1795.09" y="406.63" width="3.03" height="3.03"/><circle class="cls-3" cx="1796.61" cy="408.14" r="1.52"/><rect class="cls-2" x="1664.51" y="632.61" width="6.14" height="6.14"/><circle class="cls-3" cx="1667.57" cy="635.67" r="3.07"/><rect class="cls-2" x="1599.51" y="921.71" width="6.45" height="6.45"/><circle class="cls-3" cx="1602.73" cy="924.93" r="3.23"/><rect class="cls-2" x="1574.18" y="624.68" width="5.71" height="5.71"/><circle class="cls-3" cx="1577.04" cy="627.53" r="2.85"/><rect class="cls-2" x="1380.02" y="566.29" width="10.57" height="10.57"/><circle class="cls-3" cx="1385.3" cy="571.58" r="5.28"/><rect class="cls-2" x="1491.12" y="356.89" width="11.34" height="11.34"/><circle class="cls-3" cx="1496.79" cy="362.56" r="5.67"/><rect class="cls-2" x="1400.08" y="207.77" width="11.06" height="11.06"/><circle class="cls-3" cx="1405.61" cy="213.3" r="5.53"/><rect class="cls-2" x="1231.14" y="137.29" width="2.8" height="2.8"/><circle class="cls-3" cx="1232.54" cy="138.69" r="1.4"/><rect class="cls-2" x="1028.42" y="209.07" width="4.36" height="4.36"/><circle class="cls-3" cx="1030.6" cy="211.25" r="2.18"/><rect class="cls-2" x="954.91" y="359.63" width="4.24" height="4.24"/><circle class="cls-3" cx="957.03" cy="361.75" r="2.12"/><rect class="cls-2" x="1056.21" y="542.35" width="7.73" height="7.73"/><circle class="cls-3" cx="1060.07" cy="546.21" r="3.86"/><rect class="cls-2" x="732.52" y="549.17" width="11.31" height="11.31"/><circle class="cls-3" cx="738.17" cy="554.83" r="5.66"/><rect class="cls-2" x="810.82" y="599.89" width="5.33" height="5.33"/><circle class="cls-3" cx="813.48" cy="602.56" r="2.67"/><rect class="cls-2" x="792.46" y="462.06" width="5.25" height="5.25"/><circle class="cls-3" cx="795.09" cy="464.69" r="2.62"/><rect class="cls-2" x="577.55" y="480.63" width="9.54" height="9.54"/><circle class="cls-3" cx="582.32" cy="485.4" r="4.77"/><rect class="cls-2" x="405.21" y="421.45" width="7.41" height="7.41"/><circle class="cls-3" cx="408.92" cy="425.15" r="3.7"/><rect class="cls-2" x="519.61" y="171.88" width="8.59" height="8.59"/><circle class="cls-3" cx="523.9" cy="176.18" r="4.3"/><rect class="cls-2" x="333.68" y="182.77" width="10.69" height="10.69"/><circle class="cls-3" cx="339.02" cy="188.12" r="5.35"/><rect class="cls-2" x="201.69" y="236.81" width="9.84" height="9.84"/><circle class="cls-3" cx="206.61" cy="241.73" r="4.92"/><rect class="cls-2" x="298.28" y="255.3" width="6.2" height="6.2"/><circle class="cls-3" cx="301.38" cy="258.4" r="3.1"/><rect class="cls-2" x="91.26" y="476.45" width="11.16" height="11.16"/><circle class="cls-3" cx="96.84" cy="482.03" r="5.58"/><rect class="cls-2" x="329.4" y="533.33" width="3.73" height="3.73"/><circle class="cls-3" cx="331.26" cy="535.19" r="1.87"/><rect class="cls-2" x="341.36" y="719.95" width="5.85" height="5.85"/><circle class="cls-3" cx="344.28" cy="722.88" r="2.92"/><rect class="cls-2" x="135.8" y="837.08" width="8.32" height="8.32"/><circle class="cls-3" cx="139.96" cy="841.24" r="4.16"/><rect class="cls-2" x="51.74" y="639" width="11.13" height="11.13"/><circle class="cls-3" cx="57.31" cy="644.57" r="5.57"/><rect class="cls-2" x="72.4" y="511.84" width="5.73" height="5.73"/><circle class="cls-3" cx="75.26" cy="514.7" r="2.87"/><rect class="cls-2" x="53.37" y="354.59" width="9.33" height="9.33"/><circle class="cls-3" cx="58.03" cy="359.26" r="4.66"/><rect class="cls-2" x="85.67" y="186.84" width="7.24" height="7.24"/><circle class="cls-3" cx="89.29" cy="190.47" r="3.62"/><rect class="cls-2" x="274.92" y="146.51" width="10.29" height="10.29"/><circle class="cls-3" cx="280.06" cy="151.66" r="5.14"/><rect class="cls-2" x="368.2" y="30.72" width="4.83" height="4.83"/><circle class="cls-3" cx="370.61" cy="33.14" r="2.42"/><rect class="cls-2" x="539.29" y="29.97" width="10.79" height="10.79"/><circle class="cls-3" cx="544.69" cy="35.37" r="5.39"/><rect class="cls-2" x="679.32" y="156.87" width="7.12" height="7.12"/><circle class="cls-3" cx="682.88" cy="160.43" r="3.56"/><rect class="cls-2" x="1086.43" y="119.84" width="4.03" height="4.03"/><circle class="cls-3" cx="1088.45" cy="121.86" r="2.02"/><rect class="cls-2" x="1358.66" y="3.24" width="10.63" height="10.63"/><circle class="cls-3" cx="1363.97" cy="8.55" r="5.32"/><rect class="cls-2" x="1495.02" y="128.65" width="2.79" height="2.79"/><circle class="cls-3" cx="1496.42" cy="130.04" r="1.39"/><rect class="cls-2" x="1605.44" y="180.52" width="10.57" height="10.57"/><circle class="cls-3" cx="1610.72" cy="185.81" r="5.29"/><rect class="cls-2" x="1735.74" y="169.25" width="4.41" height="4.41"/><circle class="cls-3" cx="1737.95" cy="171.45" r="2.2"/><rect class="cls-2" x="1889.85" y="329.85" width="6.85" height="6.85"/><circle class="cls-3" cx="1893.27" cy="333.27" r="3.42"/><rect class="cls-2" x="1881.41" y="576.89" width="4.71" height="4.71"/><circle class="cls-3" cx="1883.77" cy="579.25" r="2.36"/><rect class="cls-2" x="1827.05" y="651.47" width="10.78" height="10.78"/><circle class="cls-3" cx="1832.44" cy="656.86" r="5.39"/><rect class="cls-2" x="1816.82" y="759.56" width="4.52" height="4.52"/><circle class="cls-3" cx="1819.08" cy="761.82" r="2.26"/><rect class="cls-2" x="1699.66" y="832.33" width="11.13" height="11.13"/><circle class="cls-3" cx="1705.22" cy="837.89" r="5.56"/><rect class="cls-2" x="1575" y="835.82" width="3.43" height="3.43"/><circle class="cls-3" cx="1576.72" cy="837.54" r="1.71"/><rect class="cls-2" x="1447.57" y="657.74" width="3.81" height="3.81"/><circle class="cls-3" cx="1449.47" cy="659.64" r="1.9"/><rect class="cls-2" x="1311.33" y="842.16" width="3.8" height="3.8"/><circle class="cls-3" cx="1313.23" cy="844.05" r="1.9"/><rect class="cls-2" x="1164.71" y="693.68" width="3.97" height="3.97"/><circle class="cls-3" cx="1166.7" cy="695.67" r="1.99"/><rect class="cls-2" x="1022.3" y="888.88" width="4.09" height="4.09"/><circle class="cls-3" cx="1024.35" cy="890.93" r="2.05"/><rect class="cls-2" x="887.19" y="845.47" width="3.88" height="3.88"/><circle class="cls-3" cx="889.13" cy="847.41" r="1.94"/><rect class="cls-2" x="751.37" y="736.96" width="3.7" height="3.7"/><circle class="cls-3" cx="753.22" cy="738.81" r="1.85"/><rect class="cls-2" x="598.69" y="953.29" width="8.67" height="8.67"/><circle class="cls-3" cx="603.03" cy="957.63" r="4.34"/><rect class="cls-2" x="458.8" y="805.83" width="11.03" height="11.03"/><circle class="cls-3" cx="464.31" cy="811.34" r="5.51"/><rect class="cls-2" x="342.28" y="678.13" width="11.13" height="11.13"/><circle class="cls-3" cx="347.84" cy="683.7" r="5.56"/><rect class="cls-2" x="82.93" y="652.22" width="3.54" height="3.54"/><circle class="cls-3" cx="84.7" cy="653.99" r="1.77"/><rect class="cls-2" x="315.46" y="545.93" width="2.95" height="2.95"/><circle class="cls-3" cx="316.94" cy="547.41" r="1.48"/><rect class="cls-2" x="460.61" y="535.18" width="4.2" height="4.2"/><circle class="cls-3" cx="462.71" cy="537.28" r="2.1"/><rect class="cls-2" x="590.62" y="692.08" width="9.22" height="9.22"/><circle class="cls-3" cx="595.23" cy="696.69" r="4.61"/><rect class="cls-2" x="733.78" y="798.42" width="6.17" height="6.17"/><circle class="cls-3" cx="736.87" cy="801.51" r="3.09"/><rect class="cls-2" x="886.36" y="665.96" width="4.74" height="4.74"/><circle class="cls-3" cx="888.73" cy="668.33" r="2.37"/><rect class="cls-2" x="1017.94" y="589.99" width="5.9" height="5.9"/><circle class="cls-3" cx="1020.89" cy="592.94" r="2.95"/><rect class="cls-2" x="1154.78" y="748.93" width="5.67" height="5.67"/><circle class="cls-3" cx="1157.61" cy="751.77" r="2.83"/><rect class="cls-2" x="1292.14" y="596.87" width="8.9" height="8.9"/><circle class="cls-3" cx="1296.59" cy="601.32" r="4.45"/><rect class="cls-2" x="1416.27" y="504.38" width="9.05" height="9.05"/><circle class="cls-3" cx="1420.8" cy="508.91" r="4.53"/><rect class="cls-2" x="1540.04" y="508.64" width="6.61" height="6.61"/><circle class="cls-3" cx="1543.34" cy="511.95" r="3.3"/><rect class="cls-2" x="1732.63" y="690.26" width="9.4" height="9.4"/><circle class="cls-3" cx="1737.34" cy="694.97" r="4.7"/><rect class="cls-2" x="1708.82" y="462.18" width="6.04" height="6.04"/><circle class="cls-3" cx="1711.84" cy="465.19" r="3.02"/><rect class="cls-2" x="1685.27" y="575.37" width="10.92" height="10.92"/><circle class="cls-3" cx="1690.73" cy="580.83" r="5.46"/><rect class="cls-2" x="1564.7" y="340.79" width="9.57" height="9.57"/><circle class="cls-3" cx="1569.48" cy="345.57" r="4.78"/><rect class="cls-2" x="1411.55" y="237.62" width="8.3" height="8.3"/><circle class="cls-3" cx="1415.7" cy="241.77" r="4.15"/><rect class="cls-2" x="1287.21" y="428.67" width="6.48" height="6.48"/><circle class="cls-3" cx="1290.45" cy="431.91" r="3.24"/><rect class="cls-2" x="1146.74" y="293.69" width="10.44" height="10.44"/><circle class="cls-3" cx="1151.96" cy="298.91" r="5.22"/><rect class="cls-2" x="1012.7" y="399.87" width="4.32" height="4.32"/><circle class="cls-3" cx="1014.86" cy="402.03" r="2.16"/><rect class="cls-2" x="864.05" y="295.06" width="9.09" height="9.09"/><circle class="cls-3" cx="868.59" cy="299.61" r="4.54"/><rect class="cls-2" x="739.28" y="372.25" width="3.51" height="3.51"/><circle class="cls-3" cx="741.04" cy="374.01" r="1.76"/><rect class="cls-2" x="611.05" y="330.39" width="3.39" height="3.39"/><circle class="cls-3" cx="612.75" cy="332.09" r="1.7"/><rect class="cls-2" x="460.3" y="496.84" width="4.45" height="4.45"/><circle class="cls-3" cx="462.53" cy="499.07" r="2.23"/><rect class="cls-2" x="318.09" y="410.98" width="5.36" height="5.36"/><circle class="cls-3" cx="320.76" cy="413.66" r="2.68"/><rect class="cls-2" x="229.36" y="245.02" width="5.16" height="5.16"/><circle class="cls-3" cx="231.94" cy="247.6" r="2.58"/><rect class="cls-2" x="26.86" y="242.07" width="5.62" height="5.62"/><circle class="cls-3" cx="29.67" cy="244.88" r="2.81"/><rect class="cls-2" x="259.46" y="384.63" width="4.27" height="4.27"/><circle class="cls-3" cx="261.6" cy="386.77" r="2.14"/><rect class="cls-2" x="367.55" y="373.01" width="9.89" height="9.89"/><circle class="cls-3" cx="372.49" cy="377.96" r="4.94"/><rect class="cls-2" x="513.27" y="354.58" width="3.02" height="3.02"/><circle class="cls-3" cx="514.78" cy="356.09" r="1.51"/><rect class="cls-2" x="643.01" y="198.66" width="4.53" height="4.53"/><circle class="cls-3" cx="645.28" cy="200.92" r="2.26"/><rect class="cls-2" x="768.72" y="309.38" width="11.18" height="11.18"/><circle class="cls-3" cx="774.31" cy="314.96" r="5.59"/><rect class="cls-2" x="924.01" y="153.31" width="3.19" height="3.19"/><circle class="cls-3" cx="925.6" cy="154.9" r="1.6"/><rect class="cls-2" x="1058.31" y="187.09" width="10.45" height="10.45"/><circle class="cls-3" cx="1063.53" cy="192.32" r="5.22"/><rect class="cls-2" x="1205.74" y="235.14" width="6.93" height="6.93"/><circle class="cls-3" cx="1209.2" cy="238.6" r="3.47"/><rect class="cls-2" x="1339.29" y="351.51" width="5.18" height="5.18"/><circle class="cls-3" cx="1341.88" cy="354.1" r="2.59"/><rect class="cls-2" x="1479.74" y="138.8" width="8.37" height="8.37"/><circle class="cls-3" cx="1483.93" cy="142.99" r="4.19"/><rect class="cls-2" x="1623.24" y="349.05" width="4.27" height="4.27"/><circle class="cls-3" cx="1625.38" cy="351.18" r="2.14"/><rect class="cls-2" x="1714.15" y="74.88" width="7.94" height="7.94"/><circle class="cls-3" cx="1718.12" cy="78.85" r="3.97"/><rect class="cls-2" x="1795.73" y="137.49" width="3.07" height="3.07"/><circle class="cls-3" cx="1797.26" cy="139.03" r="1.54"/><rect class="cls-2" x="1631.11" y="180.77" width="9.27" height="9.27"/><circle class="cls-3" cx="1635.75" cy="185.4" r="4.63"/><rect class="cls-2" x="1499.79" y="261.89" width="3.28" height="3.28"/><circle class="cls-3" cx="1501.43" cy="263.53" r="1.64"/><rect class="cls-2" x="1365.2" y="125.65" width="3.9" height="3.9"/><circle class="cls-3" cx="1367.15" cy="127.6" r="1.95"/><rect class="cls-2" x="1093.35" y="95.98" width="3.57" height="3.57"/><circle class="cls-3" cx="1095.13" cy="97.76" r="1.78"/><rect class="cls-2" x="954.13" y="199.91" width="9.71" height="9.71"/><circle class="cls-3" cx="958.98" cy="204.77" r="4.85"/><rect class="cls-2" x="807.31" y="131.06" width="11.34" height="11.34"/><circle class="cls-3" cx="812.98" cy="136.72" r="5.67"/><rect class="cls-2" x="682.4" y="147.41" width="6.8" height="6.8"/><circle class="cls-3" cx="685.8" cy="150.81" r="3.4"/><rect class="cls-2" x="543.74" y="63.29" width="4.4" height="4.4"/><circle class="cls-3" cx="545.94" cy="65.49" r="2.2"/><rect class="cls-2" x="402.61" y="29.05" width="11.51" height="11.51"/><circle class="cls-3" cx="408.37" cy="34.8" r="5.75"/><rect class="cls-2" x="141.85" y="148.95" width="7.09" height="7.09"/><circle class="cls-3" cx="145.39" cy="152.49" r="3.55"/><rect class="cls-3" x="-30.67" y="995.49" width="1991.68" height="276.84"/><polygon class="cls-4" points="998.66 921.71 960 975.62 1037.32 975.62 998.66 921.71"/><polygon class="cls-4" points="998.66 904.7 968.55 946.68 1028.77 946.68 998.66 904.7"/><polygon class="cls-4" points="998.66 889.5 976.86 919.9 1020.46 919.9 998.66 889.5"/><polygon class="cls-5" points="980.75 946.68 1016.57 946.68 1017.99 948.66 980.75 946.68"/><polygon class="cls-5" points="987.77 919.9 1009.56 919.9 1010.43 921.11 987.77 919.9"/><path class="cls-3" d="M995.46,889.1l-2.67,3.72A3.93,3.93,0,0,0,996,899h5.33a3.92,3.92,0,0,0,3.19-6.21l-2.66-3.72A3.93,3.93,0,0,0,995.46,889.1Z"/><circle class="cls-3" cx="991.37" cy="899.05" r="2.43"/><circle class="cls-3" cx="996.23" cy="899.05" r="2.43"/><circle class="cls-3" cx="1005.95" cy="899.05" r="2.43"/><path class="cls-3" d="M990,922.35H976.86a2.45,2.45,0,1,1,0-4.9H990a2.45,2.45,0,0,1,0,4.9Z"/><path class="cls-3" d="M998.23,922.35h-2a2.45,2.45,0,0,1,0-4.9h2a2.45,2.45,0,0,1,0,4.9Z"/><rect class="cls-6" x="993.78" y="975.62" width="9.74" height="19.88"/><polygon class="cls-4" points="148.81 857.37 76.43 958.28 221.18 958.28 148.81 857.37"/><polygon class="cls-4" points="148.81 825.52 92.44 904.11 205.17 904.11 148.81 825.52"/><polygon class="cls-4" points="148.81 797.06 107.99 853.98 189.63 853.98 148.81 797.06"/><polygon class="cls-5" points="115.28 904.11 182.33 904.11 184.99 907.83 115.28 904.11"/><polygon class="cls-5" points="128.42 853.98 169.22 853.98 170.84 856.24 128.42 853.98"/><path class="cls-3" d="M145.6,792.45,133.94,808.7a3.92,3.92,0,0,0,3.19,6.21h23.31a3.92,3.92,0,0,0,3.19-6.21L152,792.45A3.92,3.92,0,0,0,145.6,792.45Z"/><circle class="cls-3" cx="135.16" cy="814.95" r="4.55"/><circle class="cls-3" cx="144.26" cy="814.95" r="4.55"/><circle class="cls-3" cx="162.45" cy="814.95" r="4.55"/><path class="cls-3" d="M132.5,858.56H108a4.58,4.58,0,0,1,0-9.16H132.5a4.58,4.58,0,1,1,0,9.16Z"/><path class="cls-3" d="M148,858.56h-3.74a4.58,4.58,0,1,1,0-9.16H148a4.58,4.58,0,0,1,0,9.16Z"/><rect class="cls-6" x="139.67" y="958.28" width="18.23" height="37.21"/><polygon class="cls-5" points="705.63 896.13 653.57 968.73 757.7 968.73 705.63 896.13"/><polygon class="cls-5" points="705.63 873.22 665.09 929.76 746.18 929.76 705.63 873.22"/><polygon class="cls-5" points="705.63 852.75 676.27 893.69 735 893.69 705.63 852.75"/><polygon class="cls-7" points="681.52 929.76 729.75 929.76 731.66 932.43 681.52 929.76"/><polygon class="cls-7" points="690.97 893.69 720.33 893.69 721.49 895.32 690.97 893.69"/><path class="cls-3" d="M702.44,850.67l-6.24,8.71a3.93,3.93,0,0,0,3.19,6.21h12.48a3.92,3.92,0,0,0,3.19-6.21l-6.24-8.71A3.93,3.93,0,0,0,702.44,850.67Z"/><circle class="cls-3" cx="695.83" cy="865.62" r="3.27"/><circle class="cls-3" cx="702.38" cy="865.62" r="3.27"/><circle class="cls-3" cx="708.92" cy="865.62" r="3.27"/><circle class="cls-3" cx="715.46" cy="865.62" r="3.27"/><path class="cls-3" d="M746.18,933H719.77a3.3,3.3,0,1,1,0-6.59h26.41a3.3,3.3,0,0,1,0,6.59Z"/><rect class="cls-6" x="699.07" y="968.73" width="13.12" height="26.77"/><polygon class="cls-5" points="1756.93 909.6 1711.93 972.35 1801.94 972.35 1756.93 909.6"/><polygon class="cls-5" points="1756.93 889.79 1721.88 938.67 1791.98 938.67 1756.93 889.79"/><polygon class="cls-5" points="1756.93 872.1 1731.55 907.49 1782.32 907.49 1756.93 872.1"/><polygon class="cls-7" points="1736.09 938.67 1777.78 938.67 1779.44 940.98 1736.09 938.67"/><polygon class="cls-7" points="1744.26 907.49 1769.64 907.49 1770.64 908.9 1744.26 907.49"/><path class="cls-3" d="M1753.75,870.91l-4.36,6.07a3.93,3.93,0,0,0,3.19,6.22h8.71a3.93,3.93,0,0,0,3.19-6.22l-4.36-6.07A3.91,3.91,0,0,0,1753.75,870.91Z"/><circle class="cls-3" cx="1748.46" cy="883.22" r="2.83"/><circle class="cls-3" cx="1754.12" cy="883.22" r="2.83"/><circle class="cls-3" cx="1759.78" cy="883.22" r="2.83"/><circle class="cls-3" cx="1765.43" cy="883.22" r="2.83"/><path class="cls-3" d="M1792,941.48h-22.83a2.85,2.85,0,0,1,0-5.7H1792a2.85,2.85,0,0,1,0,5.7Z"/><rect class="cls-6" x="1751.26" y="972.35" width="11.34" height="23.14"/><polygon class="cls-8" points="531.03 900.89 454.43 826.28 377.82 900.89 377.82 995.49 531.03 995.49 531.03 900.89"/><path class="cls-9" d="M432.1,920.81h0a24,24,0,0,1,24,24v50.64a0,0,0,0,1,0,0H408.06a0,0,0,0,1,0,0V944.85A24,24,0,0,1,432.1,920.81Z"/><path class="cls-10" d="M494.1,920.81h0A15.23,15.23,0,0,1,509.33,936v19.72a0,0,0,0,1,0,0H478.87a0,0,0,0,1,0,0V936a15.23,15.23,0,0,1,15.23-15.23Z"/><rect class="cls-8" x="392.43" y="784.52" width="43.53" height="65.12"/><path class="cls-3" d="M357.44,916.59a15.51,15.51,0,0,1-10.95-26.48l97-96.77a15.5,15.5,0,0,1,21.9,0l97,96.77a15.5,15.5,0,0,1-21.9,21.95l-86-85.85-86,85.85A15.46,15.46,0,0,1,357.44,916.59Z"/><path class="cls-3" d="M436,786.33H390.57a7,7,0,0,1,0-14H436a7,7,0,0,1,0,14Z"/><circle class="cls-9" cx="1380.23" cy="898.17" r="68.09"/><path class="cls-11" d="M1325,904.46h-.42a6,6,0,0,1-5.58-6.4,62.43,62.43,0,0,1,80.87-55.28,62.16,62.16,0,0,1,10.52,4.36,6,6,0,1,1-5.6,10.62,51.09,51.09,0,0,0-8.5-3.53A50.4,50.4,0,0,0,1331,898.88,6,6,0,0,1,1325,904.46Z"/><circle class="cls-9" cx="1432.47" cy="850.21" r="4.71"/><path class="cls-8" d="M1307,921.06a6,6,0,0,0-6,5.3,22.33,22.33,0,0,1-44.26,1.2,7.79,7.79,0,0,0-7.72-6.5h0v44.56a4.55,4.55,0,0,0,4.55,4.55h137.13a4.56,4.56,0,0,0,4.56-4.55v-40a4.55,4.55,0,0,0-4.56-4.55Z"/><path class="cls-9" d="M1380.7,963.63h-49a3.5,3.5,0,0,1,0-7h49a1.06,1.06,0,0,0,1-1v-20a3.5,3.5,0,0,1,7,0v20A8.06,8.06,0,0,1,1380.7,963.63Z"/><path class="cls-10" d="M1409.15,995.49H1205.59c-17,0-31.46-13.33-32-30.37a31.32,31.32,0,0,1,59.89-13.74l-.14.07a14,14,0,0,1-15-2.49,20.32,20.32,0,1,0-13.47,35.53h193.23a11,11,0,0,1,11,11Z"/><rect class="cls-10" x="1331.24" y="976.44" width="23.54" height="11" transform="translate(2324.96 -361.07) rotate(90)"/><rect class="cls-10" x="1280.27" y="976.44" width="23.54" height="11" transform="translate(2273.98 -310.1) rotate(90)"/><circle class="cls-3" cx="1433.7" cy="838.08" r="7.83"/><circle class="cls-3" cx="1444.42" cy="848.5" r="7.83"/><circle class="cls-3" cx="1611.2" cy="958.28" r="37.22"/><circle class="cls-3" cx="1611.2" cy="902.69" r="23.59"/><path class="cls-8" d="M1596.15,882.48c2.75-13.68,9.93-23.79,23.25-21.11s16,14.77,13.29,28.46"/><path class="cls-8" d="M1638.27,893.37l-48.63-9.78a2.37,2.37,0,1,1,.93-4.64l48.63,9.77a2.37,2.37,0,0,1-.93,4.65Z"/><path class="cls-12" d="M1552.79,921.18a3.07,3.07,0,0,1-.9-.14l-22.32-7a3,3,0,0,1,1.78-5.73l17.86,5.58L1547,897.08a3,3,0,1,1,6-.77l2.79,21.48a3,3,0,0,1-3,3.39Z"/><path class="cls-12" d="M1587.61,941a2.94,2.94,0,0,1-1.48-.4l-34.83-19.77a3,3,0,0,1,3-5.22l34.82,19.78a3,3,0,0,1-1.48,5.61Z"/><path class="cls-12" d="M1653,914.33a3,3,0,0,1-3-3v-21.5a3,3,0,0,1,6,0V908.1l17.44-1.27a3,3,0,0,1,.44,6l-20.66,1.51Z"/><path class="cls-12" d="M1626.9,942.21a3,3,0,0,1-2.05-.81,3,3,0,0,1-.14-4.24l26-27.88a3,3,0,0,1,4.39,4.1l-26.06,27.88A3,3,0,0,1,1626.9,942.21Z"/><circle class="cls-3" cx="625.05" cy="481.04" r="18.48"/></g><g id="Midgrund"><g id="Titelboks"><rect class="cls-6" x="344.01" y="149.83" width="1258.8" height="655.5" rx="29.83"/><path class="cls-3" d="M1626.9,165.33h-1307a15.5,15.5,0,0,1,0-31h1307a15.5,15.5,0,0,1,0,31Z"/><path class="cls-13" d="M1373.25,733c35.65,164.59-68.87,326.92-233.46,362.57s-326.91-68.88-362.56-233.46"/><ellipse class="cls-2" cx="1075.24" cy="797.56" rx="304.92" ry="73.38" transform="translate(-144.47 245.7) rotate(-12.22)"/><path class="cls-6" d="M1088.42,858.4c-78.77,17.06-154.3,25.73-212.67,24.39-27.36-.62-50.09-3.54-65.73-8.45-12.8-4-20.79-9.33-21.93-14.59S792,846.35,802,837.4c12.21-10.94,31.69-23,56.34-34.9,52.59-25.36,124.93-48.73,203.7-65.79s154.3-25.73,212.67-24.39c27.36.62,50.09,3.54,65.73,8.45,12.79,4,20.79,9.33,21.92,14.59s-3.93,13.4-13.92,22.35c-12.21,10.94-31.69,23-56.34,34.9C1239.53,818,1167.19,841.34,1088.42,858.4Z"/><circle class="cls-3" cx="854.65" cy="816.43" r="66.91"/><circle class="cls-3" cx="930.14" cy="731.62" r="66.91"/><circle class="cls-3" cx="1015.73" cy="683.66" r="66.91"/><circle class="cls-3" cx="1118.53" cy="670.36" r="52.47"/><circle class="cls-3" cx="1194.26" cy="687.09" r="76.97"/><circle class="cls-3" cx="866.03" cy="767.79" r="33.89"/><circle class="cls-3" cx="960.17" cy="685.65" r="33.89"/><circle class="cls-3" cx="1252.45" cy="669.14" r="33.89"/><circle class="cls-3" cx="1285.08" cy="708.27" r="42.83"/><circle class="cls-3" cx="1278.77" cy="658.45" r="14.4"/><circle class="cls-3" cx="1073.56" cy="653.49" r="33.89"/><path class="cls-2" d="M1362.38,735.36c-.71-3.29-4.11-6.61-9.69-9.61a52,52,0,0,1,8.16,17.16C1362.3,740,1362.84,737.46,1362.38,735.36Z"/><path class="cls-3" d="M1352.69,725.75h0a52.7,52.7,0,0,0-24.79-18.62h0A52.47,52.47,0,0,0,1261.09,738a219.07,219.07,0,0,0-384.54,84.64,56,56,0,0,0-86.36,41c3.32,3.91,10.22,7.66,19.83,10.67,14.65,4.59,35.52,7.45,60.59,8.31,1.69.06,3.41.1,5.14.14q11.84.27,24.59,0c54.27-1.16,120-9.63,188.08-24.39,72.41-15.68,139.38-36.69,190.57-59.69q6.75-3,13.13-6.1l.53-.26c24.4-11.81,43.69-23.78,55.81-34.64,6-5.37,10.22-10.46,12.39-14.8A52,52,0,0,0,1352.69,725.75Z"/><path class="cls-12" d="M1352.69,725.75h0a52.7,52.7,0,0,0-24.79-18.62h0A52.7,52.7,0,0,1,1352.69,725.75Z"/><path class="cls-12" d="M1327.87,706.21c0,.31,0,.62,0,.92a52.7,52.7,0,0,1,24.79,18.62c5.58,3,9,6.32,9.69,9.61,1.14,5.25-3.93,13.4-13.92,22.35-12.21,10.94-31.69,23-56.34,34.9-52.59,25.36-124.93,48.73-203.7,65.79s-154.3,25.73-212.67,24.39c-27.36-.62-50.09-3.54-65.73-8.45-12.8-4-20.79-9.33-21.93-14.59-.79-3.65,1.42-8.7,6.19-14.44A67.73,67.73,0,0,1,790,833.53c-10,10.22-14.62,19.91-12.74,28.58,8.57,39.6,148.95,42.81,313.54,7.16S1381.83,772.61,1373.25,733C1370.5,720.3,1354.19,711.34,1327.87,706.21Z"/><path class="cls-14" d="M857.83,777.32A8.5,8.5,0,0,1,852,762.68a56.91,56.91,0,0,1,27.29-14.47A56.34,56.34,0,0,1,909.88,750a42.08,42.08,0,0,1,22.35-12.85c.53-.11,1.06-.22,1.6-.31a27.22,27.22,0,0,1,43.25-20.26,8.5,8.5,0,1,1-10,13.72,10.21,10.21,0,0,0-16,10.39,11.28,11.28,0,0,0,.36,1.24l4.28,12.13-12.83-.81a25.38,25.38,0,0,0-23,11.67l-4.08,6.4L908.89,768a40,40,0,0,0-45.19,7A8.45,8.45,0,0,1,857.83,777.32Z"/><path class="cls-14" d="M1003.33,852a8.49,8.49,0,0,1-8.2-6.27,23.94,23.94,0,0,0-36.49-13.57l-6.29,4.24-4.93-5.77a14.3,14.3,0,0,0-2.94-2.61,14.2,14.2,0,0,0-21.81,9.18A8.5,8.5,0,1,1,906,834a31.19,31.19,0,0,1,47.92-20.19c.41.28.82.56,1.22.86a40.94,40.94,0,0,1,56.42,26.55,8.5,8.5,0,0,1-6,10.43A8.66,8.66,0,0,1,1003.33,852Z"/><path class="cls-14" d="M1271.92,705.15a8.5,8.5,0,0,1-7.82-5.18,30.64,30.64,0,0,0-49-10.37l-8.91,8.33-4.73-11.25a11.81,11.81,0,0,0-20.79-1.82c-.22.35-.44.73-.65,1.14l-3.35,6.7-7.07-2.49a18.35,18.35,0,0,0-21.58,7.37,8.5,8.5,0,1,1-14.27-9.24,35.29,35.29,0,0,1,35-15.8,28.84,28.84,0,0,1,37.53-5.46,29.29,29.29,0,0,1,5.08,4.18,47.62,47.62,0,0,1,68.47,22.06,8.5,8.5,0,0,1-7.82,11.83Z"/><path class="cls-14" d="M1088.62,828.42a8.49,8.49,0,0,1-8-5.68,33.59,33.59,0,0,1,44.16-42.37,47.8,47.8,0,0,1,40.32-6.74,28.79,28.79,0,0,1,41.45-10,35.28,35.28,0,0,1,37.88,6,8.5,8.5,0,1,1-11.34,12.67,18.34,18.34,0,0,0-22.75-1.43l-6.16,4.27-5-5.58a11.65,11.65,0,0,0-.93-.93,11.8,11.8,0,0,0-19.57,7.23l-1.6,12.1-10.79-5.69a30.66,30.66,0,0,0-34.78,4.4l-4.82,4.37-5.48-3.51a16.59,16.59,0,0,0-24.55,19.52,8.51,8.51,0,0,1-5.19,10.85A8.76,8.76,0,0,1,1088.62,828.42Z"/><path class="cls-14" d="M1005.34,721.05a7.09,7.09,0,0,1-.79,0,8.5,8.5,0,0,1-7.69-9.24,47.67,47.67,0,0,1,55-42.64,33.59,33.59,0,0,1,48.08-1.56,8.5,8.5,0,1,1-11.78,12.26,16.58,16.58,0,0,0-25.61,3.25l-3.41,5.52-6.22-1.83a30.65,30.65,0,0,0-39.11,26.55A8.5,8.5,0,0,1,1005.34,721.05Z"/><path class="cls-8" d="M985.34,382q3-9.67,6-19.23t6.47-19.12a45.22,45.22,0,0,0-5.89,2q-3.55,1.46-7.46,3.38t-7.81,4.31a71.3,71.3,0,0,0-7,4.84,30.69,30.69,0,0,0-5.07,4.95,8.43,8.43,0,0,0-2.1,4.72,2.29,2.29,0,0,0,.87,2.1,6.16,6.16,0,0,0,2.16,1.17h1.28a9.42,9.42,0,0,0,2.8-.53,27,27,0,0,0,3.15-1.22c1-.47,1.92-.87,2.74-1.22a5.29,5.29,0,0,1,1.69-.53,1.9,1.9,0,0,1,1.74,1,8,8,0,0,1,.88,2.33,16.54,16.54,0,0,1,.35,2.68,8.83,8.83,0,0,1-.06,1.93,16,16,0,0,1-5.25,11.71q-4.89,4.38-14,4.37A27.51,27.51,0,0,1,951,390a23.61,23.61,0,0,1-7.58-4.54,18.28,18.28,0,0,1-4.72-6.76,19.25,19.25,0,0,1-1.34-8.34,22.71,22.71,0,0,1,4.78-12.76,50,50,0,0,1,11.42-10.79,85.45,85.45,0,0,1,15.86-8.62,154.44,154.44,0,0,1,35.9-10.2,104.67,104.67,0,0,1,15.62-1.34c1.09,0,2.19.06,3.32.17a11.62,11.62,0,0,1,3,.7,5.26,5.26,0,0,1,2.16,1.52,3.82,3.82,0,0,1,.7,2.74,17.32,17.32,0,0,1-1.11,4.43c-.74,2.17-1.59,4.51-2.56,7s-1.89,4.86-2.74,7.11-1.44,3.81-1.75,4.67q-3.15,7.8-6,15.62t-5.53,15.73h.11a9.18,9.18,0,0,0,2.16-.23l2-.47c2.25-.39,4.51-.72,6.76-1a56.78,56.78,0,0,1,6.76-.41H1030a20.51,20.51,0,0,1,7.58,1.34,8.31,8.31,0,0,1,4.78,5h.11q2.34-6,5.66-14.11t7-16.72q3.67-8.58,7.46-16.61t6.94-13.64a46.61,46.61,0,0,1,3.32-4.72,23.22,23.22,0,0,1,4.08-4A18.28,18.28,0,0,1,1082,318a19.54,19.54,0,0,1,6.35-1,19.76,19.76,0,0,1,9.27,2.22,48.48,48.48,0,0,1,7.63,4.89,1,1,0,0,0,.18.53,1,1,0,0,1,.17.52,2.73,2.73,0,0,1-.75,1.52c-.51.62-1.07,1.26-1.69,1.92s-1.27,1.29-1.93,1.87-1.1,1-1.34,1.22a77.83,77.83,0,0,0-10.2,13.87q-5.42,9-10.78,20.11t-10.43,23.55q-5.07,12.4-9.27,24.3t-7,22.32a173.88,173.88,0,0,0-4,17.55q0,.69-.3,3.15c-.19,1.63-.44,3.36-.75,5.18s-.63,3.46-.94,4.9-.66,2.2-1,2.27a4.54,4.54,0,0,1-1.86.35,20.76,20.76,0,0,1-8.45-1.57,17.59,17.59,0,0,1-5.95-4.2,16.25,16.25,0,0,1-3.49-6.06,19.33,19.33,0,0,1-.88-7.17,84,84,0,0,1,1.63-12.06q1.29-6.12,3.21-12.24t4.08-12.13q2.16-6,4.25-11.59c-2.41-.24-4.85-.45-7.34-.65s-5-.29-7.46-.29q-4.67,0-9.21.41t-9.21,1.11q-1.4,4-4,10.08t-5.89,13.23q-3.32,7.11-7.05,14.75t-7.4,14.63q-3.67,7-6.94,12.88T967.51,478a43.81,43.81,0,0,1-6.94,8.51,43,43,0,0,1-9,6.59A47.37,47.37,0,0,1,941,497.31a46.41,46.41,0,0,1-12,1.51,55.69,55.69,0,0,1-12.41-1.4,36,36,0,0,1-10.73-4.19,22.33,22.33,0,0,1-7.34-7.12,17.39,17.39,0,0,1-2.51-10.25,18.67,18.67,0,0,1,2-7.29,21.2,21.2,0,0,1,4.9-6.29,25.07,25.07,0,0,1,7.17-4.43,22.54,22.54,0,0,1,8.74-1.69,16.62,16.62,0,0,1,3.56.58,44.24,44.24,0,0,1,4.78,1.46,23.82,23.82,0,0,1,4.13,1.92c1.17.7,1.71,1.4,1.64,2.1a46.06,46.06,0,0,0-6.12,6.35,13,13,0,0,0-2.86,7.52,4,4,0,0,0,1.69,3.85,8.39,8.39,0,0,0,4.6,1.16q3.39,0,7.35-3.84a64.31,64.31,0,0,0,8.22-10.2q4.25-6.36,8.74-14.58t8.57-17q4.08-8.81,7.87-17.49t6.7-16q2.91-7.33,5-12.65C984.08,385.77,985,383.34,985.34,382Z"/><path class="cls-8" d="M1101.45,435.64a85,85,0,0,0,11.83-12.12,104.32,104.32,0,0,0,9.15-13.52,124.37,124.37,0,0,0,6.94-14.34,142.24,142.24,0,0,0,5.07-14.81c.31-1,.65-2.08,1-3.2a10.88,10.88,0,0,1,1.63-3.09,9.2,9.2,0,0,1,2.56-2.33,7.25,7.25,0,0,1,3.85-.94,44.42,44.42,0,0,1,6.23.41,13.79,13.79,0,0,1,4.9,1.58,7.78,7.78,0,0,1,3.09,3.09,9.76,9.76,0,0,1,.93,5.07,33.18,33.18,0,0,1-1.86,8.1q-1.75,5.29-4,11.13t-4.43,11.13q-2.2,5.31-3.38,8.22-2,5.25-3.9,11a40.42,40.42,0,0,0-2.16,11.07,3.63,3.63,0,0,0,.06,1.46,2.74,2.74,0,0,0,.76,1.34h.7q1.39,0,3.9-2a64.91,64.91,0,0,0,5.07-4.49c1.71-1.67,3.31-3.32,4.78-4.95s2.45-2.72,2.92-3.27a78.38,78.38,0,0,0,6.52-8.74c2-3,4-6,6.3-8.86a20.84,20.84,0,0,1,1.75-2,3.86,3.86,0,0,1,2.45-1.34,1.82,1.82,0,0,1,.58,1.28v1.4a27.21,27.21,0,0,1-.7,4.49,51.25,51.25,0,0,1-1.46,5.07q-.87,2.56-1.92,5t-1.75,4.43a81.57,81.57,0,0,1-6.29,11,58.18,58.18,0,0,1-9.1,10.49,49.19,49.19,0,0,1-11.71,7.93,31.31,31.31,0,0,1-13.82,3.14c-5.12,0-8.76-1.08-10.89-3.26s-3.09-5.28-2.86-9.33a43.15,43.15,0,0,1,1.86-10.84q1.63-5.35,3.38-10.6v-.12h-.11a104.26,104.26,0,0,1-6.76,10.72,74.55,74.55,0,0,1-9.68,11.14,57.89,57.89,0,0,1-12,8.74,27.79,27.79,0,0,1-13.58,3.55,12.63,12.63,0,0,1-7-1.8A14,14,0,0,1,1066,457a16.79,16.79,0,0,1-2.16-6,31,31,0,0,1-.4-6.18,75.59,75.59,0,0,1,1.8-12q1.45-6.4,3.44-12.94t4.43-12.76q2.45-6.24,4.66-11.48c.55-1.17,1.3-2.78,2.28-4.84s2.07-4.18,3.32-6.35a64.19,64.19,0,0,1,3.85-6,14.8,14.8,0,0,1,3.84-3.9,20,20,0,0,1,4.49-2,16.5,16.5,0,0,1,5.07-.76,22.53,22.53,0,0,1,4.14.53,33.7,33.7,0,0,1,5.13,1.45,20.07,20.07,0,0,1,4.37,2.22,3.22,3.22,0,0,1,1.75,2.8,3.32,3.32,0,0,1-1.28,2.15,25,25,0,0,0-1.87,1.93,43.56,43.56,0,0,0-4.84,6.41,99.88,99.88,0,0,0-5.18,9.15q-2.56,5.07-5.07,10.66t-4.43,10.9q-1.93,5.31-3.15,9.74a33,33,0,0,0-1.34,7.34,7.17,7.17,0,0,0,.29,2.68c.27.93,1.07,1.4,2.39,1.4a6.69,6.69,0,0,0,2.56-.58,19.23,19.23,0,0,0,2.8-1.46,30.92,30.92,0,0,0,2.62-1.81A18.92,18.92,0,0,0,1101.45,435.64Z"/><path class="cls-8" d="M1178.85,383.3a4.22,4.22,0,0,0,1.92,4.08,9.55,9.55,0,0,0,5.19,1.28,27.92,27.92,0,0,0,10-2q5.17-2,10.2-4.37t9.67-4.37a21.4,21.4,0,0,1,8.16-2,5.84,5.84,0,0,1,3.79,1.1,7.77,7.77,0,0,1,2.1,2.8,10.39,10.39,0,0,1,.87,3.56,23.77,23.77,0,0,1,0,3.38,26.34,26.34,0,0,1-1.57,7.17q-1.45,4.26-3.44,8.68t-4.08,8.63c-1.4,2.8-2.56,5.13-3.5,7-.78,1.63-1.57,3.4-2.39,5.31s-1.59,3.86-2.33,5.88a59.89,59.89,0,0,0-1.86,6,27.36,27.36,0,0,0-.88,5.53c0,.31,0,.74-.06,1.28a4.7,4.7,0,0,0,.12,1.52,2.87,2.87,0,0,0,.64,1.22,1.63,1.63,0,0,0,1.28.53,6.76,6.76,0,0,0,4.08-2,39.64,39.64,0,0,0,4.84-5c1.67-2,3.38-4.28,5.13-6.77s3.38-4.89,4.9-7.22,2.89-4.47,4.13-6.42,2.14-3.38,2.69-4.31c.46-.62,1.08-1.44,1.86-2.45a3.29,3.29,0,0,1,2.56-1.51,1.7,1.7,0,0,1,.82,1.63,9.39,9.39,0,0,1-.12,1.75,54.24,54.24,0,0,1-1.92,12.18,65.67,65.67,0,0,1-4.66,12.18,60.41,60.41,0,0,1-7.29,11.25,57.94,57.94,0,0,1-9.79,9.5,29.51,29.51,0,0,1-6.53,3.61,19.76,19.76,0,0,1-7.46,1.4,38.49,38.49,0,0,1-8.86-1,23.36,23.36,0,0,1-7.28-3,14.4,14.4,0,0,1-4.84-5.07,13.39,13.39,0,0,1-1.52-7.4,27.61,27.61,0,0,1,1-5.83c.63-2.25,1.44-4.7,2.45-7.34s2.12-5.37,3.32-8.16,2.37-5.48,3.5-8.05,2.23-5,3.32-7.22,2-4.16,2.68-5.72a7.35,7.35,0,0,0,.59-1.22c.23-.58.5-1.18.81-1.81s.59-1.22.82-1.8a4.56,4.56,0,0,0,.35-1.11c.08-.78-.2-1.17-.82-1.17a9.49,9.49,0,0,0-2.74,1.63,61.26,61.26,0,0,1-5.82,3.62,56.47,56.47,0,0,1-8.05,3.61,27.87,27.87,0,0,1-9.61,1.63,11.55,11.55,0,0,1-6.18-1.51,12,12,0,0,1-3.91-3.79,13.42,13.42,0,0,1-1.92-5.07,25.45,25.45,0,0,1-.35-5.36,30.61,30.61,0,0,1,2-9.15,31.12,31.12,0,0,1,5.07-8.86,27.36,27.36,0,0,1,7.93-6.65,21.45,21.45,0,0,1,10.72-2.62,13,13,0,0,1,4.9,1,16.77,16.77,0,0,1,4.37,2.57,12.07,12.07,0,0,1,3,3.61,7.63,7.63,0,0,1,1,4.14,7,7,0,0,1-1.4,3.73,13,13,0,0,1-3.32,3.09,18.53,18.53,0,0,1-4.37,2.1,14.84,14.84,0,0,1-4.55.75,5.65,5.65,0,0,1-1.11-.11,2.65,2.65,0,0,1-1-.47c.39-.54.82-1.17,1.28-1.87a4.58,4.58,0,0,0,.82-2,5.47,5.47,0,0,0-.23-1.4,6.44,6.44,0,0,0-.76-1.63,5.72,5.72,0,0,0-1.17-1.34,2.38,2.38,0,0,0-1.57-.52,4.3,4.3,0,0,0-2.45.7,7.24,7.24,0,0,0-1.8,1.69,6.58,6.58,0,0,0-1.11,2.15A7.54,7.54,0,0,0,1178.85,383.3Z"/><path class="cls-8" d="M1255,383.3a4.22,4.22,0,0,0,1.92,4.08,9.55,9.55,0,0,0,5.19,1.28,27.87,27.87,0,0,0,10-2q5.19-2,10.21-4.37t9.67-4.37a21.4,21.4,0,0,1,8.16-2,5.86,5.86,0,0,1,3.79,1.1,7.77,7.77,0,0,1,2.1,2.8,10.39,10.39,0,0,1,.87,3.56,23.77,23.77,0,0,1,0,3.38,26.34,26.34,0,0,1-1.57,7.17q-1.47,4.26-3.44,8.68t-4.08,8.63l-3.5,7c-.78,1.63-1.57,3.4-2.39,5.31s-1.59,3.86-2.33,5.88a59.89,59.89,0,0,0-1.86,6,27.36,27.36,0,0,0-.88,5.53c0,.31,0,.74-.06,1.28a4.7,4.7,0,0,0,.12,1.52,2.87,2.87,0,0,0,.64,1.22,1.63,1.63,0,0,0,1.28.53,6.76,6.76,0,0,0,4.08-2,39.64,39.64,0,0,0,4.84-5c1.67-2,3.38-4.28,5.13-6.77s3.38-4.89,4.89-7.22,2.9-4.47,4.14-6.42,2.14-3.38,2.68-4.31c.47-.62,1.09-1.44,1.87-2.45a3.29,3.29,0,0,1,2.56-1.51,1.7,1.7,0,0,1,.82,1.63,9.39,9.39,0,0,1-.12,1.75,54.24,54.24,0,0,1-1.92,12.18,65.67,65.67,0,0,1-4.66,12.18,60.41,60.41,0,0,1-7.29,11.25,57.94,57.94,0,0,1-9.79,9.5,29.51,29.51,0,0,1-6.53,3.61,19.76,19.76,0,0,1-7.46,1.4,38.49,38.49,0,0,1-8.86-1,23.26,23.26,0,0,1-7.28-3,14.4,14.4,0,0,1-4.84-5.07,13.3,13.3,0,0,1-1.52-7.4,27.61,27.61,0,0,1,1-5.83q.93-3.37,2.45-7.34t3.32-8.16c1.21-2.8,2.37-5.48,3.5-8.05s2.23-5,3.32-7.22,2-4.16,2.68-5.72a7.35,7.35,0,0,0,.59-1.22c.23-.58.5-1.18.81-1.81s.59-1.22.82-1.8a4.56,4.56,0,0,0,.35-1.11c.07-.78-.2-1.17-.82-1.17a9.49,9.49,0,0,0-2.74,1.63,60.31,60.31,0,0,1-5.83,3.62,55.82,55.82,0,0,1-8,3.61,27.88,27.88,0,0,1-9.62,1.63,11.54,11.54,0,0,1-6.17-1.51,12,12,0,0,1-3.91-3.79,13.42,13.42,0,0,1-1.92-5.07,25.45,25.45,0,0,1-.35-5.36,30.61,30.61,0,0,1,2-9.15,31.12,31.12,0,0,1,5.07-8.86,27.36,27.36,0,0,1,7.93-6.65,21.45,21.45,0,0,1,10.72-2.62,13,13,0,0,1,4.9,1,16.77,16.77,0,0,1,4.37,2.57,12.07,12.07,0,0,1,3,3.61,7.72,7.72,0,0,1,1,4.14,7,7,0,0,1-1.4,3.73,13,13,0,0,1-3.32,3.09,18.53,18.53,0,0,1-4.37,2.1,14.84,14.84,0,0,1-4.55.75,5.65,5.65,0,0,1-1.11-.11,2.65,2.65,0,0,1-1-.47c.39-.54.82-1.17,1.28-1.87a4.58,4.58,0,0,0,.82-2,5.47,5.47,0,0,0-.23-1.4,6.44,6.44,0,0,0-.76-1.63,5.72,5.72,0,0,0-1.17-1.34,2.38,2.38,0,0,0-1.57-.52,4.3,4.3,0,0,0-2.45.7,7.46,7.46,0,0,0-1.81,1.69,6.75,6.75,0,0,0-1.1,2.15A7.54,7.54,0,0,0,1255,383.3Z"/><path class="cls-8" d="M1389.25,431.44a87.17,87.17,0,0,0,6.53-9.38q2.91-4.83,6-9.73c.15-.24.4-.59.76-1.05l1-1.4a6,6,0,0,1,1.23-1.23,2.24,2.24,0,0,1,1.28-.52c.23,0,.41.16.52.47a7.16,7.16,0,0,1,.3,1,5.08,5.08,0,0,1,.11,1v.58a56.47,56.47,0,0,1-1.63,11,64,64,0,0,1-10,21.8,61.56,61.56,0,0,1-7.86,9.09q-1.52,1.39-3.38,2.8a39.37,39.37,0,0,1-4,2.62,23.93,23.93,0,0,1-4.43,2,14.31,14.31,0,0,1-4.6.76,17.45,17.45,0,0,1-5.54-1.23,60.17,60.17,0,0,1-6.93-3,58.93,58.93,0,0,1-6.3-3.61,10.34,10.34,0,0,1-3.5-3.26q-2.57,2.32-5.12,4.37a35.33,35.33,0,0,1-5.42,3.55,29.15,29.15,0,0,1-6.12,2.39,28.59,28.59,0,0,1-7.35.88,19.3,19.3,0,0,1-11.19-3,23.68,23.68,0,0,1-7.11-7.57,30,30,0,0,1-3.67-9.91,42.48,42.48,0,0,1-.76-9.91,51.2,51.2,0,0,1,1.69-10.55,64.58,64.58,0,0,1,4-10.9,65.49,65.49,0,0,1,6-10.26,52.8,52.8,0,0,1,7.81-8.74,82,82,0,0,1,24-14.69,75.55,75.55,0,0,1,28.5-5.47,54,54,0,0,1,7,.52,38.38,38.38,0,0,1,7.52,1.75,17.37,17.37,0,0,1,5.94,3.32,6.36,6.36,0,0,1,2.27,5.25,4,4,0,0,1-.4,1.51c-.28.63-.61,1.28-1,2s-.78,1.36-1.17,2-.7,1.13-.93,1.52a54.85,54.85,0,0,0-2.51,5.25q-1.11,2.67-2.27,5.36-2.1,5.13-4.26,10.2t-4.13,10.31q-1.87,4.79-3.62,10a37.46,37.46,0,0,0-2,10.08,12.5,12.5,0,0,0,.06,2.69,1.69,1.69,0,0,0,1.92,1.63,5.33,5.33,0,0,0,3.15-1.63q1.86-1.63,3.85-3.74t3.61-4.07Zm-59.68-4.31c0,.78,0,1.69.06,2.74a9.39,9.39,0,0,0,.58,3,5.9,5.9,0,0,0,1.63,2.39,4.67,4.67,0,0,0,3.21,1,14.69,14.69,0,0,0,7.34-2,31.23,31.23,0,0,0,6.71-5.19,53.35,53.35,0,0,0,6-7.22q2.79-4,5.13-8.05t4.08-7.69c1.16-2.45,2.14-4.49,2.91-6.12q1-2.1,2.28-5.13a17,17,0,0,0,1.34-5.24,3.42,3.42,0,0,0-1.29-3.27,7.37,7.37,0,0,0-4.08-.93,26.14,26.14,0,0,0-10.37,2,33.77,33.77,0,0,0-8.68,5.36,41.53,41.53,0,0,0-7,7.69,54.86,54.86,0,0,0-8.45,18.19A46.26,46.26,0,0,0,1329.57,427.13Z"/><path class="cls-8" d="M1435,473.29a15.74,15.74,0,0,1,5.48.94,13.1,13.1,0,0,1,4.37,2.56,11.64,11.64,0,0,1,2.8,3.79,9.72,9.72,0,0,1,.87,4.6,9.07,9.07,0,0,1-1.16,4,10.91,10.91,0,0,1-2.86,3.26,14.72,14.72,0,0,1-4.08,2.21,14.1,14.1,0,0,1-4.84.82,15.62,15.62,0,0,1-5.36-.93,13.91,13.91,0,0,1-4.43-2.57,12.22,12.22,0,0,1-2.91-3.73,9.1,9.1,0,0,1-.94-4.54,8.76,8.76,0,0,1,1.23-4.08,11.72,11.72,0,0,1,2.91-3.27,14.86,14.86,0,0,1,4.08-2.21A14.1,14.1,0,0,1,1435,473.29Zm71.81-159.11c.7.31,1.51.66,2.44,1.05a24.52,24.52,0,0,1,2.68,1.28,8.28,8.28,0,0,1,2.16,1.63,2.74,2.74,0,0,1,.76,2.21,5.82,5.82,0,0,1-.47,1.69c-.31.82-.68,1.68-1.1,2.57l-1.23,2.56a11.27,11.27,0,0,1-.93,1.69q-16,33.69-30.19,67.44t-27.75,68.13a13.42,13.42,0,0,1-.7,2.28,2.48,2.48,0,0,1-1.86,1.8,2.71,2.71,0,0,1-1.11.41,9.73,9.73,0,0,1-1.1.06,20.74,20.74,0,0,1-4.78-.76,33.18,33.18,0,0,1-6.07-2.16,20.51,20.51,0,0,1-5.13-3.26,5,5,0,0,1-2-4,15.5,15.5,0,0,1,1-3.67c.66-1.91,1.5-4.16,2.51-6.77l3.26-8.39q1.75-4.49,3.44-8.45t3-7c.85-2,1.39-3.38,1.63-4.08q10-24.94,20.69-49.43T1488.22,322c.78-1.64,1.53-3.34,2.27-5.13a37.78,37.78,0,0,1,2.51-5,3.4,3.4,0,0,1,3.15-1.52,9.3,9.3,0,0,1,2.56.41,25.3,25.3,0,0,1,2.92,1.05c1,.42,2,.85,2.85,1.28Z"/><path class="cls-15" d="M1035.9,260a25.58,25.58,0,0,1-15.11-5l-45.29-32.9a3.55,3.55,0,0,0-4.18,0L926,255a25.58,25.58,0,0,1-15.11,5,26.12,26.12,0,0,1-21-10.81,25.42,25.42,0,0,1-3.56-23l17.3-53.25a3.55,3.55,0,0,0-1.28-4L857,136a25.8,25.8,0,0,1,15.17-46.67h56a3.54,3.54,0,0,0,3.38-2.46l17.3-53.24a25.8,25.8,0,0,1,49.08,0l17.3,53.24a3.54,3.54,0,0,0,3.38,2.46h56A25.8,25.8,0,0,1,1089.78,136l-45.3,32.91a3.57,3.57,0,0,0-1.29,4l17.31,53.25a25.42,25.42,0,0,1-3.56,23A26.12,26.12,0,0,1,1035.9,260Z"/><path class="cls-15" d="M987.37,37.08l17.3,53.24a14.67,14.67,0,0,0,14,10.14h56c14.22,0,20.13,18.2,8.63,26.55l-45.3,32.91a14.69,14.69,0,0,0-5.33,16.41l17.3,53.24c4.4,13.52-11.08,24.77-22.58,16.41L982,213.07a14.71,14.71,0,0,0-17.26,0L919.49,246c-11.5,8.36-27-2.89-22.58-16.41l17.3-53.24a14.69,14.69,0,0,0-5.33-16.41L863.58,127c-11.5-8.35-5.59-26.55,8.63-26.55h56a14.67,14.67,0,0,0,14-10.14l17.3-53.24C963.85,23.56,983,23.56,987.37,37.08Z"/><path class="cls-16" d="M987.37,37.08l17.3,53.24a14.67,14.67,0,0,0,14,10.14h56c14.22,0,20.13,18.2,8.63,26.55l-45.3,32.91a14.69,14.69,0,0,0-5.33,16.41l17.3,53.24c4.4,13.52-11.08,24.77-22.58,16.41L982,213.07a14.71,14.71,0,0,0-17.26,0L919.49,246c-11.5,8.36-27-2.89-22.58-16.41l17.3-53.24a14.69,14.69,0,0,0-5.33-16.41L863.58,127c-11.5-8.35-5.59-26.55,8.63-26.55h56a14.67,14.67,0,0,0,14-10.14l17.3-53.24C963.85,23.56,983,23.56,987.37,37.08Z"/><path class="cls-15" d="M1249.88,223.63a15.45,15.45,0,0,1-9.14-3l-27.38-19.89a2.11,2.11,0,0,0-1.26-.41,2.15,2.15,0,0,0-1.26.41l-27.38,19.89a15.52,15.52,0,0,1-9.14,3,15.78,15.78,0,0,1-12.71-6.53,15.36,15.36,0,0,1-2.15-13.93L1169.92,171a2.17,2.17,0,0,0-.78-2.4l-27.38-19.89a15.6,15.6,0,0,1,9.17-28.22h33.84a2.14,2.14,0,0,0,2-1.48l10.46-32.19a15.6,15.6,0,0,1,29.67,0L1237.4,119a2.12,2.12,0,0,0,2,1.48h33.84a15.6,15.6,0,0,1,9.17,28.22l-27.38,19.89a2.13,2.13,0,0,0-.78,2.4l10.46,32.19a15.36,15.36,0,0,1-2.15,13.92A15.78,15.78,0,0,1,1249.88,223.63Z"/><path class="cls-15" d="M1220.54,88.88,1231,121.07a8.88,8.88,0,0,0,8.44,6.13h33.84a8.87,8.87,0,0,1,5.22,16l-27.38,19.89a8.88,8.88,0,0,0-3.23,9.92l10.46,32.19a8.87,8.87,0,0,1-13.65,9.92l-27.38-19.9a8.9,8.9,0,0,0-10.43,0l-27.38,19.9a8.87,8.87,0,0,1-13.65-9.92l10.45-32.19a8.87,8.87,0,0,0-3.22-9.92l-27.38-19.89a8.87,8.87,0,0,1,5.21-16h33.85a8.89,8.89,0,0,0,8.44-6.13l10.46-32.19A8.87,8.87,0,0,1,1220.54,88.88Z"/><path class="cls-17" d="M1220.54,88.88,1231,121.07a8.88,8.88,0,0,0,8.44,6.13h33.84a8.87,8.87,0,0,1,5.22,16l-27.38,19.89a8.88,8.88,0,0,0-3.23,9.92l10.46,32.19a8.87,8.87,0,0,1-13.65,9.92l-27.38-19.9a8.9,8.9,0,0,0-10.43,0l-27.38,19.9a8.87,8.87,0,0,1-13.65-9.92l10.45-32.19a8.87,8.87,0,0,0-3.22-9.92l-27.38-19.89a8.87,8.87,0,0,1,5.21-16h33.85a8.89,8.89,0,0,0,8.44-6.13l10.46-32.19A8.87,8.87,0,0,1,1220.54,88.88Z"/><path class="cls-15" d="M772.5,223.63a15.45,15.45,0,0,1-9.14-3L736,200.72a2.15,2.15,0,0,0-1.26-.41,2.11,2.11,0,0,0-1.26.41l-27.38,19.89a15.52,15.52,0,0,1-9.14,3,15.8,15.8,0,0,1-12.72-6.53,15.39,15.39,0,0,1-2.15-13.93L692.53,171a2.15,2.15,0,0,0-.78-2.4l-27.38-19.89a15.6,15.6,0,0,1,9.17-28.22h33.84a2.13,2.13,0,0,0,2-1.48L719.88,86.8a15.6,15.6,0,0,1,29.67,0L760,119a2.14,2.14,0,0,0,2,1.48h33.84a15.6,15.6,0,0,1,9.17,28.22l-27.38,19.89a2.16,2.16,0,0,0-.78,2.4l10.46,32.19a15.33,15.33,0,0,1-2.15,13.92A15.76,15.76,0,0,1,772.5,223.63Z"/><path class="cls-15" d="M743.15,88.88l10.46,32.19a8.89,8.89,0,0,0,8.44,6.13h33.84a8.87,8.87,0,0,1,5.22,16l-27.38,19.89a8.87,8.87,0,0,0-3.22,9.92L781,205.25a8.87,8.87,0,0,1-13.65,9.92l-27.38-19.9a8.9,8.9,0,0,0-10.43,0l-27.38,19.9a8.87,8.87,0,0,1-13.65-9.92l10.46-32.19a8.89,8.89,0,0,0-3.23-9.92l-27.38-19.89a8.87,8.87,0,0,1,5.22-16h33.84a8.88,8.88,0,0,0,8.44-6.13l10.46-32.19A8.87,8.87,0,0,1,743.15,88.88Z"/><path class="cls-18" d="M743.15,88.88l10.46,32.19a8.89,8.89,0,0,0,8.44,6.13h33.84a8.87,8.87,0,0,1,5.22,16l-27.38,19.89a8.87,8.87,0,0,0-3.22,9.92L781,205.25a8.87,8.87,0,0,1-13.65,9.92l-27.38-19.9a8.9,8.9,0,0,0-10.43,0l-27.38,19.9a8.87,8.87,0,0,1-13.65-9.92l10.46-32.19a8.89,8.89,0,0,0-3.23-9.92l-27.38-19.89a8.87,8.87,0,0,1,5.22-16h33.84a8.88,8.88,0,0,0,8.44-6.13l10.46-32.19A8.87,8.87,0,0,1,743.15,88.88Z"/></g><g id="Nisskefar-2" data-name="Nisskefar"><path class="cls-19" d="M560.8,670a746.28,746.28,0,0,1,39.25,239.61,743.38,743.38,0,0,1-111,392c-2.42,4-4.89,7.89-7.42,11.78a72.35,72.35,0,0,0,126,70.85c2.17-4.24,4.27-8.49,6.34-12.77a830.27,830.27,0,0,0,83.4-363.91A830.73,830.73,0,0,0,617.52,651"/><path class="cls-20" d="M392.05,584.16c41.22,130.38,122.21,160.78,202.24,135.47s128.82-96.74,87.6-227.11S500.49,230,445,247.51,350.83,453.79,392.05,584.16Z"/><path class="cls-21" d="M425.66,564.74c30.95,97.86,91.73,120.68,151.81,101.68S674.16,593.81,643.22,496s-136.16-197.07-177.8-183.9S394.72,466.88,425.66,564.74Z"/><path class="cls-22" d="M624.26,589.57a2.5,2.5,0,0,1-.6-4.93A165.76,165.76,0,0,0,653.71,574a2.5,2.5,0,1,1,2.12,4.53,171.44,171.44,0,0,1-31,11A2.55,2.55,0,0,1,624.26,589.57Z"/><path class="cls-22" d="M488.51,569.59a2.48,2.48,0,0,1-1.33-.39A150.11,150.11,0,0,1,471,557.5a2.5,2.5,0,1,1,3.2-3.84A146.21,146.21,0,0,0,489.84,565a2.5,2.5,0,0,1-1.33,4.62Z"/><path class="cls-3" d="M624.27,587.07c-3.75,21.91-16.11,40.48-33.09,51.29a63.24,63.24,0,0,1-61.74,3.83C505.23,630.55,488.3,604,488.3,573c0-2,.06-4,.21-5.95,0,0,36.77,19.4,69.42,22.66S624.27,587.07,624.27,587.07Z"/><path class="cls-22" d="M580.06,595c-33.9,0-66-8.92-92.88-25.78a2.5,2.5,0,1,1,2.66-4.24c26.07,16.37,57.27,25,90.22,25a178,178,0,0,0,43.59-5.35,2.5,2.5,0,0,1,1.23,4.85A183.15,183.15,0,0,1,580.06,595Z"/><path class="cls-23" d="M529.42,641.66a4.7,4.7,0,0,0,0,.53,63.24,63.24,0,0,0,61.74-3.83c-2.15-11.15-15.1-19.72-30.72-19.72C543.31,618.64,529.42,628.93,529.42,641.66Z"/><path class="cls-3" d="M460.75,470.22a70.43,70.43,0,0,0,2.06,13.83c7.25,28.6,30.7,47.32,52.36,41.81s33.34-33.11,26.08-61.7a67.37,67.37,0,0,0-9.68-21.64c-10.74-15.61-27.15-24.1-42.66-20.17C470.79,427,459.66,447,460.75,470.22Z"/><path class="cls-22" d="M457.12,470.22a297.44,297.44,0,0,0,78.09-30.54c-11.85-17.22-29.93-26.58-47-22.24C468.19,422.51,455.92,444.65,457.12,470.22Z"/><circle cx="518.06" cy="487.78" r="8.16"/><path class="cls-3" d="M591.74,461.05c5.12,27.41,23.82,46.89,41.76,43.53s28.34-28.27,23.21-55.67a73.5,73.5,0,0,0-2-8.15c-6.94-23-23.64-38.4-39.74-35.38-12.43,2.32-21.23,15-23.77,31.68A71.62,71.62,0,0,0,591.74,461.05Z"/><path class="cls-22" d="M586.6,436.46a328.56,328.56,0,0,0,55.32,4.68q8.77,0,17.39-.44c-7.94-26.33-27.06-44-45.5-40.51C599.59,402.85,589.5,417.37,586.6,436.46Z"/><circle cx="627.54" cy="471.45" r="8.16"/><path class="cls-24" d="M315.25,135.21c87.86-35.62,204.58,78.09,204.59,78.11,53.3,41.93,78.24,100.33,78.24,100.33l-55.64,43.73L386.49,368l-12.13-23.06c-10.9-21.91-14.29-41.31-13.84-57.59h0c-44.64-4.3-68.12-30.2-78.6-46.37h0c-13.45,7.63-22,32.81-22,32.81l-39.58-17.13S227.38,170.83,315.25,135.21Z"/><path class="cls-9" d="M313.65,131.27c37.21-15.09,85.29-6.1,139,26a424.78,424.78,0,0,1,70.13,53l.05,0a242.46,242.46,0,0,1,22.59,20.23C583.38,269,601.25,310.24,602,312a4.26,4.26,0,1,1-7.83,3.34c-.18-.41-18.09-41.73-55-79a244.21,244.21,0,0,0-21.58-19.39,4.12,4.12,0,0,1-.75-.57l-.14-.14C472.82,181.7,422.87,169.16,367.87,179a4.26,4.26,0,0,1-1.5-8.38c41.9-7.48,77.72-1.5,107.48,10.79C432.54,152,368.93,118,316.84,139.15c-75.16,30.48-89.65,99.63-92,114.84l32.56,14.08c2.88-7,9.42-20.92,18.76-28.38a74.5,74.5,0,0,1-5.31-10.37,4.25,4.25,0,0,1,8-3c.18.49,18.82,48.39,77.79,56.22,2.5-33.41,20.09-53.33,20.36-53.63a4.25,4.25,0,1,1,6.3,5.72c-.38.42-37.77,42.74-5.14,108.35a4.25,4.25,0,0,1-1.92,5.7,4.13,4.13,0,0,1-1.89.45,4.26,4.26,0,0,1-3.81-2.36c-10.38-20.86-14.08-39.6-14.17-55.7-40.51-5.1-63.74-27.83-75.48-44.25-8.42,7.17-15,22.4-17,28.28a4.27,4.27,0,0,1-2.3,2.52,4.33,4.33,0,0,1-1.73.36,4.25,4.25,0,0,1-1.68-.35l-39.59-17.13a4.25,4.25,0,0,1-2.55-4.25C216.09,255.38,224.39,167.46,313.65,131.27Z"/><path class="cls-3" d="M439,403.86a408.94,408.94,0,0,0,182.7-42.52,26.6,26.6,0,0,0-23.57-47.69,356,356,0,0,1-159.13,37,362.59,362.59,0,0,1-64.59-5.78,26.6,26.6,0,0,0-9.49,52.34A416.51,416.51,0,0,0,439,403.86Z"/><path class="cls-3" d="M439,403.86a408.94,408.94,0,0,0,182.7-42.52,26.6,26.6,0,0,0-23.57-47.69,356,356,0,0,1-159.13,37,362.59,362.59,0,0,1-64.59-5.78,26.6,26.6,0,0,0-9.49,52.34A416.51,416.51,0,0,0,439,403.86Z"/><path class="cls-14" d="M439,393.09a406.22,406.22,0,0,1-72.16-6.45,15.84,15.84,0,0,1-5.23-29.22,2,2,0,1,1,2,3.44,11.84,11.84,0,0,0,3.91,21.84A402.06,402.06,0,0,0,439,389.09,401.1,401.1,0,0,0,519.44,381a2,2,0,0,1,.81,3.92A405.51,405.51,0,0,1,439,393.09Z"/><circle class="cls-3" cx="231.12" cy="287.3" r="38.73"/><path class="cls-14" d="M231.12,316.06a28.79,28.79,0,0,1-28.75-28.76,28.48,28.48,0,0,1,.61-5.9,2,2,0,1,1,3.91.81,25.56,25.56,0,0,0-.52,5.09,24.78,24.78,0,0,0,24.75,24.76,25.08,25.08,0,0,0,3-.19,2,2,0,0,1,.48,4A31.14,31.14,0,0,1,231.12,316.06Z"/></g></g><g id="Forgrund"><polygon class="cls-5" points="0 427.49 -297.61 842.47 297.61 842.47 0 427.49"/><polygon class="cls-5" points="0 296.53 -231.78 619.71 231.78 619.71 0 296.53"/><polygon class="cls-5" points="0 179.5 -167.86 413.55 167.86 413.55 0 179.5"/><polygon class="cls-7" points="-137.85 619.71 137.85 619.71 148.81 634.98 -137.85 619.71"/><polygon class="cls-7" points="-83.82 413.55 84 413.55 90.66 422.85 -83.82 413.55"/><path class="cls-3" d="M-3.19,146.67l-71.72,100a3.93,3.93,0,0,0,3.18,6.22H71.73a3.93,3.93,0,0,0,3.18-6.22l-71.72-100A3.93,3.93,0,0,0-3.19,146.67Z"/><circle class="cls-3" cx="-18.62" cy="253.06" r="18.7"/><circle class="cls-3" cx="18.79" cy="253.06" r="18.7"/><circle class="cls-3" cx="56.19" cy="253.06" r="18.7"/><path class="cls-3" d="M231.78,638.28h-151a18.83,18.83,0,1,1,0-37.65h151a18.83,18.83,0,0,1,0,37.65Z"/><rect class="cls-6" x="-37.49" y="842.47" width="74.98" height="153.02"/><polygon class="cls-4" points="1920 558.25 1690.9 877.7 2149.1 877.7 1920 558.25"/><polygon class="cls-4" points="1920 457.44 1741.58 706.22 2098.42 706.22 1920 457.44"/><polygon class="cls-4" points="1920 367.35 1790.79 547.52 2049.22 547.52 1920 367.35"/><polygon class="cls-5" points="1813.88 706.22 2026.12 706.22 2034.55 717.97 1813.88 706.22"/><polygon class="cls-5" points="1855.47 547.52 1984.61 547.52 1989.74 554.68 1855.47 547.52"/><path class="cls-3" d="M1916.75,343.1l-53.46,74.54a3.93,3.93,0,0,0,3.19,6.21h106.91a3.92,3.92,0,0,0,3.19-6.21l-53.45-74.54A3.93,3.93,0,0,0,1916.75,343.1Z"/><circle class="cls-3" cx="1876.81" cy="423.98" r="14.4"/><circle class="cls-3" cx="1905.6" cy="423.98" r="14.4"/><path class="cls-3" d="M1868.38,562h-77.59a14.5,14.5,0,1,1,0-29h77.59a14.5,14.5,0,0,1,0,29Z"/><path class="cls-3" d="M1917.43,562H1905.6a14.5,14.5,0,0,1,0-29h11.83a14.5,14.5,0,1,1,0,29Z"/><rect class="cls-6" x="1891.08" y="877.7" width="57.72" height="117.8"/></g></g></svg>