<svg xmlns="http://www.w3.org/2000/svg" xmlns:xlink="http://www.w3.org/1999/xlink" width="1920" height="1080" viewBox="0 0 1920 1080"><defs><style>.cls-1{fill:url(#radial-gradient);}.cls-2{fill:#8b6239;}</style><radialGradient id="radial-gradient" cx="921.2" cy="927.96" r="761.92" gradientTransform="translate(-6.81 293.19) rotate(-0.61) scale(1 0.69)" gradientUnits="userSpaceOnUse"><stop offset="0" stop-color="#c59b6d"/><stop offset="0.26" stop-color="#bb9164"/><stop offset="0.71" stop-color="#a0764b"/><stop offset="1" stop-color="#8b6239"/></radialGradient></defs><title>Game screen bowl</title><g id="Spilskærm_med_elementer" data-name="Spilskærm med elementer"><path class="cls-1" d="M1562.11,835.94c0,357.11-289.49,646.61-646.6,646.61s-646.6-289.5-646.6-646.61h23.57c0,11.41,14.18,26,38.9,40.08,30.21,17.19,76,33.45,132.43,47C584.18,952,744.6,968,915.51,968s331.32-16,451.7-44.91c56.42-13.58,102.22-29.84,132.43-47,24.72-14.07,38.88-28.67,38.88-40.08Z"/><path class="cls-2" d="M1562.11,835.94c0,85.94-289.49,155.6-646.6,155.6s-646.6-69.66-646.6-155.6c0-1,0-2,.12-3,0-.3.05-.59.08-.89a36.9,36.9,0,0,1,.81-4.85q.09-.44.21-.87l.12-.49q.39-1.43.87-2.85c.24-.69.5-1.39.77-2.08l.36-.87c.09-.22.19-.44.29-.67s.23-.53.36-.8.33-.7.51-1.06.21-.43.32-.64.29-.57.44-.86c.77-1.45,1.63-2.91,2.58-4.36.16-.24.31-.48.48-.72.56-.84,1.16-1.68,1.78-2.52q.62-.82,1.26-1.65l.21-.26c.33-.42.68-.84,1-1.26q2.14-2.58,4.65-5.13c.49-.5,1-1,1.49-1.49s1.07-1,1.62-1.55l.87-.8c.74-.68,1.5-1.35,2.27-2l2.14-1.81c.88-.73,1.78-1.46,2.71-2.17.63-.51,1.27-1,1.92-1.49s1.41-1.06,2.14-1.59l1.6-1.15c.41-.3.83-.59,1.25-.88.82-.57,1.65-1.14,2.49-1.7.49-.34,1-.67,1.49-1a141.88,141.88,0,0,0,3.66,26.35l-1.31,1-1,.79c-1.1.91-2.16,1.82-3.16,2.72-.67.6-1.31,1.2-1.93,1.8a57.69,57.69,0,0,0-7.08,8.06l-.49.71c-.12.17-.23.35-.34.52s-.27.41-.39.61c-.26.41-.5.81-.72,1.21-.11.18-.21.36-.3.53-.39.72-.74,1.43-1,2.14q-.13.29-.24.57l-.12.31c-.08.19-.15.39-.21.58a4.43,4.43,0,0,0-.15.43l-.09.27c0,.15-.09.29-.13.44a0,0,0,0,0,0,0,12.66,12.66,0,0,0-.32,1.32c0,.17-.07.34-.1.51a2.63,2.63,0,0,0-.06.39c0,.23-.07.45-.09.67s0,.46-.05.68,0,.55,0,.82c0,11.41,14.18,26,38.9,40.08,30.21,17.19,76,33.45,132.43,47C584.18,952,744.6,968,915.51,968s331.32-16,451.7-44.91c56.42-13.58,102.22-29.84,132.43-47,24.72-14.07,38.88-28.67,38.88-40.08,0-.22,0-.45,0-.67a15.49,15.49,0,0,0-.41-2.88c0-.18-.09-.36-.14-.54a21.05,21.05,0,0,0-1-2.94c-.11-.25-.22-.49-.34-.74a34.24,34.24,0,0,0-3.51-5.76l-.34-.45c-.27-.36-.56-.73-.86-1.1s-.42-.52-.65-.78-.35-.42-.54-.63c-.54-.63-1.12-1.26-1.73-1.91l-.61-.64c-.41-.43-.84-.86-1.28-1.28s-1-1-1.57-1.5-.79-.73-1.2-1.09-1-.91-1.55-1.36a111.72,111.72,0,0,0-43-49.7c.12-.64.24-1.28.34-1.93l4.86,2.12,2.33,1.06q5.09,2.31,9.84,4.65c1,.49,2,1,2.92,1.47q7.59,3.84,14.29,7.79l1.48.88q2.4,1.44,4.68,2.89l1.78,1.14,1.74,1.15c1,.65,1.92,1.3,2.86,1.95l1.28.9c3.38,2.41,6.54,4.85,9.44,7.31.33.27.65.54,1,.82q4,3.42,7.27,6.89.46.48.9,1c.55.59,1.06,1.18,1.58,1.77l.69.79c.67.79,1.31,1.58,1.94,2.38.26.32.51.65.75,1,.46.59.89,1.19,1.31,1.78l.64.93c.23.33.45.66.65,1q1.31,2,2.38,4l.59,1.11c.26.51.51,1,.74,1.53.17.34.33.69.48,1a44.28,44.28,0,0,1,2.6,7.68c.1.42.2.85.28,1.27s.16.8.23,1.2a.59.59,0,0,0,0,.14c.07.41.13.82.18,1.22a.53.53,0,0,0,0,.13c.06.39.11.77.14,1.16s.08.85.1,1.28.06.81.08,1.21v.13C1562.1,835.11,1562.11,835.53,1562.11,835.94Z"/></g></svg>