<svg xmlns="http://www.w3.org/2000/svg" xmlns:xlink="http://www.w3.org/1999/xlink" width="1920" height="1080" viewBox="0 0 1920 1080"><defs><style>.cls-1{fill:url(#linear-gradient);}.cls-2{fill:none;}.cls-3{fill:#fff;}.cls-4{fill:#008748;}.cls-5{fill:#006837;}.cls-6{fill:#a57c52;}.cls-7{fill:#004e29;}.cls-8{fill:#e92c0c;}.cls-9{fill:#d20000;}.cls-10{fill:#fbed21;}.cls-11{fill:#9e0000;}.cls-12{fill:#8b6239;}.cls-13{fill:url(#radial-gradient);}.cls-14{fill:#f1f1f1;}.cls-15{fill:url(#radial-gradient-2);}.cls-16{fill:#f99;}.cls-17{fill:url(#linear-gradient-2);}.cls-18{fill:#e2cba2;}.cls-19{fill:url(#linear-gradient-3);}.cls-20{fill:#aa987a;}.cls-21{fill:red;}.cls-22{fill:#19328b;}.cls-23{fill:#76828f;}</style><linearGradient id="linear-gradient" x1="960" y1="1034.5" x2="960" y2="-18.36" gradientUnits="userSpaceOnUse"><stop offset="0" stop-color="#76828f"/><stop offset="0.06" stop-color="#697684"/><stop offset="0.21" stop-color="#4b5b6c"/><stop offset="0.38" stop-color="#344558"/><stop offset="0.56" stop-color="#23364b"/><stop offset="0.75" stop-color="#192d43"/><stop offset="1" stop-color="#162a40"/></linearGradient><radialGradient id="radial-gradient" cx="1105.76" cy="927.31" r="359.31" gradientTransform="matrix(0.98, -0.22, 0.15, 0.68, 260.04, 456.9)" gradientUnits="userSpaceOnUse"><stop offset="0" stop-color="#c59b6d"/><stop offset="0.26" stop-color="#bb9164"/><stop offset="0.71" stop-color="#a0764b"/><stop offset="1" stop-color="#8b6239"/></radialGradient><radialGradient id="radial-gradient-2" cx="-10867.84" cy="-256.61" r="94.36" gradientTransform="translate(11943.57 -2207.21) rotate(-14.97)" gradientUnits="userSpaceOnUse"><stop offset="0" stop-color="#37785a"/><stop offset="1" stop-color="#004e29"/></radialGradient><linearGradient id="linear-gradient-2" x1="-5858.37" y1="1799.11" x2="-5668.02" y2="1799.11" gradientTransform="translate(6399.48 791.23) rotate(16.11)" gradientUnits="userSpaceOnUse"><stop offset="0" stop-color="#e2cba2"/><stop offset="0.35" stop-color="#dfc9a0"/><stop offset="0.58" stop-color="#d7c19a"/><stop offset="0.77" stop-color="#c8b38f"/><stop offset="0.94" stop-color="#b3a081"/><stop offset="1" stop-color="#aa987a"/></linearGradient><linearGradient id="linear-gradient-3" x1="1278.11" y1="1905.85" x2="1217.4" y2="2127.44" gradientTransform="matrix(-0.87, -0.48, -0.48, 0.87, 2557.03, -729.74)" gradientUnits="userSpaceOnUse"><stop offset="0" stop-color="#aa987a"/><stop offset="1" stop-color="#aa987a" stop-opacity="0"/></linearGradient></defs><title>Gamer over loose</title><g id="Titelskærm"><g id="Baggrund"><rect class="cls-1" y="-18.36" width="1920" height="1052.86"/><rect class="cls-2" x="1759.26" y="246.15" width="6.39" height="6.39"/><circle class="cls-3" cx="1762.46" cy="249.35" r="3.19"/><rect class="cls-2" x="1795.09" y="406.63" width="3.03" height="3.03"/><circle class="cls-3" cx="1796.61" cy="408.14" r="1.52"/><rect class="cls-2" x="1664.51" y="632.61" width="6.14" height="6.14"/><circle class="cls-3" cx="1667.57" cy="635.67" r="3.07"/><rect class="cls-2" x="1599.51" y="921.71" width="6.45" height="6.45"/><circle class="cls-3" cx="1602.73" cy="924.93" r="3.23"/><rect class="cls-2" x="1574.18" y="624.68" width="5.71" height="5.71"/><circle class="cls-3" cx="1577.04" cy="627.53" r="2.85"/><rect class="cls-2" x="1380.02" y="566.29" width="10.57" height="10.57"/><circle class="cls-3" cx="1385.3" cy="571.58" r="5.28"/><rect class="cls-2" x="1491.12" y="356.89" width="11.34" height="11.34"/><circle class="cls-3" cx="1496.79" cy="362.56" r="5.67"/><rect class="cls-2" x="1400.08" y="207.77" width="11.06" height="11.06"/><circle class="cls-3" cx="1405.61" cy="213.3" r="5.53"/><rect class="cls-2" x="1231.14" y="137.29" width="2.8" height="2.8"/><circle class="cls-3" cx="1232.54" cy="138.69" r="1.4"/><rect class="cls-2" x="1028.42" y="209.07" width="4.36" height="4.36"/><circle class="cls-3" cx="1030.6" cy="211.25" r="2.18"/><rect class="cls-2" x="954.91" y="359.63" width="4.24" height="4.24"/><circle class="cls-3" cx="957.03" cy="361.75" r="2.12"/><rect class="cls-2" x="1056.21" y="542.35" width="7.73" height="7.73"/><circle class="cls-3" cx="1060.07" cy="546.21" r="3.86"/><rect class="cls-2" x="732.52" y="549.17" width="11.31" height="11.31"/><circle class="cls-3" cx="738.17" cy="554.83" r="5.66"/><rect class="cls-2" x="810.82" y="599.89" width="5.33" height="5.33"/><circle class="cls-3" cx="813.48" cy="602.56" r="2.67"/><rect class="cls-2" x="792.46" y="462.06" width="5.25" height="5.25"/><circle class="cls-3" cx="795.09" cy="464.69" r="2.62"/><rect class="cls-2" x="577.55" y="480.63" width="9.54" height="9.54"/><circle class="cls-3" cx="582.32" cy="485.4" r="4.77"/><rect class="cls-2" x="405.21" y="421.45" width="7.41" height="7.41"/><circle class="cls-3" cx="408.92" cy="425.15" r="3.7"/><rect class="cls-2" x="519.61" y="171.88" width="8.59" height="8.59"/><circle class="cls-3" cx="523.9" cy="176.18" r="4.3"/><rect class="cls-2" x="333.68" y="182.77" width="10.69" height="10.69"/><circle class="cls-3" cx="339.02" cy="188.12" r="5.35"/><rect class="cls-2" x="201.69" y="236.81" width="9.84" height="9.84"/><circle class="cls-3" cx="206.61" cy="241.73" r="4.92"/><rect class="cls-2" x="298.28" y="255.3" width="6.2" height="6.2"/><circle class="cls-3" cx="301.38" cy="258.4" r="3.1"/><rect class="cls-2" x="91.26" y="476.45" width="11.16" height="11.16"/><circle class="cls-3" cx="96.84" cy="482.03" r="5.58"/><rect class="cls-2" x="329.4" y="533.33" width="3.73" height="3.73"/><circle class="cls-3" cx="331.26" cy="535.19" r="1.87"/><rect class="cls-2" x="341.36" y="719.95" width="5.85" height="5.85"/><circle class="cls-3" cx="344.28" cy="722.88" r="2.92"/><rect class="cls-2" x="135.8" y="837.08" width="8.32" height="8.32"/><circle class="cls-3" cx="139.96" cy="841.24" r="4.16"/><rect class="cls-2" x="51.74" y="639" width="11.13" height="11.13"/><circle class="cls-3" cx="57.31" cy="644.57" r="5.57"/><rect class="cls-2" x="72.4" y="511.84" width="5.73" height="5.73"/><circle class="cls-3" cx="75.26" cy="514.7" r="2.87"/><rect class="cls-2" x="53.37" y="354.59" width="9.33" height="9.33"/><circle class="cls-3" cx="58.03" cy="359.26" r="4.66"/><rect class="cls-2" x="85.67" y="186.84" width="7.24" height="7.24"/><circle class="cls-3" cx="89.29" cy="190.47" r="3.62"/><rect class="cls-2" x="274.92" y="146.51" width="10.29" height="10.29"/><circle class="cls-3" cx="280.06" cy="151.66" r="5.14"/><rect class="cls-2" x="368.2" y="30.72" width="4.83" height="4.83"/><circle class="cls-3" cx="370.61" cy="33.14" r="2.42"/><rect class="cls-2" x="539.29" y="29.97" width="10.79" height="10.79"/><circle class="cls-3" cx="544.69" cy="35.37" r="5.39"/><rect class="cls-2" x="679.32" y="156.87" width="7.12" height="7.12"/><circle class="cls-3" cx="682.88" cy="160.43" r="3.56"/><rect class="cls-2" x="1086.43" y="119.84" width="4.03" height="4.03"/><circle class="cls-3" cx="1088.45" cy="121.86" r="2.02"/><rect class="cls-2" x="1358.66" y="3.24" width="10.63" height="10.63"/><circle class="cls-3" cx="1363.97" cy="8.55" r="5.32"/><rect class="cls-2" x="1495.02" y="128.65" width="2.79" height="2.79"/><circle class="cls-3" cx="1496.42" cy="130.04" r="1.39"/><rect class="cls-2" x="1605.44" y="180.52" width="10.57" height="10.57"/><circle class="cls-3" cx="1610.72" cy="185.81" r="5.29"/><rect class="cls-2" x="1735.74" y="169.25" width="4.41" height="4.41"/><circle class="cls-3" cx="1737.95" cy="171.45" r="2.2"/><rect class="cls-2" x="1889.85" y="329.85" width="6.85" height="6.85"/><circle class="cls-3" cx="1893.27" cy="333.27" r="3.42"/><rect class="cls-2" x="1881.41" y="576.89" width="4.71" height="4.71"/><circle class="cls-3" cx="1883.77" cy="579.25" r="2.36"/><rect class="cls-2" x="1827.05" y="651.47" width="10.78" height="10.78"/><circle class="cls-3" cx="1832.44" cy="656.86" r="5.39"/><rect class="cls-2" x="1816.82" y="759.56" width="4.52" height="4.52"/><circle class="cls-3" cx="1819.08" cy="761.82" r="2.26"/><rect class="cls-2" x="1699.66" y="832.33" width="11.13" height="11.13"/><circle class="cls-3" cx="1705.22" cy="837.89" r="5.56"/><rect class="cls-2" x="1575" y="835.82" width="3.43" height="3.43"/><circle class="cls-3" cx="1576.72" cy="837.54" r="1.71"/><rect class="cls-2" x="1447.57" y="657.74" width="3.81" height="3.81"/><circle class="cls-3" cx="1449.47" cy="659.64" r="1.9"/><rect class="cls-2" x="1311.33" y="842.16" width="3.8" height="3.8"/><circle class="cls-3" cx="1313.23" cy="844.05" r="1.9"/><rect class="cls-2" x="1164.71" y="693.68" width="3.97" height="3.97"/><circle class="cls-3" cx="1166.7" cy="695.67" r="1.99"/><rect class="cls-2" x="1022.3" y="888.88" width="4.09" height="4.09"/><circle class="cls-3" cx="1024.35" cy="890.93" r="2.05"/><rect class="cls-2" x="887.19" y="845.47" width="3.88" height="3.88"/><circle class="cls-3" cx="889.13" cy="847.41" r="1.94"/><rect class="cls-2" x="751.37" y="736.96" width="3.7" height="3.7"/><circle class="cls-3" cx="753.22" cy="738.81" r="1.85"/><rect class="cls-2" x="598.69" y="953.29" width="8.67" height="8.67"/><circle class="cls-3" cx="603.03" cy="957.63" r="4.34"/><rect class="cls-2" x="458.8" y="805.83" width="11.03" height="11.03"/><circle class="cls-3" cx="464.31" cy="811.34" r="5.51"/><rect class="cls-2" x="342.28" y="678.13" width="11.13" height="11.13"/><circle class="cls-3" cx="347.84" cy="683.7" r="5.56"/><rect class="cls-2" x="82.93" y="652.22" width="3.54" height="3.54"/><circle class="cls-3" cx="84.7" cy="653.99" r="1.77"/><rect class="cls-2" x="315.46" y="545.93" width="2.95" height="2.95"/><circle class="cls-3" cx="316.94" cy="547.41" r="1.48"/><rect class="cls-2" x="460.61" y="535.18" width="4.2" height="4.2"/><circle class="cls-3" cx="462.71" cy="537.28" r="2.1"/><rect class="cls-2" x="590.62" y="692.08" width="9.22" height="9.22"/><circle class="cls-3" cx="595.23" cy="696.69" r="4.61"/><rect class="cls-2" x="733.78" y="798.42" width="6.17" height="6.17"/><circle class="cls-3" cx="736.87" cy="801.51" r="3.09"/><rect class="cls-2" x="886.36" y="665.96" width="4.74" height="4.74"/><circle class="cls-3" cx="888.73" cy="668.33" r="2.37"/><rect class="cls-2" x="1017.94" y="589.99" width="5.9" height="5.9"/><circle class="cls-3" cx="1020.89" cy="592.94" r="2.95"/><rect class="cls-2" x="1154.78" y="748.93" width="5.67" height="5.67"/><circle class="cls-3" cx="1157.61" cy="751.77" r="2.83"/><rect class="cls-2" x="1292.14" y="596.87" width="8.9" height="8.9"/><circle class="cls-3" cx="1296.59" cy="601.32" r="4.45"/><rect class="cls-2" x="1416.27" y="504.38" width="9.05" height="9.05"/><circle class="cls-3" cx="1420.8" cy="508.91" r="4.53"/><rect class="cls-2" x="1540.04" y="508.64" width="6.61" height="6.61"/><circle class="cls-3" cx="1543.34" cy="511.95" r="3.3"/><rect class="cls-2" x="1732.63" y="690.26" width="9.4" height="9.4"/><circle class="cls-3" cx="1737.34" cy="694.97" r="4.7"/><rect class="cls-2" x="1708.82" y="462.18" width="6.04" height="6.04"/><circle class="cls-3" cx="1711.84" cy="465.19" r="3.02"/><rect class="cls-2" x="1685.27" y="575.37" width="10.92" height="10.92"/><circle class="cls-3" cx="1690.73" cy="580.83" r="5.46"/><rect class="cls-2" x="1564.7" y="340.79" width="9.57" height="9.57"/><circle class="cls-3" cx="1569.48" cy="345.57" r="4.78"/><rect class="cls-2" x="1411.55" y="237.62" width="8.3" height="8.3"/><circle class="cls-3" cx="1415.7" cy="241.77" r="4.15"/><rect class="cls-2" x="1287.21" y="428.67" width="6.48" height="6.48"/><circle class="cls-3" cx="1290.45" cy="431.91" r="3.24"/><rect class="cls-2" x="1146.74" y="293.69" width="10.44" height="10.44"/><circle class="cls-3" cx="1151.96" cy="298.91" r="5.22"/><rect class="cls-2" x="1012.7" y="399.87" width="4.32" height="4.32"/><circle class="cls-3" cx="1014.86" cy="402.03" r="2.16"/><rect class="cls-2" x="864.05" y="295.06" width="9.09" height="9.09"/><circle class="cls-3" cx="868.59" cy="299.61" r="4.54"/><rect class="cls-2" x="739.28" y="372.25" width="3.51" height="3.51"/><circle class="cls-3" cx="741.04" cy="374.01" r="1.76"/><rect class="cls-2" x="611.05" y="330.39" width="3.39" height="3.39"/><circle class="cls-3" cx="612.75" cy="332.09" r="1.7"/><rect class="cls-2" x="460.3" y="496.84" width="4.45" height="4.45"/><circle class="cls-3" cx="462.53" cy="499.07" r="2.23"/><rect class="cls-2" x="318.09" y="410.98" width="5.36" height="5.36"/><circle class="cls-3" cx="320.76" cy="413.66" r="2.68"/><rect class="cls-2" x="229.36" y="245.02" width="5.16" height="5.16"/><circle class="cls-3" cx="231.94" cy="247.6" r="2.58"/><rect class="cls-2" x="26.86" y="242.07" width="5.62" height="5.62"/><circle class="cls-3" cx="29.67" cy="244.88" r="2.81"/><rect class="cls-2" x="259.46" y="384.63" width="4.27" height="4.27"/><circle class="cls-3" cx="261.6" cy="386.77" r="2.14"/><rect class="cls-2" x="367.55" y="373.01" width="9.89" height="9.89"/><circle class="cls-3" cx="372.49" cy="377.96" r="4.94"/><rect class="cls-2" x="513.27" y="354.58" width="3.02" height="3.02"/><circle class="cls-3" cx="514.78" cy="356.09" r="1.51"/><rect class="cls-2" x="643.01" y="198.66" width="4.53" height="4.53"/><circle class="cls-3" cx="645.28" cy="200.92" r="2.26"/><rect class="cls-2" x="768.72" y="309.38" width="11.18" height="11.18"/><circle class="cls-3" cx="774.31" cy="314.96" r="5.59"/><rect class="cls-2" x="924.01" y="153.31" width="3.19" height="3.19"/><circle class="cls-3" cx="925.6" cy="154.9" r="1.6"/><rect class="cls-2" x="1058.31" y="187.09" width="10.45" height="10.45"/><circle class="cls-3" cx="1063.53" cy="192.32" r="5.22"/><rect class="cls-2" x="1205.74" y="235.14" width="6.93" height="6.93"/><circle class="cls-3" cx="1209.2" cy="238.6" r="3.47"/><rect class="cls-2" x="1339.29" y="351.51" width="5.18" height="5.18"/><circle class="cls-3" cx="1341.88" cy="354.1" r="2.59"/><rect class="cls-2" x="1479.74" y="138.8" width="8.37" height="8.37"/><circle class="cls-3" cx="1483.93" cy="142.99" r="4.19"/><rect class="cls-2" x="1623.24" y="349.05" width="4.27" height="4.27"/><circle class="cls-3" cx="1625.38" cy="351.18" r="2.14"/><rect class="cls-2" x="1714.15" y="74.88" width="7.94" height="7.94"/><circle class="cls-3" cx="1718.12" cy="78.85" r="3.97"/><rect class="cls-2" x="1795.73" y="137.49" width="3.07" height="3.07"/><circle class="cls-3" cx="1797.26" cy="139.03" r="1.54"/><rect class="cls-2" x="1631.11" y="180.77" width="9.27" height="9.27"/><circle class="cls-3" cx="1635.75" cy="185.4" r="4.63"/><rect class="cls-2" x="1499.79" y="261.89" width="3.28" height="3.28"/><circle class="cls-3" cx="1501.43" cy="263.53" r="1.64"/><rect class="cls-2" x="1365.2" y="125.65" width="3.9" height="3.9"/><circle class="cls-3" cx="1367.15" cy="127.6" r="1.95"/><rect class="cls-2" x="1093.35" y="95.98" width="3.57" height="3.57"/><circle class="cls-3" cx="1095.13" cy="97.76" r="1.78"/><rect class="cls-2" x="954.13" y="199.91" width="9.71" height="9.71"/><circle class="cls-3" cx="958.98" cy="204.77" r="4.85"/><rect class="cls-2" x="807.31" y="131.06" width="11.34" height="11.34"/><circle class="cls-3" cx="812.98" cy="136.72" r="5.67"/><rect class="cls-2" x="682.4" y="147.41" width="6.8" height="6.8"/><circle class="cls-3" cx="685.8" cy="150.81" r="3.4"/><rect class="cls-2" x="543.74" y="63.29" width="4.4" height="4.4"/><circle class="cls-3" cx="545.94" cy="65.49" r="2.2"/><rect class="cls-2" x="402.61" y="29.05" width="11.51" height="11.51"/><circle class="cls-3" cx="408.37" cy="34.8" r="5.75"/><rect class="cls-2" x="141.85" y="148.95" width="7.09" height="7.09"/><circle class="cls-3" cx="145.39" cy="152.49" r="3.55"/><rect class="cls-3" x="-30.67" y="995.49" width="1991.68" height="276.84"/><polygon class="cls-4" points="998.66 921.71 960 975.62 1037.32 975.62 998.66 921.71"/><polygon class="cls-4" points="998.66 904.7 968.55 946.68 1028.77 946.68 998.66 904.7"/><polygon class="cls-4" points="998.66 889.5 976.86 919.9 1020.46 919.9 998.66 889.5"/><polygon class="cls-5" points="980.75 946.68 1016.57 946.68 1017.99 948.66 980.75 946.68"/><polygon class="cls-5" points="987.77 919.9 1009.56 919.9 1010.43 921.11 987.77 919.9"/><path class="cls-3" d="M995.46,889.1l-2.67,3.72A3.93,3.93,0,0,0,996,899h5.33a3.92,3.92,0,0,0,3.19-6.21l-2.66-3.72A3.93,3.93,0,0,0,995.46,889.1Z"/><circle class="cls-3" cx="991.37" cy="899.05" r="2.43"/><circle class="cls-3" cx="996.23" cy="899.05" r="2.43"/><circle class="cls-3" cx="1005.95" cy="899.05" r="2.43"/><path class="cls-3" d="M990,922.35H976.86a2.45,2.45,0,1,1,0-4.9H990a2.45,2.45,0,0,1,0,4.9Z"/><path class="cls-3" d="M998.23,922.35h-2a2.45,2.45,0,0,1,0-4.9h2a2.45,2.45,0,0,1,0,4.9Z"/><rect class="cls-6" x="993.78" y="975.62" width="9.74" height="19.88"/><polygon class="cls-4" points="148.81 857.37 76.43 958.28 221.18 958.28 148.81 857.37"/><polygon class="cls-4" points="148.81 825.52 92.44 904.11 205.17 904.11 148.81 825.52"/><polygon class="cls-4" points="148.81 797.06 107.99 853.98 189.63 853.98 148.81 797.06"/><polygon class="cls-5" points="115.28 904.11 182.33 904.11 184.99 907.83 115.28 904.11"/><polygon class="cls-5" points="128.42 853.98 169.22 853.98 170.84 856.24 128.42 853.98"/><path class="cls-3" d="M145.6,792.45,133.94,808.7a3.92,3.92,0,0,0,3.19,6.21h23.31a3.92,3.92,0,0,0,3.19-6.21L152,792.45A3.92,3.92,0,0,0,145.6,792.45Z"/><circle class="cls-3" cx="135.16" cy="814.95" r="4.55"/><circle class="cls-3" cx="144.26" cy="814.95" r="4.55"/><circle class="cls-3" cx="162.45" cy="814.95" r="4.55"/><path class="cls-3" d="M132.5,858.56H108a4.58,4.58,0,0,1,0-9.16H132.5a4.58,4.58,0,1,1,0,9.16Z"/><path class="cls-3" d="M148,858.56h-3.74a4.58,4.58,0,1,1,0-9.16H148a4.58,4.58,0,0,1,0,9.16Z"/><rect class="cls-6" x="139.67" y="958.28" width="18.23" height="37.21"/><polygon class="cls-5" points="705.63 896.13 653.57 968.73 757.7 968.73 705.63 896.13"/><polygon class="cls-5" points="705.63 873.22 665.09 929.76 746.18 929.76 705.63 873.22"/><polygon class="cls-5" points="705.63 852.75 676.27 893.69 735 893.69 705.63 852.75"/><polygon class="cls-7" points="681.52 929.76 729.75 929.76 731.66 932.43 681.52 929.76"/><polygon class="cls-7" points="690.97 893.69 720.33 893.69 721.49 895.32 690.97 893.69"/><path class="cls-3" d="M702.44,850.67l-6.24,8.71a3.93,3.93,0,0,0,3.19,6.21h12.48a3.92,3.92,0,0,0,3.19-6.21l-6.24-8.71A3.93,3.93,0,0,0,702.44,850.67Z"/><circle class="cls-3" cx="695.83" cy="865.62" r="3.27"/><circle class="cls-3" cx="702.38" cy="865.62" r="3.27"/><circle class="cls-3" cx="708.92" cy="865.62" r="3.27"/><circle class="cls-3" cx="715.46" cy="865.62" r="3.27"/><path class="cls-3" d="M746.18,933H719.77a3.3,3.3,0,1,1,0-6.59h26.41a3.3,3.3,0,0,1,0,6.59Z"/><rect class="cls-6" x="699.07" y="968.73" width="13.12" height="26.77"/><polygon class="cls-5" points="1756.93 909.6 1711.93 972.35 1801.94 972.35 1756.93 909.6"/><polygon class="cls-5" points="1756.93 889.79 1721.88 938.67 1791.98 938.67 1756.93 889.79"/><polygon class="cls-5" points="1756.93 872.1 1731.55 907.49 1782.32 907.49 1756.93 872.1"/><polygon class="cls-7" points="1736.09 938.67 1777.78 938.67 1779.44 940.98 1736.09 938.67"/><polygon class="cls-7" points="1744.26 907.49 1769.64 907.49 1770.64 908.9 1744.26 907.49"/><path class="cls-3" d="M1753.75,870.91l-4.36,6.07a3.93,3.93,0,0,0,3.19,6.22h8.71a3.93,3.93,0,0,0,3.19-6.22l-4.36-6.07A3.91,3.91,0,0,0,1753.75,870.91Z"/><circle class="cls-3" cx="1748.46" cy="883.22" r="2.83"/><circle class="cls-3" cx="1754.12" cy="883.22" r="2.83"/><circle class="cls-3" cx="1759.78" cy="883.22" r="2.83"/><circle class="cls-3" cx="1765.43" cy="883.22" r="2.83"/><path class="cls-3" d="M1792,941.48h-22.83a2.85,2.85,0,0,1,0-5.7H1792a2.85,2.85,0,0,1,0,5.7Z"/><rect class="cls-6" x="1751.26" y="972.35" width="11.34" height="23.14"/><polygon class="cls-8" points="531.03 900.89 454.43 826.28 377.82 900.89 377.82 995.49 531.03 995.49 531.03 900.89"/><path class="cls-9" d="M432.1,920.81h0a24,24,0,0,1,24,24v50.64a0,0,0,0,1,0,0H408.06a0,0,0,0,1,0,0V944.85A24,24,0,0,1,432.1,920.81Z"/><path class="cls-10" d="M494.1,920.81h0A15.23,15.23,0,0,1,509.33,936v19.72a0,0,0,0,1,0,0H478.87a0,0,0,0,1,0,0V936A15.23,15.23,0,0,1,494.1,920.81Z"/><rect class="cls-8" x="392.43" y="784.52" width="43.53" height="65.12"/><path class="cls-3" d="M357.44,916.59a15.51,15.51,0,0,1-10.95-26.48l97-96.77a15.5,15.5,0,0,1,21.9,0l97,96.77a15.5,15.5,0,0,1-21.9,21.95l-86-85.85-86,85.85A15.46,15.46,0,0,1,357.44,916.59Z"/><path class="cls-3" d="M436,786.33H390.57a7,7,0,0,1,0-14H436a7,7,0,0,1,0,14Z"/><circle class="cls-9" cx="1380.23" cy="898.17" r="68.09"/><path class="cls-11" d="M1325,904.46h-.42a6,6,0,0,1-5.58-6.4,62.43,62.43,0,0,1,91.39-50.92,6,6,0,1,1-5.6,10.62,51.09,51.09,0,0,0-8.5-3.53A50.4,50.4,0,0,0,1331,898.88,6,6,0,0,1,1325,904.46Z"/><circle class="cls-9" cx="1432.47" cy="850.21" r="4.71"/><path class="cls-8" d="M1307,921.06a6,6,0,0,0-6,5.3,22.33,22.33,0,0,1-44.26,1.2,7.79,7.79,0,0,0-7.72-6.5h0v44.56a4.55,4.55,0,0,0,4.55,4.55h137.13a4.56,4.56,0,0,0,4.56-4.55v-40a4.55,4.55,0,0,0-4.56-4.55Z"/><path class="cls-9" d="M1380.7,963.63h-49a3.5,3.5,0,0,1,0-7h49a1.06,1.06,0,0,0,1-1.06v-20a3.5,3.5,0,0,1,7,0v20A8.07,8.07,0,0,1,1380.7,963.63Z"/><path class="cls-10" d="M1409.15,995.49H1205.59c-17,0-31.46-13.33-32-30.37a31.32,31.32,0,0,1,59.89-13.74l-.14.07a14,14,0,0,1-15-2.49,20.32,20.32,0,1,0-13.47,35.53h193.23a11,11,0,0,1,11,11Z"/><rect class="cls-10" x="1331.24" y="976.44" width="23.54" height="11" transform="translate(2324.96 -361.07) rotate(90)"/><rect class="cls-10" x="1280.27" y="976.44" width="23.54" height="11" transform="translate(2273.98 -310.1) rotate(90)"/><circle class="cls-3" cx="1433.7" cy="838.08" r="7.83"/><circle class="cls-3" cx="1444.42" cy="848.5" r="7.83"/><circle class="cls-3" cx="1611.2" cy="958.28" r="37.22"/><circle class="cls-3" cx="1611.2" cy="902.69" r="23.59"/><path class="cls-8" d="M1596.15,882.48c2.75-13.68,9.93-23.79,23.25-21.11s16,14.77,13.29,28.46"/><path class="cls-8" d="M1638.27,893.37l-48.63-9.78a2.37,2.37,0,1,1,.93-4.64l48.63,9.77a2.37,2.37,0,0,1-.93,4.65Z"/><path class="cls-12" d="M1552.79,921.18a2.77,2.77,0,0,1-.9-.14l-22.32-7a3,3,0,0,1,1.78-5.73l17.86,5.58L1547,897.08a3,3,0,1,1,6-.77l2.79,21.48a3,3,0,0,1-3,3.39Z"/><path class="cls-12" d="M1587.61,941a2.94,2.94,0,0,1-1.48-.4l-34.83-19.77a3,3,0,0,1,3-5.22l34.82,19.78a3,3,0,0,1-1.48,5.61Z"/><path class="cls-12" d="M1653,914.33a3,3,0,0,1-3-3v-21.5a3,3,0,0,1,6,0V908.1l17.44-1.27a3,3,0,0,1,.44,6l-20.66,1.51Z"/><path class="cls-12" d="M1626.9,942.21a3,3,0,0,1-2.19-5.05l26-27.88a3,3,0,0,1,4.39,4.1l-26.06,27.88A3,3,0,0,1,1626.9,942.21Z"/><circle class="cls-3" cx="625.05" cy="481.04" r="18.48"/></g><g id="Midgrund"><g id="Titelboks"><rect class="cls-6" x="344.01" y="149.83" width="1258.8" height="655.5" rx="29.83"/><path class="cls-3" d="M1626.9,165.33h-1307a15.5,15.5,0,0,1,0-31h1307a15.5,15.5,0,0,1,0,31Z"/><path class="cls-13" d="M1767.45,733c35.65,164.59-68.88,326.92-233.47,362.57s-326.91-68.88-362.56-233.46"/><ellipse class="cls-2" cx="1469.43" cy="797.56" rx="304.92" ry="73.38" transform="translate(-135.54 329.15) rotate(-12.22)"/><path class="cls-6" d="M1482.61,858.4c-78.77,17.06-154.3,25.73-212.67,24.39-27.36-.62-50.09-3.54-65.73-8.45-12.79-4-20.79-9.33-21.92-14.59s3.93-13.4,13.92-22.35c12.21-10.94,31.69-23,56.34-34.9,52.59-25.36,124.93-48.73,203.7-65.79s154.3-25.73,212.67-24.39c27.36.62,50.09,3.54,65.73,8.45,12.8,4,20.79,9.33,21.93,14.59s-3.94,13.4-13.93,22.35c-12.21,10.94-31.69,23-56.34,34.9C1633.73,818,1561.38,841.34,1482.61,858.4Z"/><circle class="cls-3" cx="1248.85" cy="816.43" r="66.91"/><circle class="cls-3" cx="1324.33" cy="731.62" r="66.91"/><circle class="cls-3" cx="1409.92" cy="683.66" r="66.91"/><circle class="cls-3" cx="1512.72" cy="670.36" r="52.47"/><circle class="cls-3" cx="1588.46" cy="687.09" r="76.97"/><circle class="cls-3" cx="1260.22" cy="767.79" r="33.89"/><circle class="cls-3" cx="1354.36" cy="685.65" r="33.89"/><circle class="cls-3" cx="1646.64" cy="669.14" r="33.89"/><circle class="cls-3" cx="1679.28" cy="708.27" r="42.83"/><circle class="cls-3" cx="1672.97" cy="658.45" r="14.4"/><circle class="cls-3" cx="1467.76" cy="653.49" r="33.89"/><path class="cls-2" d="M1756.58,735.36c-.71-3.29-4.11-6.61-9.7-9.61a52.23,52.23,0,0,1,8.17,17.16C1756.49,740,1757,737.46,1756.58,735.36Z"/><path class="cls-3" d="M1746.88,725.75h0a52.72,52.72,0,0,0-24.78-18.62h0A52.49,52.49,0,0,0,1655.28,738a219.07,219.07,0,0,0-384.54,84.64,56,56,0,0,0-86.36,41c3.32,3.91,10.22,7.66,19.83,10.67,14.65,4.59,35.52,7.45,60.59,8.31,1.7.06,3.41.1,5.14.14q11.85.27,24.59,0c54.27-1.16,120-9.63,188.08-24.39,72.41-15.68,139.39-36.69,190.58-59.69q6.75-3,13.12-6.1l.53-.26c24.4-11.81,43.69-23.78,55.81-34.64,6-5.37,10.22-10.46,12.4-14.8A52.23,52.23,0,0,0,1746.88,725.75Z"/><path class="cls-12" d="M1746.88,725.75h0a52.72,52.72,0,0,0-24.78-18.62h0A52.72,52.72,0,0,1,1746.88,725.75Z"/><path class="cls-12" d="M1722.06,706.21c0,.31,0,.62,0,.92a52.72,52.72,0,0,1,24.78,18.62c5.59,3,9,6.32,9.7,9.61,1.14,5.25-3.94,13.4-13.93,22.35-12.21,10.94-31.69,23-56.34,34.9-52.58,25.36-124.93,48.73-203.7,65.79s-154.3,25.73-212.67,24.39c-27.36-.62-50.09-3.54-65.73-8.45-12.79-4-20.79-9.33-21.92-14.59-.79-3.65,1.42-8.7,6.19-14.44a67,67,0,0,1-4.32-11.78c-10,10.22-14.62,19.91-12.74,28.58,8.58,39.6,149,42.81,313.55,7.16S1776,772.61,1767.45,733C1764.69,720.3,1748.38,711.34,1722.06,706.21Z"/><path class="cls-14" d="M1252,772.32a3.5,3.5,0,0,1-2.42-6,52,52,0,0,1,56-10.32,37.07,37.07,0,0,1,21.85-13.91,38.66,38.66,0,0,1,5.67-.78,22.2,22.2,0,0,1,35.17-20.64,3.5,3.5,0,1,1-4.13,5.64,15.21,15.21,0,0,0-23.86,15.49,15.78,15.78,0,0,0,.53,1.85l1.76,5-5.28-.33a30.56,30.56,0,0,0-8.38.62,30.17,30.17,0,0,0-19.18,13.35l-1.69,2.64-2.81-1.38a45,45,0,0,0-50.84,7.84A3.49,3.49,0,0,1,1252,772.32Z"/><path class="cls-14" d="M1397.52,847a3.49,3.49,0,0,1-3.37-2.58A28.94,28.94,0,0,0,1350,828l-2.59,1.74-2-2.37a19.21,19.21,0,0,0-33.47,8.88,3.5,3.5,0,0,1-6.88-1.29,26.22,26.22,0,0,1,43.58-14.33,36,36,0,0,1,52.25,21.93,3.5,3.5,0,0,1-2.46,4.3A3.63,3.63,0,0,1,1397.52,847Z"/><path class="cls-14" d="M1666.12,700.15a3.51,3.51,0,0,1-3.23-2.13A35.62,35.62,0,0,0,1605.84,686l-3.67,3.43-1.94-4.63a16.81,16.81,0,0,0-29.6-2.61,14.84,14.84,0,0,0-.92,1.62l-1.38,2.76-2.91-1a23.34,23.34,0,0,0-27.44,9.37,3.5,3.5,0,1,1-5.88-3.8,30.31,30.31,0,0,1,32.84-13,23.81,23.81,0,0,1,39.54-.09,42.64,42.64,0,0,1,64.86,17.31,3.5,3.5,0,0,1-3.22,4.88Z"/><path class="cls-14" d="M1482.82,823.42a3.49,3.49,0,0,1-3.3-2.34,28.59,28.59,0,0,1,40.06-34.93,42.73,42.73,0,0,1,42.42-6.32,23.81,23.81,0,0,1,38.17-10.33,30.3,30.3,0,0,1,35.11,3.9,3.5,3.5,0,0,1-4.67,5.21,23.34,23.34,0,0,0-28.94-1.81l-2.53,1.76-2.06-2.3a18.26,18.26,0,0,0-1.32-1.32,16.81,16.81,0,0,0-27.87,10.31l-.65,5-4.45-2.34a35.67,35.67,0,0,0-40.47,5.12l-2,1.8-2.26-1.45a21.59,21.59,0,0,0-32,25.39,3.51,3.51,0,0,1-2.14,4.47A3.37,3.37,0,0,1,1482.82,823.42Z"/><path class="cls-14" d="M1399.53,716.05l-.33,0a3.49,3.49,0,0,1-3.16-3.8,42.63,42.63,0,0,1,52-37.62,28.57,28.57,0,0,1,42.66-3.43,3.5,3.5,0,1,1-4.85,5.05,21.57,21.57,0,0,0-33.33,4.23l-1.4,2.27-2.57-.76a35.65,35.65,0,0,0-45.49,30.9A3.51,3.51,0,0,1,1399.53,716.05Z"/><path class="cls-5" d="M1427.85,821.76l.2-.16c12-11.82,24.65-23,37.68-33.73a5.15,5.15,0,0,1,4.46-1.18q16.05-13,32.37-25.61a5.81,5.81,0,0,1,1-.62A482.78,482.78,0,0,1,1404.3,444h0c.09,4.33-12.67,8.13-28.52,8.49s-28.75-2.85-28.86-7.17a525.76,525.76,0,0,0,80.94,376.4Z"/><path class="cls-15" d="M1378.4,334.08l-31.27,110-.22,1.29c.11,4.32,13,7.53,28.86,7.17s28.61-4.16,28.52-8.49a4,4,0,0,0-.14-.67Z"/><path d="M1334.31,508.67,1362.05,520a125,125,0,0,1-16.78-24.6Z"/><path d="M1408.86,503.25l-26.75,13.45a289.56,289.56,0,0,0,14.77-25.86Z"/><polygon class="cls-3" points="1320.94 540.29 1368.43 532.99 1320.58 519.09 1320.94 540.29"/><path d="M1320.94,541.79a1.49,1.49,0,0,1-1.5-1.47l-.36-21.21a1.49,1.49,0,0,1,.59-1.21,1.47,1.47,0,0,1,1.33-.25l47.85,13.9a1.51,1.51,0,0,1,1.08,1.54,1.49,1.49,0,0,1-1.27,1.38l-47.49,7.3A.9.9,0,0,1,1320.94,541.79Zm1.17-20.69.3,17.45,39.09-6Z"/><polygon points="1334.58 534.27 1336.1 526.22 1342.31 531.57 1334.58 534.27"/><path d="M1315.37,542.65a1.5,1.5,0,0,1-.23-3l46.36-7.13-46-13.36a1.5,1.5,0,0,1,.84-2.88l52.49,15.25a1.51,1.51,0,0,1,1.08,1.54,1.49,1.49,0,0,1-1.27,1.38l-53.06,8.16Z"/><polygon class="cls-3" points="1427.4 526.46 1379.66 531.92 1422.17 505.9 1427.4 526.46"/><path d="M1379.66,533.42a1.5,1.5,0,0,1-.78-2.78l42.5-26a1.5,1.5,0,0,1,1.35-.11,1.48,1.48,0,0,1,.89,1l5.23,20.56a1.51,1.51,0,0,1-.21,1.22,1.55,1.55,0,0,1-1.07.64l-47.73,5.46Zm41.55-25.17-35,21.41,39.29-4.5Z"/><polygon points="1415.11 524.34 1411.52 516.97 1406.93 523.77 1415.11 524.34"/><path d="M1379.66,533.42a1.5,1.5,0,0,1-.78-2.78l46.62-28.53a1.5,1.5,0,1,1,1.57,2.55l-40.84,25,46.6-5.34a1.5,1.5,0,0,1,1.66,1.32,1.51,1.51,0,0,1-1.32,1.67l-53.33,6.1Z"/><path class="cls-5" d="M1355.59,650.18c-11.73-1-23.18-2.18-34.92-3.83-2.94-.42-5.89-.89-8.91-1.45-1.53-.29-3-.58-4.67-1l-1.22-.29-1.3-.34c-.41-.11-.94-.28-1.4-.42s-1-.35-1.61-.56a17.12,17.12,0,0,1-2.17-1,3,3,0,0,1-.34-.18l-.53-.34c-.35-.24-.69-.49-1-.76l-.48-.41-.21-.2-.12-.14-.47-.55-.45-.57-.2-.27-.1-.16-.39-.64c-.29-.46-.48-.82-.67-1.18-.8-1.47-1.43-2.79-2.08-4.15-1.27-2.69-2.46-5.33-3.64-8-4.68-10.58-9.12-21.15-13.55-31.75s-8.79-21.2-13.11-31.82q9.46,14.35,19,28.63c6.4,9.49,12.82,19,19.36,28.29,1.63,2.32,3.28,4.62,4.93,6.84.81,1.09,1.66,2.22,2.43,3.12a6.23,6.23,0,0,0,.52.6l.23.23,0,.06s0,0,0-.07a.86.86,0,0,0-.1-.16,1.58,1.58,0,0,0-.12-.15l0,0-.11-.12-.25-.26a5,5,0,0,0-.58-.45l-.31-.19c-.11,0-.06,0-.09-.07s-.41-.23-.18-.21a2.27,2.27,0,0,1,.44,0l.69,0,.81,0,.89,0c1.2,0,2.52,0,3.83,0,2.66,0,5.41-.15,8.17-.3,11.06-.62,22.45-1.69,33.54-2.93h.06a13.57,13.57,0,1,1,3,27A13.93,13.93,0,0,1,1355.59,650.18Z"/><path class="cls-5" d="M1414.68,617.14c.48-.29.75-.43,1.11-.62l1-.51c.64-.34,1.26-.65,1.89-1,1.25-.62,2.49-1.19,3.73-1.76,2.49-1.13,5-2.18,7.49-3.16q7.53-3,15.26-5.15a140.14,140.14,0,0,1,15.7-3.51c1.33-.21,2.64-.44,4-.61l4-.46c2.68-.28,5.41-.34,8-.36a193.73,193.73,0,0,1,30.86,2.72q15,2.43,29.6,6.28c-10-.12-20,.3-29.87,1.16a181.73,181.73,0,0,0-28.78,4.63c-2.29.58-4.49,1.26-6.69,2l-3.3,1.07c-1.1.36-2.18.8-3.27,1.19a118.82,118.82,0,0,0-12.7,5.64c-4.13,2.12-8.16,4.43-12,6.93-1.94,1.24-3.84,2.54-5.68,3.86-.92.66-1.84,1.34-2.71,2-.43.34-.88.68-1.28,1-.2.17-.43.34-.6.49a4.27,4.27,0,0,0-.45.41,14.47,14.47,0,1,1-20.25-19.27Z"/><polygon points="1411.29 582.72 1348.14 576.54 1400.2 548.56 1411.29 582.72"/><path d="M1417.51,584.82h-.15L1348,578a1.5,1.5,0,0,1-.57-2.82l57.11-30.69a1.5,1.5,0,0,1,1.42,2.65l-52.76,28.35,64.45,6.31a1.5,1.5,0,0,1-.14,3Z"/><path d="M1411.29,584.22a1.52,1.52,0,0,1-1.43-1L1398.78,549a1.5,1.5,0,0,1,2.85-.93l11.08,34.16a1.52,1.52,0,0,1-1.42,2Z"/><path class="cls-16" d="M1378.3,572a120.24,120.24,0,0,0,.72,12.29c.37,3.4.91,6.88,2.62,9.84a16.85,16.85,0,0,0,7.19,6.49,11.59,11.59,0,0,0,5.9,1.44c3.1-.21,5.82-2.23,7.79-4.64,2.16-2.65,3.67-6,3.27-9.44a17.07,17.07,0,0,0-2.85-6.8,84.91,84.91,0,0,0-5.31-7.57Z"/><path class="cls-3" d="M1386.73,779.4a26.93,26.93,0,0,1,25.34-21.66,19.27,19.27,0,0,1,.31-2.23,20.31,20.31,0,0,1,34.4-10.28,39.12,39.12,0,0,1,63.12-10.83l7.08,39.42-37.16,11.72-27.57,44.74-28.39,15.62-18.11-29.47Z"/><path class="cls-8" d="M727.09,212.41a45.55,45.55,0,0,1,14.22,2.1,31.7,31.7,0,0,1,10.9,6,25.26,25.26,0,0,1,6.82,9.21,26.33,26.33,0,0,1,2,12,30.67,30.67,0,0,1-2.16,9.68,28.52,28.52,0,0,1-5.54,8.86,29.27,29.27,0,0,1-8.62,6.47,25.48,25.48,0,0,1-11.54,2.5,26,26,0,0,1-7.11-1,21.46,21.46,0,0,1-6.24-2.85,14.78,14.78,0,0,1-4.37-4.55,9.77,9.77,0,0,1-1.4-5.94,10.33,10.33,0,0,1,.53-2.8,20.5,20.5,0,0,1,1.34-3.38,11.55,11.55,0,0,1,2-2.86,3.57,3.57,0,0,1,2.68-1.22,3.12,3.12,0,0,1,1.69.7c.66.46,1.44,1,2.33,1.45a21.64,21.64,0,0,0,3.26,1.46,13.47,13.47,0,0,0,4.61.7,9.23,9.23,0,0,0,7.17-3.15,12.27,12.27,0,0,0,2-3.14,10.52,10.52,0,0,0,.87-3.5,8.06,8.06,0,0,0-2.68-6.94q-2.91-2.5-8.16-2.5a28.91,28.91,0,0,0-9.09,1.45A44.82,44.82,0,0,0,714,235a56.6,56.6,0,0,0-7.58,5.3Q703,243.2,700,246.1A101.38,101.38,0,0,0,688.33,261a124.76,124.76,0,0,0-9.62,17.6A130,130,0,0,0,672.07,297a78,78,0,0,0-2.92,17.43,51.77,51.77,0,0,0,.23,8.34,24.89,24.89,0,0,0,2.28,8.27,16.47,16.47,0,0,0,5.36,6.36q3.56,2.56,9.5,2.56a17.25,17.25,0,0,0,7.75-1.75,25.79,25.79,0,0,0,6.53-4.6,37.05,37.05,0,0,0,5.36-6.53,46.37,46.37,0,0,0,4-7.46,55.39,55.39,0,0,0,2.5-7.46,41.28,41.28,0,0,0,1.17-6.47v-2a15.49,15.49,0,0,0-.12-2l-6.82,1.16a40.54,40.54,0,0,1-6.82.59,14,14,0,0,1-8.33-2.22,12.43,12.43,0,0,1-4.49-6.29c-.16-.63-.35-1.35-.58-2.16a7.78,7.78,0,0,1-.35-2.16,2.74,2.74,0,0,1,1.05-1.63,3,3,0,0,1,2-.82,142.1,142.1,0,0,0,16-.87q7.69-.87,15.85-2.16,3-.47,6.12-.81a53.88,53.88,0,0,1,6.24-.35,25.09,25.09,0,0,1,7,.75,6.91,6.91,0,0,1,3.62,2.34,8.7,8.7,0,0,1,1.51,4c.23,1.59.51,3.44.82,5.54a2.92,2.92,0,0,1,.06.93,8.27,8.27,0,0,0-.06,1.05,6.19,6.19,0,0,1-1.05,2.62,24.51,24.51,0,0,1-2.22,2.92c-.85,1-1.73,1.92-2.62,2.85a13.22,13.22,0,0,0-2,2.68A51.12,51.12,0,0,0,733,322.92a69.83,69.83,0,0,0-2.15,14,58.11,58.11,0,0,0,.06,7.93,61.87,61.87,0,0,0,1.1,7.81v.11a2.39,2.39,0,0,1-1.05,1.52,8.19,8.19,0,0,1-2.27,1.16,15.58,15.58,0,0,1-2.68.7,13.19,13.19,0,0,1-2.27.24,10.63,10.63,0,0,1-3.85-.76,14.13,14.13,0,0,1-3.56-2,12,12,0,0,1-2.62-2.8,5.73,5.73,0,0,1-1-3.21,66.86,66.86,0,0,1-14.51,5.72,61.31,61.31,0,0,1-15.68,2q-12.71,0-21.27-4.49a37.85,37.85,0,0,1-13.64-11.66,44.09,44.09,0,0,1-7-16.2A67.68,67.68,0,0,1,639,304.85l.12-1.39a73.6,73.6,0,0,1,2.85-15.92,97.87,97.87,0,0,1,5.83-14.92A119.91,119.91,0,0,1,656,258.4a159.69,159.69,0,0,1,10.37-13.7A101.91,101.91,0,0,1,678.13,233a99.62,99.62,0,0,1,14.69-10.38,85,85,0,0,1,16.66-7.4A57.65,57.65,0,0,1,727.09,212.41Z"/><path class="cls-8" d="M836.08,319.89a89.66,89.66,0,0,0,6.53-9.38q2.91-4.85,5.94-9.74c.16-.23.41-.58.76-1l1.05-1.41a6.41,6.41,0,0,1,1.22-1.22,2.19,2.19,0,0,1,1.28-.52c.24,0,.41.15.53.46a8.86,8.86,0,0,1,.29,1,4.54,4.54,0,0,1,.12,1v.58a56.42,56.42,0,0,1-1.64,10.95,64.13,64.13,0,0,1-3.9,11.25,62.9,62.9,0,0,1-6.06,10.55,61.19,61.19,0,0,1-7.87,9.1,43.72,43.72,0,0,1-3.38,2.79,37.66,37.66,0,0,1-4,2.63,26,26,0,0,1-4.43,2,14.65,14.65,0,0,1-4.61.76,17.4,17.4,0,0,1-5.53-1.23,61.32,61.32,0,0,1-6.94-3,59.47,59.47,0,0,1-6.29-3.61,10.15,10.15,0,0,1-3.5-3.27q-2.57,2.34-5.13,4.37a35.39,35.39,0,0,1-5.42,3.56,29.15,29.15,0,0,1-6.12,2.39,28.53,28.53,0,0,1-7.34.87,19.43,19.43,0,0,1-11.2-3,23.78,23.78,0,0,1-7.11-7.57,30.39,30.39,0,0,1-3.67-9.91,43.06,43.06,0,0,1-.76-9.91,51.2,51.2,0,0,1,1.69-10.55,65.37,65.37,0,0,1,10-21.16,52.85,52.85,0,0,1,7.81-8.74,81.82,81.82,0,0,1,24-14.69,75.49,75.49,0,0,1,28.5-5.48,54,54,0,0,1,7,.53,38.38,38.38,0,0,1,7.52,1.75,17.37,17.37,0,0,1,5.94,3.32,6.35,6.35,0,0,1,2.28,5.24,4.07,4.07,0,0,1-.41,1.52q-.4.93-1,2T841,275c-.39.63-.7,1.13-.93,1.52a53.38,53.38,0,0,0-2.5,5.24c-.75,1.79-1.5,3.58-2.28,5.37q-2.1,5.13-4.25,10.19c-1.44,3.39-2.82,6.82-4.14,10.32q-1.86,4.78-3.62,10a37.46,37.46,0,0,0-2,10.08,13.08,13.08,0,0,0,.06,2.68,1.69,1.69,0,0,0,1.92,1.63,5.28,5.28,0,0,0,3.15-1.63c1.24-1.08,2.53-2.33,3.85-3.73s2.52-2.75,3.61-4.08Zm-59.69-4.31c0,.78,0,1.69.06,2.74a9.39,9.39,0,0,0,.59,3,6,6,0,0,0,1.63,2.39,4.64,4.64,0,0,0,3.2,1,14.7,14.7,0,0,0,7.35-2,31.43,31.43,0,0,0,6.7-5.19,52,52,0,0,0,6-7.23q2.8-4,5.13-8c1.56-2.68,2.92-5.25,4.08-7.69l2.92-6.12c.7-1.4,1.45-3.11,2.27-5.13a16.72,16.72,0,0,0,1.34-5.25,3.4,3.4,0,0,0-1.28-3.26,7.37,7.37,0,0,0-4.08-.93,26.19,26.19,0,0,0-10.38,2,33.66,33.66,0,0,0-8.68,5.36,40.83,40.83,0,0,0-7,7.69,55.15,55.15,0,0,0-8.46,18.19A47,47,0,0,0,776.39,315.58Z"/><path class="cls-8" d="M904.85,279.09c-.77,0-2,.76-3.67,2.28a72,72,0,0,0-5.83,6.11q-3.32,3.86-7.17,8.92t-7.81,10.67q-4,5.6-7.86,11.31t-7.17,10.84q-3.27,5.13-5.71,9.38a60,60,0,0,0-3.5,6.82A16.64,16.64,0,0,1,854,349c-.78,1-2.1,1.45-4,1.45a15.74,15.74,0,0,1-7.35-1.63,16.48,16.48,0,0,1-5.24-4.2,16.06,16.06,0,0,1-3-5.71,17.15,17.15,0,0,1-.7-6.29,37.62,37.62,0,0,1,1.92-7.93q1.8-5.71,4.6-13.11T846.45,296q3.39-8.14,6.47-15.15t5.66-11.95c1.7-3.3,2.95-5.26,3.73-5.88a18.82,18.82,0,0,1,5.13-3,16.45,16.45,0,0,1,6.06-1.05,21.92,21.92,0,0,1,7.52,1.28,35,35,0,0,1,6.58,3.15,6.69,6.69,0,0,1,.12,1,2.38,2.38,0,0,1-.53,1.11c-.35.51-.72,1.05-1.1,1.63s-.78,1.15-1.17,1.69L884.1,270a20.49,20.49,0,0,0-1.8,3c-.82,1.56-1.71,3.36-2.68,5.42s-2,4.24-3.21,6.53-2.2,4.43-3.09,6.41-1.63,3.69-2.21,5.13a10.44,10.44,0,0,0-.88,2.74h.12q2-2.81,5-6.88t6.76-8.51q3.74-4.42,8-8.8A85.73,85.73,0,0,1,899,267.2a52.79,52.79,0,0,1,9-5.65,19.39,19.39,0,0,1,8.51-2.16,20.72,20.72,0,0,1,8,1.34,12.24,12.24,0,0,1,5,3.67,13.23,13.23,0,0,1,2.45,5.48,29.45,29.45,0,0,1,.52,6.76,68.76,68.76,0,0,1,6.65-6.87,42,42,0,0,1,7.51-5.42,39.85,39.85,0,0,1,8.75-3.62,37.72,37.72,0,0,1,10.31-1.34,20.31,20.31,0,0,1,8,1.34,12.9,12.9,0,0,1,4.95,3.62,12.25,12.25,0,0,1,2.51,5.36,28.71,28.71,0,0,1,.52,6.7,44.3,44.3,0,0,1-2.91,13.23q-2.57,6.83-5.6,13.52t-5.59,13.23a41,41,0,0,0-2.92,12.48,7.93,7.93,0,0,0,.06.87q.06.52.18,1.11a2.07,2.07,0,0,0,.46,1,1.33,1.33,0,0,0,1,.41,6.59,6.59,0,0,0,4-1.93,45.1,45.1,0,0,0,4.9-4.95q2.63-3,5.3-6.7t5-7.11c1.51-2.3,2.83-4.39,4-6.3s2-3.28,2.51-4.14l.75-1.1c.35-.51.72-1,1.11-1.52a12.15,12.15,0,0,1,1.28-1.4,2.06,2.06,0,0,1,1-.64h.47c.23,0,.41.18.52.52a9,9,0,0,1,.3,1.11,10.59,10.59,0,0,1,.11,1.75A54.64,54.64,0,0,1,995.72,312a63.73,63.73,0,0,1-11.89,23.32,56.85,56.85,0,0,1-9.73,9.5,22.62,22.62,0,0,1-7.76,4.14,33,33,0,0,1-8.91,1.1,25.6,25.6,0,0,1-15.92-5.53,18.38,18.38,0,0,1-4.83-5.89,13.58,13.58,0,0,1-1.52-7.23,24.62,24.62,0,0,1,1.58-6.59q1.46-4.12,3.38-8.68t3.9-8.68q2-4.14,3-6.47c.54-1.25,1.23-2.82,2-4.72s1.63-3.87,2.45-5.89,1.53-4,2.16-5.95a16.42,16.42,0,0,0,.93-4.78,2.9,2.9,0,0,0-.12-1.39,1.07,1.07,0,0,0-1.16-.82q-1.51,0-4.32,2.45a66.55,66.55,0,0,0-6.06,6.18q-3.27,3.72-6.7,8.21t-6.47,8.63q-3,4.14-5.25,7.29t-2.91,4.19q-3.39,5.25-6.12,10.55t-5.3,10.78q-1.05,2.34-2,5.07a26.22,26.22,0,0,1-2.39,5,4.85,4.85,0,0,1-4.55,2.45,12.43,12.43,0,0,1-5.77-1.64,31.23,31.23,0,0,1-4.84-3,12.94,12.94,0,0,1-3.84-5.31,13.69,13.69,0,0,1-1-6.24,24.37,24.37,0,0,1,1.1-5.42q1-3.31,2.51-7.22t3.38-8.16c1.24-2.84,2.49-5.56,3.73-8.16l3.44-7.23c1.05-2.22,1.88-4,2.51-5.42.23-.62.54-1.38.93-2.27s.74-1.81,1-2.74.6-1.85.87-2.74a8.43,8.43,0,0,0,.41-2.39C905.75,279.48,905.47,279.09,904.85,279.09Z"/><path class="cls-8" d="M1074.81,299.26a7.44,7.44,0,0,0,.64-.82,9.14,9.14,0,0,1,1-1.16,13.84,13.84,0,0,1,1.17-1,1.78,1.78,0,0,1,1.05-.47.76.76,0,0,1,.7.47,2.51,2.51,0,0,1,.23,1.1v1.23a2.91,2.91,0,0,1-.12.93,49.31,49.31,0,0,1-5.24,20.4,52.27,52.27,0,0,1-12.94,16.38,61,61,0,0,1-19.35,10.9,73.29,73.29,0,0,1-24.6,4,55,55,0,0,1-15.79-2.21,39.72,39.72,0,0,1-12.83-6.36,29.44,29.44,0,0,1-8.45-10,24.93,24.93,0,0,1-2.56-13.23,39,39,0,0,1,3.5-13.76,66.32,66.32,0,0,1,8.45-13.93,97.1,97.1,0,0,1,12.24-13,92.36,92.36,0,0,1,14.8-10.79A83.76,83.76,0,0,1,1033,260.5a53,53,0,0,1,16.55-2.74,40.63,40.63,0,0,1,8.92.93,21.11,21.11,0,0,1,7.17,3,14.11,14.11,0,0,1,4.66,5.13,14,14,0,0,1,1.4,7.41,31.4,31.4,0,0,1-3.84,12.53,50.58,50.58,0,0,1-9.15,12.35,52.45,52.45,0,0,1-12.77,9.39,31.21,31.21,0,0,1-14.69,3.73,21,21,0,0,1-6.06-1,28.4,28.4,0,0,1-6.06-2.63,19.62,19.62,0,0,1-4.78-3.84,8.18,8.18,0,0,1-2.21-4.78H1012a66.89,66.89,0,0,0-2.21,6.58,32.32,32.32,0,0,0-1.17,6.71q-.47,8.63,5.24,13.46t16.09,4.84a36.52,36.52,0,0,0,12-1.93,44.16,44.16,0,0,0,10.37-5.13,54.21,54.21,0,0,0,8.75-7.28,90,90,0,0,0,7.22-8.39q1.76-2.34,3.32-4.78T1074.81,299.26ZM1041,272.91a16.47,16.47,0,0,0-7.76,2,36.58,36.58,0,0,0-7.11,4.89,45.19,45.19,0,0,0-5.94,6.3,50.8,50.8,0,0,0-4.14,6.06,10.82,10.82,0,0,0,5.48,2,52.28,52.28,0,0,0,6.18.41,46.24,46.24,0,0,0,7.52-.65,30,30,0,0,0,7.34-2.15,16.91,16.91,0,0,0,5.71-4,9,9,0,0,0,2.39-6.06,7.64,7.64,0,0,0-2.45-6.29A10,10,0,0,0,1041,272.91Z"/><path class="cls-8" d="M1141.84,319.77a66.68,66.68,0,0,1,7.05-26.28,82.9,82.9,0,0,1,17.19-23.26,66,66,0,0,1,6.18-5.18,48.05,48.05,0,0,1,7.23-4.43,41.65,41.65,0,0,1,8-3,32.93,32.93,0,0,1,8.45-1.1,25.33,25.33,0,0,1,10.38,2.27,35.41,35.41,0,0,1,9.15,5.83,29.25,29.25,0,0,1,6.41,7.93,16,16,0,0,1,2.16,8.56,13.49,13.49,0,0,1-1,3.73,20.17,20.17,0,0,1-2.33,4.26,16.54,16.54,0,0,1-3.38,3.5,6.61,6.61,0,0,1-4,1.45,5.23,5.23,0,0,1-4-2.27c-1.24-1.51-2.62-3.19-4.14-5a29.55,29.55,0,0,0-5.36-5,12.69,12.69,0,0,0-7.75-2.28,20.67,20.67,0,0,0-9,2,31.22,31.22,0,0,0-7.63,5.19,40,40,0,0,0-6.24,7.34,59.1,59.1,0,0,0-4.66,8.45,48,48,0,0,0-2.91,8.46,45.73,45.73,0,0,0-1.23,7.52,29.89,29.89,0,0,0,.76,8.8,14.56,14.56,0,0,0,3.61,6.64,16.85,16.85,0,0,0,6.88,4.2,32.49,32.49,0,0,0,10.43,1.46,38.35,38.35,0,0,0,15.68-3.27,58.31,58.31,0,0,0,13.81-8.57,71.82,71.82,0,0,0,11.66-12.24,103.21,103.21,0,0,0,9.09-14.22,80.46,80.46,0,0,0,6-14.45,57.23,57.23,0,0,0,2.5-13l.12-1.63a59.62,59.62,0,0,0-.93-13.76,35,35,0,0,0-4.9-12.64,28.1,28.1,0,0,0-9.91-9.27q-6.29-3.62-16-3.62a52.39,52.39,0,0,0-32.63,10.73A54.33,54.33,0,0,0,1165.44,255a98.56,98.56,0,0,0-8.33,13.76c-.23.46-.45.95-.64,1.45a5,5,0,0,1-.76,1.34,4.24,4.24,0,0,1-1.17,1,3.69,3.69,0,0,1-1.86.4,7.35,7.35,0,0,1-2.86-.75,26.34,26.34,0,0,1-3.32-1.81,36.8,36.8,0,0,1-3-2.16,15.65,15.65,0,0,1-2.1-1.92,15.44,15.44,0,0,1-2.85-5.48,17.36,17.36,0,0,1-.53-5.94,17.79,17.79,0,0,1,1.17-5.48,28.32,28.32,0,0,1,2.79-5.48,49,49,0,0,1,3.85-5.13,58.24,58.24,0,0,1,4.2-4.43,67.83,67.83,0,0,1,12.47-9,86.54,86.54,0,0,1,14.4-6.53,93,93,0,0,1,15.62-4,98,98,0,0,1,16.14-1.35q15.86,0,27.92,4.49a55.74,55.74,0,0,1,20,12.36A48.2,48.2,0,0,1,1268.37,249a61.63,61.63,0,0,1,3.21,23.49,80.22,80.22,0,0,1-3.85,19.81,98.37,98.37,0,0,1-8.92,19.76,105.62,105.62,0,0,1-13.58,18.19,94.22,94.22,0,0,1-17.77,15,89.83,89.83,0,0,1-21.39,10.14,79,79,0,0,1-24.37,3.73,50.37,50.37,0,0,1-18.36-3,33,33,0,0,1-12.64-8.4,31.92,31.92,0,0,1-7.06-12.53A46,46,0,0,1,1141.84,319.77Z"/><path class="cls-8" d="M1343,259.86c3.27,0,5.81.64,7.64,1.92s2.66,3.32,2.51,6.12a19.24,19.24,0,0,1-1.23,5c-.74,2.05-1.67,4.33-2.8,6.81s-2.39,5.06-3.78,7.7-2.76,5.19-4.08,7.63-2.59,4.69-3.79,6.71l-2.86,4.77q-2.33,4-5.77,9.21t-7.28,10.5q-3.85,5.24-7.93,10a63,63,0,0,1-7.93,7.93,36.07,36.07,0,0,1-9.21,5.71,27.56,27.56,0,0,1-11.07,2.21q-5.48,0-8.57-2.74a15.32,15.32,0,0,1-4.43-6.7,29.6,29.6,0,0,1-1.51-8.39c-.12-3-.14-5.52-.06-7.69a110.53,110.53,0,0,1,1.4-12.36q1-6.18,2.39-12.3t3-12.18q1.63-6.06,3-12.12c.39-1.32.72-2.64,1-4a13.15,13.15,0,0,1,1.46-3.84,14.91,14.91,0,0,1,7-6.94,24.58,24.58,0,0,1,10.38-2,29.68,29.68,0,0,1,6.52.7,14.15,14.15,0,0,1,5.6,2.57,3.46,3.46,0,0,1,.58,1.86c-.46.86-1,1.73-1.45,2.62s-1,1.77-1.46,2.62q-1.4,2.8-3.21,7.47c-1.2,3.1-2.43,6.51-3.67,10.19s-2.47,7.54-3.67,11.55-2.27,7.85-3.21,11.54-1.71,7.11-2.33,10.25a52.8,52.8,0,0,0-1,7.64c0,.23,0,.56-.05,1a3.46,3.46,0,0,0,.11,1.28,3.18,3.18,0,0,0,.53,1.11,1.23,1.23,0,0,0,1,.47,4.93,4.93,0,0,0,2.79-1.58,37.62,37.62,0,0,0,3.44-3.55q1.7-2,3.15-3.91c1-1.28,1.61-2.15,1.92-2.62q4-5.25,8.34-12.07t8.27-14.1q3.91-7.29,7.06-14.51a76.36,76.36,0,0,0,4.54-13.41,13,13,0,0,0,.29-2.21,7.06,7.06,0,0,1,.41-2.1,4,4,0,0,1,2.92-3.21A22.3,22.3,0,0,1,1343,259.86Z"/><path class="cls-8" d="M1437.46,299.26a8.92,8.92,0,0,0,.64-.82,9.14,9.14,0,0,1,1-1.16,12.37,12.37,0,0,1,1.16-1,1.78,1.78,0,0,1,1-.47.76.76,0,0,1,.7.47,2.38,2.38,0,0,1,.23,1.1v1.23a3.28,3.28,0,0,1-.11.93,49.17,49.17,0,0,1-5.25,20.4,52.27,52.27,0,0,1-12.94,16.38,61,61,0,0,1-19.35,10.9,73.27,73.27,0,0,1-24.59,4,55.1,55.1,0,0,1-15.8-2.21,39.67,39.67,0,0,1-12.82-6.36,29.44,29.44,0,0,1-8.45-10,24.94,24.94,0,0,1-2.57-13.23,39.19,39.19,0,0,1,3.5-13.76,66.74,66.74,0,0,1,8.45-13.93,98.41,98.41,0,0,1,12.24-13,92,92,0,0,1,14.81-10.79,83.23,83.23,0,0,1,16.26-7.34,53,53,0,0,1,16.55-2.74,40.7,40.7,0,0,1,8.92.93,21.2,21.2,0,0,1,7.17,3,13.31,13.31,0,0,1,6.06,12.54,31.59,31.59,0,0,1-3.85,12.53,50.32,50.32,0,0,1-9.15,12.35,52.4,52.4,0,0,1-12.76,9.39,31.24,31.24,0,0,1-14.69,3.73,20.91,20.91,0,0,1-6.06-1,28,28,0,0,1-6.06-2.63,19.44,19.44,0,0,1-4.78-3.84,8.2,8.2,0,0,1-2.22-4.78h-.11a67,67,0,0,0-2.22,6.58,33.7,33.7,0,0,0-1.17,6.71q-.46,8.63,5.25,13.46t16.09,4.84a36.46,36.46,0,0,0,12-1.93,44.42,44.42,0,0,0,10.38-5.13,54.13,54.13,0,0,0,8.74-7.28,91.67,91.67,0,0,0,7.23-8.39q1.74-2.34,3.32-4.78T1437.46,299.26Zm-33.81-26.35a16.43,16.43,0,0,0-7.75,2,36,36,0,0,0-7.11,4.89,44.69,44.69,0,0,0-6,6.3,50.8,50.8,0,0,0-4.14,6.06,10.86,10.86,0,0,0,5.48,2,52.55,52.55,0,0,0,6.18.41,46.14,46.14,0,0,0,7.52-.65,30,30,0,0,0,7.34-2.15,17.06,17.06,0,0,0,5.72-4,9,9,0,0,0,2.39-6.06,7.7,7.7,0,0,0-2.45-6.29A10,10,0,0,0,1403.65,272.91Z"/><path class="cls-8" d="M1452.38,271.75a4.24,4.24,0,0,0,1.92,4.08,9.64,9.64,0,0,0,5.19,1.28,27.87,27.87,0,0,0,10-2q5.19-2,10.2-4.37t9.68-4.37a21.25,21.25,0,0,1,8.16-2,5.8,5.8,0,0,1,3.79,1.11,7.69,7.69,0,0,1,2.1,2.8,10.34,10.34,0,0,1,.87,3.55,23.76,23.76,0,0,1,0,3.38,26.19,26.19,0,0,1-1.57,7.17q-1.47,4.26-3.44,8.69c-1.33,2.95-2.68,5.83-4.08,8.63s-2.57,5.12-3.5,7c-.78,1.63-1.57,3.4-2.39,5.3s-1.59,3.87-2.33,5.89-1.36,4-1.87,6a28.23,28.23,0,0,0-.87,5.54c0,.31,0,.74-.06,1.28a4.7,4.7,0,0,0,.12,1.52,2.82,2.82,0,0,0,.64,1.22,1.63,1.63,0,0,0,1.28.53,6.72,6.72,0,0,0,4.08-2,40.35,40.35,0,0,0,4.84-5q2.51-3,5.13-6.76t4.89-7.23c1.52-2.33,2.9-4.46,4.14-6.41s2.14-3.38,2.68-4.31c.47-.62,1.09-1.44,1.87-2.45a3.26,3.26,0,0,1,2.56-1.52,1.73,1.73,0,0,1,.82,1.64,9.47,9.47,0,0,1-.12,1.75,54.82,54.82,0,0,1-1.92,12.18,65.67,65.67,0,0,1-4.66,12.18,62.13,62.13,0,0,1-7.29,11.25,58.71,58.71,0,0,1-9.79,9.5,29.51,29.51,0,0,1-6.53,3.61,20,20,0,0,1-7.46,1.4,38.49,38.49,0,0,1-8.86-1,23.17,23.17,0,0,1-7.28-3,14.31,14.31,0,0,1-4.84-5.07,13.3,13.3,0,0,1-1.52-7.4,27.5,27.5,0,0,1,1-5.83c.62-2.26,1.44-4.7,2.45-7.35s2.12-5.36,3.32-8.16,2.37-5.48,3.5-8,2.23-5,3.32-7.23,2-4.15,2.68-5.71a7.35,7.35,0,0,0,.59-1.22c.23-.59.5-1.19.81-1.81s.58-1.23.82-1.81a4.54,4.54,0,0,0,.35-1.1c.07-.78-.2-1.17-.82-1.17a9.23,9.23,0,0,0-2.74,1.63,60.31,60.31,0,0,1-5.83,3.62,55.82,55.82,0,0,1-8,3.61,27.88,27.88,0,0,1-9.62,1.63,11.57,11.57,0,0,1-6.18-1.51,12.19,12.19,0,0,1-3.9-3.79,13.42,13.42,0,0,1-1.92-5.07,24.89,24.89,0,0,1-.35-5.37,30.75,30.75,0,0,1,2-9.15,31.39,31.39,0,0,1,5.07-8.86,27.42,27.42,0,0,1,7.92-6.64,21.51,21.51,0,0,1,10.73-2.62,12.94,12.94,0,0,1,4.89,1,16.81,16.81,0,0,1,4.38,2.56,12.23,12.23,0,0,1,3,3.62,7.8,7.8,0,0,1,1,4.13,6.92,6.92,0,0,1-1.4,3.73,12.82,12.82,0,0,1-3.32,3.09,17.67,17.67,0,0,1-4.38,2.1,14.5,14.5,0,0,1-4.54.76,5,5,0,0,1-1.11-.12,2.48,2.48,0,0,1-1-.46c.39-.55.82-1.17,1.28-1.87a4.68,4.68,0,0,0,.82-2,5.47,5.47,0,0,0-.23-1.4,6.29,6.29,0,0,0-.76-1.63,5.72,5.72,0,0,0-1.17-1.34,2.4,2.4,0,0,0-1.57-.53,4.37,4.37,0,0,0-2.45.7,7.66,7.66,0,0,0-1.81,1.69,6.69,6.69,0,0,0-1.1,2.16A7.18,7.18,0,0,0,1452.38,271.75Z"/><path class="cls-3" d="M760.6,497.22a10.45,10.45,0,0,1,.63-3.77,7.93,7.93,0,0,1,1.73-2.72,7,7,0,0,1,2.55-1.64,8.51,8.51,0,0,1,3.08-.56,7.76,7.76,0,0,1,4.51,1.35l1.42-1.85,1.49,1.1-1.54,2a8,8,0,0,1,1.48,2.6,11.48,11.48,0,0,1-.1,7.26,7.72,7.72,0,0,1-1.72,2.72,7.08,7.08,0,0,1-2.5,1.65,8.36,8.36,0,0,1-3,.55,9,9,0,0,1-2.41-.32,7.63,7.63,0,0,1-2.13-1l-1.39,1.8-1.49-1.1,1.49-1.92a7.91,7.91,0,0,1-1.51-2.62A10.38,10.38,0,0,1,760.6,497.22Zm2.45,0a8,8,0,0,0,1.05,4.3l7.66-9.91a5.06,5.06,0,0,0-3.22-1,5.45,5.45,0,0,0-2.29.47,4.81,4.81,0,0,0-1.73,1.33,6.33,6.33,0,0,0-1.09,2.1A9.14,9.14,0,0,0,763.05,497.22Zm5.49,6.65a5.37,5.37,0,0,0,2.28-.47,4.75,4.75,0,0,0,1.72-1.33,6.33,6.33,0,0,0,1.09-2.1,10.25,10.25,0,0,0,.12-5.06A7.6,7.6,0,0,0,773,493l-7.64,9.87A5.07,5.07,0,0,0,768.54,503.87Z"/><path class="cls-3" d="M789.54,493.07a61.45,61.45,0,0,1-2.19,6.72c-.84,2.14-1.66,4.06-2.44,5.76h-2q-1.17-2.55-2.43-5.76a63.7,63.7,0,0,1-2.2-6.72h2.4c.19.78.42,1.62.69,2.51s.54,1.77.84,2.64.59,1.71.9,2.53.59,1.54.86,2.18c.27-.64.56-1.36.86-2.18s.61-1.66.9-2.53.58-1.75.84-2.64.5-1.73.69-2.51Z"/><path class="cls-3" d="M793.36,502.81c0,.13,0,.26,0,.38v.37a10.56,10.56,0,0,1-.44,3,14,14,0,0,1-1.21,2.82l-1.73-.56a8.53,8.53,0,0,0,.79-2.48A15.47,15.47,0,0,0,791,504c0-.21,0-.41,0-.6s0-.38,0-.56Z"/><path class="cls-3" d="M814,505.55c-.35-.59-.76-1.26-1.21-2s-.95-1.5-1.48-2.29-1.08-1.6-1.64-2.42-1.14-1.6-1.7-2.36-1.1-1.48-1.63-2.15-1-1.26-1.46-1.77v13H802.6V488.92h1.85c.75.8,1.55,1.73,2.41,2.79s1.7,2.16,2.54,3.29,1.63,2.24,2.38,3.33,1.37,2.05,1.88,2.9V488.92h2.28v16.63Z"/><path class="cls-3" d="M821,490.81a1.44,1.44,0,0,1-1-.39,1.57,1.57,0,0,1,0-2.14,1.53,1.53,0,0,1,2,0,1.57,1.57,0,0,1,0,2.14A1.44,1.44,0,0,1,821,490.81Zm1.13,14.74h-2.24V493.07h2.24Z"/><path class="cls-3" d="M828.9,503.94a4.41,4.41,0,0,0,2-.36,1.21,1.21,0,0,0,.66-1.15,1.55,1.55,0,0,0-.65-1.3,10.07,10.07,0,0,0-2.14-1.08c-.47-.19-.93-.38-1.38-.58a5.06,5.06,0,0,1-1.13-.71,2.88,2.88,0,0,1-.77-1,3.13,3.13,0,0,1-.29-1.41,3.19,3.19,0,0,1,1.22-2.63,5.23,5.23,0,0,1,3.34-1,9.24,9.24,0,0,1,1.05.06c.36,0,.69.09,1,.14l.8.18.54.17-.4,1.92a5.8,5.8,0,0,0-1.13-.4,7.58,7.58,0,0,0-1.85-.2,3.38,3.38,0,0,0-1.63.37,1.24,1.24,0,0,0-.7,1.17,1.53,1.53,0,0,0,.16.72,1.65,1.65,0,0,0,.48.56,3.93,3.93,0,0,0,.8.47c.32.14.71.29,1.15.45q.88.35,1.59.66a5.17,5.17,0,0,1,1.19.76,3,3,0,0,1,.75,1,3.73,3.73,0,0,1,.26,1.5,3,3,0,0,1-1.28,2.62,6.38,6.38,0,0,1-3.66.89,9.29,9.29,0,0,1-2.59-.28,11.41,11.41,0,0,1-1.27-.42l.41-1.92c.25.1.66.24,1.22.43A6.81,6.81,0,0,0,828.9,503.94Z"/><path class="cls-3" d="M839.61,503.94a4.36,4.36,0,0,0,2-.36,1.21,1.21,0,0,0,.66-1.15,1.54,1.54,0,0,0-.64-1.3,10.6,10.6,0,0,0-2.14-1.08c-.48-.19-.94-.38-1.38-.58a4.91,4.91,0,0,1-1.14-.71,3,3,0,0,1-.77-1,3.13,3.13,0,0,1-.29-1.41,3.17,3.17,0,0,1,1.23-2.63,5.2,5.2,0,0,1,3.33-1,9.42,9.42,0,0,1,1.06.06l1,.14.81.18.54.17-.41,1.92a5.8,5.8,0,0,0-1.13-.4,7.58,7.58,0,0,0-1.85-.2,3.41,3.41,0,0,0-1.63.37,1.24,1.24,0,0,0-.69,1.17,1.66,1.66,0,0,0,.15.72,1.77,1.77,0,0,0,.48.56,4.33,4.33,0,0,0,.81.47c.31.14.7.29,1.15.45s1.12.45,1.58.66a5.17,5.17,0,0,1,1.19.76,3,3,0,0,1,.76,1,3.91,3.91,0,0,1,.26,1.5,3,3,0,0,1-1.28,2.62,6.43,6.43,0,0,1-3.66.89,9.37,9.37,0,0,1-2.6-.28,11.41,11.41,0,0,1-1.27-.42l.41-1.92,1.22.43A6.88,6.88,0,0,0,839.61,503.94Z"/><path class="cls-3" d="M851.92,498.69a13.73,13.73,0,0,1,1.52,1.36c.54.55,1.06,1.14,1.59,1.77s1,1.27,1.47,1.92.86,1.25,1.18,1.81h-2.62a19.27,19.27,0,0,0-1.16-1.72q-.66-.87-1.38-1.68a20.38,20.38,0,0,0-1.47-1.47,11.81,11.81,0,0,0-1.41-1.13v6h-2.23V487.31l2.23-.38V498.3l1.27-1.27c.46-.46.92-.94,1.37-1.42l1.27-1.38c.4-.44.74-.82,1-1.16h2.62l-1.2,1.32c-.43.48-.88,1-1.35,1.45l-1.4,1.47C852.78,497.79,852.33,498.25,851.92,498.69Z"/><path class="cls-3" d="M858.61,499.33a8,8,0,0,1,.48-2.89,6,6,0,0,1,1.28-2.05,5.08,5.08,0,0,1,1.82-1.22,5.54,5.54,0,0,1,2.11-.41,4.81,4.81,0,0,1,3.87,1.57,7.26,7.26,0,0,1,1.34,4.79v.37c0,.15,0,.29,0,.42h-8.55a4.55,4.55,0,0,0,1.13,2.95,4.14,4.14,0,0,0,3.07,1,8.45,8.45,0,0,0,2-.2,7,7,0,0,0,1.21-.4l.32,1.87a6.44,6.44,0,0,1-1.43.46,10.15,10.15,0,0,1-2.32.24,7.49,7.49,0,0,1-2.82-.49,5.22,5.22,0,0,1-2-1.36,5.35,5.35,0,0,1-1.14-2.05A8.61,8.61,0,0,1,858.61,499.33Zm8.57-1.22a3.69,3.69,0,0,0-.75-2.48,2.61,2.61,0,0,0-2.15-1,3,3,0,0,0-1.36.3,3.17,3.17,0,0,0-1,.78,3.4,3.4,0,0,0-.64,1.11,5.59,5.59,0,0,0-.3,1.27Z"/><path class="cls-3" d="M877.6,486.93a8.34,8.34,0,0,1,1.69.14,7.06,7.06,0,0,1,1,.26l-.41,1.92a4.89,4.89,0,0,0-.82-.27,5.29,5.29,0,0,0-1.29-.13,2.55,2.55,0,0,0-2.19.85A3.84,3.84,0,0,0,875,492v1.08h4.8v1.87H875v10.61h-2.23V491.94a5.39,5.39,0,0,1,1.17-3.71A4.76,4.76,0,0,1,877.6,486.93Z"/><path class="cls-3" d="M886,492.76a6.3,6.3,0,0,1,2.27.35,3.7,3.7,0,0,1,1.49,1,3.78,3.78,0,0,1,.8,1.51,7.34,7.34,0,0,1,.24,1.93v7.8l-.8.14-1.17.15c-.43.05-.9.09-1.4.13s-1,.06-1.5.06a8.57,8.57,0,0,1-2-.21,4.29,4.29,0,0,1-1.53-.69,3.13,3.13,0,0,1-1-1.23,4.33,4.33,0,0,1-.36-1.85,3.58,3.58,0,0,1,.42-1.78,3.45,3.45,0,0,1,1.14-1.2,5.52,5.52,0,0,1,1.68-.67,9.41,9.41,0,0,1,2-.21l.69,0,.69.1.56.11.34.07v-.63a5.06,5.06,0,0,0-.12-1.09,2.62,2.62,0,0,0-.43-1,2.24,2.24,0,0,0-.86-.67,3.28,3.28,0,0,0-1.4-.25,10.88,10.88,0,0,0-1.93.15,7.45,7.45,0,0,0-1.24.33l-.26-1.85a6.85,6.85,0,0,1,1.44-.37A12.41,12.41,0,0,1,886,492.76Zm.19,11.18q.79,0,1.41,0a6,6,0,0,0,1-.14v-3.72a3,3,0,0,0-.78-.2,8.27,8.27,0,0,0-1.31-.08,8.11,8.11,0,0,0-1.07.07,3.42,3.42,0,0,0-1,.3,2.26,2.26,0,0,0-.78.62,1.64,1.64,0,0,0-.31,1.05,1.76,1.76,0,0,0,.77,1.66A3.89,3.89,0,0,0,886.21,503.94Z"/><path class="cls-3" d="M899.13,492.81l.66,0,.73.1.66.12a2.76,2.76,0,0,1,.44.11l-.38,1.94c-.18-.06-.47-.14-.88-.23a7.55,7.55,0,0,0-1.57-.13,5.74,5.74,0,0,0-1.24.13l-.8.18v10.49h-2.23V493.6a15.48,15.48,0,0,1,2-.54A12.63,12.63,0,0,1,899.13,492.81Z"/><path class="cls-3" d="M906.68,503.94a4.38,4.38,0,0,0,2-.36,1.21,1.21,0,0,0,.66-1.15,1.52,1.52,0,0,0-.65-1.3,10.19,10.19,0,0,0-2.13-1.08c-.48-.19-.94-.38-1.38-.58a4.91,4.91,0,0,1-1.14-.71,3,3,0,0,1-.77-1,3.13,3.13,0,0,1-.29-1.41,3.17,3.17,0,0,1,1.23-2.63,5.18,5.18,0,0,1,3.33-1,9.42,9.42,0,0,1,1.06.06l1,.14.81.18.54.17-.41,1.92a5.8,5.8,0,0,0-1.13-.4,7.58,7.58,0,0,0-1.85-.2,3.38,3.38,0,0,0-1.63.37,1.25,1.25,0,0,0-.7,1.17,1.52,1.52,0,0,0,.64,1.28,4.22,4.22,0,0,0,.8.47c.32.14.71.29,1.16.45s1.12.45,1.58.66a5.17,5.17,0,0,1,1.19.76,2.86,2.86,0,0,1,.75,1,3.72,3.72,0,0,1,.27,1.5,3,3,0,0,1-1.29,2.62,6.38,6.38,0,0,1-3.66.89,9.34,9.34,0,0,1-2.59-.28,11.41,11.41,0,0,1-1.27-.42l.41-1.92c.25.1.66.24,1.22.43A6.85,6.85,0,0,0,906.68,503.94Z"/><path class="cls-3" d="M924.64,492.81l.66,0,.73.1.66.12a2.5,2.5,0,0,1,.44.11l-.38,1.94c-.18-.06-.47-.14-.88-.23a7.55,7.55,0,0,0-1.57-.13,5.74,5.74,0,0,0-1.24.13l-.8.18v10.49H920V493.6a15.69,15.69,0,0,1,2-.54A12.46,12.46,0,0,1,924.64,492.81Z"/><path class="cls-3" d="M930.4,490.81a1.44,1.44,0,0,1-1-.39,1.57,1.57,0,0,1,0-2.14,1.53,1.53,0,0,1,2,0,1.57,1.57,0,0,1,0,2.14A1.44,1.44,0,0,1,930.4,490.81Zm1.12,14.74h-2.23V493.07h2.23Z"/><path class="cls-3" d="M938.27,503.94a4.41,4.41,0,0,0,2-.36,1.21,1.21,0,0,0,.66-1.15,1.55,1.55,0,0,0-.65-1.3,10.33,10.33,0,0,0-2.14-1.08c-.48-.19-.94-.38-1.38-.58a4.91,4.91,0,0,1-1.14-.71,3.36,3.36,0,0,1,.17-5,5.23,5.23,0,0,1,3.34-1,9.24,9.24,0,0,1,1.05.06l1,.14.8.18.54.17-.41,1.92a5.56,5.56,0,0,0-1.13-.4,7.5,7.5,0,0,0-1.84-.2,3.42,3.42,0,0,0-1.64.37,1.24,1.24,0,0,0-.69,1.17,1.66,1.66,0,0,0,.15.72,1.91,1.91,0,0,0,.48.56,4.33,4.33,0,0,0,.81.47c.32.14.7.29,1.15.45s1.12.45,1.58.66a5,5,0,0,1,1.19.76,3,3,0,0,1,.76,1,3.91,3.91,0,0,1,.26,1.5,3,3,0,0,1-1.28,2.62,6.43,6.43,0,0,1-3.66.89,9.24,9.24,0,0,1-2.59-.28,11.8,11.8,0,0,1-1.28-.42l.41-1.92,1.23.43A6.81,6.81,0,0,0,938.27,503.94Z"/><path class="cls-3" d="M945.37,499.33a8,8,0,0,1,.48-2.89,6.16,6.16,0,0,1,1.27-2.05,5.2,5.2,0,0,1,1.83-1.22,5.5,5.5,0,0,1,2.11-.41,4.78,4.78,0,0,1,3.86,1.57,7.21,7.21,0,0,1,1.35,4.79v.37a2.77,2.77,0,0,1,0,.42H947.7a4.55,4.55,0,0,0,1.13,2.95,4.13,4.13,0,0,0,3.07,1,8.57,8.57,0,0,0,2-.2,7,7,0,0,0,1.21-.4l.31,1.87a6.13,6.13,0,0,1-1.42.46,10.27,10.27,0,0,1-2.32.24,7.49,7.49,0,0,1-2.82-.49,5.34,5.34,0,0,1-2-1.36,5.63,5.63,0,0,1-1.14-2.05A8.94,8.94,0,0,1,945.37,499.33Zm8.57-1.22a3.7,3.7,0,0,0-.76-2.48,2.59,2.59,0,0,0-2.14-1,2.93,2.93,0,0,0-1.36.3,3.33,3.33,0,0,0-1,.78,3.56,3.56,0,0,0-.63,1.11,5.59,5.59,0,0,0-.3,1.27Z"/><path class="cls-3" d="M959.48,493.43c.52-.13,1.19-.26,2-.41a18.22,18.22,0,0,1,2.93-.21,6.3,6.3,0,0,1,2.47.42,4,4,0,0,1,1.58,1.17,4.62,4.62,0,0,1,.82,1.81,10.56,10.56,0,0,1,.24,2.33v7h-2.23V499a11.13,11.13,0,0,0-.15-2,3.47,3.47,0,0,0-.52-1.32,2.06,2.06,0,0,0-1-.73,4.28,4.28,0,0,0-1.49-.23l-.74,0c-.26,0-.5,0-.73.06s-.45.05-.63.08l-.39.07v10.54h-2.24Z"/><path class="cls-3" d="M981.08,504.3a5.75,5.75,0,0,1-1.11.49,5.67,5.67,0,0,1-1.93.3,6.19,6.19,0,0,1-2.13-.36,4.71,4.71,0,0,1-1.74-1.11,5.22,5.22,0,0,1-1.17-1.89,8.14,8.14,0,0,1,0-5.19,5.41,5.41,0,0,1,3.1-3.27,6.61,6.61,0,0,1,2.54-.46,14.64,14.64,0,0,1,2.73.22l1.95.42v11.14a5.29,5.29,0,0,1-1.49,4.18,6.73,6.73,0,0,1-4.51,1.29,12.16,12.16,0,0,1-2.22-.19,12.49,12.49,0,0,1-1.81-.46l.41-1.94a10,10,0,0,0,1.64.47,10.28,10.28,0,0,0,2,.2,4.23,4.23,0,0,0,2.87-.79,3.26,3.26,0,0,0,.87-2.52Zm0-9.26a5.66,5.66,0,0,0-.9-.18,10.27,10.27,0,0,0-1.53-.09,3.41,3.41,0,0,0-2.77,1.18,4.72,4.72,0,0,0-1,3.12,5.34,5.34,0,0,0,.28,1.85,3.67,3.67,0,0,0,.74,1.27,2.82,2.82,0,0,0,1.08.74,3.44,3.44,0,0,0,1.26.24,5,5,0,0,0,1.63-.25,3.93,3.93,0,0,0,1.18-.59Z"/><path class="cls-3" d="M991.74,492.81l.66,0,.73.1.66.12a2.94,2.94,0,0,1,.45.11l-.39,1.94a8.74,8.74,0,0,0-.87-.23,7.65,7.65,0,0,0-1.58-.13,5.71,5.71,0,0,0-1.23.13l-.81.18v10.49h-2.23V493.6a16.18,16.18,0,0,1,2-.54A12.46,12.46,0,0,1,991.74,492.81Z"/><path class="cls-3" d="M1006,494.87a6.43,6.43,0,0,1,1,2,7.73,7.73,0,0,1,.37,2.48A7.87,7.87,0,0,1,1007,502a6.1,6.1,0,0,1-1.21,2.06,5.25,5.25,0,0,1-1.86,1.33,5.74,5.74,0,0,1-2.35.47,5.59,5.59,0,0,1-3.29-1l-1.18,1.53-1.27-1,1.3-1.68a6.24,6.24,0,0,1-1-2,8.6,8.6,0,0,1,.06-5.18,6.15,6.15,0,0,1,1.21-2.07,5.25,5.25,0,0,1,1.86-1.33,5.75,5.75,0,0,1,2.36-.47,6,6,0,0,1,1.76.26,5.82,5.82,0,0,1,1.52.75l1.18-1.54,1.27,1Zm-8,4.44a6.15,6.15,0,0,0,.51,2.64l5.09-6.58a3.29,3.29,0,0,0-2-.67,3.09,3.09,0,0,0-2.61,1.24A5.42,5.42,0,0,0,998,499.31Zm7.11,0a6.19,6.19,0,0,0-.53-2.62l-5.06,6.58a3.17,3.17,0,0,0,2,.65,3.08,3.08,0,0,0,2.6-1.24A5.42,5.42,0,0,0,1005.11,499.31Z"/><path class="cls-3" d="M1018.62,487.31l2.23-.38v18.26c-.51.14-1.17.29-2,.43a15.13,15.13,0,0,1-2.76.22,6.87,6.87,0,0,1-2.59-.46,5.53,5.53,0,0,1-2-1.29,5.86,5.86,0,0,1-1.26-2.06,8,8,0,0,1-.44-2.72,8.82,8.82,0,0,1,.37-2.64,5.88,5.88,0,0,1,1.09-2.06,4.92,4.92,0,0,1,1.77-1.35,5.63,5.63,0,0,1,2.39-.48,5.79,5.79,0,0,1,1.9.29,6.06,6.06,0,0,1,1.24.55Zm0,8.4a4.63,4.63,0,0,0-1.18-.65,4.37,4.37,0,0,0-1.68-.31,3.61,3.61,0,0,0-1.64.35,3,3,0,0,0-1.12,1,4.24,4.24,0,0,0-.62,1.45,8,8,0,0,0-.19,1.8,4.82,4.82,0,0,0,1.08,3.37,3.71,3.71,0,0,0,2.88,1.19,12.67,12.67,0,0,0,1.52-.08,8.63,8.63,0,0,0,1-.18Z"/><path class="cls-3" d="M1029.54,499.33a8,8,0,0,1,.48-2.89,6,6,0,0,1,1.27-2.05,5.2,5.2,0,0,1,1.83-1.22,5.5,5.5,0,0,1,2.11-.41,4.78,4.78,0,0,1,3.86,1.57,7.21,7.21,0,0,1,1.35,4.79v.37a2.77,2.77,0,0,1,0,.42h-8.54a4.5,4.5,0,0,0,1.13,2.95,4.13,4.13,0,0,0,3.07,1,8.57,8.57,0,0,0,2-.2,7.36,7.36,0,0,0,1.21-.4l.31,1.87a6.26,6.26,0,0,1-1.43.46,10.12,10.12,0,0,1-2.31.24,7.49,7.49,0,0,1-2.82-.49,5.26,5.26,0,0,1-2-1.36,5.63,5.63,0,0,1-1.14-2.05A8.62,8.62,0,0,1,1029.54,499.33Zm8.57-1.22a3.75,3.75,0,0,0-.76-2.48,2.6,2.6,0,0,0-2.15-1,2.92,2.92,0,0,0-1.35.3,3.21,3.21,0,0,0-1,.78,3.56,3.56,0,0,0-.63,1.11,4.7,4.7,0,0,0-.3,1.27Z"/><path class="cls-3" d="M1048.26,492.81l.66,0,.73.1.66.12a2.94,2.94,0,0,1,.45.11l-.39,1.94a8.74,8.74,0,0,0-.87-.23,7.65,7.65,0,0,0-1.58-.13,5.71,5.71,0,0,0-1.23.13l-.81.18v10.49h-2.23V493.6a16.18,16.18,0,0,1,2-.54A12.46,12.46,0,0,1,1048.26,492.81Z"/><path class="cls-3" d="M1068.06,494.87a6.22,6.22,0,0,1,1,2,7.73,7.73,0,0,1,.37,2.48A7.87,7.87,0,0,1,1069,502a6.1,6.1,0,0,1-1.21,2.06,5.25,5.25,0,0,1-1.86,1.33,5.7,5.7,0,0,1-2.35.47,5.59,5.59,0,0,1-3.29-1l-1.18,1.53-1.27-1,1.3-1.68a6.24,6.24,0,0,1-1-2,8.25,8.25,0,0,1-.37-2.5,8.14,8.14,0,0,1,.43-2.68,6.17,6.17,0,0,1,1.22-2.07,5.25,5.25,0,0,1,1.86-1.33,5.7,5.7,0,0,1,2.35-.47,6,6,0,0,1,1.76.26,6,6,0,0,1,1.53.75l1.17-1.54,1.27,1Zm-8,4.44a6.16,6.16,0,0,0,.5,2.64l5.09-6.58a3.29,3.29,0,0,0-2-.67,3.1,3.1,0,0,0-2.61,1.24A5.42,5.42,0,0,0,1060.07,499.31Zm7.1,0a6.19,6.19,0,0,0-.53-2.62l-5.06,6.58a3.17,3.17,0,0,0,2,.65,3.08,3.08,0,0,0,2.6-1.24A5.42,5.42,0,0,0,1067.17,499.31Z"/><path class="cls-3" d="M1080.68,487.31l2.23-.38v18.26c-.51.14-1.16.29-2,.43a15.13,15.13,0,0,1-2.76.22,6.92,6.92,0,0,1-2.6-.46,5.49,5.49,0,0,1-2-1.29,5.58,5.58,0,0,1-1.26-2.06,7.72,7.72,0,0,1-.45-2.72,9.15,9.15,0,0,1,.37-2.64,5.89,5.89,0,0,1,1.1-2.06,4.88,4.88,0,0,1,1.76-1.35,5.67,5.67,0,0,1,2.39-.48,5.9,5.9,0,0,1,1.91.29,6.18,6.18,0,0,1,1.23.55Zm0,8.4a4.73,4.73,0,0,0-1.17-.65,4.44,4.44,0,0,0-1.68-.31,3.65,3.65,0,0,0-1.65.35,3,3,0,0,0-1.11,1,4.07,4.07,0,0,0-.63,1.45,8,8,0,0,0-.19,1.8,4.82,4.82,0,0,0,1.08,3.37,3.71,3.71,0,0,0,2.88,1.19,12.55,12.55,0,0,0,1.52-.08,8.63,8.63,0,0,0,1-.18Z"/><path class="cls-3" d="M1086.06,499.33a8,8,0,0,1,.48-2.89,6,6,0,0,1,1.27-2.05,5.26,5.26,0,0,1,1.82-1.22,5.59,5.59,0,0,1,2.12-.41,4.79,4.79,0,0,1,3.86,1.57,7.21,7.21,0,0,1,1.35,4.79v.37a2.77,2.77,0,0,1,0,.42h-8.54a4.55,4.55,0,0,0,1.12,2.95,4.17,4.17,0,0,0,3.08,1,8.57,8.57,0,0,0,2-.2,7.36,7.36,0,0,0,1.21-.4l.31,1.87a6.26,6.26,0,0,1-1.43.46,10.12,10.12,0,0,1-2.31.24,7.49,7.49,0,0,1-2.82-.49,5.26,5.26,0,0,1-2-1.36,5.63,5.63,0,0,1-1.14-2.05A8.62,8.62,0,0,1,1086.06,499.33Zm8.57-1.22a3.75,3.75,0,0,0-.76-2.48,2.61,2.61,0,0,0-2.15-1,2.92,2.92,0,0,0-1.35.3,3.1,3.1,0,0,0-1,.78,3.56,3.56,0,0,0-.63,1.11,5.13,5.13,0,0,0-.31,1.27Z"/><path class="cls-3" d="M1103.92,505.79a4.26,4.26,0,0,1-2.93-.89,3.48,3.48,0,0,1-.87-2.61v-15l2.23-.38v15a3.82,3.82,0,0,0,.1.91,1.21,1.21,0,0,0,.31.57,1.32,1.32,0,0,0,.58.33,6.6,6.6,0,0,0,.89.18Z"/><path class="cls-3" d="M1110.75,492.76a6.26,6.26,0,0,1,2.27.35,3.52,3.52,0,0,1,2.29,2.49,7.34,7.34,0,0,1,.24,1.93v7.8l-.8.14-1.16.15-1.41.13q-.75.06-1.5.06a8.42,8.42,0,0,1-1.94-.21,4.34,4.34,0,0,1-1.54-.69,3.13,3.13,0,0,1-1-1.23,4.33,4.33,0,0,1-.36-1.85,3.58,3.58,0,0,1,.42-1.78,3.45,3.45,0,0,1,1.14-1.2,5.52,5.52,0,0,1,1.68-.67,9.48,9.48,0,0,1,2-.21l.7,0,.68.1.56.11.34.07v-.63a5.06,5.06,0,0,0-.12-1.09,2.46,2.46,0,0,0-.43-1,2.21,2.21,0,0,0-.85-.67,3.33,3.33,0,0,0-1.41-.25,11,11,0,0,0-1.93.15,7.73,7.73,0,0,0-1.24.33l-.26-1.85a6.85,6.85,0,0,1,1.44-.37A12.41,12.41,0,0,1,1110.75,492.76Zm.2,11.18c.52,0,1,0,1.4,0a6,6,0,0,0,1-.14v-3.72a3,3,0,0,0-.78-.2,9.45,9.45,0,0,0-2.38,0,3.42,3.42,0,0,0-1,.3,2.26,2.26,0,0,0-.78.62,1.64,1.64,0,0,0-.31,1.05,1.78,1.78,0,0,0,.77,1.66A3.92,3.92,0,0,0,1111,503.94Z"/><path class="cls-3" d="M1127.07,504.3a5.75,5.75,0,0,1-1.11.49,5.67,5.67,0,0,1-1.93.3,6.19,6.19,0,0,1-2.13-.36,4.71,4.71,0,0,1-1.74-1.11,5.36,5.36,0,0,1-1.17-1.89,8.14,8.14,0,0,1,0-5.19,5.41,5.41,0,0,1,3.1-3.27,6.61,6.61,0,0,1,2.54-.46,14.64,14.64,0,0,1,2.73.22l2,.42v11.14a5.26,5.26,0,0,1-1.49,4.18,6.73,6.73,0,0,1-4.51,1.29,12.16,12.16,0,0,1-2.22-.19,12.49,12.49,0,0,1-1.81-.46l.41-1.94a10,10,0,0,0,1.64.47,10.35,10.35,0,0,0,2,.2,4.23,4.23,0,0,0,2.87-.79,3.26,3.26,0,0,0,.87-2.52Zm0-9.26a5.66,5.66,0,0,0-.9-.18,10.21,10.21,0,0,0-1.52-.09,3.41,3.41,0,0,0-2.78,1.18,4.77,4.77,0,0,0-1,3.12,5.34,5.34,0,0,0,.28,1.85,3.67,3.67,0,0,0,.74,1.27,2.82,2.82,0,0,0,1.08.74,3.44,3.44,0,0,0,1.26.24,5,5,0,0,0,1.63-.25,3.93,3.93,0,0,0,1.18-.59Z"/><path class="cls-3" d="M1135.21,493.07h4.73v1.87h-4.73v5.76a7.32,7.32,0,0,0,.14,1.55,2.26,2.26,0,0,0,.44,1,1.5,1.5,0,0,0,.72.49,3,3,0,0,0,1,.15,4.72,4.72,0,0,0,1.62-.23l.86-.33.43,1.85a9.29,9.29,0,0,1-1.18.42,6.62,6.62,0,0,1-1.92.25,5.73,5.73,0,0,1-2.1-.32,3.13,3.13,0,0,1-1.33-1,3.91,3.91,0,0,1-.71-1.6,10.9,10.9,0,0,1-.2-2.19V489.59l2.23-.38Z"/><path class="cls-3" d="M1145.67,504.25a1.61,1.61,0,0,1-.43,1.13,1.68,1.68,0,0,1-2.35,0,1.69,1.69,0,0,1,0-2.25,1.68,1.68,0,0,1,2.35,0A1.6,1.6,0,0,1,1145.67,504.25Z"/><path class="cls-3" d="M1151.58,504.25a1.62,1.62,0,0,1-.44,1.13,1.49,1.49,0,0,1-1.17.48,1.51,1.51,0,0,1-1.18-.48,1.69,1.69,0,0,1,0-2.25,1.51,1.51,0,0,1,1.18-.48,1.49,1.49,0,0,1,1.17.48A1.61,1.61,0,0,1,1151.58,504.25Z"/><path class="cls-3" d="M1157.48,504.25a1.61,1.61,0,0,1-.43,1.13,1.51,1.51,0,0,1-1.18.48,1.49,1.49,0,0,1-1.17-.48,1.66,1.66,0,0,1,0-2.25,1.49,1.49,0,0,1,1.17-.48,1.51,1.51,0,0,1,1.18.48A1.6,1.6,0,0,1,1157.48,504.25Z"/><path class="cls-3" d="M1163.74,504.25a1.61,1.61,0,0,1-.43,1.13,1.68,1.68,0,0,1-2.35,0,1.69,1.69,0,0,1,0-2.25,1.68,1.68,0,0,1,2.35,0A1.6,1.6,0,0,1,1163.74,504.25Zm-.4-10.82q0,2-.15,3.66c-.09,1.1-.21,2.19-.36,3.28h-1.39c-.15-1.09-.27-2.18-.36-3.28s-.14-2.32-.14-3.66v-4.51h2.4Z"/><path class="cls-3" d="M914.29,517.55a9.25,9.25,0,0,1,5.39,1.33,4.53,4.53,0,0,1,1.88,4,5.45,5.45,0,0,1-.51,2.46,4.25,4.25,0,0,1-1.49,1.66,6.89,6.89,0,0,1-2.36.92,15.08,15.08,0,0,1-3.15.29H912.2v6.17h-2.32V518a13.31,13.31,0,0,1,2.19-.33C912.88,517.58,913.62,517.55,914.29,517.55Zm.19,2c-1,0-1.75,0-2.28.07v6.53H914a12.86,12.86,0,0,0,2.16-.16,5.14,5.14,0,0,0,1.62-.52,2.63,2.63,0,0,0,1-1,3.43,3.43,0,0,0,.36-1.66,3,3,0,0,0-.38-1.58,2.74,2.74,0,0,0-1-1,4.47,4.47,0,0,0-1.48-.52A11.17,11.17,0,0,0,914.48,519.59Z"/><path class="cls-3" d="M928.93,521.61l.66,0,.73.1.66.12a2.94,2.94,0,0,1,.45.11l-.39,1.94a8,8,0,0,0-.87-.23,7.55,7.55,0,0,0-1.57-.13,5.74,5.74,0,0,0-1.24.13l-.8.18v10.49h-2.24v-12a16.18,16.18,0,0,1,2-.54A12.6,12.6,0,0,1,928.93,521.61Z"/><path class="cls-3" d="M943.19,523.67a6.43,6.43,0,0,1,1,2,7.73,7.73,0,0,1,.37,2.48,7.87,7.87,0,0,1-.43,2.69,6.1,6.1,0,0,1-1.21,2.06,5.25,5.25,0,0,1-1.86,1.33,5.74,5.74,0,0,1-2.35.47,5.59,5.59,0,0,1-3.29-1l-1.18,1.53-1.27-1,1.3-1.68a6.24,6.24,0,0,1-1-2,8,8,0,0,1-.37-2.5,8.14,8.14,0,0,1,.43-2.68,6,6,0,0,1,1.22-2.07,5.13,5.13,0,0,1,1.85-1.33,5.78,5.78,0,0,1,2.36-.47,6,6,0,0,1,1.76.26,6,6,0,0,1,1.53.75l1.17-1.54,1.27,1Zm-8,4.44a6.16,6.16,0,0,0,.5,2.64l5.09-6.58a3.29,3.29,0,0,0-2-.67,3.09,3.09,0,0,0-2.61,1.24A5.42,5.42,0,0,0,935.2,528.11Zm7.1,0a6.19,6.19,0,0,0-.53-2.62l-5.06,6.58a3.17,3.17,0,0,0,2,.65,3.08,3.08,0,0,0,2.6-1.24A5.42,5.42,0,0,0,942.3,528.11Z"/><path class="cls-3" d="M957.16,521.87a63.7,63.7,0,0,1-2.2,6.72q-1.26,3.21-2.44,5.76h-2q-1.18-2.55-2.44-5.76a61.45,61.45,0,0,1-2.19-6.72h2.4c.19.78.42,1.62.68,2.51s.54,1.77.84,2.64.6,1.71.9,2.53.59,1.54.86,2.18c.28-.64.56-1.36.87-2.18s.6-1.66.9-2.53.57-1.75.84-2.64.49-1.73.68-2.51Z"/><path class="cls-3" d="M966.11,519.61a1.44,1.44,0,0,1-1-.39,1.57,1.57,0,0,1,0-2.14,1.53,1.53,0,0,1,2,0,1.57,1.57,0,0,1,0,2.14A1.44,1.44,0,0,1,966.11,519.61Zm1.13,14.74H965V521.87h2.24Z"/><path class="cls-3" d="M978.9,533.1a6.17,6.17,0,0,1-3,.79,6.17,6.17,0,0,1-2.12-.36,4.55,4.55,0,0,1-1.74-1.11,5.38,5.38,0,0,1-1.18-1.89,7.42,7.42,0,0,1-.43-2.68,7.19,7.19,0,0,1,.41-2.51,5.43,5.43,0,0,1,3.09-3.27,6.62,6.62,0,0,1,2.55-.46,14.45,14.45,0,0,1,2.72.22l2,.42v11.14a5.29,5.29,0,0,1-1.49,4.18,6.74,6.74,0,0,1-4.51,1.29,12,12,0,0,1-2.22-.19,12.16,12.16,0,0,1-1.81-.46l.4-1.94a10.47,10.47,0,0,0,1.65.47,10.28,10.28,0,0,0,2,.2,4.2,4.2,0,0,0,2.86-.79,3.23,3.23,0,0,0,.88-2.52Zm0-9.26a5.9,5.9,0,0,0-.9-.18,10.27,10.27,0,0,0-1.53-.09,3.41,3.41,0,0,0-2.77,1.18,4.72,4.72,0,0,0-1,3.12,5.6,5.6,0,0,0,.27,1.85,3.85,3.85,0,0,0,.75,1.27,2.82,2.82,0,0,0,1.08.74,3.4,3.4,0,0,0,1.26.24,5,5,0,0,0,1.63-.25,3.93,3.93,0,0,0,1.18-.59Z"/><path class="cls-3" d="M984.25,528.13a8,8,0,0,1,.48-2.89,6.16,6.16,0,0,1,1.27-2,5.2,5.2,0,0,1,1.83-1.22,5.5,5.5,0,0,1,2.11-.41,4.78,4.78,0,0,1,3.86,1.57,7.21,7.21,0,0,1,1.35,4.79v.37a2.77,2.77,0,0,1,0,.42h-8.54a4.55,4.55,0,0,0,1.13,2.95,4.13,4.13,0,0,0,3.07,1,8.57,8.57,0,0,0,2-.2,7.36,7.36,0,0,0,1.21-.4l.31,1.87a6.13,6.13,0,0,1-1.42.46,10.27,10.27,0,0,1-2.32.24,7.49,7.49,0,0,1-2.82-.49,5.34,5.34,0,0,1-2-1.36,5.63,5.63,0,0,1-1.14-2A8.94,8.94,0,0,1,984.25,528.13Zm8.57-1.22a3.7,3.7,0,0,0-.76-2.48,2.59,2.59,0,0,0-2.14-1,2.93,2.93,0,0,0-1.36.3,3.33,3.33,0,0,0-1,.78,3.56,3.56,0,0,0-.63,1.11,5.59,5.59,0,0,0-.3,1.27Z"/><path class="cls-3" d="M998.36,522.23c.52-.13,1.19-.26,2-.41a18.22,18.22,0,0,1,2.93-.21,6.3,6.3,0,0,1,2.47.42,4,4,0,0,1,1.58,1.17,4.62,4.62,0,0,1,.82,1.81,10.56,10.56,0,0,1,.24,2.33v7h-2.23v-6.53a11.13,11.13,0,0,0-.15-2,3.47,3.47,0,0,0-.52-1.32,2.06,2.06,0,0,0-1-.73,4.28,4.28,0,0,0-1.49-.23l-.74,0c-.26,0-.5,0-.73.06s-.45.05-.63.08l-.39.07v10.54h-2.24Z"/><path class="cls-3" d="M1015.14,533.05a1.61,1.61,0,0,1-.43,1.13,1.69,1.69,0,0,1-2.36,0,1.69,1.69,0,0,1,0-2.25,1.69,1.69,0,0,1,2.36,0A1.6,1.6,0,0,1,1015.14,533.05Zm-.41-10.82c0,1.34-.05,2.56-.14,3.66s-.22,2.19-.36,3.28h-1.39c-.15-1.09-.27-2.18-.37-3.28s-.14-2.32-.14-3.66v-4.51h2.4Z"/></g><g id="Nisskefar-2" data-name="Nisskefar"><path class="cls-17" d="M469.92,628.05a638.12,638.12,0,0,0-90.58,534c1.05,3.81,2.14,7.62,3.3,11.41a61.66,61.66,0,0,1-119.9,28.21q-1.15-6-2.17-12A712.19,712.19,0,0,1,428,599.13"/><path class="cls-18" d="M348.15,460.26C318.43,572.92,362.89,631.71,432.05,650s136.84-11,166.56-123.62-11-271.7-58.94-284.35S377.87,347.6,348.15,460.26Z"/><path class="cls-19" d="M381.2,461.59c-22.3,84.56,11.07,128.69,63,142.38s102.71-8.23,125-92.79S561,307.24,525,297.75,403.51,377,381.2,461.59Z"/><path class="cls-3" d="M410.8,392.33a60.62,60.62,0,0,0-2.86,11.57c-3.54,24.88,8.87,47.23,27.73,49.91s37-15.3,40.54-40.18a57.45,57.45,0,0,0-.62-20.19c-3.41-15.79-13.59-27.79-27.09-29.71C432.73,361.48,417.45,373.7,410.8,392.33Z"/><path class="cls-20" d="M405.81,403.06a253.88,253.88,0,0,0,67.43-23.64c-9.57-15-24.68-23.54-39.38-20.37C416.69,362.76,405.57,381.25,405.81,403.06Z"/><circle cx="450.28" cy="424.74" r="6.96"/><path class="cls-3" d="M517,427.53c-4.84,23.26,3.59,44.68,18.81,47.84s31.5-13.11,36.33-36.37a63.26,63.26,0,0,0,1.06-7.07c2-20.37-6.19-37.92-19.86-40.75-10.54-2.2-21.59,4.94-29,17.27A60.61,60.61,0,0,0,517,427.53Z"/><path class="cls-20" d="M531,399.26a279.58,279.58,0,0,0,35,31.84q5.92,4.54,12,8.72c8.29-21.92,4.5-43.76-9.76-51C557.2,383.26,542.86,387.85,531,399.26Z"/><circle cx="541.86" cy="447.33" r="6.96"/><path class="cls-21" d="M285.86,138.26c67.64-44.18,183.86,31.79,183.88,31.8,51.44,26.33,81.86,71.08,81.86,71.08l-39.37,45.68L383.56,321.21l-13.93-17.3c-12.7-16.53-18.71-32.2-21-45.89h0c-38,3.71-61.92-14.1-73.33-25.9h0c-10,8.59-13.05,31.05-13.05,31.05l-35.9-7.84S218.21,182.44,285.86,138.26Z"/><path class="cls-9" d="M283.88,135.22c28.64-18.71,70.32-19.07,120.51-1A362.56,362.56,0,0,1,471.72,167l0,0A206,206,0,0,1,494,180.27c38,25.91,59.72,57.5,60.63,58.84a3.63,3.63,0,0,1-1,5,3.55,3.55,0,0,1-1.34.56,3.62,3.62,0,0,1-3.7-1.52c-.22-.31-22-31.93-58.9-57.05a208.68,208.68,0,0,0-21.22-12.68,3.46,3.46,0,0,1-.72-.36l-.14-.09c-42.39-21.68-86.21-24-130.59-6.76a3.63,3.63,0,0,1-2.63-6.76c33.82-13.12,64.75-14,91.64-8.59-39.34-17.78-98.1-35.79-138.2-9.6-57.86,37.8-58.65,98-58.09,111.09l29.53,6.45c1.26-6.37,4.45-19,11-26.81a62.49,62.49,0,0,1-6.14-7.8,3.63,3.63,0,1,1,6.18-3.8c.23.38,23.66,37.38,74.26,34.27-3.39-28.35,8.06-47.89,8.24-48.18a3.62,3.62,0,1,1,6.2,3.75c-.25.41-24.58,41.93,13.45,91.44a3.63,3.63,0,1,1-5.75,4.42c-12.09-15.74-18.26-30.8-21-44.25-34.7,2.37-57.85-12.83-70.36-24.64-5.87,7.37-8.9,21.19-9.62,26.44a3.59,3.59,0,0,1-2.89,3.06,3.47,3.47,0,0,1-1.47,0l-35.9-7.84a3.64,3.64,0,0,1-2.84-3.14C222.62,255,215.16,180.1,283.88,135.22Z"/><path class="cls-3" d="M433.3,342.64a348.24,348.24,0,0,0,145.81-65.48,22.66,22.66,0,0,0-27.51-36,303.5,303.5,0,0,1-127,57,310,310,0,0,1-55,5.74,22.66,22.66,0,1,0,.64,45.32A354.65,354.65,0,0,0,433.3,342.64Z"/><path class="cls-3" d="M433.3,342.64a348.24,348.24,0,0,0,145.81-65.48,22.66,22.66,0,0,0-27.51-36,303.5,303.5,0,0,1-127,57,310,310,0,0,1-55,5.74,22.66,22.66,0,1,0,.64,45.32A354.65,354.65,0,0,0,433.3,342.64Z"/><path class="cls-14" d="M370,340.36a13.8,13.8,0,0,1-9.17-24.1,2,2,0,1,1,2.66,3A9.8,9.8,0,0,0,370,336.36h.14A343,343,0,0,0,430.83,330a342.53,342.53,0,0,0,65.93-19.93,2,2,0,0,1,1.54,3.69,345.64,345.64,0,0,1-66.7,20.16,347.23,347.23,0,0,1-61.45,6.43Z"/><circle class="cls-3" cx="240.42" cy="279.22" r="33"/><path class="cls-14" d="M240.42,304a24.84,24.84,0,0,1-24.33-20,24.32,24.32,0,0,1-.46-5.1,2,2,0,0,1,4,.05A20.84,20.84,0,0,0,246.87,299a2,2,0,1,1,1.24,3.8,25,25,0,0,1-7.69,1.23Z"/><path class="cls-22" d="M359.89,536.9c-8.74-2.26-18.93-3.92-26,1.65-7.37,5.78-7.25,18.69.22,24.34,2.57,1.93,5.69,3,8.25,5s4.57,5.28,3.49,8.31c-2.3,6.46-15.17,4.91-15.49,11.75a5.58,5.58,0,0,0,1,3.3c4.73,7.23,17.18,2.26,23.92,7.68,6.3,5.06,3.45,15.3-1.22,21.89s-11,13.37-10,21.39c.88,7.47,8.53,13,16.05,12.92s14.46-4.67,18.93-10.7c3.84-5.17,6.78-11.88,12.9-13.84,7.07-2.26,14.64,3.66,16.95,10.7s.84,14.71-.62,22-2.84,15-.39,22c3.95,11.28,16.61,17.09,28.46,18.66,7.39,1,15.62.56,21.26-4.34,3.21-2.79,5.2-6.74,6.59-10.76a49.92,49.92,0,0,0,2.11-23.88c-1.19-7.6-3.7-16.7,1.91-22,3.3-3.1,8.56-3.45,12.72-1.68s7.33,5.35,9.63,9.25c8.53,14.49,7.08,34.74,19.86,45.66,5.88,5,13.76,7,21.42,8.1a128.33,128.33,0,0,0,26.71,1c2.84-.19,5.9-.58,7.93-2.57,1.56-1.54,2.21-3.77,2.75-5.9,4.29-17,4.78-37.29-7.6-49.75-3.76-3.79-8.44-6.55-12.2-10.33s-6.58-9.21-5.19-14.36c1.72-6.38,9-9.54,15.65-10s13.33.87,19.77-.63a14.54,14.54,0,0,0,5.23-2.22,13.93,13.93,0,0,0,5-7.72c2.11-7.65-.6-15.88-4.76-22.64s-9.73-12.54-14.17-19.11c-3.54-5.22-6.84-11.34-12.77-13.46-7.43-2.66-15.37,2.13-23.25,2.33-10.41.26-19.08-7.33-28.3-12.17-17-8.94-37.45-8.76-56.23-4.77-5.3,1.12-10.58,2.53-16,2.86-8.09.48-16.1-1.5-24.17-2.27-9.13-.87-15.43,1.26-23.61,4.7C377.63,541.06,369,539.26,359.89,536.9Z"/><path d="M403.94,566.84a2.5,2.5,0,0,1-1.19-4.7,116.51,116.51,0,0,1,20.64-8.67,2.5,2.5,0,1,1,1.48,4.77,111.8,111.8,0,0,0-19.74,8.3A2.45,2.45,0,0,1,403.94,566.84Z"/><path d="M527.82,573.74a2.51,2.51,0,0,1-1.49-.49,97.26,97.26,0,0,0-10.9-7,2.5,2.5,0,1,1,2.41-4.38,100.29,100.29,0,0,1,11.46,7.34,2.5,2.5,0,0,1-1.48,4.51Z"/><path d="M516.63,566.58a2.47,2.47,0,0,1-1.2-.31c-18.12-10-39.38-14.58-61.5-13.3a119.28,119.28,0,0,0-29.05,5.27,2.5,2.5,0,0,1-1.5-4.77A124.24,124.24,0,0,1,453.65,548c23.05-1.32,45.25,3.48,64.19,13.91a2.5,2.5,0,0,1-1.21,4.69Z"/><path d="M519.72,592.38a2.5,2.5,0,0,1-2.5-2.5,26.51,26.51,0,0,1,26.47-26.48,2.5,2.5,0,0,1,0,5,21.49,21.49,0,0,0-21.47,21.48A2.5,2.5,0,0,1,519.72,592.38Z"/><path d="M412.44,586.1h-.1a2.49,2.49,0,0,1-2.4-2.59,21.47,21.47,0,0,0-20.66-22.26,2.5,2.5,0,1,1,.18-5,26.48,26.48,0,0,1,25.47,27.44A2.5,2.5,0,0,1,412.44,586.1Z"/><path class="cls-22" d="M414,770.53c-1,5.55-1,11.65,2,16.39s10.1,7.19,14.57,3.75c2.87-2.21,3.91-6.06,4.2-9.67.69-8.5-1.72-16.9-3.19-25.3-1.21-6.87,1.05-16.22-1.28-21.77C422.2,743.69,416.11,758,414,770.53Z"/><path class="cls-22" d="M514.27,811.43c-.46,3.27-.75,6.81.88,9.68,2.74,4.84,9.3,5.53,14.86,5.61,3.41.06,6.89.09,10.14-.92s6.32-3.25,7.43-6.48c.94-2.71.39-5.69-.33-8.47-2.09-8-8.27-34.89-18-33.85C517.92,778.2,515.4,803.39,514.27,811.43Z"/><path class="cls-23" d="M549.28,495.07c-.6,1.83-1,4.07.24,5.5a4.56,4.56,0,0,0,3.3,1.22c2.83.07,5.85-1.28,7-3.86,1.27-2.82,0-6.13-1.5-8.82-1.21-2.12-2.39-4.3-3.49-6.45C552.11,485.87,550.59,491,549.28,495.07Z"/><path class="cls-23" d="M406.64,470.78c-.35,1.09-.62,2.42.15,3.28a2.72,2.72,0,0,0,2,.73,4.44,4.44,0,0,0,4.18-2.3c.76-1.69,0-3.66-.89-5.27-.72-1.27-1.42-2.56-2.08-3.84C408.33,465.29,407.42,468.38,406.64,470.78Z"/><path class="cls-23" d="M411.51,490.28c-.64,2-1.12,4.36.26,5.9a4.9,4.9,0,0,0,3.54,1.31c3,.07,6.28-1.38,7.53-4.14,1.38-3,.05-6.58-1.6-9.47-1.3-2.28-2.56-4.62-3.74-6.92C414.55,480.4,412.92,486,411.51,490.28Z"/></g></g><g id="Forgrund"><polygon class="cls-5" points="0 427.49 -297.61 842.47 297.61 842.47 0 427.49"/><polygon class="cls-5" points="0 296.53 -231.78 619.71 231.78 619.71 0 296.53"/><polygon class="cls-5" points="0 179.5 -167.86 413.55 167.86 413.55 0 179.5"/><polygon class="cls-7" points="-137.85 619.71 137.85 619.71 148.81 634.98 -137.85 619.71"/><polygon class="cls-7" points="-83.82 413.55 84 413.55 90.66 422.85 -83.82 413.55"/><path class="cls-3" d="M-3.19,146.67l-71.72,100a3.93,3.93,0,0,0,3.18,6.22H71.73a3.93,3.93,0,0,0,3.18-6.22l-71.72-100A3.93,3.93,0,0,0-3.19,146.67Z"/><circle class="cls-3" cx="-18.62" cy="253.06" r="18.7"/><circle class="cls-3" cx="18.79" cy="253.06" r="18.7"/><circle class="cls-3" cx="56.19" cy="253.06" r="18.7"/><path class="cls-3" d="M231.78,638.28h-151a18.83,18.83,0,1,1,0-37.65h151a18.83,18.83,0,0,1,0,37.65Z"/><rect class="cls-6" x="-37.49" y="842.47" width="74.98" height="153.02"/><polygon class="cls-4" points="1920 558.25 1690.9 877.7 2149.1 877.7 1920 558.25"/><polygon class="cls-4" points="1920 457.44 1741.58 706.22 2098.42 706.22 1920 457.44"/><polygon class="cls-4" points="1920 367.35 1790.79 547.52 2049.22 547.52 1920 367.35"/><polygon class="cls-5" points="1813.88 706.22 2026.12 706.22 2034.55 717.97 1813.88 706.22"/><polygon class="cls-5" points="1855.47 547.52 1984.61 547.52 1989.74 554.68 1855.47 547.52"/><path class="cls-3" d="M1916.75,343.1l-53.46,74.54a3.93,3.93,0,0,0,3.19,6.21h106.91a3.92,3.92,0,0,0,3.19-6.21l-53.45-74.54A3.93,3.93,0,0,0,1916.75,343.1Z"/><circle class="cls-3" cx="1876.81" cy="423.98" r="14.4"/><circle class="cls-3" cx="1905.6" cy="423.98" r="14.4"/><path class="cls-3" d="M1868.38,562h-77.59a14.5,14.5,0,1,1,0-29h77.59a14.5,14.5,0,0,1,0,29Z"/><path class="cls-3" d="M1917.43,562H1905.6a14.5,14.5,0,0,1,0-29h11.83a14.5,14.5,0,1,1,0,29Z"/><rect class="cls-6" x="1891.08" y="877.7" width="57.72" height="117.8"/></g></g></svg>