<svg xmlns="http://www.w3.org/2000/svg" width="1920" height="1080" viewBox="0 0 1920 1080"><defs><style>.cls-1{fill:#fff;}</style></defs><title>Game screen Pudding</title><g id="Spilskærm_med_elementer" data-name="Spilskærm med elementer"><path class="cls-1" d="M1522.75,811.67a111.78,111.78,0,0,0-43-49.7,91.79,91.79,0,0,0,1.57-16.86,90.86,90.86,0,0,0-59.29-85.2,30.53,30.53,0,0,0-22.26-51.43h-.26A71.85,71.85,0,0,0,1353,578.63a163.32,163.32,0,0,0-211.86-65.38A111.39,111.39,0,0,0,1027.7,486a71.83,71.83,0,0,0-84.11-13.15A141.86,141.86,0,0,0,735.47,481a71.63,71.63,0,0,0-54.18,16.16,142,142,0,0,0-176.59,112,73.2,73.2,0,0,0-9.43-.64,71.72,71.72,0,0,0-55.34,26,142,142,0,0,0-127.48,177A118.39,118.39,0,0,0,295.06,845c5.13,9.59,17.75,20.45,36.31,31a323.88,323.88,0,0,0,42,19.5,141,141,0,0,0,69.45,22.21q5.15,1.37,10.42,2.7T463.8,923q24.42,5.88,51,11C627.76,956,767.7,968,915.5,968c157.11,0,305.34-13.48,421.76-38.15q15.35-3.25,29.94-6.77l1.22-.29c55.86-13.52,101.22-29.67,131.21-46.73,14.84-8.45,25.88-17.09,32.33-25.11,4.3-5.34,6.57-10.41,6.57-15C1538.53,828.8,1533,820.41,1522.75,811.67Zm-36.11-45q-3.36-2.48-6.9-4.69h0q3.54,2.22,6.9,4.69a110.65,110.65,0,0,1,9.62,7.93A110.65,110.65,0,0,0,1486.64,766.66Z"/></g></svg>