<svg xmlns="http://www.w3.org/2000/svg" width="1920" height="1080" viewBox="0 0 1920 1080"><defs><style>.cls-1{fill:#fff;}.cls-2{fill:#f1f1f1;}</style></defs><title>Game screen Pudding hide front</title><g id="Spilskærm_med_elementer" data-name="Spilskærm med elementer"><path class="cls-1" d="M564.93,842.52a48.12,48.12,0,0,1,86.72-4,68.8,68.8,0,0,1,94.22,60.3l-16.26,290.4L450.1,1146.75Z"/><path class="cls-2" d="M745.86,906.8a8,8,0,0,1-8-7.59,60.81,60.81,0,0,0-83.27-53.28L648,848.57l-3.38-6.29a40.14,40.14,0,0,0-72.3,3.35,8,8,0,0,1-14.74-6.23,56.09,56.09,0,0,1,97.5-10.56,76.81,76.81,0,0,1,98.8,69.54,8,8,0,0,1-7.58,8.41Z"/><path class="cls-1" d="M1264.05,864.69a57.1,57.1,0,0,0-68-19.26,43.06,43.06,0,0,0-78,6.71,83,83,0,0,0-94.65-8.31A53.2,53.2,0,0,0,933.2,888.3l9.19,351.92L1289.54,1211Z"/><path class="cls-2" d="M933.19,896.3a8,8,0,0,1-7.92-7,61.21,61.21,0,0,1,99.36-55.17,91.21,91.21,0,0,1,90.49,5.81,51.08,51.08,0,0,1,84.14-4.13A64.84,64.84,0,0,1,1270.53,860a8,8,0,0,1-13,9.39,48.91,48.91,0,0,0-58.47-16.55l-6.52,2.69-3.49-6.12a36,36,0,0,0-2.1-3.27,35.06,35.06,0,0,0-61.37,8.71l-3.88,10.81-8.8-7.38a75,75,0,0,0-85.5-7.51l-5.3,3.06-4.34-4.32a45.2,45.2,0,0,0-76.67,37.79,8,8,0,0,1-6.93,8.94A7,7,0,0,1,933.19,896.3Z"/></g></svg>