<svg xmlns="http://www.w3.org/2000/svg" xmlns:xlink="http://www.w3.org/1999/xlink" width="1920" height="1080" viewBox="0 0 1920 1080"><defs><style>.cls-1{fill:#006837;}.cls-2{fill:#f1f1f1;}.cls-3{fill:#e92c0c;}.cls-4{fill:#fbed21;}.cls-5{fill:url(#linear-gradient);}.cls-6{fill:url(#linear-gradient-2);}.cls-7{fill:url(#linear-gradient-3);}.cls-8{fill:#603813;}.cls-9{fill:url(#linear-gradient-4);}.cls-10{fill:url(#linear-gradient-5);}</style><linearGradient id="linear-gradient" x1="1604.48" y1="1080.86" x2="2096.76" y2="1080.86" gradientUnits="userSpaceOnUse"><stop offset="0" stop-color="#fff"/><stop offset="1" stop-color="#a5a5a5"/></linearGradient><linearGradient id="linear-gradient-2" x1="1604.48" y1="855.63" x2="2096.76" y2="855.63" gradientUnits="userSpaceOnUse"><stop offset="0" stop-color="#a5a5a5"/><stop offset="1" stop-color="#fff"/></linearGradient><linearGradient id="linear-gradient-3" x1="1850.62" y1="1021.29" x2="1850.62" y2="774.92" xlink:href="#linear-gradient-2"/><linearGradient id="linear-gradient-4" x1="1776.87" y1="825.33" x2="1776.87" y2="503.31" gradientUnits="userSpaceOnUse"><stop offset="0" stop-color="#807e7e"/><stop offset="0.32" stop-color="#807e7e" stop-opacity="0.65"/><stop offset="0.78" stop-color="#807e7e" stop-opacity="0.18"/><stop offset="1" stop-color="#807e7e" stop-opacity="0"/></linearGradient><linearGradient id="linear-gradient-5" x1="1923.02" y1="876.09" x2="1923.02" y2="585.25" xlink:href="#linear-gradient-4"/></defs><title>Game screen forgrund</title><g id="Spilskærm_med_elementer" data-name="Spilskærm med elementer"><circle class="cls-1" cx="103.49" cy="217.93" r="100.66"/><rect class="cls-2" x="101.99" y="-202.41" width="3" height="319.68"/><circle class="cls-3" cx="-7.67" cy="537.79" r="100.66"/><circle class="cls-4" cx="228.95" cy="411.39" r="100.66"/><rect class="cls-2" x="227.45" y="-33.72" width="3" height="344.46"/><path class="cls-5" d="M1604.48,855.63V1219.5c0,26.15,26.74,48.42,77.33,64.4,45.28,14.3,105.23,22.18,168.81,22.18s123.54-7.88,168.82-22.18c50.58-16,77.32-38.25,77.32-64.4V855.63"/><ellipse class="cls-1" cx="1850.62" cy="855.63" rx="233.24" ry="73.68"/><path class="cls-6" d="M1850.62,942.21c-63.58,0-123.53-7.88-168.81-22.18-50.59-16-77.33-38.25-77.33-64.4s26.74-48.41,77.33-64.39c45.28-14.3,105.23-22.18,168.81-22.18s123.54,7.88,168.82,22.18c50.58,16,77.32,38.25,77.32,64.39S2070,904.05,2019.44,920C1974.16,934.33,1914.21,942.21,1850.62,942.21Z"/><ellipse class="cls-7" cx="1850.62" cy="855.63" rx="233.24" ry="73.68"/><ellipse class="cls-8" cx="1850.62" cy="879.39" rx="220.85" ry="49.92"/><path class="cls-9" d="M1773.77,507.31a61.66,61.66,0,0,0-25.5,33.1,58,58,0,0,0-3,20.51,61.14,61.14,0,0,0,4.46,20.08,101.87,101.87,0,0,0,10,18.4c3.91,5.88,8.25,11.56,12.66,17.26s8.82,11.51,13,17.59a166.05,166.05,0,0,1,11.13,19.2,165.62,165.62,0,0,1,14,41.93,177.55,177.55,0,0,1,2.82,21.92c.09,1.83.21,3.67.28,5.51l.1,5.52-.11,5.52c0,1.83-.18,3.67-.27,5.5a169.69,169.69,0,0,1-8.27,43.07,152.82,152.82,0,0,1-19.47,38.91,179.8,179.8,0,0,0,15.7-40,169.09,169.09,0,0,0,4.13-21,191.33,191.33,0,0,0,1.68-21.24,184.89,184.89,0,0,0-4-42.2A169.74,169.74,0,0,0,1789.3,657a162,162,0,0,0-10.49-18.32c-3.9-5.89-8.23-11.61-12.49-17.45s-8.57-11.76-12.49-18c-1-1.55-1.91-3.18-2.87-4.76s-1.79-3.26-2.65-4.91-1.63-3.36-2.36-5.09l-1.06-2.6-.53-1.31-.45-1.34a64,64,0,0,1-3.84-22.21,26.68,26.68,0,0,1,.14-2.83l.22-2.81.42-2.79c.15-.93.26-1.86.5-2.77.44-1.82.78-3.66,1.39-5.43l.84-2.68c.32-.87.68-1.73,1-2.6C1750.13,525.26,1760.66,513.54,1773.77,507.31Z"/><path class="cls-10" d="M1945.37,589.25a116.73,116.73,0,0,0-23.17,29.34c-.75,1.36-1.42,2.76-2.13,4.14L1919,624.8l-.52,1-.45,1.07c-1.18,2.87-2.52,5.65-3.44,8.61l-1.52,4.36-1.26,4.45c-.93,2.94-1.42,6-2.1,9a109.51,109.51,0,0,0-.69,36.47,45.27,45.27,0,0,0,.83,4.48l.92,4.46c.76,2.95,1.58,5.89,2.57,8.81,1.9,5.84,4.17,11.62,6.58,17.41,4.74,11.58,10,23.3,13.36,35.9l.64,2.34.53,2.37,1.06,4.74c.3,1.59.56,3.19.82,4.79s.55,3.19.7,4.8l.54,4.81c.2,1.61.24,3.23.35,4.84s.23,3.22.21,4.83l0,4.84a146.13,146.13,0,0,1-5.34,38.06,136.33,136.33,0,0,1-15.35,34.84A166.31,166.31,0,0,0,1929,836.33c.52-3.08,1.21-6.11,1.54-9.21l.61-4.62.38-4.65.2-2.32.09-2.32.21-4.64c0-1.55,0-3.1,0-4.65s0-3.09-.1-4.64a151.62,151.62,0,0,0-5.94-36.4,165.1,165.1,0,0,0-6.18-17.47c-2.31-5.78-4.83-11.56-7.26-17.43s-4.76-11.87-6.7-18.05c-1-3.09-1.82-6.24-2.6-9.41l-.92-4.83a44.47,44.47,0,0,1-.77-4.85L1901,686l-.12-1.22c0-.41,0-.82-.05-1.23l-.08-2.45c0-1.63-.14-3.26-.12-4.89l.2-4.89.1-2.44.26-2.43.56-4.85c.21-1.61.58-3.19.87-4.79l.46-2.39.23-1.2.3-1.18a113.64,113.64,0,0,1,15.21-35.43A102.34,102.34,0,0,1,1945.37,589.25Z"/></g></svg>