<svg id="Figurelementer" xmlns="http://www.w3.org/2000/svg" xmlns:xlink="http://www.w3.org/1999/xlink" width="180" height="280" viewBox="0 0 180 280"><defs><style>.cls-1{fill:url(#linear-gradient);}.cls-2{fill:#754c24;}</style><linearGradient id="linear-gradient" x1="19.2" y1="140" x2="162.08" y2="140" gradientUnits="userSpaceOnUse"><stop offset="0" stop-color="#9e7c5a"/><stop offset="1" stop-color="#8b6239"/></linearGradient></defs><title>God ting - mandel</title><g id="Mandel"><path class="cls-1" d="M162.08,167c0,64.27-32,89.37-71.44,89.37S19.2,231.27,19.2,167,63.29,23.63,90.64,23.63,162.08,102.73,162.08,167Z"/><path class="cls-2" d="M124.6,215.42a2,2,0,0,1-1.95-1.55c-2.92-12.66-.23-27.58,2.37-42,2-11.06,3.88-21.51,3.17-30.28-.94-11.49-7.23-19.85-12.78-27.21-4.09-5.43-8-10.56-9-16.13a2,2,0,1,1,3.94-.72c.84,4.64,4.26,9.18,8.23,14.44,5.87,7.8,12.54,16.65,13.56,29.29.76,9.29-1.17,20-3.21,31.32-2.53,14-5.15,28.54-2.41,40.4a2,2,0,0,1-1.5,2.4A2.3,2.3,0,0,1,124.6,215.42Z"/><path class="cls-2" d="M68,228.94a2,2,0,0,1-.66-.12,2,2,0,0,1-1.22-2.55c3.3-9.43-2.65-29.28-7.9-46.79-1.36-4.52-2.64-8.79-3.79-12.92-5.95-21.44-4.06-43-.9-50.78a2,2,0,1,1,3.7,1.5c-2.54,6.31-4.85,26.93,1.06,48.21,1.13,4.09,2.41,8.34,3.76,12.84,5.69,19,11.58,38.6,7.84,49.27A2,2,0,0,1,68,228.94Z"/><path class="cls-2" d="M87.53,121.76h-.08a2,2,0,0,1-1.92-2.07c.5-13.12-1-21.19-2.62-29.73-.73-3.88-1.49-7.89-2-12.37-1.74-14.53,9.34-31.34,9.81-32.05A2,2,0,1,1,94,47.76c-.11.16-10.73,16.3-9.17,29.35.53,4.35,1.27,8.3,2,12.11,1.58,8.39,3.21,17,2.69,30.62A2,2,0,0,1,87.53,121.76Z"/></g></svg>