<svg xmlns="http://www.w3.org/2000/svg" width="2500" height="500" viewBox="0 0 2500 500"><defs><style>.cls-1{fill:#fdf47a;}.cls-2{fill:#bbb119;}.cls-3{fill:#fbed21;}.cls-4{fill:none;}.cls-5{fill:#bab019;}.cls-6{fill:#fcf37a;}.cls-7{fill:#faec21;}</style></defs><title>good-explode2_1</title><g id="Figurelementer"><g id="Smør"><polygon class="cls-1" points="405.77 90.15 368.74 53.12 113.69 53.12 150.72 90.15 405.77 90.15"/><polygon class="cls-2" points="150.72 446.88 113.69 409.85 113.69 53.12 150.72 90.15 150.72 446.88"/><rect class="cls-3" x="150.72" y="90.15" width="255.05" height="356.73"/></g></g><g id="Spilskærm_med_elementer" data-name="Spilskærm med elementer"><rect class="cls-4" x="0.12" width="500" height="500"/><rect class="cls-4" x="500.06" width="500" height="500"/><rect class="cls-4" x="1000" width="500" height="500"/><rect class="cls-4" x="1500" width="500" height="500"/><rect class="cls-4" x="2000" width="500" height="500"/><path class="cls-3" d="M1783.82,158.38c7,24.38,13.72,49.89,13.56,56.74,1.21-1.35,2.45-2.69,3.7-4,14.48-15.2,37.63,5.9,24,21.85a162.28,162.28,0,0,1-13.17,13.7,150.85,150.85,0,0,1,31.48,1.76c16,2.58,18.67,24.45,3.83,30.9q-16.42,7.13-33.08,13.69c-.41-1.08,22.72,20.27,41.92,41.3,9.87,10.8,1.57,28.16-13,27.15-23-1.58-43-5.74-66.89-22.4.41,6.21-2.15,18.18-5.34,29.24a16.24,16.24,0,0,1-27.57,6.46,140,140,0,0,1-24.32-36.41,158.47,158.47,0,0,1-40.71,40.21c-12.81,8.74-29.43-3.59-24.66-18.35a218,218,0,0,1,22.07-47.74,97.68,97.68,0,0,1-36.78-4.29c-14.2-4.48-15.24-24.26-1.63-30.27a163,163,0,0,1,52.69-13.4q-17-35.43-30.58-72.36c-5.41-14.65,11-27.76,24.06-19.23,22.22,14.51,44.89,26.93,48.83,22.32,3.77-4.4,12.94-21.94,21.44-39.49C1760.11,142.34,1779.73,144.05,1783.82,158.38Z"/><path class="cls-5" d="M1748.64,324c-5.75-12.49-11.49-25.6-12-29.29-.54.83-1.09,1.65-1.66,2.46-6.5,9.35-20.65,0-14.66-9.72a88,88,0,0,1,5.92-8.43,81.71,81.71,0,0,1-17,1.67c-8.78-.06-12-11.56-4.62-16.24q8.2-5.19,16.59-10.09c.3.55-13.86-9-25.9-18.64a8.8,8.8,0,0,1,4.73-15.64c12.48-1.06,23.51-.49,37.71,6.45-.74-3.29-.36-9.92.43-16.11a8.81,8.81,0,0,1,14.24-5.75,75.65,75.65,0,0,1,16,17.49A86.21,86.21,0,0,1,1787,197.2a8.8,8.8,0,0,1,14.74,7.79,118.72,118.72,0,0,1-7.86,27.41,52.91,52.91,0,0,1,20.06-.75,8.79,8.79,0,0,1,3.39,16.08,88.3,88.3,0,0,1-27.13,11.56q12,17.58,22.4,36.24a8.79,8.79,0,0,1-11.29,12.3c-13.12-5.93-26.3-10.71-28-7.91s-5.11,12.83-8.2,22.95A8.81,8.81,0,0,1,1748.64,324Z"/><path class="cls-6" d="M1771.68,296.71c-6.4,4.89-13.16,9.86-15.2,10.61.54.2,1.08.41,1.61.63,6.18,2.51,2.64,11.81-3.66,9.63a53.36,53.36,0,0,1-5.59-2.3,48.13,48.13,0,0,1,3.15,9.5,5.16,5.16,0,0,1-8.69,4.73q-4-4-7.9-8.18c.28-.25-3.35,9.07-7.33,17.19a5.15,5.15,0,0,1-9.54-.69c-2.21-7-3.3-13.37-1.16-22.38-1.78.84-5.62,1.48-9.26,1.82a5.16,5.16,0,0,1-5.12-7.39,44.35,44.35,0,0,1,7.94-11.43,50.36,50.36,0,0,1-16.63-7.36,5.16,5.16,0,0,1,2.56-9.42,69.06,69.06,0,0,1,16.68,1,30.8,30.8,0,0,1-3-11.37,5.15,5.15,0,0,1,8.76-4,51.59,51.59,0,0,1,10.08,14q8.51-9.15,17.84-17.46a5.15,5.15,0,0,1,8.48,4.87c-1.7,8.26-2.74,16.4-.92,17s8,1.28,14.17,1.75A5.15,5.15,0,0,1,1771.68,296.71Z"/><path class="cls-7" d="M908.93,136.05c.05.38.29.86.12,1.11-7.2,10.29,1.13,21.4-2.19,32.11-2.08,6.74,2.64,13.62,2.5,20.9-.6,30-.25,60-.26,90,0,1.52.56,3.31-.13,4.51-6.67,11.55-1.83,24-1.35,35.46C908.11,332,908.69,344,909,356c.53,23.74,0,47.5.31,71.25.07,5.08-4,8.58-4.39,13.35-.1,1.23-2.56.63-4,.75-8,.7-15.74-.75-23.32-2.85a7.15,7.15,0,0,0-5.38.14c-9.89,4.68-20.34,3-30.6,1.78-4.35-.53-8.23,1-12.34.89-9.17-.32-18.36.75-27.57-.88-4.1-.73-8.66,1-13,.85-16.26-.71-32.51,0-48.76.16a82.6,82.6,0,0,1-24-2.88c-1.92-.54-3.58-.85-5.39,0-10.1,4.75-20.68,3.13-31.16,1.73-5.32-.72-10.26,2-15.52.88,1.29-4.67,4.69-9.4,1.38-14.18-4.79-6.9-6.95-14.47-7.87-22.35-1.55-13.33-3.59-26.74,4.35-39.28,3.35-5.3,4.69-10.9,1.31-16.72a8.92,8.92,0,0,1,.23-9.72,14.75,14.75,0,0,0,.49-15.67c-5.69-10.41-4.45-20.39.9-30.51,1.89-3.58,3.37-7.82.64-11.44-5.27-7-7.11-14.89-8-22.91-1.46-13.11-3.54-26.4,4.37-38.75,3.52-5.49,4.65-11.24,1.22-17.25a8,8,0,0,1,.07-8.65c4.32-6.63,2.83-13-.49-19.38-3.07-5.91-3.71-12.24-1.35-18.22,3.69-9.33,8-18.37,1.41-28,2.21-.35,3.42,1.26,5,2.14,9.32,5.3,12.47,4.77,17.77-3.8,1.45-2.33,2.72-1.57,4.55-1,6.38,1.82,12.86,3.37,19.16,5.36,7.16,2.26,15.12,1,22,3.84,10.48,4.36,18.6,3,25.74-5.24a11.36,11.36,0,0,1,5.61-3.51c11.69-3.23,23.43-6.18,35.09.21,2.55,1.4,5.37,2.8,8.32,1.68,9.49-3.57,17.64-1.88,25.78,3.6,6.59,4.44,11.76,2.86,15.13-3.84,1.22-2.44,2-3.11,5-2.13a176.32,176.32,0,0,0,35.69,8.18C894.56,134.32,901.11,139.5,908.93,136.05Z"/><path class="cls-5" d="M662.58,128.08c6.59,9.64,2.28,18.68-1.41,28-2.36,6-1.72,12.31,1.35,18.22,3.32,6.4,4.81,12.75.49,19.38a8,8,0,0,0-.07,8.65c3.43,6,2.3,11.76-1.22,17.25-7.91,12.35-5.83,25.64-4.37,38.75.9,8,2.74,15.93,8,22.91,2.73,3.62,1.25,7.86-.64,11.44-5.35,10.12-6.59,20.1-.9,30.51a14.75,14.75,0,0,1-.49,15.67,8.92,8.92,0,0,0-.23,9.72c3.38,5.82,2,11.42-1.31,16.72-7.94,12.54-5.9,25.95-4.35,39.28.92,7.88,3.08,15.45,7.87,22.35,3.31,4.78-.09,9.51-1.38,14.18a11,11,0,0,1-11.51-3.87c-4-4.62-10.29-7.56-12.19-13.93-.44-1.45-3.15-2.95-5.56-3.79-5.44-1.91-8.77-6.29-12.65-9.94a4.07,4.07,0,0,1,.05-6.17c7.5-7.22,5.95-15,1.78-22.8-3-5.55-2.4-10.39-.52-16.48,2.88-9.34,10.95-17.32,9.09-27.94-1.3-7.46-.88-15-6.83-21.58-4.39-4.85-2.22-11.29-.12-16.69,2.2-5.67,1.76-10.42-2.58-14.91-.14-.14-.35-.27-.4-.43-2.59-8.43-4.17-17.83.33-25.08,4.9-7.92,5.32-14.66,1.42-22.07-3.13-5.94-2.77-10.95-.7-17.46,3-9.46,11.07-17.73,8.89-28.58-1.42-7.06-1-14.29-6.74-20.46-4.57-5-2.23-11.34-.26-16.68,2.18-5.93,1.85-10.82-2.85-15.35a4.8,4.8,0,0,1-1.61-4.08c.63-9.34-2.44-19.15,5.35-27.52,2.28-2.45,1.34-6.11.31-9.22-.41-1.25-1.37-2.43.59-3.28A2.48,2.48,0,0,0,629.57,94l0,0c4.12,9.41,15.92,13.3,20.07,22.71,2,4.59,7.91,6,10.62,10,.36,1.07,1.26,1.32,2.36,1.26Z"/><path class="cls-6" d="M660.28,126.78c-2.71-4-8.59-5.41-10.62-10-4.15-9.41-15.95-13.3-20.07-22.71,19.67-2.21,39.19-2.9,58.11,4a10.24,10.24,0,0,0,6.21-.15c13.43-3.9,27.38-6.81,41.27-5,13.22,1.75,25.68-2.26,38.6-1.54,6.26.35,12.43.31,18.61,2,6.56,1.75,13.2-1,19.94-.94,12.06.09,23.77,1.29,35.1,5a15.35,15.35,0,0,0,9.15.2c5.36-1.43,10.9-2.31,16.34-3.54a4.48,4.48,0,0,1,4.48,1.32c9.24,8.82,19.09,17.07,28.29,25.94,5,4.82,2.72,9.74,3.24,14.71-7.82,3.45-14.37-1.73-21.56-2.54a176.32,176.32,0,0,1-35.69-8.18c-3-1-3.78-.31-5,2.13-3.37,6.7-8.54,8.28-15.13,3.84-8.14-5.48-16.29-7.17-25.78-3.6-2.95,1.12-5.77-.28-8.32-1.68-11.66-6.39-23.4-3.44-35.09-.21a11.36,11.36,0,0,0-5.61,3.51c-7.14,8.21-15.26,9.6-25.74,5.24-6.87-2.86-14.83-1.58-22-3.84-6.3-2-12.78-3.54-19.16-5.36-1.83-.52-3.1-1.28-4.55,1-5.3,8.57-8.45,9.1-17.77,3.8-1.54-.88-2.75-2.49-5-2.14l.06,0C662.26,127,661.28,126.88,660.28,126.78Z"/><path class="cls-6" d="M629.57,94a2.48,2.48,0,0,1-2.35-1.22C628.31,92.74,629.46,92.56,629.57,94Z"/><path class="cls-7" d="M660.28,126.78c1,.1,2,.22,2.36,1.26C661.54,128.1,660.64,127.85,660.28,126.78Z"/><path class="cls-7" d="M1357.43,149.67c.12.18.4.45.33.52-3,2.9,5.17,11.09,4.54,17.59-.43,3.59,4,10.69,4.8,16.91,3.17,23.26,4.56,55.19,4.27,89.81,0,1.61.28,4.18-.12,4.66-3.92,4.67-1.44,22.7-1.44,35.19,0,12,0,24-.07,34.7,0,19.69-.32,36.31,1.85,47.28.51,2.1-2.63,3.07-2.65,5.19,0,.52-2.22.24-3.44.23a52.07,52.07,0,0,1-20.11-4,6.88,6.88,0,0,0-4.62-.52c-8.69,2.64-17.89.65-26.93-.46-3.86-.44-7.39.94-11.08,1-8.23.25-16.54,2-24.82,2.46-3.67.24-7.76,2.2-11.6,2.93-14.34,2.9-28.36,7.46-42.15,10.95-6.87,1.76-13.49,3.11-19.74,4.21-1.54.27-2.87.52-4.42.88a192.18,192.18,0,0,1-25.69,3.51c-4.28.31-8.72.79-12.92,1,1.7-.59,5.1-1.06,3-1.55-3-.78-3.84-2.14-3.6-3.52.35-2.44.56-5.25,8.15-6.87,3.18-.8,4.7-2.12,2.75-4-1.11-1.09-.61-2,1.11-2.74,2.89-1.31,3.34-3.12,1.79-5-3.25-4.2-1.29-7.8,3-12.44,1.57-1.72,2.81-4,1.21-5.71-3.11-3.51-3.82-8.08-3.94-13-.27-8.49-.7-17.75,4.62-29.44,2.43-5.55,3.21-11.44,1.23-16.89a14.61,14.61,0,0,1,.2-9.4c2.81-8.67,1.85-16.16-.13-23.69-1.92-7.22-2.3-16.24-.94-26.15,2.27-16.41,4.59-34,.16-51.23,1.39-1.42,2.21,1.54,3.22,2.82,6,7.53,8.1,5,11.26-13.81.89-5.35,1.72-4.17,2.92-3.74,4.17,1.52,8.41,2.17,12.58,3.44,4.72,1.31,10-4.19,14.65-2.25,7,2.69,12.84-4.32,17.88-18.84a19.72,19.72,0,0,1,4-7.2c8.5-9.13,16.66-14.62,25.26-11.06,1.88.72,4,1.12,6.17-.87,7-6.35,12.92-6.22,19.58-4.94,5.37,1.05,9.39-1.86,11.19-6.22.66-1.61,1.19-2.09,3.54-2.12,9.22-.12,18.9-1,28.53-.63C1346.44,146.87,1352.5,149.52,1357.43,149.67Z"/><path class="cls-5" d="M1180.06,212.11c4.43,17.26,2.11,34.82-.16,51.23-1.36,9.91-1,18.92.94,26.15,2,7.52,2.94,15,.13,23.69a14.61,14.61,0,0,0-.2,9.4c2,5.44,1.2,11.34-1.23,16.89-5.32,11.69-4.89,20.95-4.62,29.44.12,4.91.83,9.48,3.94,13,1.6,1.76.36,4-1.21,5.71-4.33,4.64-6.29,8.23-3,12.44,1.55,1.92,1.1,3.74-1.79,5-1.72.75-2.22,1.64-1.11,2.74,2,1.87.43,3.19-2.75,4-7.59,1.62-7.8,4.43-8.15,6.87-.24,1.38.56,2.74,3.6,3.52,2.11.49-1.29,1-3,1.55-4.11.39-6.93.52-9,0-2.75-.64-7.61-1.4-8.48-3.3-.2-.41-2.34-1.09-4.32-1.66-4.51-1.26-7-3.51-10.24-6.07-1.57-1.26-1.33-2.49.6-2.59,7.69-.37,7.26-2.73,4.23-7.58-2.21-3.52-1-4.94,1.63-5.55,4.19-.84,12.68,1.74,12.35-2.45-.18-3,1.18-4.9-3.29-10.93-3.41-4.76-.43-5.23,2.11-5.79s2.83-2.8-.35-7.42a3.08,3.08,0,0,1-.31-.45c-1.25-5.33-1.26-10.19,3.27-11.1,4.89-1.31,5.61-5.59,3.32-11.85-1.92-5.32-1.12-8.37.88-12.46,3.08-5.85,8.88-12.22,7.69-23.86-.73-7.76-.39-16.31-4-24.44-3-6.75-1.33-15.17-.16-23.26,1.36-9.27.94-17.6-2.2-25.15a18.29,18.29,0,0,1-1.19-7.3c-.06-18.06-2.58-38.78,1.47-61.51,1.23-7,.2-16.79-.83-25.35-.43-3.51-1.2-6.74,0-9.88.45,2.27,1,3.42,1.68,2.93,0,0,0,.15,0,.12,3.68,25.56,11.64,32.57,15,54.19,1.56,9.91,5.36,11.23,7.28,19,.27,2.14.85,2.36,1.55,1.93C1180.09,212.07,1180.07,212.08,1180.06,212.11Z"/><path class="cls-6" d="M1178.55,210.1c-1.92-7.81-5.72-9.13-7.28-19-3.41-21.61-11.37-28.62-15-54.19,12.76-13.28,25.6-19,39.1-3,1.31,1.49,2.84.45,4.24-1.47,9.31-13,19-19.77,28.72-14.88,9.23,3.89,18-2.71,27,.87,4.32,1.45,8.55,2.46,12.81,5.48,4.52,3,9.06.56,13.62,1.77,8.19,1.85,16.08,4.7,24.31,7.45a15.12,15.12,0,0,0,6.3.7,95.44,95.44,0,0,1,10.56-.06,9.26,9.26,0,0,1,3.29.76c7.94,3.18,16.88,4.88,25.62,9,4.71,2.29,4.23,4,5.69,6.24-4.93-.15-11-2.8-16.56-3-9.62-.39-19.32.53-28.53.63-2.35,0-2.88.51-3.54,2.12-1.8,4.36-5.82,7.27-11.19,6.22-6.66-1.3-12.58-1.41-19.58,4.94-2.16,2-4.29,1.59-6.17.87-8.6-3.56-16.76,1.93-25.26,11.06a19.64,19.64,0,0,0-4,7.2c-5,14.52-10.88,21.51-17.88,18.84-4.61-1.95-9.93,3.55-14.65,2.25-4.17-1.27-8.41-1.92-12.58-3.44-1.2-.43-2-1.61-2.92,3.74-3.16,18.8-5.27,21.35-11.26,13.81-1-1.28-1.83-4.25-3.22-2.82,0,0,0-.09,0-.08C1179.82,210,1179.19,210,1178.55,210.1Z"/><path class="cls-6" d="M1156.2,136.76c-.69.47-1.23-.65-1.68-2.93C1155.22,133.28,1155.94,132.37,1156.2,136.76Z"/><path class="cls-7" d="M1178.55,210.1c.64-.07,1.27-.12,1.55,1.93C1179.4,212.47,1178.82,212.23,1178.55,210.1Z"/><path class="cls-6" d="M1632.53,145.73c-.69.47-1.24-.65-1.69-2.94C1631.54,142.24,1632.27,141.34,1632.53,145.73Z"/></g></svg>
