<svg xmlns="http://www.w3.org/2000/svg" width="420" height="170" viewBox="0 0 420 170"><defs><style>.cls-1{fill:#8b6239;}.cls-2{fill:#a57c52;}.cls-3{fill:#e92c0c;}</style></defs><title>Knap - Spil nu</title><g id="Titelskærm"><g id="Midgrund"><g id="Knap"><path class="cls-1" d="M325.08,136.91H97.26A37.88,37.88,0,0,1,59.42,99.07V75A37.88,37.88,0,0,1,97.26,37.13H325.08A37.89,37.89,0,0,1,362.92,75v24.1A37.89,37.89,0,0,1,325.08,136.91ZM97.26,53.13A21.87,21.87,0,0,0,75.42,75v24.1a21.87,21.87,0,0,0,21.84,21.84H325.08a21.87,21.87,0,0,0,21.84-21.84V75a21.87,21.87,0,0,0-21.84-21.84Z"/><rect class="cls-2" x="67.42" y="45.13" width="287.49" height="83.77" rx="29.83"/><path class="cls-3" d="M141.46,86.29a5.59,5.59,0,0,0-2.61.58,5.66,5.66,0,0,0-1.79,1.48,6.28,6.28,0,0,0-1.05,2,9.06,9.06,0,0,0-.43,2.17,6.92,6.92,0,0,0,.58,3.12,7.25,7.25,0,0,0,1.85,2.5,8.72,8.72,0,0,0,2.92,1.65,11.36,11.36,0,0,0,3.76.6,13.77,13.77,0,0,0,4.24-.68,14.21,14.21,0,0,0,3.76-1.87,10.76,10.76,0,0,0,2.76-2.79,6.89,6.89,0,0,0,1.19-3.48,6.53,6.53,0,0,0-.23-2.2,8.51,8.51,0,0,0-.87-2.07,10.56,10.56,0,0,0-1.41-1.89,13,13,0,0,0-1.81-1.58c-1.15-.84-2.28-1.64-3.39-2.41A19.63,19.63,0,0,1,146,79a10.67,10.67,0,0,1-2-2.92,7.74,7.74,0,0,1-.61-3.79,7.37,7.37,0,0,1,1.3-3.87,11.23,11.23,0,0,1,3.09-3,16.68,16.68,0,0,1,8.93-2.65,15,15,0,0,1,4.49.67,12.33,12.33,0,0,1,3.79,1.88,9.44,9.44,0,0,1,2.59,2.88,6.67,6.67,0,0,1,.84,3.71,5.24,5.24,0,0,1-.65,2.3A5.94,5.94,0,0,1,166.17,76a7.11,7.11,0,0,1-2.23,1.14,9.16,9.16,0,0,1-2.76.4,8.32,8.32,0,0,1-2.16-.28,6.8,6.8,0,0,1-2-.81,4.17,4.17,0,0,1-1.39-1.31,3.1,3.1,0,0,1-.48-1.81,3.76,3.76,0,0,1,.2-.81,4.83,4.83,0,0,1,.42-1,3.1,3.1,0,0,1,.65-.83,1.25,1.25,0,0,1,.84-.35,1,1,0,0,1,.63.23l.64.51a4.67,4.67,0,0,0,.77.51,2.22,2.22,0,0,0,1.06.23,1.05,1.05,0,0,0,1-.49,2.36,2.36,0,0,0,.3-1,2.46,2.46,0,0,0-.32-1.4,2.81,2.81,0,0,0-1-1,4.9,4.9,0,0,0-1.46-.58,7.38,7.38,0,0,0-1.7-.19,9.53,9.53,0,0,0-2.46.31,7.62,7.62,0,0,0-2.15.94,5.13,5.13,0,0,0-1.53,1.51,4.17,4.17,0,0,0-.65,2,3.63,3.63,0,0,0,.83,2.47,12.55,12.55,0,0,0,2.19,2.18c.87.68,1.77,1.31,2.71,1.91a23.91,23.91,0,0,1,2.39,1.71,27.53,27.53,0,0,1,2.76,2.63,18.22,18.22,0,0,1,2.22,3A14.8,14.8,0,0,1,165,89.12a10.35,10.35,0,0,1,.4,3.57,10.71,10.71,0,0,1-.93,3.85,14.14,14.14,0,0,1-2.21,3.45,18.73,18.73,0,0,1-3.22,2.9,21.77,21.77,0,0,1-4,2.21,24.44,24.44,0,0,1-4.41,1.43,21.06,21.06,0,0,1-4.6.51,18.93,18.93,0,0,1-6.35-1.06,16.63,16.63,0,0,1-5.18-2.9,12.74,12.74,0,0,1-3.41-4.32,10.88,10.88,0,0,1-1.06-5.33,11.5,11.5,0,0,1,.55-3,12.9,12.9,0,0,1,1.3-2.83,12.93,12.93,0,0,1,4.79-4.55,19.77,19.77,0,0,1,3.33-1.46,11.33,11.33,0,0,1,3.64-.58,8.72,8.72,0,0,1,3.11.54A7.53,7.53,0,0,1,149.24,83a6.44,6.44,0,0,1,1.55,2.18,5.88,5.88,0,0,1,0,4.57,6.1,6.1,0,0,1-1.1,1.81A5.49,5.49,0,0,1,148,92.92a5.22,5.22,0,0,1-2.34.51c-.26,0-.55,0-.88-.05a5.51,5.51,0,0,1-.9-.18,1.88,1.88,0,0,1-.7-.37.71.71,0,0,1-.26-.67.81.81,0,0,1,.31-.54,8.07,8.07,0,0,0,.67-.72,7.42,7.42,0,0,0,.69-1,2.83,2.83,0,0,0,.37-1.3,1.5,1.5,0,0,0-.3-1,2.83,2.83,0,0,0-.85-.72,4.84,4.84,0,0,0-1.12-.44A5.16,5.16,0,0,0,141.46,86.29Z"/><path class="cls-3" d="M186.21,76.63a9.55,9.55,0,0,1,3.87.68,6.32,6.32,0,0,1,2.46,1.86,6.84,6.84,0,0,1,1.26,2.73,11.13,11.13,0,0,1,.25,3.23,17.86,17.86,0,0,1-.62,3.78,25.76,25.76,0,0,1-1.52,4.24,29.42,29.42,0,0,1-2.38,4.2,19.46,19.46,0,0,1-3.16,3.64,15.93,15.93,0,0,1-3.89,2.55,10.88,10.88,0,0,1-4.57,1,11.08,11.08,0,0,1-1.77-.14,9.86,9.86,0,0,1-1.8-.44,7.41,7.41,0,0,1-1.58-.75,4.67,4.67,0,0,1-1.18-1.06h-.1l-1.21,3.15c-.44,1.11-.88,2.23-1.34,3.36s-.93,2.24-1.42,3.34-1,2.12-1.48,3.06a11.13,11.13,0,0,1-3.08,3.67,7.42,7.42,0,0,1-4.48,1.39l-.91,0c-.42,0-.85,0-1.27-.09a4.89,4.89,0,0,1-1.12-.24c-.33-.12-.48-.27-.46-.46a.37.37,0,0,1,0-.16,1,1,0,0,1,.13-.16,39.88,39.88,0,0,0,4.16-6.1c1.3-2.3,2.52-4.69,3.66-7.15s2.19-4.91,3.16-7.35,1.86-4.66,2.66-6.68q1.4-3.72,2.79-7.38t2.76-7.38a4.4,4.4,0,0,1,.62,0h.58a4.28,4.28,0,0,1,1.93.42,5.82,5.82,0,0,1,1.51,1.09,14.33,14.33,0,0,1,3.6-1.33A17.83,17.83,0,0,1,186.21,76.63Zm-4.92,18.8a15.22,15.22,0,0,0,1.88-2.23,22.05,22.05,0,0,0,1.62-2.69A17.94,17.94,0,0,0,186,87.68a11.51,11.51,0,0,0,.51-2.65,8.36,8.36,0,0,0-.09-1.14,4,4,0,0,0-.37-1.24,3.07,3.07,0,0,0-.77-1,2,2,0,0,0-1.27-.4,3.23,3.23,0,0,0-1.32.28,6.05,6.05,0,0,0-1.21.7,10.27,10.27,0,0,0-1.06.9c-.33.31-.62.61-.88.89a5.26,5.26,0,0,0-1,1.39c-.23.48-.44,1-.65,1.5q-.91,2.1-1.74,4.23a13.77,13.77,0,0,0-.93,4.34,3.65,3.65,0,0,0,0,.81,2.88,2.88,0,0,0,.19.88,1.64,1.64,0,0,0,.47.7,1.28,1.28,0,0,0,.88.29,3,3,0,0,0,1.25-.3,8.21,8.21,0,0,0,1.27-.74c.41-.29.79-.6,1.16-.91S181.08,95.64,181.29,95.43Z"/><path class="cls-3" d="M204.39,76.91a6.78,6.78,0,0,1,2.26.37,7.7,7.7,0,0,1,1.95,1,.37.37,0,0,1,.07.32.59.59,0,0,1-.1.25,3.31,3.31,0,0,1-.25.35l-.26.33a1.66,1.66,0,0,0-.16.23,10.65,10.65,0,0,0-1.26,2.13c-.45.92-.9,2-1.36,3.09s-.89,2.33-1.32,3.59-.81,2.46-1.17,3.63-.65,2.24-.87,3.2a15.14,15.14,0,0,0-.35,2.29v.42a2.26,2.26,0,0,0,.06.53,1.16,1.16,0,0,0,.19.44.47.47,0,0,0,.42.19,2.3,2.3,0,0,0,1.34-.7,13.4,13.4,0,0,0,1.56-1.62c.51-.61,1-1.21,1.39-1.79l.84-1.2a18.1,18.1,0,0,0,1.37-2.3,24.14,24.14,0,0,1,1.34-2.3,1.22,1.22,0,0,1,.16-.23,3.84,3.84,0,0,1,.28-.34c.11-.11.22-.22.33-.31a.58.58,0,0,1,.32-.14c.12,0,.2.07.25.21a2.18,2.18,0,0,1,.08.49,4.88,4.88,0,0,1,0,.53,1,1,0,0,1,0,.31,19,19,0,0,1-.42,3.1,21.8,21.8,0,0,1-1,3.14,16.81,16.81,0,0,1-1.55,3,17.46,17.46,0,0,1-2.09,2.64,12.88,12.88,0,0,1-2.53,2,6.22,6.22,0,0,1-3.24.79,12.27,12.27,0,0,1-2.9-.33,7.07,7.07,0,0,1-2.35-1,4.72,4.72,0,0,1-1.55-1.72,4.6,4.6,0,0,1-.47-2.41,13.59,13.59,0,0,1,.45-2.36c.29-1.1.64-2.36,1.06-3.77s.9-2.91,1.44-4.45,1.07-3,1.58-4.38,1-2.56,1.5-3.57a10.66,10.66,0,0,1,1.14-2A4.94,4.94,0,0,1,204.39,76.91ZM212.47,70a4.26,4.26,0,0,1-.4,1.65,4.94,4.94,0,0,1-1,1.37,4.48,4.48,0,0,1-1.49.95,5.5,5.5,0,0,1-2,.35,6.15,6.15,0,0,1-1.52-.18,3.94,3.94,0,0,1-1.27-.52,2.46,2.46,0,0,1-.83-.9,2.49,2.49,0,0,1-.24-1.28,4,4,0,0,1,.38-1.55,4.25,4.25,0,0,1,1-1.3,4.44,4.44,0,0,1,1.48-.88,5.41,5.41,0,0,1,1.88-.32,6.92,6.92,0,0,1,1.42.15,4.68,4.68,0,0,1,1.32.45,2.86,2.86,0,0,1,1,.81A1.85,1.85,0,0,1,212.47,70Z"/><path class="cls-3" d="M222.6,89.56a15.59,15.59,0,0,1-.46,3,21.29,21.29,0,0,1-1,3,20.82,20.82,0,0,1-1.51,2.88,16.63,16.63,0,0,1-2,2.55c-.4.42-.83.84-1.28,1.26a10.38,10.38,0,0,1-1.46,1.13,8.32,8.32,0,0,1-1.67.81,5.77,5.77,0,0,1-1.92.31,6.23,6.23,0,0,1-2.53-.52,7,7,0,0,1-2.07-1.37,6.3,6.3,0,0,1-1.38-1.92,4.77,4.77,0,0,1-.45-2.16,8.11,8.11,0,0,1,.23-1.22c.12-.52.28-1.11.47-1.75s.41-1.32.65-2,.48-1.38.69-2,.41-1.23.59-1.75l.43-1.22c.86-2.36,1.77-4.71,2.72-7s1.94-4.63,3-6.92c.59-1.27,1.19-2.55,1.81-3.85s1.3-2.55,2-3.75a7.73,7.73,0,0,1,2.08-2.26,5.06,5.06,0,0,1,3.13-.94,5.59,5.59,0,0,1,2.63.64,14.24,14.24,0,0,1,2.22,1.4.58.58,0,0,1,.1.35,1,1,0,0,1-.17.34,3,3,0,0,1-.34.38,4.4,4.4,0,0,1-.38.37c-.13.12-.23.21-.3.29a17.78,17.78,0,0,0-2.46,3c-.73,1.11-1.4,2.21-2,3.28-.44.78-1,1.8-1.58,3.06s-1.25,2.66-1.91,4.17-1.34,3.09-2,4.73-1.28,3.21-1.83,4.72-1,2.91-1.35,4.19a16.2,16.2,0,0,0-.6,3.11v.35a1.84,1.84,0,0,0,0,.41.62.62,0,0,0,.17.33.56.56,0,0,0,.39.14,1.63,1.63,0,0,0,.95-.46,10.77,10.77,0,0,0,1.12-1c.38-.4.72-.79,1-1.18s.53-.66.65-.83a24.83,24.83,0,0,0,2.15-3.07c.56-1,1.2-2,1.93-3a1.24,1.24,0,0,1,.18-.25l.29-.37a3,3,0,0,1,.36-.35.59.59,0,0,1,.33-.16.23.23,0,0,1,.23.16c0,.11.06.22.09.35a1.4,1.4,0,0,1,0,.41C222.6,89.39,222.6,89.49,222.6,89.56Z"/><path class="cls-3" d="M245.91,102.25l-.15.44a4.56,4.56,0,0,1-.14.44,3.59,3.59,0,0,1-.66,1,1.71,1.71,0,0,1-1.23.35,4.5,4.5,0,0,1-2.2-.51,4.61,4.61,0,0,1-1.53-1.3,4.94,4.94,0,0,1-.86-1.75,5.59,5.59,0,0,1-.2-1.88,12.34,12.34,0,0,1,.58-2.4c.37-1.14.82-2.46,1.38-4s1.16-3,1.82-4.69,1.32-3.17,1.94-4.57,1.19-2.61,1.7-3.61a8.44,8.44,0,0,1,1.09-1.77,5.17,5.17,0,0,1,1.53-.88,5.33,5.33,0,0,1,1.81-.28,6.9,6.9,0,0,1,1,.12,13.47,13.47,0,0,1,1.44.33,6.33,6.33,0,0,1,1.27.51c.35.2.51.41.49.62a1.34,1.34,0,0,1-.18.49c-.11.24-.24.48-.38.74l-.41.74c-.13.23-.21.4-.26.49a6,6,0,0,0-.47.86c-.23.46-.48,1-.76,1.6l-.9,1.93-.86,1.89c-.26.57-.47,1.06-.65,1.47a2.22,2.22,0,0,0-.23.69c.35-.52.83-1.18,1.44-2s1.31-1.67,2.08-2.58S255,83,255.89,82.06a30.29,30.29,0,0,1,2.62-2.5,15.93,15.93,0,0,1,2.6-1.81,5,5,0,0,1,2.37-.7h.39a6.19,6.19,0,0,1,2.3.37,3.76,3.76,0,0,1,1.51,1,3.9,3.9,0,0,1,.83,1.57,6.17,6.17,0,0,1,.18,2,14,14,0,0,1-.88,4.06c-.52,1.39-1.09,2.79-1.71,4.18s-1.19,2.75-1.7,4.06a12.12,12.12,0,0,0-.88,3.66v.25a2.51,2.51,0,0,0,0,.37.89.89,0,0,0,.14.33A.39.39,0,0,0,264,99a2.13,2.13,0,0,0,1.28-.6,11.22,11.22,0,0,0,1.48-1.51q.75-.91,1.56-2c.54-.75,1-1.48,1.5-2.18s.87-1.35,1.23-1.93.64-1,.82-1.3l.23-.32.32-.42a1.37,1.37,0,0,1,.37-.35.7.7,0,0,1,.42-.14c.07,0,.12,0,.14.14s.05.2.07.33a2.15,2.15,0,0,1,0,.51,16.51,16.51,0,0,1-.56,3.57,20.53,20.53,0,0,1-1.34,3.62,19.91,19.91,0,0,1-2,3.38,17,17,0,0,1-2.76,2.86c-.17.14-.37.3-.62.48s-.5.34-.77.51a6.65,6.65,0,0,1-.84.43,4.75,4.75,0,0,1-.76.27,1.09,1.09,0,0,1-.39.1l-.51.07a2.92,2.92,0,0,1-.51,0h-.38a9.14,9.14,0,0,1-2.73-.42,7.78,7.78,0,0,1-2.39-1.2,6.15,6.15,0,0,1-1.65-1.81,3.88,3.88,0,0,1-.55-2.23,7.88,7.88,0,0,1,.5-2.11c.3-.87.65-1.77,1-2.71s.78-1.84,1.18-2.7.72-1.56.95-2.08c.16-.33.37-.77.63-1.33s.51-1.15.74-1.76.45-1.2.65-1.78a6,6,0,0,0,.34-1.35,1.49,1.49,0,0,0-.06-.3c0-.15-.1-.23-.19-.23s-.6.23-1.11.69a18,18,0,0,0-1.72,1.84c-.65.78-1.35,1.67-2.13,2.69s-1.56,2.09-2.35,3.2-1.58,2.24-2.34,3.38-1.47,2.21-2.11,3.23-1.21,1.94-1.69,2.76S246.12,101.79,245.91,102.25Z"/><path class="cls-3" d="M279.06,96.56a25.59,25.59,0,0,0,3.56-3.66,29.85,29.85,0,0,0,2.76-4.08,35.84,35.84,0,0,0,2.1-4.32A47,47,0,0,0,289,80c.09-.31.19-.63.31-1a3.44,3.44,0,0,1,.49-.93,2.94,2.94,0,0,1,.78-.71,2.24,2.24,0,0,1,1.16-.28,12.24,12.24,0,0,1,1.88.13,4.22,4.22,0,0,1,1.48.47,2.38,2.38,0,0,1,.93.93,3,3,0,0,1,.28,1.53,10.19,10.19,0,0,1-.56,2.44c-.36,1.07-.75,2.19-1.2,3.36s-.89,2.29-1.34,3.36l-1,2.48c-.39,1.05-.79,2.16-1.17,3.3a11.81,11.81,0,0,0-.65,3.34,1.09,1.09,0,0,0,0,.44.93.93,0,0,0,.23.41h.21a2.19,2.19,0,0,0,1.18-.6,18.51,18.51,0,0,0,1.53-1.35q.78-.77,1.44-1.5c.45-.49.74-.82.88-1a24.45,24.45,0,0,0,2-2.64c.59-.91,1.22-1.8,1.9-2.67a5.57,5.57,0,0,1,.53-.62,1.17,1.17,0,0,1,.73-.4.53.53,0,0,1,.18.39v.42a7.44,7.44,0,0,1-.21,1.35,14.66,14.66,0,0,1-.44,1.53c-.18.52-.37,1-.58,1.51s-.39.94-.53,1.34a24,24,0,0,1-1.9,3.3,17.09,17.09,0,0,1-2.74,3.17,15,15,0,0,1-3.53,2.39,9.44,9.44,0,0,1-4.17,1,4.51,4.51,0,0,1-3.29-1,3.54,3.54,0,0,1-.86-2.81,13.2,13.2,0,0,1,.57-3.27c.32-1.08.66-2.14,1-3.2v0h0a32.1,32.1,0,0,1-2,3.23,21.45,21.45,0,0,1-2.92,3.36,17.31,17.31,0,0,1-3.6,2.63,8.35,8.35,0,0,1-4.1,1.08,3.73,3.73,0,0,1-2.12-.55,4.21,4.21,0,0,1-1.32-1.37,4.91,4.91,0,0,1-.65-1.81,8.62,8.62,0,0,1-.12-1.86,22.85,22.85,0,0,1,.54-3.62c.29-1.29.64-2.59,1-3.91s.84-2.59,1.33-3.85,1-2.4,1.41-3.46c.16-.35.39-.84.69-1.46s.62-1.26,1-1.91a19.65,19.65,0,0,1,1.16-1.82,4.42,4.42,0,0,1,1.16-1.17,6.37,6.37,0,0,1,1.35-.62,5.1,5.1,0,0,1,1.53-.23,7.3,7.3,0,0,1,1.25.16,10.51,10.51,0,0,1,1.55.44,6,6,0,0,1,1.31.67,1,1,0,0,1,.53.84,1,1,0,0,1-.39.65c-.25.25-.44.44-.56.58A14.06,14.06,0,0,0,281,82.57a31.25,31.25,0,0,0-1.56,2.76q-.78,1.53-1.53,3.21c-.5,1.13-.95,2.22-1.34,3.29s-.7,2-.95,2.94a10.32,10.32,0,0,0-.4,2.21,2.29,2.29,0,0,0,.09.81q.12.42.72.42a2.15,2.15,0,0,0,.77-.17,7.67,7.67,0,0,0,.85-.44c.28-.18.54-.36.79-.55A7.22,7.22,0,0,0,279.06,96.56Z"/></g></g></g></svg>