<svg xmlns="http://www.w3.org/2000/svg" xmlns:xlink="http://www.w3.org/1999/xlink" width="3500" height="500" viewBox="0 0 3500 500"><defs><style>.cls-1{fill:none;}.cls-2{fill:#aa987a;}.cls-3{fill:url(#linear-gradient);}.cls-4{fill:#e2cba2;}.cls-5{fill:url(#linear-gradient-2);}.cls-6{fill:#fff;}.cls-7{fill:#f99;}.cls-8{fill:red;}.cls-9{fill:#d20000;}.cls-10{fill:#f1f1f1;}.cls-11{fill:url(#linear-gradient-3);}.cls-12{fill:url(#linear-gradient-4);}.cls-13{fill:url(#linear-gradient-5);}.cls-14{fill:url(#linear-gradient-6);}.cls-15{fill:url(#linear-gradient-7);}.cls-16{fill:url(#linear-gradient-8);}.cls-17{fill:url(#linear-gradient-9);}.cls-18{fill:url(#linear-gradient-10);}.cls-19{fill:url(#linear-gradient-11);}.cls-20{fill:url(#linear-gradient-12);}.cls-21{fill:url(#linear-gradient-13);}.cls-22{fill:url(#linear-gradient-14);}</style><linearGradient id="linear-gradient" x1="11852.53" y1="304.09" x2="11914.47" y2="304.09" gradientTransform="matrix(-1, 0, 0, 1, 12157.7, 0)" gradientUnits="userSpaceOnUse"><stop offset="0" stop-color="#e2cba2"/><stop offset="0.35" stop-color="#dfc9a0"/><stop offset="0.58" stop-color="#d7c19a"/><stop offset="0.77" stop-color="#c8b38f"/><stop offset="0.94" stop-color="#b3a081"/><stop offset="1" stop-color="#aa987a"/></linearGradient><linearGradient id="linear-gradient-2" x1="12151.01" y1="-422.25" x2="12131.25" y2="-350.14" gradientTransform="matrix(-1, 0.06, 0.06, 1, 12396.89, -179.65)" gradientUnits="userSpaceOnUse"><stop offset="0" stop-color="#aa987a"/><stop offset="1" stop-color="#aa987a" stop-opacity="0"/></linearGradient><linearGradient id="linear-gradient-3" x1="11352.65" y1="296.09" x2="11414.59" y2="296.09" xlink:href="#linear-gradient"/><linearGradient id="linear-gradient-4" x1="11651.52" y1="-400.93" x2="11631.76" y2="-328.83" xlink:href="#linear-gradient-2"/><linearGradient id="linear-gradient-5" x1="10852.65" y1="291.09" x2="10914.59" y2="291.09" xlink:href="#linear-gradient"/><linearGradient id="linear-gradient-6" x1="11152.08" y1="-376.61" x2="11132.33" y2="-304.51" xlink:href="#linear-gradient-2"/><linearGradient id="linear-gradient-7" x1="9352.71" y1="305.09" x2="9414.65" y2="305.09" xlink:href="#linear-gradient"/><linearGradient id="linear-gradient-8" x1="9655.54" y1="-274.71" x2="9635.79" y2="-202.61" xlink:href="#linear-gradient-2"/><linearGradient id="linear-gradient-9" x1="10352.71" y1="291.09" x2="10414.65" y2="291.09" xlink:href="#linear-gradient"/><linearGradient id="linear-gradient-10" x1="10653" y1="-347.31" x2="10633.25" y2="-275.2" xlink:href="#linear-gradient-2"/><linearGradient id="linear-gradient-11" x1="9852.77" y1="294.09" x2="9914.71" y2="294.09" xlink:href="#linear-gradient"/><linearGradient id="linear-gradient-12" x1="10154.1" y1="-315" x2="10134.34" y2="-242.9" xlink:href="#linear-gradient-2"/><linearGradient id="linear-gradient-13" x1="8852.71" y1="324.08" x2="8914.65" y2="324.08" xlink:href="#linear-gradient"/><linearGradient id="linear-gradient-14" x1="9157.52" y1="-226.44" x2="9137.76" y2="-154.34" xlink:href="#linear-gradient-2"/></defs><title>Nisskefar-animation</title><g id="Spilskærm_med_elementer" data-name="Spilskærm med elementer"><rect class="cls-1" x="0.18" width="500" height="500"/><path class="cls-2" d="M331.6,472.35a5,5,0,0,1-4.83-3.7l-15.94-58.91-35.58-34.15a5,5,0,1,1,6.94-7.24l37.6,36.08L336.45,466a5,5,0,0,1-4.85,6.32Z"/><path class="cls-3" d="M267.3,203a206.81,206.81,0,0,1,10.89,66.44,206.07,206.07,0,0,1-30.78,108.68c-.68,1.1-1.36,2.19-2.06,3.27A20.06,20.06,0,0,0,280.28,401c.6-1.18,1.19-2.36,1.76-3.54a231.78,231.78,0,0,0,1-199.75"/><path class="cls-4" d="M220.51,179.19c11.43,36.15,33.89,44.58,56.08,37.57s35.72-26.83,24.29-63S250.58,81,235.2,85.85,209.08,143.05,220.51,179.19Z"/><path class="cls-5" d="M229.83,173.81c8.58,27.13,25.44,33.46,42.09,28.19s26.81-20.13,18.24-47.26-37.76-54.65-49.3-51S221.25,146.68,229.83,173.81Z"/><path class="cls-6" d="M284.9,180a21,21,0,0,1-9.17,14.22,17.66,17.66,0,0,1-9.52,2.8,17.47,17.47,0,0,1-7.6-1.74c-6.71-3.22-11.41-10.59-11.41-19.17,0-.55,0-1.11.06-1.65,0,0,10.19,5.38,19.25,6.28A77.06,77.06,0,0,0,284.9,180Z"/><path class="cls-2" d="M294.69,176.38a1.47,1.47,0,0,0-2-.71,45.24,45.24,0,0,1-8.19,2.9h0a48.54,48.54,0,0,1-11.9,1.46,46.14,46.14,0,0,1-24.6-6.82h0a40,40,0,0,1-4.24-3.08,1.48,1.48,0,0,0-1.89,2.27,43.54,43.54,0,0,0,4.56,3.31h0A49.15,49.15,0,0,0,272.64,183a51.44,51.44,0,0,0,12.62-1.55h0a48,48,0,0,0,8.72-3.09A1.47,1.47,0,0,0,294.69,176.38Z"/><path class="cls-7" d="M258.6,195.14a.66.66,0,0,0,0,.14,17.47,17.47,0,0,0,7.6,1.74,17.66,17.66,0,0,0,9.52-2.8c-.6-3.09-4.19-5.47-8.52-5.47C262.45,188.75,258.6,191.61,258.6,195.14Z"/><path class="cls-6" d="M239.56,147.6a20,20,0,0,0,.57,3.84c2,7.92,8.52,13.12,14.52,11.59s9.24-9.18,7.23-17.11a18.75,18.75,0,0,0-2.68-6c-3-4.33-7.53-6.68-11.83-5.59C242.35,135.6,239.26,141.17,239.56,147.6Z"/><path class="cls-2" d="M238.55,147.6a82.54,82.54,0,0,0,21.66-8.47c-3.29-4.77-8.3-7.37-13-6.16C241.62,134.37,238.22,140.51,238.55,147.6Z"/><circle cx="255.45" cy="152.47" r="2.26"/><path class="cls-6" d="M275.88,145.06c1.42,7.6,6.61,13,11.58,12.07s7.86-7.84,6.44-15.44a20.17,20.17,0,0,0-.56-2.26c-1.92-6.37-6.55-10.65-11-9.81-3.44.65-5.88,4.16-6.59,8.79A19.7,19.7,0,0,0,275.88,145.06Z"/><path class="cls-2" d="M274.46,138.24a91.13,91.13,0,0,0,15.33,1.3c1.63,0,3.23,0,4.83-.12-2.2-7.3-7.51-12.19-12.62-11.23C278.06,128.92,275.26,133,274.46,138.24Z"/><circle cx="285.81" cy="147.94" r="2.26"/><path class="cls-8" d="M199.22,54.71c24.36-9.87,56.72,21.66,56.73,21.66,14.78,11.63,21.69,27.82,21.69,27.82l-15.43,12.12L219,119.24l-3.36-6.39a33.59,33.59,0,0,1-3.84-16h0A28.39,28.39,0,0,1,190,84h0c-3.73,2.11-6.11,9.09-6.11,9.09l-11-4.74A42.37,42.37,0,0,1,199.22,54.71Z"/><path class="cls-9" d="M198.78,53.62c10.31-4.18,23.64-1.69,38.54,7.2a118.88,118.88,0,0,1,19.45,14.7v0a67.45,67.45,0,0,1,6.27,5.61,81,81,0,0,1,15.68,22.58,1.18,1.18,0,0,1-.63,1.54,1.06,1.06,0,0,1-.46.1,1.17,1.17,0,0,1-1.08-.72,80.13,80.13,0,0,0-15.24-21.9,70.74,70.74,0,0,0-6-5.38,1.37,1.37,0,0,1-.21-.15l0,0a50,50,0,0,0-41.28-10.33,1.18,1.18,0,1,1-.42-2.32,52.4,52.4,0,0,1,29.8,3C231.74,59.38,214.1,50,199.66,55.81c-20.84,8.45-24.86,27.62-25.5,31.84l9,3.9c.8-2,2.61-5.8,5.2-7.87a20.87,20.87,0,0,1-1.47-2.87,1.18,1.18,0,1,1,2.21-.83A27,27,0,0,0,210.7,95.57a26.74,26.74,0,0,1,5.64-14.87,1.18,1.18,0,1,1,1.75,1.59c-.11.11-10.47,11.85-1.43,30a1.17,1.17,0,0,1-.53,1.58,1.19,1.19,0,0,1-1.58-.53,35.07,35.07,0,0,1-3.93-15.45,29.66,29.66,0,0,1-20.93-12.26c-2.33,2-4.16,6.2-4.72,7.84a1.18,1.18,0,0,1-.64.69,1.12,1.12,0,0,1-.48.1,1.22,1.22,0,0,1-.46-.09l-11-4.75a1.19,1.19,0,0,1-.71-1.18C171.72,88,174,63.65,198.78,53.62Z"/><path class="cls-6" d="M233.52,129.2a113.38,113.38,0,0,0,50.65-11.79,7.37,7.37,0,1,0-6.53-13.22,98.74,98.74,0,0,1-44.12,10.26,100.92,100.92,0,0,1-17.91-1.6A7.37,7.37,0,0,0,213,127.36,115.45,115.45,0,0,0,233.52,129.2Z"/><path class="cls-6" d="M233.52,129.2a113.38,113.38,0,0,0,50.65-11.79,7.37,7.37,0,1,0-6.53-13.22,98.74,98.74,0,0,1-44.12,10.26,100.92,100.92,0,0,1-17.91-1.6A7.37,7.37,0,0,0,213,127.36,115.45,115.45,0,0,0,233.52,129.2Z"/><path class="cls-10" d="M233.52,126.84A112.6,112.6,0,0,1,213.4,125a5,5,0,0,1-1.66-9.25,1.18,1.18,0,1,1,1.2,2,2.66,2.66,0,0,0,.88,4.9,112,112,0,0,0,41.89-.46,1.17,1.17,0,0,1,1.39.91,1.19,1.19,0,0,1-.92,1.4A113,113,0,0,1,233.52,126.84Z"/><circle class="cls-6" cx="175.89" cy="96.88" r="10.74"/><path class="cls-10" d="M175.89,105.48a8.61,8.61,0,0,1-8.41-10.36,1.18,1.18,0,1,1,2.31.48,6.11,6.11,0,0,0-.13,1.28,6.24,6.24,0,0,0,6.23,6.24,6.34,6.34,0,0,0,.76,0,1.18,1.18,0,0,1,.29,2.34A9.24,9.24,0,0,1,175.89,105.48Z"/><path class="cls-2" d="M168.74,434.5a5,5,0,0,1-1-9.92l50.72-10.79,40.52-46.43a5,5,0,0,1,7.56,6.6L223.77,422.9l-54,11.49A5.35,5.35,0,0,1,168.74,434.5Z"/><rect class="cls-1" x="500.06" width="500" height="500"/><path class="cls-2" d="M803,472.4a5,5,0,0,1-3.71-4.84l-.07-61L773.75,364.3a5,5,0,0,1,8.58-5.18l26.92,44.62.08,63.81A5,5,0,0,1,803,472.4Z"/><path class="cls-11" d="M767.18,195a207.57,207.57,0,0,1-19.89,175.12c-.67,1.1-1.36,2.19-2.06,3.27A20.06,20.06,0,0,0,780.16,393c.6-1.18,1.19-2.36,1.76-3.54a231.78,231.78,0,0,0,1-199.75"/><path class="cls-4" d="M720.4,171.19c11.43,36.15,33.88,44.58,56.07,37.57s35.72-26.83,24.29-63S750.46,73,735.08,77.85,709,135.05,720.4,171.19Z"/><path class="cls-12" d="M729.72,165.81c8.57,27.13,25.43,33.46,42.09,28.19s26.81-20.13,18.23-47.26-37.76-54.65-49.3-51S721.14,138.68,729.72,165.81Z"/><path class="cls-6" d="M784.78,172a21,21,0,0,1-9.17,14.22,17.66,17.66,0,0,1-9.52,2.8,17.47,17.47,0,0,1-7.6-1.74c-6.71-3.22-11.41-10.59-11.41-19.17,0-.55,0-1.11.06-1.65,0,0,10.19,5.38,19.25,6.28A77.06,77.06,0,0,0,784.78,172Z"/><path class="cls-2" d="M794.58,168.38a1.47,1.47,0,0,0-2-.71,45.61,45.61,0,0,1-8.2,2.9h0a48.48,48.48,0,0,1-11.9,1.46,46.1,46.1,0,0,1-24.59-6.82h0a39.09,39.09,0,0,1-4.25-3.08,1.48,1.48,0,0,0-1.89,2.27,42.65,42.65,0,0,0,4.57,3.31h0A49.09,49.09,0,0,0,772.52,175a51.44,51.44,0,0,0,12.62-1.55h0a48.14,48.14,0,0,0,8.73-3.09A1.49,1.49,0,0,0,794.58,168.38Z"/><path class="cls-7" d="M758.48,187.14a.66.66,0,0,0,0,.14,17.47,17.47,0,0,0,7.6,1.74,17.66,17.66,0,0,0,9.52-2.8c-.6-3.09-4.19-5.47-8.52-5.47C762.34,180.75,758.48,183.61,758.48,187.14Z"/><path class="cls-6" d="M739.44,139.6a20,20,0,0,0,.57,3.84c2,7.92,8.52,13.12,14.52,11.59s9.25-9.18,7.23-17.11a18.75,18.75,0,0,0-2.68-6c-3-4.33-7.53-6.68-11.83-5.59C742.23,127.6,739.14,133.17,739.44,139.6Z"/><path class="cls-2" d="M738.44,139.6a82.47,82.47,0,0,0,21.65-8.47c-3.29-4.77-8.3-7.37-13-6.16C741.51,126.37,738.1,132.51,738.44,139.6Z"/><circle cx="755.34" cy="144.47" r="2.26"/><path class="cls-6" d="M775.76,137.06c1.42,7.6,6.61,13,11.58,12.07s7.86-7.84,6.44-15.44a20.17,20.17,0,0,0-.56-2.26c-1.92-6.37-6.55-10.65-11-9.81-3.44.65-5.88,4.16-6.59,8.79A20.23,20.23,0,0,0,775.76,137.06Z"/><path class="cls-2" d="M774.34,130.24a91.16,91.16,0,0,0,15.34,1.3c1.62,0,3.22,0,4.82-.12-2.2-7.3-7.5-12.19-12.62-11.23C777.94,120.92,775.14,125,774.34,130.24Z"/><circle cx="785.69" cy="139.94" r="2.26"/><path class="cls-8" d="M699.1,46.71c24.36-9.87,56.72,21.66,56.73,21.66C770.61,80,777.52,96.19,777.52,96.19L762.1,108.31l-43.25,2.93-3.36-6.39a33.59,33.59,0,0,1-3.84-16h0A28.41,28.41,0,0,1,689.85,76h0c-3.73,2.11-6.1,9.09-6.1,9.09l-11-4.74A42.4,42.4,0,0,1,699.1,46.71Z"/><path class="cls-9" d="M698.66,45.62c10.31-4.18,23.64-1.69,38.55,7.2a119.06,119.06,0,0,1,19.44,14.7v0a67.45,67.45,0,0,1,6.27,5.61,80.71,80.71,0,0,1,15.68,22.58,1.18,1.18,0,0,1-.62,1.54,1.14,1.14,0,0,1-.47.1,1.17,1.17,0,0,1-1.08-.72,80.13,80.13,0,0,0-15.24-21.9,69.23,69.23,0,0,0-6-5.38,1,1,0,0,1-.2-.15l0,0a50,50,0,0,0-41.28-10.33,1.18,1.18,0,0,1-.42-2.32,52.4,52.4,0,0,1,29.8,3C731.62,51.38,714,42,699.54,47.81,678.7,56.26,674.68,75.43,674,79.65l9,3.9c.8-2,2.61-5.8,5.2-7.87a22.38,22.38,0,0,1-1.47-2.87A1.18,1.18,0,0,1,689,72a27,27,0,0,0,21.57,15.59,26.62,26.62,0,0,1,5.65-14.87,1.17,1.17,0,0,1,1.66-.08,1.18,1.18,0,0,1,.08,1.67c-.1.11-10.47,11.85-1.42,30a1.18,1.18,0,0,1-.53,1.58,1.24,1.24,0,0,1-.53.12,1.2,1.2,0,0,1-1.06-.65,35.07,35.07,0,0,1-3.93-15.45,29.61,29.61,0,0,1-20.92-12.26c-2.34,2-4.17,6.2-4.73,7.84a1.15,1.15,0,0,1-.64.69,1.1,1.1,0,0,1-.47.1,1.27,1.27,0,0,1-.47-.09l-11-4.75a1.17,1.17,0,0,1-.7-1.18C671.61,80,673.91,55.65,698.66,45.62Z"/><path class="cls-6" d="M733.4,121.2a113.45,113.45,0,0,0,50.66-11.79,7.37,7.37,0,0,0-6.54-13.22,98.74,98.74,0,0,1-44.12,10.26,101,101,0,0,1-17.91-1.6,7.37,7.37,0,0,0-2.63,14.51A115.45,115.45,0,0,0,733.4,121.2Z"/><path class="cls-6" d="M733.4,121.2a113.45,113.45,0,0,0,50.66-11.79,7.37,7.37,0,0,0-6.54-13.22,98.74,98.74,0,0,1-44.12,10.26,101,101,0,0,1-17.91-1.6,7.37,7.37,0,0,0-2.63,14.51A115.45,115.45,0,0,0,733.4,121.2Z"/><path class="cls-10" d="M733.4,118.84a112.69,112.69,0,0,1-20.12-1.8,5,5,0,0,1-1.66-9.25,1.18,1.18,0,1,1,1.2,2,2.66,2.66,0,0,0,.88,4.9,112,112,0,0,0,41.89-.46,1.18,1.18,0,0,1,.48,2.31A113.2,113.2,0,0,1,733.4,118.84Z"/><circle class="cls-6" cx="675.78" cy="88.88" r="10.74"/><path class="cls-10" d="M675.78,97.48a8.61,8.61,0,0,1-8.42-10.36,1.18,1.18,0,1,1,2.31.48,6.11,6.11,0,0,0-.13,1.28,6.28,6.28,0,0,0,7,6.2,1.18,1.18,0,1,1,.29,2.34A9.2,9.2,0,0,1,675.78,97.48Z"/><path class="cls-2" d="M695.26,454.63a5,5,0,0,1-4.31-9l44.14-27.22,22.55-57.35a5,5,0,0,1,9.34,3.68L743.19,425.2l-47,29A4.9,4.9,0,0,1,695.26,454.63Z"/><rect class="cls-1" x="1000.06" width="500" height="500"/><path class="cls-2" d="M1267.93,471.55a5,5,0,0,1-2-5.75l18.93-58-11.08-48.06a5,5,0,0,1,9.78-2.25l11.69,50.78-19.79,60.66a5,5,0,0,1-6.32,3.21A4.84,4.84,0,0,1,1267.93,471.55Z"/><path class="cls-13" d="M1267.18,190a207.57,207.57,0,0,1-19.89,175.12c-.67,1.1-1.36,2.19-2.06,3.27A20.06,20.06,0,0,0,1280.16,388c.6-1.18,1.19-2.36,1.76-3.54a231.78,231.78,0,0,0,1-199.75"/><path class="cls-4" d="M1220.4,166.19c11.43,36.15,33.88,44.58,56.07,37.57s35.72-26.83,24.29-63-50.3-72.79-65.68-67.93S1209,130.05,1220.4,166.19Z"/><path class="cls-14" d="M1229.72,160.81c8.57,27.13,25.43,33.46,42.09,28.19s26.81-20.13,18.23-47.26-37.76-54.65-49.3-51S1221.14,133.68,1229.72,160.81Z"/><path class="cls-6" d="M1284.78,167a21,21,0,0,1-9.17,14.22,17.66,17.66,0,0,1-9.52,2.8,17.47,17.47,0,0,1-7.6-1.74c-6.71-3.22-11.41-10.59-11.41-19.17,0-.55,0-1.11.06-1.65,0,0,10.19,5.38,19.25,6.28A77.06,77.06,0,0,0,1284.78,167Z"/><path class="cls-2" d="M1294.58,163.38a1.47,1.47,0,0,0-2-.71,45.61,45.61,0,0,1-8.2,2.9h0a48.48,48.48,0,0,1-11.9,1.46,46.1,46.1,0,0,1-24.59-6.82h0a39.09,39.09,0,0,1-4.25-3.08,1.48,1.48,0,0,0-1.89,2.27,42.65,42.65,0,0,0,4.57,3.31h0a49.09,49.09,0,0,0,26.16,7.27,51.44,51.44,0,0,0,12.62-1.55h0a48.14,48.14,0,0,0,8.73-3.09A1.49,1.49,0,0,0,1294.58,163.38Z"/><path class="cls-7" d="M1258.48,182.14a.66.66,0,0,0,0,.14,17.47,17.47,0,0,0,7.6,1.74,17.66,17.66,0,0,0,9.52-2.8c-.6-3.09-4.19-5.47-8.52-5.47C1262.34,175.75,1258.48,178.61,1258.48,182.14Z"/><path class="cls-6" d="M1239.44,134.6a20,20,0,0,0,.57,3.84c2,7.92,8.52,13.12,14.52,11.59s9.25-9.18,7.23-17.11a18.75,18.75,0,0,0-2.68-6c-3-4.33-7.53-6.68-11.83-5.59C1242.23,122.6,1239.14,128.17,1239.44,134.6Z"/><path class="cls-2" d="M1238.44,134.6a82.47,82.47,0,0,0,21.65-8.47c-3.29-4.77-8.3-7.37-13-6.16C1241.51,121.37,1238.1,127.51,1238.44,134.6Z"/><circle cx="1255.34" cy="139.47" r="2.26"/><path class="cls-6" d="M1275.76,132.06c1.42,7.6,6.61,13,11.58,12.07s7.86-7.84,6.44-15.44a20.17,20.17,0,0,0-.56-2.26c-1.92-6.37-6.55-10.65-11-9.81-3.44.65-5.88,4.16-6.59,8.79A20.23,20.23,0,0,0,1275.76,132.06Z"/><path class="cls-2" d="M1274.34,125.24a91.16,91.16,0,0,0,15.34,1.3c1.62,0,3.22,0,4.82-.12-2.2-7.3-7.5-12.19-12.62-11.23C1277.94,115.92,1275.14,120,1274.34,125.24Z"/><circle cx="1285.69" cy="134.94" r="2.26"/><path class="cls-8" d="M1199.1,41.71c24.36-9.87,56.72,21.66,56.73,21.66,14.78,11.63,21.69,27.82,21.69,27.82l-15.42,12.12-43.25,2.93-3.36-6.39a33.59,33.59,0,0,1-3.84-16h0A28.41,28.41,0,0,1,1189.85,71h0c-3.73,2.11-6.1,9.09-6.1,9.09l-11-4.74A42.4,42.4,0,0,1,1199.1,41.71Z"/><path class="cls-9" d="M1198.66,40.62c10.31-4.18,23.64-1.69,38.55,7.2a119.06,119.06,0,0,1,19.44,14.7v0a67.45,67.45,0,0,1,6.27,5.61,80.71,80.71,0,0,1,15.68,22.58,1.18,1.18,0,0,1-.62,1.54,1.14,1.14,0,0,1-.47.1,1.17,1.17,0,0,1-1.08-.72,80.13,80.13,0,0,0-15.24-21.9,69.23,69.23,0,0,0-6-5.38,1,1,0,0,1-.2-.15l0,0a50,50,0,0,0-41.28-10.33,1.18,1.18,0,0,1-.42-2.32,52.4,52.4,0,0,1,29.8,3C1231.62,46.38,1214,37,1199.54,42.81c-20.84,8.45-24.86,27.62-25.5,31.84l9,3.9c.8-2,2.61-5.8,5.2-7.87a22.38,22.38,0,0,1-1.47-2.87A1.18,1.18,0,0,1,1189,67a27,27,0,0,0,21.57,15.59,26.62,26.62,0,0,1,5.65-14.87,1.17,1.17,0,0,1,1.66-.08,1.18,1.18,0,0,1,.08,1.67c-.1.11-10.47,11.85-1.42,30a1.18,1.18,0,0,1-.53,1.58,1.24,1.24,0,0,1-.53.12,1.2,1.2,0,0,1-1.06-.65,35.07,35.07,0,0,1-3.93-15.45,29.61,29.61,0,0,1-20.92-12.26c-2.34,2-4.17,6.2-4.73,7.84a1.15,1.15,0,0,1-.64.69,1.1,1.1,0,0,1-.47.1,1.27,1.27,0,0,1-.47-.09l-11-4.75a1.17,1.17,0,0,1-.7-1.18C1171.61,75,1173.91,50.65,1198.66,40.62Z"/><path class="cls-6" d="M1233.4,116.2a113.45,113.45,0,0,0,50.66-11.79,7.37,7.37,0,0,0-6.54-13.22,98.74,98.74,0,0,1-44.12,10.26,101,101,0,0,1-17.91-1.6,7.37,7.37,0,1,0-2.63,14.51A115.45,115.45,0,0,0,1233.4,116.2Z"/><path class="cls-6" d="M1233.4,116.2a113.45,113.45,0,0,0,50.66-11.79,7.37,7.37,0,0,0-6.54-13.22,98.74,98.74,0,0,1-44.12,10.26,101,101,0,0,1-17.91-1.6,7.37,7.37,0,1,0-2.63,14.51A115.45,115.45,0,0,0,1233.4,116.2Z"/><path class="cls-10" d="M1233.4,113.84a112.69,112.69,0,0,1-20.12-1.8,5,5,0,0,1-1.66-9.25,1.18,1.18,0,1,1,1.2,2,2.66,2.66,0,0,0,.88,4.9,112,112,0,0,0,41.89-.46,1.18,1.18,0,0,1,.48,2.31A113.2,113.2,0,0,1,1233.4,113.84Z"/><circle class="cls-6" cx="1175.78" cy="83.88" r="10.74"/><path class="cls-10" d="M1175.78,92.48a8.61,8.61,0,0,1-8.42-10.36,1.18,1.18,0,1,1,2.31.48,6.11,6.11,0,0,0-.13,1.28,6.28,6.28,0,0,0,7,6.2,1.18,1.18,0,1,1,.29,2.34A9.2,9.2,0,0,1,1175.78,92.48Z"/><path class="cls-2" d="M1219.2,462.7a5,5,0,0,1-6.38-7.66L1249,417.87l7.88-61.11a5,5,0,1,1,10,1.28l-8.31,64.43L1220,462A4.65,4.65,0,0,1,1219.2,462.7Z"/><rect class="cls-1" x="2500" width="500" height="500"/><path class="cls-2" d="M2683.55,435.16a5,5,0,0,1,3.22-5.18l57.05-21.66,30.47-38.78a5,5,0,0,1,7.89,6.2l-32.2,41-59.65,22.65a5,5,0,0,1-6.47-2.91A5.39,5.39,0,0,1,2683.55,435.16Z"/><path class="cls-15" d="M2767.13,204a207.64,207.64,0,0,1-19.9,175.12c-.67,1.1-1.36,2.19-2.06,3.27A20.06,20.06,0,0,0,2780.1,402c.61-1.18,1.19-2.36,1.76-3.54a231.69,231.69,0,0,0,1-199.75"/><path class="cls-4" d="M2720.34,180.19c11.43,36.15,33.88,44.58,56.07,37.57s35.72-26.83,24.29-63S2750.4,82,2735,86.85,2708.91,144.05,2720.34,180.19Z"/><path class="cls-16" d="M2729.66,174.81c8.58,27.13,25.43,33.46,42.09,28.19s26.81-20.13,18.23-47.26-37.75-54.65-49.3-51S2721.08,147.68,2729.66,174.81Z"/><path class="cls-6" d="M2784.72,181a21,21,0,0,1-9.17,14.22,17.53,17.53,0,0,1-17.12,1.06c-6.71-3.22-11.41-10.59-11.41-19.17,0-.55,0-1.11.06-1.65,0,0,10.2,5.38,19.25,6.28A77.06,77.06,0,0,0,2784.72,181Z"/><path class="cls-2" d="M2794.52,177.38a1.47,1.47,0,0,0-2-.71,45.78,45.78,0,0,1-8.19,2.9h0a48.48,48.48,0,0,1-11.9,1.46,46.1,46.1,0,0,1-24.59-6.82h0a39.09,39.09,0,0,1-4.25-3.08,1.48,1.48,0,0,0-1.89,2.27,42.65,42.65,0,0,0,4.57,3.31h0a49.09,49.09,0,0,0,26.16,7.27,51.44,51.44,0,0,0,12.62-1.55h0a48.14,48.14,0,0,0,8.73-3.09A1.49,1.49,0,0,0,2794.52,177.38Z"/><path class="cls-7" d="M2758.43,196.14v.14a17.53,17.53,0,0,0,17.12-1.06c-.6-3.09-4.19-5.47-8.52-5.47C2762.28,189.75,2758.43,192.61,2758.43,196.14Z"/><path class="cls-6" d="M2739.38,148.6a19.31,19.31,0,0,0,.58,3.84c2,7.92,8.51,13.12,14.51,11.59s9.25-9.18,7.24-17.11a19,19,0,0,0-2.69-6c-3-4.33-7.53-6.68-11.83-5.59C2742.17,136.6,2739.08,142.17,2739.38,148.6Z"/><path class="cls-2" d="M2738.38,148.6a82.47,82.47,0,0,0,21.65-8.47c-3.28-4.77-8.3-7.37-13-6.16C2741.45,135.37,2738.05,141.51,2738.38,148.6Z"/><circle cx="2755.28" cy="153.47" r="2.26"/><path class="cls-6" d="M2775.7,146.06c1.43,7.6,6.61,13,11.58,12.07s7.86-7.84,6.44-15.44a20.17,20.17,0,0,0-.56-2.26c-1.92-6.37-6.55-10.65-11-9.81-3.45.65-5.89,4.16-6.59,8.79A20,20,0,0,0,2775.7,146.06Z"/><path class="cls-2" d="M2774.28,139.24a91.16,91.16,0,0,0,15.34,1.3c1.62,0,3.23,0,4.82-.12-2.2-7.3-7.5-12.19-12.62-11.23C2777.88,129.92,2775.08,134,2774.28,139.24Z"/><circle cx="2785.63" cy="148.94" r="2.26"/><path class="cls-8" d="M2699,55.71c24.36-9.87,56.73,21.66,56.73,21.66,14.78,11.63,21.69,27.82,21.69,27.82L2762,117.31l-43.24,2.93-3.37-6.39a33.45,33.45,0,0,1-3.83-16h0A28.43,28.43,0,0,1,2689.79,85h0c-3.74,2.11-6.11,9.09-6.11,9.09l-11-4.74A42.4,42.4,0,0,1,2699,55.71Z"/><path class="cls-9" d="M2698.6,54.62c10.31-4.18,23.65-1.69,38.55,7.2a119.06,119.06,0,0,1,19.44,14.7l0,0a67.28,67.28,0,0,1,6.26,5.61,80.71,80.71,0,0,1,15.68,22.58,1.17,1.17,0,0,1-.62,1.54,1.1,1.1,0,0,1-.47.1,1.18,1.18,0,0,1-1.08-.72,80.13,80.13,0,0,0-15.24-21.9,69.23,69.23,0,0,0-6-5.38,1,1,0,0,1-.2-.15l0,0a50,50,0,0,0-41.28-10.33,1.18,1.18,0,1,1-.41-2.32,52.4,52.4,0,0,1,29.8,3c-11.46-8.14-29.09-17.57-43.54-11.71-20.84,8.45-24.85,27.62-25.49,31.84l9,3.9c.8-2,2.62-5.8,5.2-7.87a22.38,22.38,0,0,1-1.47-2.87A1.18,1.18,0,1,1,2689,81a27,27,0,0,0,21.57,15.59,26.62,26.62,0,0,1,5.65-14.87,1.18,1.18,0,1,1,1.74,1.59c-.1.11-10.47,11.85-1.42,30a1.18,1.18,0,0,1-.53,1.58,1.24,1.24,0,0,1-.53.12,1.2,1.2,0,0,1-1.06-.65,34.9,34.9,0,0,1-3.92-15.45,29.61,29.61,0,0,1-20.93-12.26c-2.34,2-4.17,6.2-4.73,7.84a1.12,1.12,0,0,1-.64.69,1.1,1.1,0,0,1-.47.1,1.27,1.27,0,0,1-.47-.09l-11-4.75a1.17,1.17,0,0,1-.7-1.18C2671.55,89,2673.85,64.65,2698.6,54.62Z"/><path class="cls-6" d="M2733.34,130.2A113.45,113.45,0,0,0,2784,118.41a7.37,7.37,0,1,0-6.54-13.22,98.71,98.71,0,0,1-44.12,10.26,101,101,0,0,1-17.91-1.6,7.37,7.37,0,0,0-2.63,14.51A115.45,115.45,0,0,0,2733.34,130.2Z"/><path class="cls-6" d="M2733.34,130.2A113.45,113.45,0,0,0,2784,118.41a7.37,7.37,0,1,0-6.54-13.22,98.71,98.71,0,0,1-44.12,10.26,101,101,0,0,1-17.91-1.6,7.37,7.37,0,0,0-2.63,14.51A115.45,115.45,0,0,0,2733.34,130.2Z"/><path class="cls-10" d="M2733.34,127.84a112.77,112.77,0,0,1-20.12-1.8,5,5,0,0,1-1.66-9.25,1.18,1.18,0,1,1,1.2,2,2.66,2.66,0,0,0,.88,4.9,112,112,0,0,0,41.89-.46,1.18,1.18,0,1,1,.48,2.31A113.2,113.2,0,0,1,2733.34,127.84Z"/><circle class="cls-6" cx="2675.72" cy="97.88" r="10.74"/><path class="cls-10" d="M2675.72,106.48a8.61,8.61,0,0,1-8.42-10.36,1.18,1.18,0,1,1,2.31.48,6.11,6.11,0,0,0-.13,1.28,6.25,6.25,0,0,0,6.24,6.24,6.45,6.45,0,0,0,.76,0,1.18,1.18,0,0,1,.28,2.34A9.07,9.07,0,0,1,2675.72,106.48Z"/><path class="cls-2" d="M2826.08,465.35a5,5,0,0,1-9.91,1.09l-11-50.67-46.61-40.31a5,5,0,1,1,6.56-7.58l49.14,42.5L2826,464.31A4.68,4.68,0,0,1,2826.08,465.35Z"/><rect class="cls-1" x="1500" width="500" height="500"/><path class="cls-2" d="M1729,460.4a5,5,0,0,1,.13-6.09l38.08-47.69,6.49-48.89a5,5,0,0,1,9.94,1.32l-6.86,51.65L1737,460.56a5,5,0,0,1-7,.79A4.86,4.86,0,0,1,1729,460.4Z"/><path class="cls-17" d="M1767.13,190a207.64,207.64,0,0,1-19.9,175.12c-.67,1.1-1.36,2.19-2.06,3.27A20.06,20.06,0,0,0,1780.1,388c.61-1.18,1.19-2.36,1.76-3.54a231.69,231.69,0,0,0,1-199.75"/><path class="cls-4" d="M1720.34,166.19c11.43,36.15,33.88,44.58,56.07,37.57s35.72-26.83,24.29-63S1750.4,68,1735,72.85,1708.91,130.05,1720.34,166.19Z"/><path class="cls-18" d="M1729.66,160.81c8.58,27.13,25.43,33.46,42.09,28.19s26.81-20.13,18.23-47.26-37.75-54.65-49.3-51S1721.08,133.68,1729.66,160.81Z"/><path class="cls-6" d="M1784.72,167a21,21,0,0,1-9.17,14.22,17.53,17.53,0,0,1-17.12,1.06c-6.71-3.22-11.41-10.59-11.41-19.17,0-.55,0-1.11.06-1.65,0,0,10.2,5.38,19.25,6.28A77.06,77.06,0,0,0,1784.72,167Z"/><path class="cls-2" d="M1794.52,163.38a1.47,1.47,0,0,0-2-.71,45.78,45.78,0,0,1-8.19,2.9h0a48.48,48.48,0,0,1-11.9,1.46,46.1,46.1,0,0,1-24.59-6.82h0a39.09,39.09,0,0,1-4.25-3.08,1.48,1.48,0,0,0-1.89,2.27,42.65,42.65,0,0,0,4.57,3.31h0a49.09,49.09,0,0,0,26.16,7.27,51.44,51.44,0,0,0,12.62-1.55h0a48.14,48.14,0,0,0,8.73-3.09A1.49,1.49,0,0,0,1794.52,163.38Z"/><path class="cls-7" d="M1758.43,182.14v.14a17.53,17.53,0,0,0,17.12-1.06c-.6-3.09-4.19-5.47-8.52-5.47C1762.28,175.75,1758.43,178.61,1758.43,182.14Z"/><path class="cls-6" d="M1739.38,134.6a19.31,19.31,0,0,0,.58,3.84c2,7.92,8.51,13.12,14.51,11.59s9.25-9.18,7.24-17.11a19,19,0,0,0-2.69-6c-3-4.33-7.53-6.68-11.83-5.59C1742.17,122.6,1739.08,128.17,1739.38,134.6Z"/><path class="cls-2" d="M1738.38,134.6a82.47,82.47,0,0,0,21.65-8.47c-3.28-4.77-8.3-7.37-13-6.16C1741.45,121.37,1738.05,127.51,1738.38,134.6Z"/><circle cx="1755.28" cy="139.47" r="2.26"/><path class="cls-6" d="M1775.7,132.06c1.43,7.6,6.61,13,11.58,12.07s7.86-7.84,6.44-15.44a20.17,20.17,0,0,0-.56-2.26c-1.92-6.37-6.55-10.65-11-9.81-3.45.65-5.89,4.16-6.59,8.79A20,20,0,0,0,1775.7,132.06Z"/><path class="cls-2" d="M1774.28,125.24a91.16,91.16,0,0,0,15.34,1.3c1.62,0,3.23,0,4.82-.12-2.2-7.3-7.5-12.19-12.62-11.23C1777.88,115.92,1775.08,120,1774.28,125.24Z"/><circle cx="1785.63" cy="134.94" r="2.26"/><path class="cls-8" d="M1699,41.71c24.36-9.87,56.73,21.66,56.73,21.66,14.78,11.63,21.69,27.82,21.69,27.82L1762,103.31l-43.24,2.93-3.37-6.39a33.45,33.45,0,0,1-3.83-16h0A28.43,28.43,0,0,1,1689.79,71h0c-3.74,2.11-6.11,9.09-6.11,9.09l-11-4.74A42.4,42.4,0,0,1,1699,41.71Z"/><path class="cls-9" d="M1698.6,40.62c10.31-4.18,23.65-1.69,38.55,7.2a119.06,119.06,0,0,1,19.44,14.7l0,0a67.28,67.28,0,0,1,6.26,5.61,80.71,80.71,0,0,1,15.68,22.58,1.17,1.17,0,0,1-.62,1.54,1.1,1.1,0,0,1-.47.1,1.18,1.18,0,0,1-1.08-.72,80.13,80.13,0,0,0-15.24-21.9,69.23,69.23,0,0,0-6-5.38,1,1,0,0,1-.2-.15l0,0a50,50,0,0,0-41.28-10.33,1.18,1.18,0,1,1-.41-2.32,52.4,52.4,0,0,1,29.8,3c-11.46-8.14-29.09-17.57-43.54-11.71-20.84,8.45-24.85,27.62-25.49,31.84l9,3.9c.8-2,2.62-5.8,5.2-7.87a22.38,22.38,0,0,1-1.47-2.87A1.18,1.18,0,1,1,1689,67a27,27,0,0,0,21.57,15.59,26.62,26.62,0,0,1,5.65-14.87,1.18,1.18,0,1,1,1.74,1.59c-.1.11-10.47,11.85-1.42,30a1.18,1.18,0,0,1-.53,1.58,1.24,1.24,0,0,1-.53.12,1.2,1.2,0,0,1-1.06-.65,34.9,34.9,0,0,1-3.92-15.45,29.61,29.61,0,0,1-20.93-12.26c-2.34,2-4.17,6.2-4.73,7.84a1.12,1.12,0,0,1-.64.69,1.1,1.1,0,0,1-.47.1,1.27,1.27,0,0,1-.47-.09l-11-4.75a1.17,1.17,0,0,1-.7-1.18C1671.55,75,1673.85,50.65,1698.6,40.62Z"/><path class="cls-6" d="M1733.34,116.2A113.45,113.45,0,0,0,1784,104.41a7.37,7.37,0,0,0-6.54-13.22,98.71,98.71,0,0,1-44.12,10.26,101,101,0,0,1-17.91-1.6,7.37,7.37,0,0,0-2.63,14.51A115.45,115.45,0,0,0,1733.34,116.2Z"/><path class="cls-6" d="M1733.34,116.2A113.45,113.45,0,0,0,1784,104.41a7.37,7.37,0,0,0-6.54-13.22,98.71,98.71,0,0,1-44.12,10.26,101,101,0,0,1-17.91-1.6,7.37,7.37,0,0,0-2.63,14.51A115.45,115.45,0,0,0,1733.34,116.2Z"/><path class="cls-10" d="M1733.34,113.84a112.77,112.77,0,0,1-20.12-1.8,5,5,0,0,1-1.66-9.25,1.18,1.18,0,1,1,1.2,2,2.66,2.66,0,0,0,.88,4.9,112,112,0,0,0,41.89-.46,1.18,1.18,0,1,1,.48,2.31A113.2,113.2,0,0,1,1733.34,113.84Z"/><circle class="cls-6" cx="1675.72" cy="83.88" r="10.74"/><path class="cls-10" d="M1675.72,92.48a8.61,8.61,0,0,1-8.42-10.36,1.18,1.18,0,1,1,2.31.48,6.11,6.11,0,0,0-.13,1.28,6.25,6.25,0,0,0,6.24,6.24,6.45,6.45,0,0,0,.76,0,1.18,1.18,0,0,1,.28,2.34A9.07,9.07,0,0,1,1675.72,92.48Z"/><path class="cls-2" d="M1760.37,470.55a5,5,0,0,1-8.72-4.84L1771.93,418l-14.76-59.83a5,5,0,0,1,9.74-2.4l15.55,63.08-21.58,50.8A4.82,4.82,0,0,1,1760.37,470.55Z"/><rect class="cls-1" x="1999.94" width="500" height="500"/><path class="cls-2" d="M2211.22,452.77a5,5,0,0,1,1.24-6l46.18-39.89L2274,360.05a5,5,0,1,1,9.53,3.12l-16.23,49.52L2219,454.4a5,5,0,0,1-7.07-.52A4.9,4.9,0,0,1,2211.22,452.77Z"/><path class="cls-19" d="M2267.07,193a207.64,207.64,0,0,1-19.9,175.12c-.67,1.1-1.36,2.19-2.06,3.27A20.07,20.07,0,0,0,2280.05,391c.6-1.18,1.18-2.36,1.75-3.54a231.69,231.69,0,0,0,1-199.75"/><path class="cls-4" d="M2220.28,169.19c11.43,36.15,33.88,44.58,56.07,37.57s35.72-26.83,24.29-63S2250.35,71,2235,75.85,2208.85,133.05,2220.28,169.19Z"/><path class="cls-20" d="M2229.6,163.81c8.58,27.13,25.43,33.46,42.09,28.19s26.81-20.13,18.23-47.26-37.75-54.65-49.3-51S2221,136.68,2229.6,163.81Z"/><path class="cls-6" d="M2284.66,170a20.94,20.94,0,0,1-9.17,14.22,17.53,17.53,0,0,1-17.12,1.06c-6.71-3.22-11.41-10.59-11.41-19.17,0-.55,0-1.11.06-1.65,0,0,10.2,5.38,19.25,6.28A77,77,0,0,0,2284.66,170Z"/><path class="cls-2" d="M2294.46,166.38a1.47,1.47,0,0,0-2-.71,45.78,45.78,0,0,1-8.19,2.9h0a48.46,48.46,0,0,1-11.89,1.46,46.11,46.11,0,0,1-24.6-6.82h0a39.09,39.09,0,0,1-4.25-3.08,1.48,1.48,0,0,0-1.89,2.27,42.65,42.65,0,0,0,4.57,3.31h0a49.1,49.1,0,0,0,26.17,7.27,51.42,51.42,0,0,0,12.61-1.55h0a48.14,48.14,0,0,0,8.73-3.09A1.48,1.48,0,0,0,2294.46,166.38Z"/><path class="cls-7" d="M2258.37,185.14v.14a17.53,17.53,0,0,0,17.12-1.06c-.59-3.09-4.19-5.47-8.52-5.47C2262.22,178.75,2258.37,181.61,2258.37,185.14Z"/><path class="cls-6" d="M2239.33,137.6a18.58,18.58,0,0,0,.57,3.84c2,7.92,8.51,13.12,14.51,11.59s9.25-9.18,7.24-17.11a19,19,0,0,0-2.69-6c-3-4.33-7.52-6.68-11.82-5.59C2242.11,125.6,2239,131.17,2239.33,137.6Z"/><path class="cls-2" d="M2238.32,137.6a82.47,82.47,0,0,0,21.65-8.47c-3.28-4.77-8.3-7.37-13-6.16C2241.39,124.37,2238,130.51,2238.32,137.6Z"/><circle cx="2255.22" cy="142.47" r="2.26"/><path class="cls-6" d="M2275.64,135.06c1.43,7.6,6.61,13,11.58,12.07s7.86-7.84,6.44-15.44a22.6,22.6,0,0,0-.55-2.26c-1.93-6.37-6.56-10.65-11-9.81-3.45.65-5.89,4.16-6.59,8.79A20,20,0,0,0,2275.64,135.06Z"/><path class="cls-2" d="M2274.22,128.24a91.25,91.25,0,0,0,15.34,1.3c1.62,0,3.23,0,4.82-.12-2.2-7.3-7.5-12.19-12.61-11.23C2277.82,118.92,2275,123,2274.22,128.24Z"/><circle cx="2285.57" cy="137.94" r="2.26"/><path class="cls-8" d="M2199,44.71c24.37-9.87,56.73,21.66,56.73,21.66,14.78,11.63,21.69,27.82,21.69,27.82L2262,106.31l-43.24,2.93-3.37-6.39a33.45,33.45,0,0,1-3.83-16h0A28.43,28.43,0,0,1,2189.73,74h0c-3.74,2.11-6.11,9.09-6.11,9.09l-11-4.74A42.4,42.4,0,0,1,2199,44.71Z"/><path class="cls-9" d="M2198.54,43.62c10.32-4.18,23.65-1.69,38.55,7.2a118.53,118.53,0,0,1,19.44,14.7l0,0a66,66,0,0,1,6.26,5.61,80.71,80.71,0,0,1,15.68,22.58,1.17,1.17,0,0,1-.62,1.54,1.1,1.1,0,0,1-.47.1,1.18,1.18,0,0,1-1.08-.72,80.13,80.13,0,0,0-15.24-21.9,70.64,70.64,0,0,0-6-5.38.8.8,0,0,1-.21-.15l0,0a50,50,0,0,0-41.28-10.33,1.18,1.18,0,1,1-.41-2.32,52.4,52.4,0,0,1,29.8,3c-11.45-8.14-29.09-17.57-43.53-11.71-20.85,8.45-24.86,27.62-25.5,31.84l9,3.9c.79-2,2.61-5.8,5.2-7.87a21.8,21.8,0,0,1-1.48-2.87,1.19,1.19,0,0,1,.7-1.52,1.17,1.17,0,0,1,1.51.69,27,27,0,0,0,21.57,15.59,26.71,26.71,0,0,1,5.65-14.87,1.18,1.18,0,1,1,1.74,1.59c-.1.11-10.47,11.85-1.42,30a1.18,1.18,0,0,1-.53,1.58,1.24,1.24,0,0,1-.53.12,1.17,1.17,0,0,1-1-.65,34.79,34.79,0,0,1-3.93-15.45,29.64,29.64,0,0,1-20.93-12.26c-2.34,2-4.17,6.2-4.73,7.84a1.13,1.13,0,0,1-.63.69,1.18,1.18,0,0,1-.48.1,1.27,1.27,0,0,1-.47-.09l-11-4.75a1.18,1.18,0,0,1-.71-1.18C2171.49,78,2173.79,53.65,2198.54,43.62Z"/><path class="cls-6" d="M2233.28,119.2a113.42,113.42,0,0,0,50.66-11.79,7.37,7.37,0,1,0-6.54-13.22,98.71,98.71,0,0,1-44.12,10.26,101,101,0,0,1-17.91-1.6,7.37,7.37,0,0,0-2.63,14.51A115.45,115.45,0,0,0,2233.28,119.2Z"/><path class="cls-6" d="M2233.28,119.2a113.42,113.42,0,0,0,50.66-11.79,7.37,7.37,0,1,0-6.54-13.22,98.71,98.71,0,0,1-44.12,10.26,101,101,0,0,1-17.91-1.6,7.37,7.37,0,0,0-2.63,14.51A115.45,115.45,0,0,0,2233.28,119.2Z"/><path class="cls-10" d="M2233.28,116.84a112.77,112.77,0,0,1-20.12-1.8,5,5,0,0,1-1.65-9.25,1.18,1.18,0,0,1,1.2,2,2.65,2.65,0,0,0,.87,4.9,112,112,0,0,0,41.9-.46,1.17,1.17,0,0,1,1.39.91,1.19,1.19,0,0,1-.92,1.4A113.2,113.2,0,0,1,2233.28,116.84Z"/><circle class="cls-6" cx="2175.66" cy="86.88" r="10.74"/><path class="cls-10" d="M2175.66,95.48a8.61,8.61,0,0,1-8.42-10.36,1.19,1.19,0,0,1,1.4-.92,1.18,1.18,0,0,1,.91,1.4,6.11,6.11,0,0,0-.13,1.28,6.25,6.25,0,0,0,6.24,6.24,6.45,6.45,0,0,0,.76,0,1.18,1.18,0,0,1,.28,2.34A8.94,8.94,0,0,1,2175.66,95.48Z"/><path class="cls-2" d="M2294.11,469.12a5,5,0,0,1-9.78-2l5-51.61-32.1-52.61a5,5,0,1,1,8.56-5.22l33.84,55.46-5.28,54.94A4.94,4.94,0,0,1,2294.11,469.12Z"/><rect class="cls-1" x="3000" width="500" height="500"/><path class="cls-2" d="M3176.76,441.43a5,5,0,0,1,3.85-4.72l59.37-14.1,35.24-34.51a5,5,0,0,1,7,7.16L3245,431.72l-62.08,14.75a5,5,0,0,1-6-3.72A4.56,4.56,0,0,1,3176.76,441.43Z"/><path class="cls-21" d="M3267.13,223a207.64,207.64,0,0,1-19.9,175.12c-.67,1.1-1.36,2.19-2.06,3.27A20.06,20.06,0,0,0,3280.1,421c.61-1.18,1.19-2.36,1.76-3.54a231.69,231.69,0,0,0,1-199.75"/><path class="cls-4" d="M3220.34,199.19c11.43,36.14,33.88,44.57,56.07,37.56s35.72-26.83,24.29-63S3250.4,101,3235,105.84,3208.91,163,3220.34,199.19Z"/><path class="cls-22" d="M3229.66,193.8c8.58,27.13,25.43,33.46,42.09,28.19s26.81-20.13,18.23-47.26-37.75-54.65-49.3-51S3221.08,166.67,3229.66,193.8Z"/><path class="cls-6" d="M3284.72,200a20.93,20.93,0,0,1-9.17,14.22,17.53,17.53,0,0,1-17.12,1.06c-6.71-3.22-11.41-10.59-11.41-19.17,0-.55,0-1.11.06-1.65,0,0,10.2,5.38,19.25,6.28A77.06,77.06,0,0,0,3284.72,200Z"/><path class="cls-2" d="M3294.52,196.37a1.47,1.47,0,0,0-2-.71,45.78,45.78,0,0,1-8.19,2.9h0a48.48,48.48,0,0,1-11.9,1.46,46.1,46.1,0,0,1-24.59-6.82h0a40.4,40.4,0,0,1-4.25-3.07,1.47,1.47,0,1,0-1.89,2.26,42.65,42.65,0,0,0,4.57,3.31h0a49.09,49.09,0,0,0,26.16,7.27,51.44,51.44,0,0,0,12.62-1.55h0a48.14,48.14,0,0,0,8.73-3.09A1.49,1.49,0,0,0,3294.52,196.37Z"/><path class="cls-7" d="M3258.43,215.13v.14a17.53,17.53,0,0,0,17.12-1.06c-.6-3.09-4.19-5.47-8.52-5.47C3262.28,208.74,3258.43,211.6,3258.43,215.13Z"/><path class="cls-6" d="M3239.38,167.59a19.31,19.31,0,0,0,.58,3.84c2,7.93,8.51,13.12,14.51,11.59s9.25-9.18,7.24-17.11a19,19,0,0,0-2.69-6c-3-4.33-7.53-6.68-11.83-5.59C3242.17,155.59,3239.08,161.16,3239.38,167.59Z"/><path class="cls-2" d="M3238.38,167.59a82.47,82.47,0,0,0,21.65-8.47c-3.28-4.77-8.3-7.37-13-6.16C3241.45,154.36,3238.05,160.5,3238.38,167.59Z"/><circle cx="3255.28" cy="172.46" r="2.26"/><path class="cls-6" d="M3275.7,165.05c1.43,7.6,6.61,13,11.58,12.07s7.86-7.84,6.44-15.44a20.17,20.17,0,0,0-.56-2.26c-1.92-6.37-6.55-10.64-11-9.81-3.45.65-5.89,4.16-6.59,8.79A20,20,0,0,0,3275.7,165.05Z"/><path class="cls-2" d="M3274.28,158.23a91.16,91.16,0,0,0,15.34,1.3c1.62,0,3.23,0,4.82-.12-2.2-7.3-7.5-12.19-12.62-11.23C3277.88,148.91,3275.08,152.94,3274.28,158.23Z"/><circle cx="3285.63" cy="167.93" r="2.26"/><path class="cls-8" d="M3199,74.7c24.36-9.87,56.73,21.66,56.73,21.66,14.78,11.63,21.69,27.82,21.69,27.82L3262,136.3l-43.24,2.94-3.37-6.4a33.45,33.45,0,0,1-3.83-16h0A28.43,28.43,0,0,1,3189.79,104h0c-3.74,2.11-6.11,9.1-6.11,9.1l-11-4.75A42.4,42.4,0,0,1,3199,74.7Z"/><path class="cls-9" d="M3198.6,73.61c10.31-4.18,23.65-1.69,38.55,7.21a117.78,117.78,0,0,1,19.44,14.7h0a67.28,67.28,0,0,1,6.26,5.61,80.87,80.87,0,0,1,15.68,22.58,1.19,1.19,0,0,1-.62,1.55,1.27,1.27,0,0,1-.47.09,1.18,1.18,0,0,1-1.08-.72,80.13,80.13,0,0,0-15.24-21.9,67.48,67.48,0,0,0-6-5.37,1.56,1.56,0,0,1-.2-.16l0,0a50,50,0,0,0-41.28-10.33,1.18,1.18,0,1,1-.41-2.32,52.4,52.4,0,0,1,29.8,3c-11.46-8.14-29.09-17.57-43.54-11.71-20.84,8.45-24.85,27.62-25.49,31.84l9,3.9c.8-2,2.62-5.8,5.2-7.87a22.38,22.38,0,0,1-1.47-2.87A1.18,1.18,0,1,1,3189,100a27,27,0,0,0,21.57,15.59,26.62,26.62,0,0,1,5.65-14.87,1.18,1.18,0,1,1,1.74,1.59c-.1.11-10.47,11.85-1.42,30a1.18,1.18,0,0,1-.53,1.58,1.24,1.24,0,0,1-.53.12,1.2,1.2,0,0,1-1.06-.65,34.9,34.9,0,0,1-3.92-15.45,29.61,29.61,0,0,1-20.93-12.26c-2.34,2-4.17,6.2-4.73,7.84a1.12,1.12,0,0,1-.64.69,1,1,0,0,1-.47.1,1.27,1.27,0,0,1-.47-.09l-11-4.75a1.17,1.17,0,0,1-.7-1.18C3171.55,108,3173.85,83.64,3198.6,73.61Z"/><path class="cls-6" d="M3233.34,149.19A113.32,113.32,0,0,0,3284,137.4a7.37,7.37,0,1,0-6.54-13.22,98.71,98.71,0,0,1-44.12,10.26,100.08,100.08,0,0,1-17.91-1.6,7.37,7.37,0,1,0-2.63,14.51A115.45,115.45,0,0,0,3233.34,149.19Z"/><path class="cls-6" d="M3233.34,149.19A113.32,113.32,0,0,0,3284,137.4a7.37,7.37,0,1,0-6.54-13.22,98.71,98.71,0,0,1-44.12,10.26,100.08,100.08,0,0,1-17.91-1.6,7.37,7.37,0,1,0-2.63,14.51A115.45,115.45,0,0,0,3233.34,149.19Z"/><path class="cls-10" d="M3233.34,146.83a112.77,112.77,0,0,1-20.12-1.8,5,5,0,0,1-1.66-9.25,1.18,1.18,0,1,1,1.2,2,2.66,2.66,0,0,0,.88,4.9,112,112,0,0,0,41.89-.46,1.18,1.18,0,1,1,.48,2.31A113.2,113.2,0,0,1,3233.34,146.83Z"/><circle class="cls-6" cx="3175.72" cy="116.87" r="10.74"/><path class="cls-10" d="M3175.72,125.47a8.61,8.61,0,0,1-8.42-10.36,1.18,1.18,0,0,1,2.31.48,6.11,6.11,0,0,0-.13,1.28,6.25,6.25,0,0,0,6.24,6.24,6.45,6.45,0,0,0,.76,0,1.18,1.18,0,1,1,.28,2.34A9.07,9.07,0,0,1,3175.72,125.47Z"/><path class="cls-2" d="M3346.51,465.92a5,5,0,0,1-9.37,3.43l-22.89-46.52-54.94-27.91a5,5,0,1,1,4.54-8.94l57.92,29.42,24.37,49.53A5.14,5.14,0,0,1,3346.51,465.92Z"/></g></svg>
