<svg id="Figurelementer" xmlns="http://www.w3.org/2000/svg" xmlns:xlink="http://www.w3.org/1999/xlink" width="360" height="740" viewBox="0 0 360 740"><defs><style>.cls-1{fill:#aa987a;}.cls-2{fill:url(#linear-gradient);}.cls-3{fill:#e2cba2;}.cls-4{fill:url(#linear-gradient-2);}.cls-5{fill:#fff;}.cls-6{fill:#f99;}.cls-7{fill:red;}.cls-8{fill:#d20000;}.cls-9{fill:#f1f1f1;}</style><linearGradient id="linear-gradient" x1="90.28" y1="482.21" x2="195.28" y2="482.21" gradientUnits="userSpaceOnUse"><stop offset="0" stop-color="#e2cba2"/><stop offset="0.35" stop-color="#dfc9a0"/><stop offset="0.58" stop-color="#d7c19a"/><stop offset="0.77" stop-color="#c8b38f"/><stop offset="0.94" stop-color="#b3a081"/><stop offset="1" stop-color="#aa987a"/></linearGradient><linearGradient id="linear-gradient-2" x1="197.16" y1="287.01" x2="163.67" y2="409.24" gradientTransform="translate(17.33 -142.97) rotate(3.36)" gradientUnits="userSpaceOnUse"><stop offset="0" stop-color="#aa987a"/><stop offset="1" stop-color="#aa987a" stop-opacity="0"/></linearGradient></defs><title>Nisskefar</title><g id="Nisskefar"><path class="cls-1" d="M236.37,719.83a5.5,5.5,0,0,1-5.45-4.77c-.07-.54-7.21-54-11.45-86.24-1.59-12.1-13.7-29.53-35-50.4a405.62,405.62,0,0,0-33.07-28.83,5.5,5.5,0,0,1,6.66-8.75c2.77,2.11,67.81,52,72.35,86.54,4.23,32.27,11.37,85.69,11.44,86.22a5.49,5.49,0,0,1-4.72,6.18A4.56,4.56,0,0,1,236.37,719.83Z"/><path class="cls-1" d="M58.41,719.83A5.51,5.51,0,0,1,53,714.94c-1.77-15.92,3.46-56.3,9.28-86.22,6-30.72,34.61-79.24,35.83-81.29a5.5,5.5,0,0,1,9.46,5.61c-.29.49-28.88,48.93-34.49,77.78-5.74,29.53-10.73,68.61-9.14,82.9A5.51,5.51,0,0,1,59,719.8Z"/><path class="cls-2" d="M154.47,310.83a351.91,351.91,0,0,0,33.72,296.88q1.71,2.79,3.49,5.54a34,34,0,0,1-59.22,33.3q-1.53-3-3-6a392.87,392.87,0,0,1-1.68-338.62"/><path class="cls-3" d="M233.78,270.5c-19.37,61.28-57.44,75.57-95.06,63.67S78.17,288.7,97.55,227.42,182.81,104,208.89,112.26,253.16,209.22,233.78,270.5Z"/><path class="cls-4" d="M218,261.37c-14.54,46-43.11,56.72-71.35,47.79S101.18,275,115.73,229s64-92.63,83.57-86.44S232.53,215.37,218,261.37Z"/><path class="cls-1" d="M124.64,274.36a2.54,2.54,0,0,1-.61-.07A81.73,81.73,0,0,1,109.24,269a2.49,2.49,0,1,1,2.11-4.52,77.12,77.12,0,0,0,13.89,4.91,2.5,2.5,0,0,1-.6,4.93Z"/><path class="cls-1" d="M188.45,265a2.5,2.5,0,0,1-1.34-4.62,65.94,65.94,0,0,0,7.21-5.21,2.5,2.5,0,1,1,3.19,3.84,73.42,73.42,0,0,1-7.73,5.61A2.52,2.52,0,0,1,188.45,265Z"/><path class="cls-5" d="M124.63,271.86A35.54,35.54,0,0,0,140.18,296a29.71,29.71,0,0,0,29,1.8c11.38-5.47,19.34-18,19.34-32.5,0-.94,0-1.88-.1-2.8,0,0-17.28,9.12-32.63,10.65S124.63,271.86,124.63,271.86Z"/><path class="cls-1" d="M145.41,276.91A87.09,87.09,0,0,1,124,274.28a2.5,2.5,0,1,1,1.23-4.84,82.39,82.39,0,0,0,20.16,2.47,78.18,78.18,0,0,0,41.7-11.56,2.5,2.5,0,0,1,2.66,4.24A83.19,83.19,0,0,1,145.41,276.91Z"/><path class="cls-6" d="M169.21,297.52a2.09,2.09,0,0,1,0,.25,29.71,29.71,0,0,1-29-1.8c1-5.24,7.1-9.27,14.44-9.27C162.68,286.7,169.21,291.54,169.21,297.52Z"/><path class="cls-5" d="M201.49,216.94a33.19,33.19,0,0,1-1,6.5c-3.41,13.44-14.43,22.24-24.61,19.65s-15.67-15.56-12.26-29a31.76,31.76,0,0,1,4.55-10.17c5.05-7.34,12.76-11.33,20.05-9.48C196.77,196.6,202,206,201.49,216.94Z"/><path class="cls-1" d="M203.2,216.94a140,140,0,0,1-36.71-14.36c5.57-8.09,14.07-12.49,22.11-10.45C198,194.51,203.76,204.92,203.2,216.94Z"/><circle cx="174.55" cy="225.19" r="3.84"/><path class="cls-5" d="M139.92,212.63c-2.41,12.88-11.2,22-19.63,20.46S107,219.8,109.38,206.92a35.12,35.12,0,0,1,.94-3.83c3.26-10.81,11.11-18.05,18.68-16.63,5.84,1.09,10,7,11.17,14.89A33.64,33.64,0,0,1,139.92,212.63Z"/><path class="cls-1" d="M142.34,201.07a154.71,154.71,0,0,1-26,2.2q-4.12,0-8.18-.21c3.73-12.37,12.72-20.66,21.39-19C136.23,185.27,141,192.1,142.34,201.07Z"/><circle cx="123.09" cy="217.52" r="3.84"/><path class="cls-7" d="M269.88,59.47c-41.3-16.74-96.16,36.71-96.16,36.72-25.06,19.7-36.78,47.16-36.78,47.16l26.15,20.55,73.31,5L242.1,158c5.12-10.3,6.71-19.42,6.5-27.07h0c21-2,32-14.19,36.95-21.79h0c6.32,3.59,10.35,15.42,10.35,15.42l18.6-8S311.19,76.22,269.88,59.47Z"/><path class="cls-8" d="M270.64,57.62c-17.49-7.09-40.09-2.87-65.35,12.21a200,200,0,0,0-33,24.92l0,0a115.9,115.9,0,0,0-10.62,9.5,137,137,0,0,0-26.58,38.28,2,2,0,0,0,1.06,2.63,2.13,2.13,0,0,0,.78.16,2,2,0,0,0,1.84-1.22A135.45,135.45,0,0,1,164.62,107a113.71,113.71,0,0,1,10.14-9.11,3,3,0,0,0,.35-.27l.07-.07c20.64-16.23,44.12-22.12,70-17.5a2,2,0,1,0,.7-3.94c-19.69-3.52-36.53-.71-50.51,5.07,19.41-13.8,49.31-29.78,73.79-19.85,35.33,14.32,42.14,46.82,43.23,54l-15.31,6.62c-1.35-3.31-4.42-9.83-8.81-13.34a33.51,33.51,0,0,0,2.49-4.87,2,2,0,1,0-3.74-1.4c-.09.23-8.85,22.74-36.57,26.42-1.17-15.7-9.44-25.07-9.57-25.21a2,2,0,0,0-3,2.69c.18.2,17.76,20.09,2.42,50.93a2,2,0,0,0,.9,2.68,2,2,0,0,0,.89.21,2,2,0,0,0,1.79-1.11,59,59,0,0,0,6.66-26.18c19-2.4,30-13.08,35.48-20.8,4,3.37,7.06,10.53,8,13.29a2,2,0,0,0,1.08,1.19,2.06,2.06,0,0,0,.81.17,2,2,0,0,0,.79-.17l18.61-8a2,2,0,0,0,1.2-2C316.49,116,312.59,74.63,270.64,57.62Z"/><path class="cls-5" d="M211.74,185.75a192.17,192.17,0,0,1-85.87-20,12.5,12.5,0,1,1,11.07-22.41,167.48,167.48,0,0,0,74.8,17.4A170.88,170.88,0,0,0,242.1,158a12.5,12.5,0,1,1,4.46,24.6A195.62,195.62,0,0,1,211.74,185.75Z"/><path class="cls-5" d="M211.74,185.75a192.17,192.17,0,0,1-85.87-20,12.5,12.5,0,1,1,11.07-22.41,167.48,167.48,0,0,0,74.8,17.4A170.88,170.88,0,0,0,242.1,158a12.5,12.5,0,1,1,4.46,24.6A195.62,195.62,0,0,1,211.74,185.75Z"/><path class="cls-9" d="M211.74,181.75a191.8,191.8,0,0,1-38.43-3.86,2,2,0,0,1,.81-3.92,189.63,189.63,0,0,0,71,.79,4.51,4.51,0,0,0,1.49-8.31,2,2,0,0,1,2-3.44,8.5,8.5,0,0,1-2.81,15.68A191.46,191.46,0,0,1,211.74,181.75Z"/><circle class="cls-5" cx="309.43" cy="130.96" r="18.21"/><path class="cls-9" d="M309.43,145.54a14.89,14.89,0,0,1-1.77-.11,2,2,0,1,1,.48-4,11,11,0,0,0,1.29.08A10.59,10.59,0,0,0,320,131a11.43,11.43,0,0,0-.22-2.18,2,2,0,0,1,3.91-.81,14.25,14.25,0,0,1,.31,3A14.59,14.59,0,0,1,309.43,145.54Z"/></g></svg>
