<svg xmlns="http://www.w3.org/2000/svg" xmlns:xlink="http://www.w3.org/1999/xlink" width="1920" height="1080" viewBox="0 0 1920 1080"><defs><style>.cls-1{fill:#fff;}.cls-2{filter:url(#AI_GaussianBlur_7);}.cls-3{fill:url(#linear-gradient);}.cls-4{fill:#008748;}.cls-5{fill:#006837;}.cls-6{fill:#a57c52;}.cls-7{fill:#004e29;}.cls-8{fill:#e92c0c;}.cls-9{fill:#d20000;}.cls-10{fill:#fbed21;}.cls-11{fill:#9e0000;}.cls-12{fill:#8b6239;}</style><filter id="AI_GaussianBlur_7" name="AI_GaussianBlur_7"><feGaussianBlur stdDeviation="7"/></filter><linearGradient id="linear-gradient" x1="960" y1="1034.5" x2="960" y2="-18.36" gradientUnits="userSpaceOnUse"><stop offset="0" stop-color="#76828f"/><stop offset="0.06" stop-color="#697684"/><stop offset="0.21" stop-color="#4b5b6c"/><stop offset="0.38" stop-color="#344558"/><stop offset="0.56" stop-color="#23364b"/><stop offset="0.75" stop-color="#192d43"/><stop offset="1" stop-color="#162a40"/></linearGradient></defs><title>Settings screen</title><g id="Titelskærm"><g id="Baggrund"><circle class="cls-1" cx="625.05" cy="481.04" r="18.48"/></g><g id="Midgrund"><g id="Titelboks"><g class="cls-2"><rect class="cls-3" y="-18.36" width="1920" height="1052.86"/><circle class="cls-1" cx="1762.46" cy="249.35" r="3.19"/><circle class="cls-1" cx="1796.61" cy="408.14" r="1.52"/><circle class="cls-1" cx="1667.57" cy="635.67" r="3.07"/><circle class="cls-1" cx="1602.73" cy="924.93" r="3.23"/><circle class="cls-1" cx="1577.04" cy="627.53" r="2.85"/><circle class="cls-1" cx="1385.3" cy="571.58" r="5.28"/><circle class="cls-1" cx="1496.79" cy="362.56" r="5.67"/><circle class="cls-1" cx="1405.61" cy="213.3" r="5.53"/><circle class="cls-1" cx="1232.54" cy="138.69" r="1.4"/><circle class="cls-1" cx="1030.6" cy="211.25" r="2.18"/><circle class="cls-1" cx="957.03" cy="361.75" r="2.12"/><circle class="cls-1" cx="1060.07" cy="546.21" r="3.86"/><circle class="cls-1" cx="738.17" cy="554.83" r="5.66"/><circle class="cls-1" cx="813.48" cy="602.56" r="2.67"/><circle class="cls-1" cx="795.09" cy="464.69" r="2.62"/><circle class="cls-1" cx="582.32" cy="485.4" r="4.77"/><circle class="cls-1" cx="408.92" cy="425.15" r="3.7"/><circle class="cls-1" cx="523.9" cy="176.18" r="4.3"/><circle class="cls-1" cx="339.02" cy="188.12" r="5.35"/><circle class="cls-1" cx="206.61" cy="241.73" r="4.92"/><circle class="cls-1" cx="301.38" cy="258.4" r="3.1"/><circle class="cls-1" cx="96.84" cy="482.03" r="5.58"/><circle class="cls-1" cx="331.26" cy="535.19" r="1.87"/><circle class="cls-1" cx="344.28" cy="722.88" r="2.92"/><circle class="cls-1" cx="139.96" cy="841.24" r="4.16"/><circle class="cls-1" cx="57.31" cy="644.57" r="5.57"/><circle class="cls-1" cx="75.26" cy="514.7" r="2.87"/><circle class="cls-1" cx="58.03" cy="359.26" r="4.66"/><circle class="cls-1" cx="89.29" cy="190.47" r="3.62"/><circle class="cls-1" cx="280.06" cy="151.66" r="5.14"/><circle class="cls-1" cx="370.61" cy="33.14" r="2.42"/><circle class="cls-1" cx="544.69" cy="35.37" r="5.39"/><circle class="cls-1" cx="682.88" cy="160.43" r="3.56"/><circle class="cls-1" cx="1088.45" cy="121.86" r="2.02"/><circle class="cls-1" cx="1363.97" cy="8.55" r="5.32"/><circle class="cls-1" cx="1496.42" cy="130.04" r="1.39"/><circle class="cls-1" cx="1610.72" cy="185.81" r="5.29"/><circle class="cls-1" cx="1737.95" cy="171.45" r="2.2"/><circle class="cls-1" cx="1893.27" cy="333.27" r="3.42"/><circle class="cls-1" cx="1883.77" cy="579.25" r="2.36"/><circle class="cls-1" cx="1832.44" cy="656.86" r="5.39"/><circle class="cls-1" cx="1819.08" cy="761.82" r="2.26"/><circle class="cls-1" cx="1705.22" cy="837.89" r="5.56"/><circle class="cls-1" cx="1576.72" cy="837.54" r="1.71"/><circle class="cls-1" cx="1449.47" cy="659.64" r="1.9"/><circle class="cls-1" cx="1313.23" cy="844.05" r="1.9"/><circle class="cls-1" cx="1166.7" cy="695.67" r="1.99"/><circle class="cls-1" cx="1024.35" cy="890.93" r="2.05"/><circle class="cls-1" cx="889.13" cy="847.41" r="1.94"/><circle class="cls-1" cx="753.22" cy="738.81" r="1.85"/><circle class="cls-1" cx="603.03" cy="957.63" r="4.34"/><circle class="cls-1" cx="464.31" cy="811.34" r="5.51"/><circle class="cls-1" cx="347.84" cy="683.7" r="5.56"/><circle class="cls-1" cx="84.7" cy="653.99" r="1.77"/><circle class="cls-1" cx="316.94" cy="547.41" r="1.48"/><circle class="cls-1" cx="462.71" cy="537.28" r="2.1"/><circle class="cls-1" cx="595.23" cy="696.69" r="4.61"/><circle class="cls-1" cx="736.87" cy="801.51" r="3.09"/><circle class="cls-1" cx="888.73" cy="668.33" r="2.37"/><circle class="cls-1" cx="1020.89" cy="592.94" r="2.95"/><circle class="cls-1" cx="1157.61" cy="751.77" r="2.83"/><circle class="cls-1" cx="1296.59" cy="601.32" r="4.45"/><circle class="cls-1" cx="1420.8" cy="508.91" r="4.53"/><circle class="cls-1" cx="1543.34" cy="511.95" r="3.3"/><circle class="cls-1" cx="1737.34" cy="694.97" r="4.7"/><circle class="cls-1" cx="1711.84" cy="465.19" r="3.02"/><circle class="cls-1" cx="1690.73" cy="580.83" r="5.46"/><circle class="cls-1" cx="1569.48" cy="345.57" r="4.78"/><circle class="cls-1" cx="1415.7" cy="241.77" r="4.15"/><circle class="cls-1" cx="1290.45" cy="431.91" r="3.24"/><circle class="cls-1" cx="1151.96" cy="298.91" r="5.22"/><circle class="cls-1" cx="1014.86" cy="402.03" r="2.16"/><circle class="cls-1" cx="868.59" cy="299.61" r="4.54"/><circle class="cls-1" cx="741.04" cy="374.01" r="1.76"/><circle class="cls-1" cx="612.75" cy="332.09" r="1.7"/><circle class="cls-1" cx="462.53" cy="499.07" r="2.23"/><circle class="cls-1" cx="320.76" cy="413.66" r="2.68"/><circle class="cls-1" cx="231.94" cy="247.6" r="2.58"/><circle class="cls-1" cx="29.67" cy="244.88" r="2.81"/><circle class="cls-1" cx="261.6" cy="386.77" r="2.14"/><circle class="cls-1" cx="372.49" cy="377.96" r="4.94"/><circle class="cls-1" cx="514.78" cy="356.09" r="1.51"/><circle class="cls-1" cx="645.28" cy="200.92" r="2.26"/><circle class="cls-1" cx="774.31" cy="314.96" r="5.59"/><circle class="cls-1" cx="925.6" cy="154.9" r="1.6"/><circle class="cls-1" cx="1063.53" cy="192.32" r="5.22"/><circle class="cls-1" cx="1209.2" cy="238.6" r="3.47"/><circle class="cls-1" cx="1341.88" cy="354.1" r="2.59"/><circle class="cls-1" cx="1483.93" cy="142.99" r="4.19"/><circle class="cls-1" cx="1625.38" cy="351.18" r="2.14"/><circle class="cls-1" cx="1718.12" cy="78.85" r="3.97"/><circle class="cls-1" cx="1797.26" cy="139.03" r="1.54"/><circle class="cls-1" cx="1635.75" cy="185.4" r="4.63"/><circle class="cls-1" cx="1501.43" cy="263.53" r="1.64"/><circle class="cls-1" cx="1367.15" cy="127.6" r="1.95"/><circle class="cls-1" cx="1095.13" cy="97.76" r="1.78"/><circle class="cls-1" cx="958.98" cy="204.77" r="4.85"/><circle class="cls-1" cx="812.98" cy="136.72" r="5.67"/><circle class="cls-1" cx="685.8" cy="150.81" r="3.4"/><circle class="cls-1" cx="545.94" cy="65.49" r="2.2"/><circle class="cls-1" cx="408.37" cy="34.8" r="5.75"/><circle class="cls-1" cx="145.39" cy="152.49" r="3.55"/><rect class="cls-1" x="-30.67" y="995.49" width="1991.68" height="276.84"/><polygon class="cls-4" points="998.66 921.71 960 975.62 1037.32 975.62 998.66 921.71"/><polygon class="cls-4" points="998.66 904.7 968.55 946.68 1028.77 946.68 998.66 904.7"/><polygon class="cls-4" points="998.66 889.5 976.86 919.9 1020.46 919.9 998.66 889.5"/><polygon class="cls-5" points="980.75 946.68 1016.57 946.68 1017.99 948.66 980.75 946.68"/><polygon class="cls-5" points="987.77 919.9 1009.56 919.9 1010.43 921.11 987.77 919.9"/><path class="cls-1" d="M995.46,889.1l-2.67,3.72A3.93,3.93,0,0,0,996,899h5.33a3.92,3.92,0,0,0,3.19-6.21l-2.66-3.72A3.93,3.93,0,0,0,995.46,889.1Z"/><circle class="cls-1" cx="991.37" cy="899.05" r="2.43"/><circle class="cls-1" cx="996.23" cy="899.05" r="2.43"/><circle class="cls-1" cx="1005.95" cy="899.05" r="2.43"/><path class="cls-1" d="M990,922.35H976.86a2.45,2.45,0,1,1,0-4.9H990a2.45,2.45,0,0,1,0,4.9Z"/><path class="cls-1" d="M998.23,922.35h-2a2.45,2.45,0,0,1,0-4.9h2a2.45,2.45,0,0,1,0,4.9Z"/><rect class="cls-6" x="993.78" y="975.62" width="9.74" height="19.88"/><polygon class="cls-4" points="148.81 857.37 76.43 958.28 221.18 958.28 148.81 857.37"/><polygon class="cls-4" points="148.81 825.52 92.44 904.11 205.17 904.11 148.81 825.52"/><polygon class="cls-4" points="148.81 797.06 107.99 853.98 189.63 853.98 148.81 797.06"/><polygon class="cls-5" points="115.28 904.11 182.33 904.11 184.99 907.83 115.28 904.11"/><polygon class="cls-5" points="128.42 853.98 169.22 853.98 170.84 856.24 128.42 853.98"/><path class="cls-1" d="M145.6,792.45,133.94,808.7a3.92,3.92,0,0,0,3.19,6.21h23.31a3.92,3.92,0,0,0,3.19-6.21L152,792.45A3.92,3.92,0,0,0,145.6,792.45Z"/><circle class="cls-1" cx="135.16" cy="814.95" r="4.55"/><circle class="cls-1" cx="144.26" cy="814.95" r="4.55"/><circle class="cls-1" cx="162.45" cy="814.95" r="4.55"/><path class="cls-1" d="M132.5,858.56H108a4.58,4.58,0,0,1,0-9.16H132.5a4.58,4.58,0,1,1,0,9.16Z"/><path class="cls-1" d="M148,858.56h-3.74a4.58,4.58,0,1,1,0-9.16H148a4.58,4.58,0,0,1,0,9.16Z"/><rect class="cls-6" x="139.67" y="958.28" width="18.23" height="37.21"/><polygon class="cls-5" points="705.63 896.13 653.57 968.73 757.7 968.73 705.63 896.13"/><polygon class="cls-5" points="705.63 873.22 665.09 929.76 746.18 929.76 705.63 873.22"/><polygon class="cls-5" points="705.63 852.75 676.27 893.69 735 893.69 705.63 852.75"/><polygon class="cls-7" points="681.52 929.76 729.75 929.76 731.66 932.43 681.52 929.76"/><polygon class="cls-7" points="690.97 893.69 720.33 893.69 721.49 895.32 690.97 893.69"/><path class="cls-1" d="M702.44,850.67l-6.24,8.71a3.93,3.93,0,0,0,3.19,6.21h12.48a3.92,3.92,0,0,0,3.19-6.21l-6.24-8.71A3.93,3.93,0,0,0,702.44,850.67Z"/><circle class="cls-1" cx="695.83" cy="865.62" r="3.27"/><circle class="cls-1" cx="702.38" cy="865.62" r="3.27"/><circle class="cls-1" cx="708.92" cy="865.62" r="3.27"/><circle class="cls-1" cx="715.46" cy="865.62" r="3.27"/><path class="cls-1" d="M746.18,933H719.77a3.3,3.3,0,1,1,0-6.59h26.41a3.3,3.3,0,0,1,0,6.59Z"/><rect class="cls-6" x="699.07" y="968.73" width="13.12" height="26.77"/><polygon class="cls-5" points="1756.93 909.6 1711.93 972.35 1801.94 972.35 1756.93 909.6"/><polygon class="cls-5" points="1756.93 889.79 1721.88 938.67 1791.98 938.67 1756.93 889.79"/><polygon class="cls-5" points="1756.93 872.1 1731.55 907.49 1782.32 907.49 1756.93 872.1"/><polygon class="cls-7" points="1736.09 938.67 1777.78 938.67 1779.44 940.98 1736.09 938.67"/><polygon class="cls-7" points="1744.26 907.49 1769.64 907.49 1770.64 908.9 1744.26 907.49"/><path class="cls-1" d="M1753.75,870.91l-4.36,6.07a3.93,3.93,0,0,0,3.19,6.22h8.71a3.93,3.93,0,0,0,3.19-6.22l-4.36-6.07A3.91,3.91,0,0,0,1753.75,870.91Z"/><circle class="cls-1" cx="1748.46" cy="883.22" r="2.83"/><circle class="cls-1" cx="1754.12" cy="883.22" r="2.83"/><circle class="cls-1" cx="1759.78" cy="883.22" r="2.83"/><circle class="cls-1" cx="1765.43" cy="883.22" r="2.83"/><path class="cls-1" d="M1792,941.48h-22.83a2.85,2.85,0,0,1,0-5.7H1792a2.85,2.85,0,0,1,0,5.7Z"/><rect class="cls-6" x="1751.26" y="972.35" width="11.34" height="23.14"/><polygon class="cls-8" points="531.03 900.89 454.43 826.28 377.82 900.89 377.82 995.49 531.03 995.49 531.03 900.89"/><path class="cls-9" d="M432.1,920.81h0a24,24,0,0,0-24,24v50.64h48.08V944.85A24,24,0,0,0,432.1,920.81Z"/><path class="cls-10" d="M509.33,955.77H478.87V936.05a15.23,15.23,0,0,1,15.23-15.24h0a15.23,15.23,0,0,1,15.23,15.24Z"/><rect class="cls-8" x="392.43" y="784.52" width="43.53" height="65.12"/><path class="cls-1" d="M357.44,916.59a15.51,15.51,0,0,1-10.95-26.48l97-96.77a15.5,15.5,0,0,1,21.9,0l97,96.77a15.5,15.5,0,0,1-21.9,21.95l-86-85.85-86,85.85A15.46,15.46,0,0,1,357.44,916.59Z"/><path class="cls-1" d="M436,786.33H390.57a7,7,0,0,1,0-14H436a7,7,0,0,1,0,14Z"/><circle class="cls-9" cx="1380.23" cy="898.17" r="68.09"/><path class="cls-11" d="M1325,904.46h-.42a6,6,0,0,1-5.58-6.4,62.43,62.43,0,0,1,91.39-50.92,6,6,0,1,1-5.6,10.62,51.09,51.09,0,0,0-8.5-3.53A50.4,50.4,0,0,0,1331,898.88,6,6,0,0,1,1325,904.46Z"/><circle class="cls-9" cx="1432.47" cy="850.21" r="4.71"/><path class="cls-8" d="M1307,921.06a6,6,0,0,0-6,5.3,22.33,22.33,0,0,1-44.26,1.2,7.79,7.79,0,0,0-7.72-6.5h0v44.56a4.55,4.55,0,0,0,4.55,4.55h137.13a4.56,4.56,0,0,0,4.56-4.55v-40a4.55,4.55,0,0,0-4.56-4.55Z"/><path class="cls-9" d="M1380.7,963.63h-49a3.5,3.5,0,0,1,0-7h49a1.06,1.06,0,0,0,1-1.06v-20a3.5,3.5,0,0,1,7,0v20A8.07,8.07,0,0,1,1380.7,963.63Z"/><path class="cls-10" d="M1409.15,995.49H1205.59c-17,0-31.46-13.33-32-30.37a31.32,31.32,0,0,1,59.89-13.74l-.14.07a14,14,0,0,1-15-2.49,20.32,20.32,0,1,0-13.47,35.53h193.23a11,11,0,0,1,11,11Z"/><rect class="cls-10" x="1337.52" y="970.17" width="11" height="23.54"/><rect class="cls-10" x="1286.54" y="970.17" width="11" height="23.54"/><circle class="cls-1" cx="1433.7" cy="838.08" r="7.83"/><circle class="cls-1" cx="1444.42" cy="848.5" r="7.83"/><circle class="cls-1" cx="1611.2" cy="958.28" r="37.22"/><circle class="cls-1" cx="1611.2" cy="902.69" r="23.59"/><path class="cls-8" d="M1596.15,882.48c2.75-13.68,9.93-23.79,23.25-21.11s16,14.77,13.29,28.46"/><path class="cls-8" d="M1638.27,893.37l-48.63-9.78a2.37,2.37,0,1,1,.93-4.64l48.63,9.77a2.37,2.37,0,0,1-.93,4.65Z"/><path class="cls-12" d="M1552.79,921.18a2.77,2.77,0,0,1-.9-.14l-22.32-7a3,3,0,0,1,1.78-5.73l17.86,5.58L1547,897.08a3,3,0,1,1,6-.77l2.79,21.48a3,3,0,0,1-3,3.39Z"/><path class="cls-12" d="M1587.61,941a2.94,2.94,0,0,1-1.48-.4l-34.83-19.77a3,3,0,0,1,3-5.22l34.82,19.78a3,3,0,0,1-1.48,5.61Z"/><path class="cls-12" d="M1653,914.33a3,3,0,0,1-3-3v-21.5a3,3,0,0,1,6,0V908.1l17.44-1.27a3,3,0,0,1,.44,6l-20.66,1.51Z"/><path class="cls-12" d="M1626.9,942.21a3,3,0,0,1-2.19-5.05l26-27.88a3,3,0,0,1,4.39,4.1l-26.06,27.88A3,3,0,0,1,1626.9,942.21Z"/><polygon class="cls-5" points="0 427.49 -297.61 842.47 297.61 842.47 0 427.49"/><polygon class="cls-5" points="0 296.53 -231.78 619.71 231.78 619.71 0 296.53"/><polygon class="cls-5" points="0 179.5 -167.86 413.55 167.86 413.55 0 179.5"/><polygon class="cls-7" points="-137.85 619.71 137.85 619.71 148.81 634.98 -137.85 619.71"/><polygon class="cls-7" points="-83.82 413.55 84 413.55 90.66 422.85 -83.82 413.55"/><path class="cls-1" d="M-3.19,146.67l-71.72,100a3.93,3.93,0,0,0,3.18,6.22H71.73a3.93,3.93,0,0,0,3.18-6.22l-71.72-100A3.93,3.93,0,0,0-3.19,146.67Z"/><circle class="cls-1" cx="-18.62" cy="253.06" r="18.7"/><circle class="cls-1" cx="18.79" cy="253.06" r="18.7"/><circle class="cls-1" cx="56.19" cy="253.06" r="18.7"/><path class="cls-1" d="M231.78,638.28h-151a18.83,18.83,0,1,1,0-37.65h151a18.83,18.83,0,0,1,0,37.65Z"/><rect class="cls-6" x="-37.49" y="842.47" width="74.98" height="153.02"/><polygon class="cls-4" points="1920 558.25 1690.9 877.7 2149.1 877.7 1920 558.25"/><polygon class="cls-4" points="1920 457.44 1741.58 706.22 2098.42 706.22 1920 457.44"/><polygon class="cls-4" points="1920 367.35 1790.79 547.52 2049.22 547.52 1920 367.35"/><polygon class="cls-5" points="1813.88 706.22 2026.12 706.22 2034.55 717.97 1813.88 706.22"/><polygon class="cls-5" points="1855.47 547.52 1984.61 547.52 1989.74 554.68 1855.47 547.52"/><path class="cls-1" d="M1916.75,343.1l-53.46,74.54a3.93,3.93,0,0,0,3.19,6.21h106.91a3.92,3.92,0,0,0,3.19-6.21l-53.45-74.54A3.93,3.93,0,0,0,1916.75,343.1Z"/><circle class="cls-1" cx="1876.81" cy="423.98" r="14.4"/><circle class="cls-1" cx="1905.6" cy="423.98" r="14.4"/><path class="cls-1" d="M1868.38,562h-77.59a14.5,14.5,0,1,1,0-29h77.59a14.5,14.5,0,0,1,0,29Z"/><path class="cls-1" d="M1917.43,562H1905.6a14.5,14.5,0,0,1,0-29h11.83a14.5,14.5,0,1,1,0,29Z"/><rect class="cls-6" x="1891.08" y="877.7" width="57.72" height="117.8"/></g><rect class="cls-6" x="610.45" y="172.62" width="703.17" height="463.05" rx="29.83"/><path class="cls-1" d="M1323.38,202H594.92a15.92,15.92,0,0,1,0-31.83h728.46a15.92,15.92,0,0,1,0,31.83Z"/><path class="cls-1" d="M803.28,335.75a11.47,11.47,0,0,0-5.42,1.21,11.65,11.65,0,0,0-3.73,3.08,13.14,13.14,0,0,0-2.2,4.17,19.11,19.11,0,0,0-.88,4.51,14.22,14.22,0,0,0,1.21,6.52,15.24,15.24,0,0,0,3.85,5.2,18,18,0,0,0,6.08,3.44,23.72,23.72,0,0,0,7.83,1.24,28.27,28.27,0,0,0,8.83-1.42,29.37,29.37,0,0,0,7.83-3.88,22.42,22.42,0,0,0,5.75-5.83,14.07,14.07,0,0,0,2.49-7.25,13.83,13.83,0,0,0-.47-4.58,18.94,18.94,0,0,0-1.83-4.32,21.41,21.41,0,0,0-2.93-3.92,26.23,26.23,0,0,0-3.77-3.29q-3.6-2.64-7.07-5a41.42,41.42,0,0,1-6.15-5.09,21.52,21.52,0,0,1-4.25-6.08,16,16,0,0,1-1.28-7.91,15.42,15.42,0,0,1,2.71-8.06,22.9,22.9,0,0,1,6.44-6.26,34.91,34.91,0,0,1,18.6-5.53,31.67,31.67,0,0,1,9.34,1.39,26.13,26.13,0,0,1,7.91,3.92,19.47,19.47,0,0,1,5.39,6,13.81,13.81,0,0,1,1.75,7.73,10.9,10.9,0,0,1-1.35,4.79,12.17,12.17,0,0,1-3.19,3.7,14.49,14.49,0,0,1-4.65,2.38,19.08,19.08,0,0,1-5.75.84,17.7,17.7,0,0,1-4.5-.58,15.24,15.24,0,0,1-4.07-1.69,8.65,8.65,0,0,1-2.89-2.74,6.37,6.37,0,0,1-1-3.77,8.58,8.58,0,0,1,.41-1.69,11,11,0,0,1,.87-2,6.59,6.59,0,0,1,1.36-1.72,2.57,2.57,0,0,1,1.76-.74,2,2,0,0,1,1.31.48L839,304a10.67,10.67,0,0,0,1.61,1.06,4.56,4.56,0,0,0,2.2.48,2.2,2.2,0,0,0,2.16-1,4.85,4.85,0,0,0,.62-2.05,5.27,5.27,0,0,0-.65-2.93,6,6,0,0,0-2-2.05,10.62,10.62,0,0,0-3-1.21,16.12,16.12,0,0,0-3.56-.4,19.92,19.92,0,0,0-5.12.66,15.56,15.56,0,0,0-4.47,1.94,10.65,10.65,0,0,0-3.19,3.15,8.8,8.8,0,0,0-1.35,4.29,7.5,7.5,0,0,0,1.72,5.12,25.59,25.59,0,0,0,4.58,4.54,66.52,66.52,0,0,0,5.64,4,51.93,51.93,0,0,1,5,3.56,59.73,59.73,0,0,1,5.75,5.49,38,38,0,0,1,4.61,6.19,30.3,30.3,0,0,1,3,6.81,21.63,21.63,0,0,1,.85,7.43,22.32,22.32,0,0,1-2,8,28.58,28.58,0,0,1-4.61,7.18,38.22,38.22,0,0,1-6.7,6.05,45,45,0,0,1-8.24,4.61,52.15,52.15,0,0,1-9.19,3A44.54,44.54,0,0,1,813,379a39.1,39.1,0,0,1-13.22-2.2,34.92,34.92,0,0,1-10.8-6,26.86,26.86,0,0,1-7.11-9,22.52,22.52,0,0,1-2.19-11.1,23.49,23.49,0,0,1,1.13-6.22,27.31,27.31,0,0,1,2.71-5.9,26.61,26.61,0,0,1,10-9.48,40.35,40.35,0,0,1,6.92-3,23.73,23.73,0,0,1,7.58-1.21,18.07,18.07,0,0,1,6.48,1.13,15.53,15.53,0,0,1,5.06,3.08,13.58,13.58,0,0,1,3.22,4.54,11.85,11.85,0,0,1,1,5.46,12.06,12.06,0,0,1-.92,4.06,13.34,13.34,0,0,1-2.3,3.77,11.4,11.4,0,0,1-3.63,2.75,10.85,10.85,0,0,1-4.87,1.06,15.64,15.64,0,0,1-1.83-.11,9.85,9.85,0,0,1-1.87-.36,4.16,4.16,0,0,1-1.46-.77,1.52,1.52,0,0,1-.55-1.39,1.72,1.72,0,0,1,.66-1.14,16.23,16.23,0,0,0,1.39-1.5,16.64,16.64,0,0,0,1.43-2.05,5.83,5.83,0,0,0,.77-2.71,3.06,3.06,0,0,0-.63-2.09,5.54,5.54,0,0,0-1.75-1.5,10,10,0,0,0-2.35-.92A10.1,10.1,0,0,0,803.28,335.75Z"/><path class="cls-1" d="M915.64,341.54a4.34,4.34,0,0,0,.4-.51,5.12,5.12,0,0,1,.62-.73,7.32,7.32,0,0,1,.74-.66,1.08,1.08,0,0,1,.65-.3.46.46,0,0,1,.44.3,1.47,1.47,0,0,1,.15.69v.77a1.9,1.9,0,0,1-.07.59,31,31,0,0,1-3.3,12.81,32.85,32.85,0,0,1-8.13,10.3A38.38,38.38,0,0,1,895,371.64a46,46,0,0,1-15.45,2.49,34.44,34.44,0,0,1-9.93-1.39,24.77,24.77,0,0,1-8.05-4,18.46,18.46,0,0,1-5.31-6.3,15.6,15.6,0,0,1-1.61-8.31,24.52,24.52,0,0,1,2.19-8.64,42.17,42.17,0,0,1,5.31-8.76,62.45,62.45,0,0,1,7.7-8.16,57.56,57.56,0,0,1,9.3-6.78,52.34,52.34,0,0,1,10.21-4.61,33.37,33.37,0,0,1,10.4-1.72,25.56,25.56,0,0,1,5.61.58,13.26,13.26,0,0,1,4.5,1.87,8.35,8.35,0,0,1,3.81,7.87,19.72,19.72,0,0,1-2.42,7.88,31.49,31.49,0,0,1-5.75,7.76,32.85,32.85,0,0,1-8,5.9,19.61,19.61,0,0,1-9.22,2.34,13.26,13.26,0,0,1-3.81-.62,18.12,18.12,0,0,1-3.81-1.65,12.21,12.21,0,0,1-3-2.42,5.11,5.11,0,0,1-1.4-3h-.07a42.82,42.82,0,0,0-1.39,4.14,20.29,20.29,0,0,0-.73,4.21q-.3,5.42,3.29,8.46t10.11,3a22.92,22.92,0,0,0,7.54-1.21,27.7,27.7,0,0,0,6.52-3.22,34.12,34.12,0,0,0,5.5-4.58,59.58,59.58,0,0,0,4.54-5.27c.73-1,1.42-2,2.08-3S915,342.52,915.64,341.54ZM894.4,325a10.37,10.37,0,0,0-4.87,1.24,22.68,22.68,0,0,0-4.47,3.08,29,29,0,0,0-3.74,3.95,34.81,34.81,0,0,0-2.6,3.81,6.78,6.78,0,0,0,3.45,1.28,30.78,30.78,0,0,0,3.88.26,28.92,28.92,0,0,0,4.72-.4,18.87,18.87,0,0,0,4.62-1.36,10.67,10.67,0,0,0,3.59-2.49,5.66,5.66,0,0,0,1.5-3.81,4.83,4.83,0,0,0-1.54-3.95A6.33,6.33,0,0,0,894.4,325Z"/><path class="cls-1" d="M926.11,306.24c.44-1.08.87-2,1.28-2.86s.83-1.65,1.25-2.45.86-1.61,1.35-2.42,1-1.69,1.69-2.67a17,17,0,0,1,4.17-4.29,10.39,10.39,0,0,1,6.15-1.72,12.23,12.23,0,0,1,5.61,1.32,23.55,23.55,0,0,1,4.58,3,1.31,1.31,0,0,1,.14.52,1.6,1.6,0,0,1-.36.8c-.25.34-.51.67-.77,1s-.57.64-.88,1l-.7.7-1.94,2.05c-.56.59-1.11,1.17-1.65,1.76a17,17,0,0,0-1.46,1.83,24.4,24.4,0,0,0-1.39,2.27c.48,0,1.35-.1,2.6-.15s2.68-.1,4.32-.14l5.2-.15,5.2-.15,4.36-.11,2.63,0a3.81,3.81,0,0,1,1.54.18c.2.12.29.48.29,1.06a9.82,9.82,0,0,1-.36,1.76,21.77,21.77,0,0,1-.73,2.09,19.76,19.76,0,0,1-1,2,5.09,5.09,0,0,1-1.21,1.47,14.2,14.2,0,0,1-2.42.29c-1.37.1-3,.18-4.94.26s-4,.13-6.23.18l-6.26.14-5,.15c-1.39.05-2.23.07-2.52.07-.74,1.62-1.62,3.63-2.64,6.05s-2.1,5-3.22,7.83-2.26,5.72-3.41,8.72-2.17,5.91-3.08,8.71-1.64,5.42-2.23,7.84a34.73,34.73,0,0,0-1,6c0,.2,0,.48,0,.84a4.05,4.05,0,0,0,.07,1.1,2.81,2.81,0,0,0,.37.95.86.86,0,0,0,.77.41,3.16,3.16,0,0,0,1.75-.77,19.15,19.15,0,0,0,2.17-1.94c.75-.78,1.52-1.66,2.3-2.64s1.52-1.9,2.2-2.78,1.26-1.67,1.72-2.38a17.28,17.28,0,0,1,1.06-1.5c.15-.3.53-1,1.14-2.13s1.29-2.31,2.05-3.55,1.5-2.36,2.23-3.33,1.27-1.47,1.61-1.47a.58.58,0,0,1,.55.33,1.73,1.73,0,0,1,.22.77,3.93,3.93,0,0,1,0,.84q0,.4,0,.63a37.3,37.3,0,0,1-1.07,7.32,38.52,38.52,0,0,1-2.6,7.32,40.62,40.62,0,0,1-4.06,6.85,31.85,31.85,0,0,1-5.6,5.9,24,24,0,0,1-4.14,2.67,10.73,10.73,0,0,1-5,1.14c-3.51,0-6.25-.64-8.2-1.91a10.17,10.17,0,0,1-4.1-5,15.54,15.54,0,0,1-.84-6.92,39.31,39.31,0,0,1,1.43-7.65q2.85-9.6,6.08-19.12t7-18.9l-.8,0c-.34,0-.71,0-1.1,0a13,13,0,0,1-2.38-.22c-.76-.15-1.14-.49-1.14-1a10.14,10.14,0,0,1,.37-1.57c.19-.66.44-1.36.73-2.09a21.09,21.09,0,0,1,.92-2,5.47,5.47,0,0,1,.91-1.36,3,3,0,0,1,1.47-.73,9.55,9.55,0,0,1,1.76-.15c.58,0,1.15,0,1.72.07S925.62,306.24,926.11,306.24Z"/><path class="cls-1" d="M951.67,306.24c.44-1.08.87-2,1.29-2.86s.82-1.65,1.24-2.45.87-1.61,1.35-2.42,1.05-1.69,1.69-2.67a17,17,0,0,1,4.17-4.29,10.45,10.45,0,0,1,6.16-1.72,12.19,12.19,0,0,1,5.6,1.32,23.55,23.55,0,0,1,4.58,3,1.31,1.31,0,0,1,.14.52,1.6,1.6,0,0,1-.36.8c-.25.34-.5.67-.77,1a12.86,12.86,0,0,1-.88,1l-.7.7-1.94,2.05c-.56.59-1.11,1.17-1.65,1.76a17,17,0,0,0-1.46,1.83c-.44.63-.9,1.39-1.39,2.27.49,0,1.35-.1,2.6-.15s2.68-.1,4.32-.14l5.2-.15,5.2-.15,4.36-.11,2.63,0a3.81,3.81,0,0,1,1.54.18c.2.12.3.48.3,1.06a10.94,10.94,0,0,1-.37,1.76,21.77,21.77,0,0,1-.73,2.09,19.76,19.76,0,0,1-1,2,5.09,5.09,0,0,1-1.21,1.47,14.2,14.2,0,0,1-2.42.29c-1.36.1-3,.18-4.94.26s-4,.13-6.23.18l-6.26.14-5,.15c-1.39.05-2.23.07-2.52.07-.74,1.62-1.61,3.63-2.64,6.05s-2.1,5-3.22,7.83-2.26,5.72-3.41,8.72-2.17,5.91-3.07,8.71-1.65,5.42-2.24,7.84a35.74,35.74,0,0,0-1,6c0,.2,0,.48,0,.84a4.49,4.49,0,0,0,.07,1.1,2.81,2.81,0,0,0,.37.95.86.86,0,0,0,.77.41,3.18,3.18,0,0,0,1.76-.77,20,20,0,0,0,2.16-1.94c.75-.78,1.52-1.66,2.3-2.64s1.52-1.9,2.2-2.78,1.26-1.67,1.72-2.38.82-1.21,1.06-1.5.53-1,1.14-2.13,1.29-2.31,2-3.55,1.5-2.36,2.23-3.33,1.27-1.47,1.62-1.47a.58.58,0,0,1,.54.33,1.88,1.88,0,0,1,.23.77,5.89,5.89,0,0,1,0,.84,5.83,5.83,0,0,0,0,.63,37.26,37.26,0,0,1-1.06,7.32,39.22,39.22,0,0,1-2.6,7.32,41.35,41.35,0,0,1-4.07,6.85,31.85,31.85,0,0,1-5.6,5.9,24,24,0,0,1-4.14,2.67,10.72,10.72,0,0,1-4.94,1.14c-3.52,0-6.25-.64-8.21-1.91a10.17,10.17,0,0,1-4.1-5,15.54,15.54,0,0,1-.84-6.92,40.07,40.07,0,0,1,1.43-7.65q2.85-9.6,6.08-19.12t6.95-18.9l-.8,0c-.34,0-.71,0-1.1,0a13.08,13.08,0,0,1-2.38-.22c-.76-.15-1.14-.49-1.14-1a11.46,11.46,0,0,1,.37-1.57c.2-.66.44-1.36.73-2.09s.6-1.4.92-2a5.76,5.76,0,0,1,.91-1.36,3,3,0,0,1,1.47-.73,9.62,9.62,0,0,1,1.76-.15c.58,0,1.16,0,1.72.07S951.18,306.24,951.67,306.24Z"/><path class="cls-1" d="M981.63,316.2a14.46,14.46,0,0,1,4.72.77,17,17,0,0,1,4.07,2,.82.82,0,0,1,.14.66,1.19,1.19,0,0,1-.22.51,5.45,5.45,0,0,1-.51.74l-.55.69a3.5,3.5,0,0,0-.33.48,22.59,22.59,0,0,0-2.63,4.43q-1.4,2.89-2.82,6.44c-1,2.37-1.87,4.86-2.75,7.48s-1.7,5.13-2.45,7.58-1.36,4.66-1.8,6.66a29.26,29.26,0,0,0-.73,4.76v.88a5.47,5.47,0,0,0,.11,1.1,2.46,2.46,0,0,0,.4.92,1,1,0,0,0,.88.4,4.78,4.78,0,0,0,2.78-1.47,27.57,27.57,0,0,0,3.26-3.37q1.57-1.9,2.9-3.73c.88-1.22,1.46-2.05,1.75-2.49a40.74,40.74,0,0,0,2.86-4.8,52.77,52.77,0,0,1,2.78-4.8,4.44,4.44,0,0,1,.33-.47c.17-.22.37-.45.59-.7a6.22,6.22,0,0,1,.7-.66,1.11,1.11,0,0,1,.65-.29c.25,0,.42.15.52.44a3.72,3.72,0,0,1,.18,1c0,.4,0,.76,0,1.1a1.76,1.76,0,0,1-.08.66,37,37,0,0,1-.88,6.45,43.58,43.58,0,0,1-2,6.55,35,35,0,0,1-3.22,6.26,35.75,35.75,0,0,1-4.36,5.5,26.93,26.93,0,0,1-5.27,4.14,13,13,0,0,1-6.74,1.64,25.33,25.33,0,0,1-6-.69,14.71,14.71,0,0,1-4.91-2.13,9.77,9.77,0,0,1-3.22-3.58,9.52,9.52,0,0,1-1-5,28.58,28.58,0,0,1,1-4.91c.59-2.29,1.32-4.92,2.2-7.87s1.88-6,3-9.27,2.22-6.26,3.3-9.12,2.11-5.33,3.11-7.43a21.05,21.05,0,0,1,2.38-4.17A10.33,10.33,0,0,1,981.63,316.2Zm16.84-14.36a8.51,8.51,0,0,1-.84,3.45,9.76,9.76,0,0,1-2,2.85,9.42,9.42,0,0,1-3.11,2,11.13,11.13,0,0,1-4.18.73,13.59,13.59,0,0,1-3.18-.36,8.74,8.74,0,0,1-2.64-1.1,4.81,4.81,0,0,1-1.72-1.87,5.2,5.2,0,0,1-.51-2.67,8.27,8.27,0,0,1,.8-3.23,8.85,8.85,0,0,1,2-2.71,9.22,9.22,0,0,1,3.07-1.83,11.28,11.28,0,0,1,3.92-.66,15.11,15.11,0,0,1,3,.3,9.65,9.65,0,0,1,2.74.95,6,6,0,0,1,2,1.68A3.73,3.73,0,0,1,998.47,301.84Z"/><path class="cls-1" d="M997.16,369c-.1.29-.2.6-.3.91s-.19.62-.29.92a7.54,7.54,0,0,1-1.39,2.12,3.56,3.56,0,0,1-2.56.73,9.36,9.36,0,0,1-4.58-1.06,9.82,9.82,0,0,1-3.19-2.71,10.59,10.59,0,0,1-1.79-3.66,11.58,11.58,0,0,1-.41-3.92,24.76,24.76,0,0,1,1.21-5q1.14-3.58,2.86-8.24t3.81-9.78q2.09-5.11,4-9.52t3.55-7.5a16.5,16.5,0,0,1,2.27-3.7,10.77,10.77,0,0,1,3.19-1.83,10.93,10.93,0,0,1,3.77-.59,14.22,14.22,0,0,1,2.12.26,29.27,29.27,0,0,1,3,.69,12.09,12.09,0,0,1,2.64,1.06c.73.42,1.07.85,1,1.29a3,3,0,0,1-.37,1c-.25.49-.51,1-.81,1.54l-.84,1.54c-.27.48-.45.83-.55,1a13.44,13.44,0,0,0-1,1.8c-.46.95-1,2.06-1.57,3.33l-1.87,4c-.66,1.41-1.26,2.72-1.79,3.92s-1,2.22-1.36,3.07a4.11,4.11,0,0,0-.47,1.43q1.1-1.6,3-4.14c1.27-1.68,2.71-3.48,4.32-5.38s3.32-3.82,5.13-5.75a62.47,62.47,0,0,1,5.45-5.2,33.52,33.52,0,0,1,5.42-3.77,10.4,10.4,0,0,1,5-1.47h.8a13.12,13.12,0,0,1,4.8.77,8.08,8.08,0,0,1,3.15,2.16,8.19,8.19,0,0,1,1.72,3.26,12.49,12.49,0,0,1,.37,4.07,29.13,29.13,0,0,1-1.83,8.46q-1.62,4.35-3.56,8.71c-1.29,2.91-2.48,5.73-3.55,8.46a25.55,25.55,0,0,0-1.83,7.62v.51a5.24,5.24,0,0,0,.07.77,1.64,1.64,0,0,0,.3.7.77.77,0,0,0,.66.29,4.44,4.44,0,0,0,2.67-1.25,23.76,23.76,0,0,0,3.08-3.15c1-1.27,2.13-2.68,3.25-4.24s2.17-3.08,3.12-4.55,1.8-2.8,2.56-4,1.33-2.13,1.72-2.71q.15-.23.48-.66l.66-.88a3,3,0,0,1,.77-.73,1.53,1.53,0,0,1,.88-.3c.14,0,.24.1.29.3a6.39,6.39,0,0,1,.14.69,3.71,3.71,0,0,1,0,1.06,33.47,33.47,0,0,1-1.17,7.44,43.64,43.64,0,0,1-2.78,7.54,39.49,39.49,0,0,1-4.29,7,34.9,34.9,0,0,1-5.74,6c-.35.3-.77.62-1.29,1s-1,.72-1.61,1.06a14,14,0,0,1-1.76.92,8.79,8.79,0,0,1-1.57.55,2.66,2.66,0,0,1-.81.22l-1.06.14a7.8,7.8,0,0,1-1.06.08h-.81a19.15,19.15,0,0,1-5.67-.88,16.61,16.61,0,0,1-5-2.49,12.79,12.79,0,0,1-3.44-3.77,7.94,7.94,0,0,1-1.14-4.65,16,16,0,0,1,1-4.4c.63-1.8,1.35-3.69,2.16-5.64s1.62-3.83,2.45-5.64,1.49-3.25,2-4.32c.34-.68.78-1.61,1.32-2.78s1-2.39,1.53-3.66.94-2.51,1.36-3.7a11.68,11.68,0,0,0,.69-2.82,3.64,3.64,0,0,0-.1-.63c-.08-.31-.21-.47-.41-.47-.49,0-1.26.47-2.31,1.43a38.29,38.29,0,0,0-3.58,3.84c-1.35,1.61-2.82,3.48-4.44,5.6s-3.24,4.35-4.9,6.67-3.29,4.66-4.87,7-3.06,4.61-4.4,6.74-2.51,4-3.51,5.75S997.6,368,997.16,369Z"/><path class="cls-1" d="M1057.73,377.36a11.7,11.7,0,0,1,6.37,2,8.34,8.34,0,0,1,2.23,2.2,4.33,4.33,0,0,1,.77,2.71,3.61,3.61,0,0,1-1,2.31,11.8,11.8,0,0,1-2.27,1.87c-.9.58-1.86,1.14-2.89,1.68a19.37,19.37,0,0,0-2.86,1.83,12.83,12.83,0,0,0-2.27,2.27,5.11,5.11,0,0,0-1,2.93,4.4,4.4,0,0,0,.8,2.75,3.16,3.16,0,0,0,2.79,1.28,6.13,6.13,0,0,0,4.28-1.94,22.34,22.34,0,0,0,3.74-4.94,53.78,53.78,0,0,0,3.18-6.67q1.47-3.66,2.6-7.14t1.94-6.37c.54-1.93,1-3.36,1.25-4.29a17.34,17.34,0,0,1-4.91,2.57,17.91,17.91,0,0,1-5.64.87,9,9,0,0,1-2.6-.43,26.54,26.54,0,0,1-2.89-1.1c-1-.44-1.89-.91-2.75-1.39s-1.57-.93-2.16-1.32a19,19,0,0,1-4.1-3.63,22.51,22.51,0,0,1-2.93-4.43,20.75,20.75,0,0,1-1.72-4.91,18.5,18.5,0,0,1-.4-5.05,25.63,25.63,0,0,1,2-8.75,35.23,35.23,0,0,1,4.94-8.28,49.84,49.84,0,0,1,7.22-7.32,48.24,48.24,0,0,1,8.86-5.86,50.58,50.58,0,0,1,10-3.88,39.8,39.8,0,0,1,10.59-1.43,28.72,28.72,0,0,1,7,.8,15.41,15.41,0,0,1,5.38,2.46,10.21,10.21,0,0,1,3.34,4.17,13.21,13.21,0,0,1,1,5.9,16.36,16.36,0,0,1-1.06,4.76c-.61,1.61-1.24,3.17-1.87,4.69q-3.73,9.58-6.78,19.26t-6.26,19.41q-.59,2-1.54,4.94c-.63,1.93-1.32,3.89-2,5.9s-1.49,3.94-2.27,5.82a36.24,36.24,0,0,1-2.27,4.65,40,40,0,0,1-3.26,4.61,22.66,22.66,0,0,1-4.06,3.89,18.85,18.85,0,0,1-11.43,3.66,22.11,22.11,0,0,1-5.78-.81,23.73,23.73,0,0,1-5.28-2.05,10.19,10.19,0,0,1-3.29-2.85,15.12,15.12,0,0,1-2.09-3.85,19.89,19.89,0,0,1-1.06-4.25,22.94,22.94,0,0,1-.22-4.06,17.05,17.05,0,0,1,2.16-7.47,16.74,16.74,0,0,1,5.82-6,15.33,15.33,0,0,1,2.2-1.17A6.16,6.16,0,0,1,1057.73,377.36Zm25.19-34.06c.44-.88,1-2,1.69-3.33s1.33-2.72,1.94-4.14,1.15-2.81,1.61-4.18a13.43,13.43,0,0,0,.77-3.44q.15-3.15-3.74-3.15a15.18,15.18,0,0,0-6.19,1.25,19.64,19.64,0,0,0-5.16,3.33,26.13,26.13,0,0,0-4.17,4.76,34.34,34.34,0,0,0-5,11.1,27.35,27.35,0,0,0-.84,5.05,13.7,13.7,0,0,0,.11,2.75,4.79,4.79,0,0,0,.88,2.23,4.71,4.71,0,0,0,1.9,1.5,7.91,7.91,0,0,0,3.26.55,6.56,6.56,0,0,0,4.25-1.72,22.93,22.93,0,0,0,3.77-4.1,42.5,42.5,0,0,0,3-4.76C1081.84,345.41,1082.48,344.18,1082.92,343.3Z"/><path class="cls-1" d="M1122.33,374.06a33.74,33.74,0,0,1-6.41-.59,17.67,17.67,0,0,1-5.46-1.9,10.09,10.09,0,0,1-3.7-3.52,9.21,9.21,0,0,1-1.21-5.34,14.65,14.65,0,0,1,.77-3.33,11.51,11.51,0,0,1,1.8-3.3,10.4,10.4,0,0,1,2.89-2.53,7.54,7.54,0,0,1,3.92-1,4.71,4.71,0,0,1,1.39.25,9.18,9.18,0,0,1,1.58.7,6,6,0,0,1,1.28.95,1.49,1.49,0,0,1,.51,1q0,.07-.51.36c-.34.2-.71.39-1.1.59s-.77.37-1.14.51l-.69.29a8.28,8.28,0,0,0-2.46,2,4.49,4.49,0,0,0-1.06,2.67,2.86,2.86,0,0,0,.55,1.94,5,5,0,0,0,1.61,1.4,9.14,9.14,0,0,0,2.24.84,10.78,10.78,0,0,0,2.41.29,14,14,0,0,0,3.19-.4,15.06,15.06,0,0,0,3.26-1.17,9.27,9.27,0,0,0,2.6-1.91,3.88,3.88,0,0,0,1.13-2.53,4,4,0,0,0-1.75-3.58,26.12,26.12,0,0,0-4.76-2.82c-1.91-.91-4-1.85-6.23-2.82a34,34,0,0,1-6.19-3.48,18.11,18.11,0,0,1-4.65-4.8,11,11,0,0,1-1.61-6.81,11.83,11.83,0,0,1,1-4.25,17.68,17.68,0,0,1,2.31-3.88,26,26,0,0,1,3.22-3.44,40.42,40.42,0,0,1,3.77-3,33.44,33.44,0,0,1,10-4.83A39.92,39.92,0,0,1,1136.1,315a37.75,37.75,0,0,1,7,.62,18.08,18.08,0,0,1,5.75,2.05,10.63,10.63,0,0,1,3.85,3.74,10,10,0,0,1,1.24,5.75,9.71,9.71,0,0,1-1.28,4.21,11.88,11.88,0,0,1-3,3.48,15.15,15.15,0,0,1-4.25,2.34,14.6,14.6,0,0,1-5.06.88,9.78,9.78,0,0,1-2.78-.4,8,8,0,0,1-2.34-1.14,5.39,5.39,0,0,1-1.61-1.76,4.06,4.06,0,0,1-.52-2.34,2.6,2.6,0,0,1,1.32-2.31,10.14,10.14,0,0,1,2.75-1c1-.22,1.91-.39,2.75-.52s1.26-.4,1.31-.84a1,1,0,0,0,.33-.58,4.5,4.5,0,0,0,0-.66,1.05,1.05,0,0,0-.33-1,2.37,2.37,0,0,0-1-.51,5.42,5.42,0,0,0-1.14-.18c-.39,0-.75,0-1.1,0a18.53,18.53,0,0,0-4.87.77,24.89,24.89,0,0,0-5.12,2.05,17.14,17.14,0,0,0-4.11,3,5.65,5.65,0,0,0-1.79,3.74,2.65,2.65,0,0,0,.88,2.12,9.27,9.27,0,0,0,2.38,1.69,26.3,26.3,0,0,0,3,1.28c1,.36,1.85.67,2.49.91a36.39,36.39,0,0,1,5.82,2.82,25.45,25.45,0,0,1,4.91,3.81,17,17,0,0,1,3.37,4.72,11.59,11.59,0,0,1,1.06,5.57,14.51,14.51,0,0,1-2.24,7.18,17.22,17.22,0,0,1-5.27,5.24,25.75,25.75,0,0,1-7.47,3.18A34.68,34.68,0,0,1,1122.33,374.06Z"/></g></g></g></svg>