<svg xmlns="http://www.w3.org/2000/svg" width="110" height="110" viewBox="0 0 110 110"><defs><style>.cls-1{fill:#fff;}</style></defs><title>Setting sound on</title><g id="Titelskærm"><g id="Midgrund"><g id="Titelboks"><rect class="cls-1" x="20.95" y="44.29" width="38.2" height="21.41" rx="5.64"/><path class="cls-1" d="M28.57,58.41,53.7,78.6a4.37,4.37,0,0,0,7.11-3.41V34.81A4.37,4.37,0,0,0,53.7,31.4L28.57,51.59A4.37,4.37,0,0,0,28.57,58.41Z"/><path class="cls-1" d="M67.22,61.66a1.83,1.83,0,0,1-1.29-3.12,5,5,0,0,0,0-7.08,1.83,1.83,0,0,1,2.59-2.58,8.64,8.64,0,0,1,0,12.24A1.81,1.81,0,0,1,67.22,61.66Z"/><path class="cls-1" d="M73.74,67.66a1.83,1.83,0,0,1-1.29-3.12,13.5,13.5,0,0,0,0-19.08A1.83,1.83,0,0,1,75,42.87a17.17,17.17,0,0,1,0,24.26A1.86,1.86,0,0,1,73.74,67.66Z"/><path class="cls-1" d="M80,74.39a1.83,1.83,0,0,1-1.29-3.12,23,23,0,0,0,0-32.54,1.82,1.82,0,1,1,2.58-2.58,26.65,26.65,0,0,1,0,37.7A1.81,1.81,0,0,1,80,74.39Z"/></g></g></g></svg>