<svg xmlns="http://www.w3.org/2000/svg" xmlns:xlink="http://www.w3.org/1999/xlink" width="400" height="400" viewBox="0 0 400 400"><defs><style>.cls-1{fill:url(#linear-gradient);}.cls-2{fill:#e92c0c;}</style><linearGradient id="linear-gradient" x1="74.77" y1="200" x2="325.23" y2="200" gradientUnits="userSpaceOnUse"><stop offset="0" stop-color="#e2cba2"/><stop offset="0.35" stop-color="#dfc9a0"/><stop offset="0.58" stop-color="#d7c19a"/><stop offset="0.77" stop-color="#c8b38f"/><stop offset="0.94" stop-color="#b3a081"/><stop offset="1" stop-color="#aa987a"/></linearGradient></defs><title>Settings</title><g id="UI-elementer"><circle class="cls-1" cx="200" cy="200" r="125.23"/><path class="cls-2" d="M201.5,121.17a78.84,78.84,0,1,0,77.33,77.33A78.85,78.85,0,0,0,201.5,121.17Zm.55,118.2a39.42,39.42,0,1,1,37.32-37.32A39.43,39.43,0,0,1,202.05,239.37Z"/><rect class="cls-2" x="174.96" y="102.6" width="50.09" height="37.1"/><rect class="cls-2" x="253.8" y="181.45" width="50.09" height="37.1" transform="translate(478.84 -78.84) rotate(90)"/><rect class="cls-2" x="174.96" y="260.29" width="50.09" height="37.1" transform="translate(400 557.69) rotate(180)"/><rect class="cls-2" x="96.11" y="181.45" width="50.09" height="37.1" transform="translate(-78.84 321.16) rotate(-90)"/><rect class="cls-2" x="230.71" y="125.7" width="50.09" height="37.1" transform="translate(176.91 -138.59) rotate(45)"/><rect class="cls-2" x="230.71" y="237.2" width="50.09" height="37.1" transform="translate(617.44 255.75) rotate(135)"/><rect class="cls-2" x="119.2" y="237.2" width="50.09" height="37.1" transform="translate(65.41 538.59) rotate(-135)"/><rect class="cls-2" x="119.2" y="125.7" width="50.09" height="37.1" transform="translate(-59.75 144.25) rotate(-45)"/></g></svg>
