<svg xmlns="http://www.w3.org/2000/svg" width="1920" height="1080" viewBox="0 0 1920 1080"><defs><style>.cls-1{fill:#006837;}.cls-2{fill:#f1f1f1;}.cls-3{fill:#e92c0c;}.cls-4{fill:#fbed21;}.cls-5{fill:#004e29;}.cls-6{fill:#fff;}.cls-7{fill:#a57c52;}.cls-8{fill:#008748;}</style></defs><title>Titel Forgrund</title><g id="Titelskærm"><g id="Midgrund"><g id="Titelboks"><circle class="cls-1" cx="1155.97" cy="125.01" r="21.93"/><rect class="cls-2" x="1154.47" y="-115.57" width="3" height="218.66"/><circle class="cls-3" cx="1206.39" cy="167.11" r="21.93"/><rect class="cls-2" x="1204.89" y="-173.64" width="3" height="318.82"/><circle class="cls-4" cx="1257.93" cy="139.57" r="21.93"/><rect class="cls-2" x="1256.43" y="-129.79" width="3" height="247.44"/></g></g><g id="Forgrund"><polygon class="cls-1" points="0 427.49 -297.61 842.47 297.61 842.47 0 427.49"/><polygon class="cls-1" points="0 296.53 -231.78 619.71 231.78 619.71 0 296.53"/><polygon class="cls-1" points="0 179.5 -167.86 413.55 167.86 413.55 0 179.5"/><polygon class="cls-5" points="-137.85 619.71 137.85 619.71 148.81 634.98 -137.85 619.71"/><polygon class="cls-5" points="-83.82 413.55 84 413.55 90.66 422.85 -83.82 413.55"/><path class="cls-6" d="M-3.19,146.67l-71.72,100a3.93,3.93,0,0,0,3.18,6.22H71.73a3.93,3.93,0,0,0,3.18-6.22l-71.72-100A3.93,3.93,0,0,0-3.19,146.67Z"/><circle class="cls-6" cx="-18.62" cy="253.06" r="18.7"/><circle class="cls-6" cx="18.79" cy="253.06" r="18.7"/><circle class="cls-6" cx="56.19" cy="253.06" r="18.7"/><path class="cls-6" d="M231.78,638.28h-151a18.83,18.83,0,1,1,0-37.65h151a18.83,18.83,0,0,1,0,37.65Z"/><rect class="cls-7" x="-37.49" y="842.47" width="74.98" height="255.35"/><polygon class="cls-8" points="1920 558.25 1690.9 877.7 2149.1 877.7 1920 558.25"/><polygon class="cls-8" points="1920 457.44 1741.58 706.22 2098.42 706.22 1920 457.44"/><polygon class="cls-8" points="1920 367.35 1790.79 547.52 2049.22 547.52 1920 367.35"/><polygon class="cls-1" points="1813.88 706.22 2026.12 706.22 2034.55 717.97 1813.88 706.22"/><polygon class="cls-1" points="1855.47 547.52 1984.61 547.52 1989.74 554.68 1855.47 547.52"/><path class="cls-6" d="M1916.75,343.1l-53.46,74.54a3.93,3.93,0,0,0,3.19,6.21h106.91a3.92,3.92,0,0,0,3.19-6.21l-53.45-74.54A3.93,3.93,0,0,0,1916.75,343.1Z"/><circle class="cls-6" cx="1876.81" cy="423.98" r="14.4"/><circle class="cls-6" cx="1905.6" cy="423.98" r="14.4"/><path class="cls-6" d="M1868.38,562h-77.59a14.5,14.5,0,1,1,0-29h77.59a14.5,14.5,0,0,1,0,29Z"/><path class="cls-6" d="M1917.43,562H1905.6a14.5,14.5,0,0,1,0-29h11.83a14.5,14.5,0,1,1,0,29Z"/><rect class="cls-7" x="1891.08" y="877.7" width="57.72" height="224.87"/></g></g></svg>