<svg xmlns="http://www.w3.org/2000/svg" xmlns:xlink="http://www.w3.org/1999/xlink" width="1920" height="1080" viewBox="0 0 1920 1080"><defs><style>.cls-1{fill:url(#linear-gradient);}.cls-2{fill:none;}.cls-3{fill:#fff;}.cls-4{fill:#008748;}.cls-5{fill:#006837;}.cls-6{fill:#a57c52;}.cls-7{fill:#004e29;}.cls-8{fill:#e92c0c;}.cls-9{fill:#d20000;}.cls-10{fill:#fbed21;}.cls-11{fill:#9e0000;}.cls-12{fill:#8b6239;}</style><linearGradient id="linear-gradient" x1="960" y1="1034.5" x2="960" y2="-18.36" gradientUnits="userSpaceOnUse"><stop offset="0" stop-color="#76828f"/><stop offset="0.06" stop-color="#697684"/><stop offset="0.21" stop-color="#4b5b6c"/><stop offset="0.38" stop-color="#344558"/><stop offset="0.56" stop-color="#23364b"/><stop offset="0.75" stop-color="#192d43"/><stop offset="1" stop-color="#162a40"/></linearGradient></defs><title>Titel Baggrund</title><g id="Titelskærm"><g id="Baggrund"><rect class="cls-1" y="-18.36" width="1920" height="1052.86"/><rect class="cls-2" x="1670.52" y="418.88" width="9.57" height="9.57"/><circle class="cls-3" cx="1675.31" cy="423.67" r="4.79"/><rect class="cls-2" x="1669.11" y="541.76" width="3.3" height="3.3"/><circle class="cls-3" cx="1670.76" cy="543.41" r="1.65"/><rect class="cls-2" x="1750.18" y="748.06" width="5.91" height="5.91"/><circle class="cls-3" cx="1753.14" cy="751.02" r="2.96"/><rect class="cls-2" x="1517.22" y="896.79" width="9.12" height="9.12"/><circle class="cls-3" cx="1521.78" cy="901.35" r="4.56"/><rect class="cls-2" x="1533.08" y="618.73" width="8.6" height="8.6"/><circle class="cls-3" cx="1537.38" cy="623.03" r="4.3"/><rect class="cls-2" x="1312.06" y="567.09" width="3.02" height="3.02"/><circle class="cls-3" cx="1313.57" cy="568.6" r="1.51"/><rect class="cls-2" x="1491.68" y="324.66" width="9.27" height="9.27"/><circle class="cls-3" cx="1496.31" cy="329.29" r="4.64"/><rect class="cls-2" x="1293.06" y="288.03" width="10.76" height="10.76"/><circle class="cls-3" cx="1298.44" cy="293.41" r="5.38"/><rect class="cls-2" x="1178.54" y="180" width="7.14" height="7.14"/><circle class="cls-3" cx="1182.11" cy="183.57" r="3.57"/><rect class="cls-2" x="947.59" y="206.22" width="5.49" height="5.49"/><circle class="cls-3" cx="950.33" cy="208.96" r="2.74"/><rect class="cls-2" x="927.8" y="359.26" width="10.83" height="10.83"/><circle class="cls-3" cx="933.22" cy="364.67" r="5.42"/><rect class="cls-2" x="1036.72" y="539.65" width="7.44" height="7.44"/><circle class="cls-3" cx="1040.44" cy="543.37" r="3.72"/><rect class="cls-2" x="783.18" y="575.26" width="11.71" height="11.71"/><circle class="cls-3" cx="789.03" cy="581.12" r="5.86"/><rect class="cls-2" x="811" y="598.02" width="7.39" height="7.39"/><circle class="cls-3" cx="814.7" cy="601.72" r="3.7"/><rect class="cls-2" x="568.54" y="699.89" width="3.65" height="3.65"/><circle class="cls-3" cx="570.36" cy="701.71" r="1.83"/><rect class="cls-2" x="743.93" y="402.19" width="10.51" height="10.51"/><circle class="cls-3" cx="749.19" cy="407.44" r="5.25"/><rect class="cls-2" x="408.19" y="426.45" width="6.32" height="6.32"/><circle class="cls-3" cx="411.35" cy="429.61" r="3.16"/><rect class="cls-2" x="432.53" y="292.8" width="7.28" height="7.28"/><circle class="cls-3" cx="436.17" cy="296.44" r="3.64"/><rect class="cls-2" x="324.74" y="243.66" width="8.44" height="8.44"/><circle class="cls-3" cx="328.96" cy="247.88" r="4.22"/><rect class="cls-2" x="203.76" y="170.99" width="10.43" height="10.43"/><circle class="cls-3" cx="208.98" cy="176.21" r="5.22"/><rect class="cls-2" x="298.14" y="249.55" width="9.37" height="9.37"/><circle class="cls-3" cx="302.82" cy="254.23" r="4.68"/><rect class="cls-2" x="229.85" y="421.88" width="9.27" height="9.27"/><circle class="cls-3" cx="234.48" cy="426.52" r="4.63"/><rect class="cls-2" x="112.71" y="580.38" width="9.87" height="9.87"/><circle class="cls-3" cx="117.65" cy="585.31" r="4.94"/><rect class="cls-2" x="378.23" y="729.35" width="5.92" height="5.92"/><circle class="cls-3" cx="381.19" cy="732.31" r="2.96"/><rect class="cls-2" x="183.39" y="599.49" width="3.75" height="3.75"/><circle class="cls-3" cx="185.27" cy="601.36" r="1.87"/><rect class="cls-2" x="196.07" y="586.96" width="10.79" height="10.79"/><circle class="cls-3" cx="201.46" cy="592.35" r="5.4"/><rect class="cls-2" x="116.43" y="521.63" width="5.3" height="5.3"/><circle class="cls-3" cx="119.08" cy="524.28" r="2.65"/><rect class="cls-2" x="263.67" y="461.76" width="7.18" height="7.18"/><circle class="cls-3" cx="267.26" cy="465.35" r="3.59"/><rect class="cls-2" x="300.61" y="328.08" width="7.12" height="7.12"/><circle class="cls-3" cx="304.17" cy="331.64" r="3.56"/><rect class="cls-2" x="344.32" y="200.9" width="6.28" height="6.28"/><circle class="cls-3" cx="347.46" cy="204.04" r="3.14"/><rect class="cls-2" x="436.46" y="91.94" width="6.02" height="6.02"/><circle class="cls-3" cx="439.47" cy="94.95" r="3.01"/><rect class="cls-2" x="557.31" y="159.13" width="10.52" height="10.52"/><circle class="cls-3" cx="562.57" cy="164.39" r="5.26"/><rect class="cls-2" x="844.84" y="7.86" width="3.56" height="3.56"/><circle class="cls-3" cx="846.62" cy="9.64" r="1.78"/><rect class="cls-2" x="973.1" y="94.07" width="8.33" height="8.33"/><circle class="cls-3" cx="977.27" cy="98.24" r="4.17"/><rect class="cls-2" x="1243.43" y="68.4" width="10.32" height="10.32"/><circle class="cls-3" cx="1248.6" cy="73.56" r="5.16"/><rect class="cls-2" x="1515.98" y="63.56" width="10.43" height="10.43"/><circle class="cls-3" cx="1521.2" cy="68.78" r="5.22"/><rect class="cls-2" x="1745.53" y="157.8" width="6.52" height="6.52"/><circle class="cls-3" cx="1748.79" cy="161.06" r="3.26"/><rect class="cls-2" x="1750.89" y="288.96" width="11.11" height="11.11"/><circle class="cls-3" cx="1756.44" cy="294.51" r="5.55"/><rect class="cls-2" x="1790.63" y="712.1" width="10.43" height="10.43"/><circle class="cls-3" cx="1795.84" cy="717.31" r="5.21"/><rect class="cls-2" x="1685.83" y="820.12" width="5.93" height="5.93"/><circle class="cls-3" cx="1688.79" cy="823.09" r="2.97"/><rect class="cls-2" x="1543.34" y="734.03" width="4.32" height="4.32"/><circle class="cls-3" cx="1545.5" cy="736.19" r="2.16"/><rect class="cls-2" x="1393.23" y="931.26" width="9.63" height="9.63"/><circle class="cls-3" cx="1398.04" cy="936.07" r="4.81"/><rect class="cls-2" x="1263.6" y="776.35" width="5.03" height="5.03"/><circle class="cls-3" cx="1266.12" cy="778.86" r="2.52"/><rect class="cls-2" x="1124.51" y="706.88" width="7.05" height="7.05"/><circle class="cls-3" cx="1128.04" cy="710.4" r="3.52"/><rect class="cls-2" x="973.93" y="883.87" width="4.3" height="4.3"/><circle class="cls-3" cx="976.08" cy="886.02" r="2.15"/><rect class="cls-2" x="832.67" y="937.45" width="7.18" height="7.18"/><circle class="cls-3" cx="836.26" cy="941.04" r="3.59"/><rect class="cls-2" x="710.52" y="639.15" width="3.42" height="3.42"/><circle class="cls-3" cx="712.23" cy="640.86" r="1.71"/><rect class="cls-2" x="564.28" y="744.24" width="4.82" height="4.82"/><circle class="cls-3" cx="566.69" cy="746.65" r="2.41"/><rect class="cls-2" x="442.63" y="641.53" width="11.67" height="11.67"/><circle class="cls-3" cx="448.46" cy="647.36" r="5.83"/><rect class="cls-2" x="301.2" y="733.38" width="3.79" height="3.79"/><circle class="cls-3" cx="303.09" cy="735.28" r="1.9"/><rect class="cls-2" x="319.29" y="754.4" width="6.83" height="6.83"/><circle class="cls-3" cx="322.71" cy="757.82" r="3.42"/><rect class="cls-2" x="386.06" y="606.39" width="4.94" height="4.94"/><circle class="cls-3" cx="388.53" cy="608.86" r="2.47"/><rect class="cls-2" x="531.12" y="703.67" width="11.05" height="11.05"/><circle class="cls-3" cx="536.65" cy="709.19" r="5.52"/><rect class="cls-2" x="672.96" y="438.36" width="5.28" height="5.28"/><circle class="cls-3" cx="675.6" cy="440.99" r="2.64"/><rect class="cls-2" x="799.88" y="690.09" width="6.98" height="6.98"/><circle class="cls-3" cx="803.37" cy="693.58" r="3.49"/><rect class="cls-2" x="931.56" y="708.69" width="6.14" height="6.14"/><circle class="cls-3" cx="934.63" cy="711.76" r="3.07"/><rect class="cls-2" x="1073.7" y="710.56" width="3.88" height="3.88"/><circle class="cls-3" cx="1075.65" cy="712.5" r="1.94"/><rect class="cls-2" x="1213.35" y="648.94" width="9.68" height="9.68"/><circle class="cls-3" cx="1218.19" cy="653.78" r="4.84"/><rect class="cls-2" x="1368.59" y="696.61" width="5.15" height="5.15"/><circle class="cls-3" cx="1371.17" cy="699.19" r="2.58"/><rect class="cls-2" x="1506.88" y="724.53" width="7.01" height="7.01"/><circle class="cls-3" cx="1510.39" cy="728.03" r="3.5"/><rect class="cls-2" x="1638.11" y="653.88" width="11.1" height="11.1"/><circle class="cls-3" cx="1643.67" cy="659.43" r="5.55"/><rect class="cls-2" x="1832.05" y="645.3" width="6.46" height="6.46"/><circle class="cls-3" cx="1835.28" cy="648.53" r="3.23"/><rect class="cls-2" x="1768.66" y="424.69" width="9.5" height="9.5"/><circle class="cls-3" cx="1773.42" cy="429.45" r="4.75"/><rect class="cls-2" x="1613.9" y="568.87" width="5.9" height="5.9"/><circle class="cls-3" cx="1616.85" cy="571.81" r="2.95"/><rect class="cls-2" x="1494.39" y="235.79" width="6.65" height="6.65"/><circle class="cls-3" cx="1497.71" cy="239.12" r="3.32"/><rect class="cls-2" x="1343.05" y="419.21" width="9.41" height="9.41"/><circle class="cls-3" cx="1347.76" cy="423.92" r="4.7"/><rect class="cls-2" x="1207" y="456.35" width="9.04" height="9.04"/><circle class="cls-3" cx="1211.51" cy="460.87" r="4.52"/><rect class="cls-2" x="1075.58" y="440.43" width="8.23" height="8.23"/><circle class="cls-3" cx="1079.7" cy="444.54" r="4.11"/><rect class="cls-2" x="926.85" y="328.23" width="7.24" height="7.24"/><circle class="cls-3" cx="930.47" cy="331.85" r="3.62"/><rect class="cls-2" x="795.8" y="430.08" width="11.41" height="11.41"/><circle class="cls-3" cx="801.5" cy="435.79" r="5.71"/><rect class="cls-2" x="653.45" y="509.51" width="5.86" height="5.86"/><circle class="cls-3" cx="656.38" cy="512.44" r="2.93"/><rect class="cls-2" x="524.61" y="279.13" width="5.33" height="5.33"/><circle class="cls-3" cx="527.28" cy="281.79" r="2.66"/><rect class="cls-2" x="395.19" y="311.63" width="5.7" height="5.7"/><circle class="cls-3" cx="398.04" cy="314.48" r="2.85"/><rect class="cls-2" x="219.74" y="482.87" width="10.29" height="10.29"/><circle class="cls-3" cx="224.88" cy="488.02" r="5.15"/><rect class="cls-2" x="225.72" y="280.34" width="7.11" height="7.11"/><circle class="cls-3" cx="229.27" cy="283.89" r="3.55"/><rect class="cls-2" x="233.55" y="329.32" width="3.09" height="3.09"/><circle class="cls-3" cx="235.09" cy="330.87" r="1.55"/><rect class="cls-2" x="346.8" y="99.57" width="3.6" height="3.6"/><circle class="cls-3" cx="348.6" cy="101.37" r="1.8"/><rect class="cls-2" x="490.39" y="307" width="5.14" height="5.14"/><circle class="cls-3" cx="492.96" cy="309.57" r="2.57"/><rect class="cls-2" x="631.89" y="243.28" width="5.98" height="5.98"/><circle class="cls-3" cx="634.88" cy="246.27" r="2.99"/><rect class="cls-2" x="765.38" y="365.84" width="10.92" height="10.92"/><circle class="cls-3" cx="770.84" cy="371.3" r="5.46"/><rect class="cls-2" x="926.04" y="91.2" width="10.75" height="10.75"/><circle class="cls-3" cx="931.41" cy="96.58" r="5.37"/><rect class="cls-2" x="1063.61" y="72.13" width="7.57" height="7.57"/><circle class="cls-3" cx="1067.39" cy="75.91" r="3.78"/><rect class="cls-2" x="1182.52" y="433.31" width="3.53" height="3.53"/><circle class="cls-3" cx="1184.29" cy="435.08" r="1.77"/><rect class="cls-2" x="1338.23" y="144.26" width="8.38" height="8.38"/><circle class="cls-3" cx="1342.42" cy="148.45" r="4.19"/><rect class="cls-2" x="1467.53" y="403.22" width="10.65" height="10.65"/><circle class="cls-3" cx="1472.85" cy="408.54" r="5.33"/><rect class="cls-2" x="1611.37" y="293.82" width="4.11" height="4.11"/><circle class="cls-3" cx="1613.43" cy="295.88" r="2.06"/><rect class="cls-2" x="1754.95" y="266.33" width="6.33" height="6.33"/><circle class="cls-3" cx="1758.12" cy="269.49" r="3.16"/><rect class="cls-2" x="1826.61" y="59.37" width="9.89" height="9.89"/><circle class="cls-3" cx="1831.56" cy="64.31" r="4.94"/><rect class="cls-2" x="1638.78" y="152.46" width="2.94" height="2.94"/><circle class="cls-3" cx="1640.25" cy="153.92" r="1.47"/><rect class="cls-2" x="1517.58" y="67.78" width="4.76" height="4.76"/><circle class="cls-3" cx="1519.96" cy="70.16" r="2.38"/><rect class="cls-2" x="1241.05" y="4.88" width="5.72" height="5.72"/><circle class="cls-3" cx="1243.92" cy="7.74" r="2.86"/><rect class="cls-2" x="960.87" y="108.05" width="7.34" height="7.34"/><circle class="cls-3" cx="964.54" cy="111.72" r="3.67"/><rect class="cls-2" x="828.66" y="164.03" width="4.5" height="4.5"/><circle class="cls-3" cx="830.91" cy="166.28" r="2.25"/><rect class="cls-2" x="545.19" y="44.43" width="11.68" height="11.68"/><circle class="cls-3" cx="551.03" cy="50.27" r="5.84"/><rect class="cls-2" x="421.39" y="140.11" width="6.48" height="6.48"/><circle class="cls-3" cx="424.63" cy="143.35" r="3.24"/><rect class="cls-2" x="288.65" y="172.18" width="6.81" height="6.81"/><circle class="cls-3" cx="292.06" cy="175.59" r="3.41"/><rect class="cls-2" x="140.01" y="120.18" width="4.82" height="4.82"/><circle class="cls-3" cx="142.42" cy="122.59" r="2.41"/><rect class="cls-3" x="-30.67" y="995.49" width="1991.68" height="276.84"/><polygon class="cls-4" points="998.66 921.71 960 975.62 1037.32 975.62 998.66 921.71"/><polygon class="cls-4" points="998.66 904.7 968.55 946.68 1028.77 946.68 998.66 904.7"/><polygon class="cls-4" points="998.66 889.5 976.86 919.9 1020.46 919.9 998.66 889.5"/><polygon class="cls-5" points="980.75 946.68 1016.57 946.68 1017.99 948.66 980.75 946.68"/><polygon class="cls-5" points="987.77 919.9 1009.56 919.9 1010.43 921.11 987.77 919.9"/><path class="cls-3" d="M995.46,889.1l-2.67,3.72A3.93,3.93,0,0,0,996,899h5.33a3.92,3.92,0,0,0,3.19-6.21l-2.66-3.72A3.93,3.93,0,0,0,995.46,889.1Z"/><circle class="cls-3" cx="991.37" cy="899.05" r="2.43"/><circle class="cls-3" cx="996.23" cy="899.05" r="2.43"/><circle class="cls-3" cx="1005.95" cy="899.05" r="2.43"/><path class="cls-3" d="M990,922.35H976.86a2.45,2.45,0,1,1,0-4.9H990a2.45,2.45,0,0,1,0,4.9Z"/><path class="cls-3" d="M998.23,922.35h-2a2.45,2.45,0,0,1,0-4.9h2a2.45,2.45,0,0,1,0,4.9Z"/><rect class="cls-6" x="993.78" y="975.62" width="9.74" height="19.88"/><polygon class="cls-4" points="148.81 857.37 76.43 958.28 221.18 958.28 148.81 857.37"/><polygon class="cls-4" points="148.81 825.52 92.44 904.11 205.17 904.11 148.81 825.52"/><polygon class="cls-4" points="148.81 797.06 107.99 853.98 189.63 853.98 148.81 797.06"/><polygon class="cls-5" points="115.28 904.11 182.33 904.11 184.99 907.83 115.28 904.11"/><polygon class="cls-5" points="128.42 853.98 169.22 853.98 170.84 856.24 128.42 853.98"/><path class="cls-3" d="M145.6,792.45,133.94,808.7a3.92,3.92,0,0,0,3.19,6.21h23.31a3.92,3.92,0,0,0,3.19-6.21L152,792.45A3.92,3.92,0,0,0,145.6,792.45Z"/><circle class="cls-3" cx="135.16" cy="814.95" r="4.55"/><circle class="cls-3" cx="144.26" cy="814.95" r="4.55"/><circle class="cls-3" cx="162.45" cy="814.95" r="4.55"/><path class="cls-3" d="M132.5,858.56H108a4.58,4.58,0,0,1,0-9.16H132.5a4.58,4.58,0,1,1,0,9.16Z"/><path class="cls-3" d="M148,858.56h-3.74a4.58,4.58,0,1,1,0-9.16H148a4.58,4.58,0,0,1,0,9.16Z"/><rect class="cls-6" x="139.67" y="958.28" width="18.23" height="37.21"/><polygon class="cls-5" points="705.63 896.13 653.57 968.73 757.7 968.73 705.63 896.13"/><polygon class="cls-5" points="705.63 873.22 665.09 929.76 746.18 929.76 705.63 873.22"/><polygon class="cls-5" points="705.63 852.75 676.27 893.69 735 893.69 705.63 852.75"/><polygon class="cls-7" points="681.52 929.76 729.75 929.76 731.66 932.43 681.52 929.76"/><polygon class="cls-7" points="690.97 893.69 720.33 893.69 721.49 895.32 690.97 893.69"/><path class="cls-3" d="M702.44,850.67l-6.24,8.71a3.93,3.93,0,0,0,3.19,6.21h12.48a3.92,3.92,0,0,0,3.19-6.21l-6.24-8.71A3.93,3.93,0,0,0,702.44,850.67Z"/><circle class="cls-3" cx="695.83" cy="865.62" r="3.27"/><circle class="cls-3" cx="702.38" cy="865.62" r="3.27"/><circle class="cls-3" cx="708.92" cy="865.62" r="3.27"/><circle class="cls-3" cx="715.46" cy="865.62" r="3.27"/><path class="cls-3" d="M746.18,933H719.77a3.3,3.3,0,1,1,0-6.59h26.41a3.3,3.3,0,0,1,0,6.59Z"/><rect class="cls-6" x="699.07" y="968.73" width="13.12" height="26.77"/><polygon class="cls-5" points="1756.93 909.6 1711.93 972.35 1801.94 972.35 1756.93 909.6"/><polygon class="cls-5" points="1756.93 889.79 1721.88 938.67 1791.98 938.67 1756.93 889.79"/><polygon class="cls-5" points="1756.93 872.1 1731.55 907.49 1782.32 907.49 1756.93 872.1"/><polygon class="cls-7" points="1736.09 938.67 1777.78 938.67 1779.44 940.98 1736.09 938.67"/><polygon class="cls-7" points="1744.26 907.49 1769.64 907.49 1770.64 908.9 1744.26 907.49"/><path class="cls-3" d="M1753.75,870.91l-4.36,6.07a3.93,3.93,0,0,0,3.19,6.22h8.71a3.93,3.93,0,0,0,3.19-6.22l-4.36-6.07A3.91,3.91,0,0,0,1753.75,870.91Z"/><circle class="cls-3" cx="1748.46" cy="883.22" r="2.83"/><circle class="cls-3" cx="1754.12" cy="883.22" r="2.83"/><circle class="cls-3" cx="1759.78" cy="883.22" r="2.83"/><circle class="cls-3" cx="1765.43" cy="883.22" r="2.83"/><path class="cls-3" d="M1792,941.48h-22.83a2.85,2.85,0,0,1,0-5.7H1792a2.85,2.85,0,0,1,0,5.7Z"/><rect class="cls-6" x="1751.26" y="972.35" width="11.34" height="23.14"/><polygon class="cls-8" points="531.03 900.89 454.43 826.28 377.82 900.89 377.82 995.49 531.03 995.49 531.03 900.89"/><path class="cls-9" d="M432.1,920.81h0a24,24,0,0,1,24,24v50.64a0,0,0,0,1,0,0H408.06a0,0,0,0,1,0,0V944.85A24,24,0,0,1,432.1,920.81Z"/><path class="cls-10" d="M494.1,920.81h0A15.23,15.23,0,0,1,509.33,936v19.72a0,0,0,0,1,0,0H478.87a0,0,0,0,1,0,0V936a15.23,15.23,0,0,1,15.23-15.23Z"/><rect class="cls-8" x="392.43" y="784.52" width="43.53" height="65.12"/><path class="cls-3" d="M357.44,916.59a15.51,15.51,0,0,1-10.95-26.48l97-96.77a15.5,15.5,0,0,1,21.9,0l97,96.77a15.5,15.5,0,0,1-21.9,21.95l-86-85.85-86,85.85A15.46,15.46,0,0,1,357.44,916.59Z"/><path class="cls-3" d="M436,786.33H390.57a7,7,0,0,1,0-14H436a7,7,0,0,1,0,14Z"/><circle class="cls-9" cx="1380.23" cy="898.17" r="68.09"/><path class="cls-11" d="M1325,904.46h-.42a6,6,0,0,1-5.58-6.4,62.43,62.43,0,0,1,91.39-50.92,6,6,0,1,1-5.6,10.62,51.09,51.09,0,0,0-8.5-3.53A50.4,50.4,0,0,0,1331,898.88,6,6,0,0,1,1325,904.46Z"/><circle class="cls-9" cx="1432.47" cy="850.21" r="4.71"/><path class="cls-8" d="M1307,921.06a6,6,0,0,0-6,5.3,22.33,22.33,0,0,1-44.26,1.2,7.79,7.79,0,0,0-7.72-6.5h0v44.56a4.55,4.55,0,0,0,4.55,4.55h137.13a4.56,4.56,0,0,0,4.56-4.55v-40a4.55,4.55,0,0,0-4.56-4.55Z"/><path class="cls-9" d="M1380.7,963.63h-49a3.5,3.5,0,0,1,0-7h49a1.06,1.06,0,0,0,1-1v-20a3.5,3.5,0,0,1,7,0v20A8.06,8.06,0,0,1,1380.7,963.63Z"/><path class="cls-10" d="M1409.15,995.49H1205.59c-17,0-31.46-13.33-32-30.37a31.32,31.32,0,0,1,59.89-13.74l-.14.07a14,14,0,0,1-15-2.49,20.32,20.32,0,1,0-13.47,35.53h193.23a11,11,0,0,1,11,11Z"/><rect class="cls-10" x="1331.24" y="976.44" width="23.54" height="11" transform="translate(2324.96 -361.07) rotate(90)"/><rect class="cls-10" x="1280.27" y="976.44" width="23.54" height="11" transform="translate(2273.98 -310.1) rotate(90)"/><circle class="cls-3" cx="1433.7" cy="838.08" r="7.83"/><circle class="cls-3" cx="1444.42" cy="848.5" r="7.83"/><circle class="cls-3" cx="1611.2" cy="958.28" r="37.22"/><circle class="cls-3" cx="1611.2" cy="902.69" r="23.59"/><path class="cls-8" d="M1596.15,882.48c2.75-13.68,9.93-23.79,23.25-21.11s16,14.77,13.29,28.46"/><path class="cls-8" d="M1638.27,893.37l-48.63-9.78a2.37,2.37,0,1,1,.93-4.64l48.63,9.77a2.37,2.37,0,0,1-.93,4.65Z"/><path class="cls-12" d="M1552.78,921.18a3.06,3.06,0,0,1-.89-.14l-22.33-7a3,3,0,0,1,1.79-5.73l17.86,5.58L1547,897.08a3,3,0,0,1,6-.78l2.79,21.49a3,3,0,0,1-3,3.39Z"/><path class="cls-12" d="M1587.61,941a2.94,2.94,0,0,1-1.48-.4l-34.83-19.77a3,3,0,0,1,3-5.22l34.82,19.78a3,3,0,0,1-1.48,5.61Z"/><path class="cls-12" d="M1653,914.33a3,3,0,0,1-3-3v-21.5a3,3,0,0,1,6,0V908.1l17.44-1.27a3,3,0,0,1,.44,6l-20.66,1.51Z"/><path class="cls-12" d="M1626.9,942.21a3,3,0,0,1-2.19-5.05l26-27.88a3,3,0,0,1,4.39,4.1l-26.06,27.88A3,3,0,0,1,1626.9,942.21Z"/></g></g></svg>