<svg xmlns="http://www.w3.org/2000/svg" xmlns:xlink="http://www.w3.org/1999/xlink" width="5760" height="1080" viewBox="0 0 5760 1080"><defs><style>.cls-1{fill:url(#linear-gradient);}.cls-2{fill:none;}.cls-3{fill:#fff;}.cls-4{fill:#008748;}.cls-5{fill:#006837;}.cls-6{fill:#a57c52;}.cls-7{fill:#004e29;}.cls-8{fill:#e92c0c;}.cls-9{fill:#d20000;}.cls-10{fill:#fbed21;}.cls-11{fill:#9e0000;}.cls-12{fill:#8b6239;}.cls-13{fill:url(#linear-gradient-2);}.cls-14{fill:url(#linear-gradient-3);}</style><linearGradient id="linear-gradient" x1="960" y1="1034.5" x2="960" y2="-18.36" gradientUnits="userSpaceOnUse"><stop offset="0" stop-color="#76828f"/><stop offset="0.06" stop-color="#697684"/><stop offset="0.21" stop-color="#4b5b6c"/><stop offset="0.38" stop-color="#344558"/><stop offset="0.56" stop-color="#23364b"/><stop offset="0.75" stop-color="#192d43"/><stop offset="1" stop-color="#162a40"/></linearGradient><linearGradient id="linear-gradient-2" x1="2880.35" y1="1034.5" x2="2880.35" y2="-18.36" xlink:href="#linear-gradient"/><linearGradient id="linear-gradient-3" x1="4800.35" y1="1034.5" x2="4800.35" y2="-18.36" xlink:href="#linear-gradient"/></defs><title>Titel Baggrund</title><g id="Titelskærm"><g id="Baggrund"><rect class="cls-1" y="-18.36" width="1920" height="1052.86"/><rect class="cls-2" x="2007.27" y="292.35" width="4.15" height="4.15"/><circle class="cls-3" cx="2009.35" cy="294.43" r="2.08"/><rect class="cls-2" x="1988.2" y="340.82" width="7.06" height="7.06"/><circle class="cls-3" cx="1991.73" cy="344.35" r="3.53"/><rect class="cls-2" x="1670.52" y="418.88" width="9.57" height="9.57"/><circle class="cls-3" cx="1675.31" cy="423.67" r="4.79"/><rect class="cls-2" x="1669.11" y="541.76" width="3.3" height="3.3"/><circle class="cls-3" cx="1670.76" cy="543.41" r="1.65"/><rect class="cls-2" x="1750.18" y="748.06" width="5.91" height="5.91"/><circle class="cls-3" cx="1753.14" cy="751.02" r="2.96"/><rect class="cls-2" x="1517.22" y="896.79" width="9.12" height="9.12"/><circle class="cls-3" cx="1521.78" cy="901.35" r="4.56"/><rect class="cls-2" x="1533.08" y="618.73" width="8.6" height="8.6"/><circle class="cls-3" cx="1537.38" cy="623.03" r="4.3"/><rect class="cls-2" x="1312.06" y="567.09" width="3.02" height="3.02"/><circle class="cls-3" cx="1313.57" cy="568.6" r="1.51"/><rect class="cls-2" x="1491.68" y="324.66" width="9.27" height="9.27"/><circle class="cls-3" cx="1496.31" cy="329.29" r="4.64"/><rect class="cls-2" x="1293.06" y="288.03" width="10.76" height="10.76"/><circle class="cls-3" cx="1298.44" cy="293.41" r="5.38"/><rect class="cls-2" x="1178.54" y="180" width="7.14" height="7.14"/><circle class="cls-3" cx="1182.11" cy="183.57" r="3.57"/><rect class="cls-2" x="947.59" y="206.22" width="5.49" height="5.49"/><circle class="cls-3" cx="950.33" cy="208.96" r="2.74"/><rect class="cls-2" x="927.8" y="359.26" width="10.83" height="10.83"/><circle class="cls-3" cx="933.22" cy="364.67" r="5.42"/><rect class="cls-2" x="1036.72" y="539.65" width="7.44" height="7.44"/><circle class="cls-3" cx="1040.44" cy="543.37" r="3.72"/><rect class="cls-2" x="783.18" y="575.26" width="11.71" height="11.71"/><circle class="cls-3" cx="789.03" cy="581.12" r="5.86"/><rect class="cls-2" x="811" y="598.02" width="7.39" height="7.39"/><circle class="cls-3" cx="814.7" cy="601.72" r="3.7"/><rect class="cls-2" x="568.54" y="699.89" width="3.65" height="3.65"/><circle class="cls-3" cx="570.36" cy="701.71" r="1.83"/><rect class="cls-2" x="743.93" y="402.19" width="10.51" height="10.51"/><circle class="cls-3" cx="749.19" cy="407.44" r="5.25"/><rect class="cls-2" x="408.19" y="426.45" width="6.32" height="6.32"/><circle class="cls-3" cx="411.35" cy="429.61" r="3.16"/><rect class="cls-2" x="432.53" y="292.8" width="7.28" height="7.28"/><circle class="cls-3" cx="436.17" cy="296.44" r="3.64"/><rect class="cls-2" x="324.74" y="243.66" width="8.44" height="8.44"/><circle class="cls-3" cx="328.96" cy="247.88" r="4.22"/><rect class="cls-2" x="203.76" y="170.99" width="10.43" height="10.43"/><circle class="cls-3" cx="208.98" cy="176.21" r="5.22"/><rect class="cls-2" x="298.14" y="249.55" width="9.37" height="9.37"/><circle class="cls-3" cx="302.82" cy="254.23" r="4.68"/><rect class="cls-2" x="229.85" y="421.88" width="9.27" height="9.27"/><circle class="cls-3" cx="234.48" cy="426.52" r="4.63"/><rect class="cls-2" x="112.71" y="580.38" width="9.87" height="9.87"/><circle class="cls-3" cx="117.65" cy="585.31" r="4.94"/><rect class="cls-2" x="378.23" y="729.35" width="5.92" height="5.92"/><circle class="cls-3" cx="381.19" cy="732.31" r="2.96"/><rect class="cls-2" x="183.39" y="599.49" width="3.75" height="3.75"/><circle class="cls-3" cx="185.27" cy="601.36" r="1.87"/><rect class="cls-2" x="196.07" y="586.96" width="10.79" height="10.79"/><circle class="cls-3" cx="201.46" cy="592.35" r="5.4"/><rect class="cls-2" x="116.43" y="521.63" width="5.3" height="5.3"/><circle class="cls-3" cx="119.08" cy="524.28" r="2.65"/><rect class="cls-2" x="263.67" y="461.76" width="7.18" height="7.18"/><circle class="cls-3" cx="267.26" cy="465.35" r="3.59"/><rect class="cls-2" x="300.61" y="328.08" width="7.12" height="7.12"/><circle class="cls-3" cx="304.17" cy="331.64" r="3.56"/><rect class="cls-2" x="344.32" y="200.9" width="6.28" height="6.28"/><circle class="cls-3" cx="347.46" cy="204.04" r="3.14"/><rect class="cls-2" x="436.46" y="91.94" width="6.02" height="6.02"/><circle class="cls-3" cx="439.47" cy="94.95" r="3.01"/><rect class="cls-2" x="557.31" y="159.13" width="10.52" height="10.52"/><circle class="cls-3" cx="562.57" cy="164.39" r="5.26"/><rect class="cls-2" x="844.84" y="7.86" width="3.56" height="3.56"/><circle class="cls-3" cx="846.62" cy="9.64" r="1.78"/><rect class="cls-2" x="973.1" y="94.07" width="8.33" height="8.33"/><circle class="cls-3" cx="977.27" cy="98.24" r="4.17"/><rect class="cls-2" x="1243.43" y="68.4" width="10.32" height="10.32"/><circle class="cls-3" cx="1248.6" cy="73.56" r="5.16"/><rect class="cls-2" x="1515.98" y="63.56" width="10.43" height="10.43"/><circle class="cls-3" cx="1521.2" cy="68.78" r="5.22"/><rect class="cls-2" x="1745.53" y="157.8" width="6.52" height="6.52"/><circle class="cls-3" cx="1748.79" cy="161.06" r="3.26"/><rect class="cls-2" x="1750.89" y="288.96" width="11.11" height="11.11"/><circle class="cls-3" cx="1756.44" cy="294.51" r="5.55"/><rect class="cls-2" x="2062.45" y="281.76" width="3.91" height="3.91"/><circle class="cls-3" cx="2064.4" cy="283.71" r="1.95"/><rect class="cls-2" x="2086.67" y="438.78" width="4.72" height="4.72"/><circle class="cls-3" cx="2089.03" cy="441.14" r="2.36"/><rect class="cls-2" x="1961.09" y="597.49" width="8.08" height="8.08"/><circle class="cls-3" cx="1965.13" cy="601.53" r="4.04"/><rect class="cls-2" x="1956.27" y="753.44" width="7.27" height="7.27"/><circle class="cls-3" cx="1959.91" cy="757.08" r="3.64"/><rect class="cls-2" x="1790.63" y="712.1" width="10.43" height="10.43"/><circle class="cls-3" cx="1795.84" cy="717.31" r="5.21"/><rect class="cls-2" x="1685.83" y="820.12" width="5.93" height="5.93"/><circle class="cls-3" cx="1688.79" cy="823.09" r="2.97"/><rect class="cls-2" x="1543.34" y="734.03" width="4.32" height="4.32"/><circle class="cls-3" cx="1545.5" cy="736.19" r="2.16"/><rect class="cls-2" x="1393.23" y="931.26" width="9.63" height="9.63"/><circle class="cls-3" cx="1398.04" cy="936.07" r="4.81"/><rect class="cls-2" x="1263.6" y="776.35" width="5.03" height="5.03"/><circle class="cls-3" cx="1266.12" cy="778.86" r="2.52"/><rect class="cls-2" x="1124.51" y="706.88" width="7.05" height="7.05"/><circle class="cls-3" cx="1128.04" cy="710.4" r="3.52"/><rect class="cls-2" x="973.93" y="883.87" width="4.3" height="4.3"/><circle class="cls-3" cx="976.08" cy="886.02" r="2.15"/><rect class="cls-2" x="832.67" y="937.45" width="7.18" height="7.18"/><circle class="cls-3" cx="836.26" cy="941.04" r="3.59"/><rect class="cls-2" x="710.52" y="639.15" width="3.42" height="3.42"/><circle class="cls-3" cx="712.23" cy="640.86" r="1.71"/><rect class="cls-2" x="564.28" y="744.24" width="4.82" height="4.82"/><circle class="cls-3" cx="566.69" cy="746.65" r="2.41"/><rect class="cls-2" x="442.63" y="641.53" width="11.67" height="11.67"/><circle class="cls-3" cx="448.46" cy="647.36" r="5.83"/><rect class="cls-2" x="301.2" y="733.38" width="3.79" height="3.79"/><circle class="cls-3" cx="303.09" cy="735.28" r="1.9"/><rect class="cls-2" x="319.29" y="754.4" width="6.83" height="6.83"/><circle class="cls-3" cx="322.71" cy="757.82" r="3.42"/><rect class="cls-2" x="386.06" y="606.39" width="4.94" height="4.94"/><circle class="cls-3" cx="388.53" cy="608.86" r="2.47"/><rect class="cls-2" x="531.12" y="703.67" width="11.05" height="11.05"/><circle class="cls-3" cx="536.65" cy="709.19" r="5.52"/><rect class="cls-2" x="672.96" y="438.36" width="5.28" height="5.28"/><circle class="cls-3" cx="675.6" cy="440.99" r="2.64"/><rect class="cls-2" x="799.88" y="690.09" width="6.98" height="6.98"/><circle class="cls-3" cx="803.37" cy="693.58" r="3.49"/><rect class="cls-2" x="931.56" y="708.69" width="6.14" height="6.14"/><circle class="cls-3" cx="934.63" cy="711.76" r="3.07"/><rect class="cls-2" x="1073.7" y="710.56" width="3.88" height="3.88"/><circle class="cls-3" cx="1075.65" cy="712.5" r="1.94"/><rect class="cls-2" x="1213.35" y="648.94" width="9.68" height="9.68"/><circle class="cls-3" cx="1218.19" cy="653.78" r="4.84"/><rect class="cls-2" x="1368.59" y="696.61" width="5.15" height="5.15"/><circle class="cls-3" cx="1371.17" cy="699.19" r="2.58"/><rect class="cls-2" x="1506.88" y="724.53" width="7.01" height="7.01"/><circle class="cls-3" cx="1510.39" cy="728.03" r="3.5"/><rect class="cls-2" x="1638.11" y="653.88" width="11.1" height="11.1"/><circle class="cls-3" cx="1643.67" cy="659.43" r="5.55"/><rect class="cls-2" x="1832.05" y="645.3" width="6.46" height="6.46"/><circle class="cls-3" cx="1835.28" cy="648.53" r="3.23"/><rect class="cls-2" x="1768.66" y="424.69" width="9.5" height="9.5"/><circle class="cls-3" cx="1773.42" cy="429.45" r="4.75"/><rect class="cls-2" x="1613.9" y="568.87" width="5.9" height="5.9"/><circle class="cls-3" cx="1616.85" cy="571.81" r="2.95"/><rect class="cls-2" x="1494.39" y="235.79" width="6.65" height="6.65"/><circle class="cls-3" cx="1497.71" cy="239.12" r="3.32"/><rect class="cls-2" x="1343.05" y="419.21" width="9.41" height="9.41"/><circle class="cls-3" cx="1347.76" cy="423.92" r="4.7"/><rect class="cls-2" x="1207" y="456.35" width="9.04" height="9.04"/><circle class="cls-3" cx="1211.51" cy="460.87" r="4.52"/><rect class="cls-2" x="1075.58" y="440.43" width="8.23" height="8.23"/><circle class="cls-3" cx="1079.7" cy="444.54" r="4.11"/><rect class="cls-2" x="926.85" y="328.23" width="7.24" height="7.24"/><circle class="cls-3" cx="930.47" cy="331.85" r="3.62"/><rect class="cls-2" x="795.8" y="430.08" width="11.41" height="11.41"/><circle class="cls-3" cx="801.5" cy="435.79" r="5.71"/><rect class="cls-2" x="653.45" y="509.51" width="5.86" height="5.86"/><circle class="cls-3" cx="656.38" cy="512.44" r="2.93"/><rect class="cls-2" x="524.61" y="279.13" width="5.33" height="5.33"/><circle class="cls-3" cx="527.28" cy="281.79" r="2.66"/><rect class="cls-2" x="395.19" y="311.63" width="5.7" height="5.7"/><circle class="cls-3" cx="398.04" cy="314.48" r="2.85"/><rect class="cls-2" x="219.74" y="482.87" width="10.29" height="10.29"/><circle class="cls-3" cx="224.88" cy="488.02" r="5.15"/><rect class="cls-2" x="225.72" y="280.34" width="7.11" height="7.11"/><circle class="cls-3" cx="229.27" cy="283.89" r="3.55"/><rect class="cls-2" x="233.55" y="329.32" width="3.09" height="3.09"/><circle class="cls-3" cx="235.09" cy="330.87" r="1.55"/><rect class="cls-2" x="346.8" y="99.57" width="3.6" height="3.6"/><circle class="cls-3" cx="348.6" cy="101.37" r="1.8"/><rect class="cls-2" x="490.39" y="307" width="5.14" height="5.14"/><circle class="cls-3" cx="492.96" cy="309.57" r="2.57"/><rect class="cls-2" x="631.89" y="243.28" width="5.98" height="5.98"/><circle class="cls-3" cx="634.88" cy="246.27" r="2.99"/><rect class="cls-2" x="765.38" y="365.84" width="10.92" height="10.92"/><circle class="cls-3" cx="770.84" cy="371.3" r="5.46"/><rect class="cls-2" x="926.04" y="91.2" width="10.75" height="10.75"/><circle class="cls-3" cx="931.41" cy="96.58" r="5.37"/><rect class="cls-2" x="1063.61" y="72.13" width="7.57" height="7.57"/><circle class="cls-3" cx="1067.39" cy="75.91" r="3.78"/><rect class="cls-2" x="1182.52" y="433.31" width="3.53" height="3.53"/><circle class="cls-3" cx="1184.29" cy="435.08" r="1.77"/><rect class="cls-2" x="1338.23" y="144.26" width="8.38" height="8.38"/><circle class="cls-3" cx="1342.42" cy="148.45" r="4.19"/><rect class="cls-2" x="1467.53" y="403.22" width="10.65" height="10.65"/><circle class="cls-3" cx="1472.85" cy="408.54" r="5.33"/><rect class="cls-2" x="1611.37" y="293.82" width="4.11" height="4.11"/><circle class="cls-3" cx="1613.43" cy="295.88" r="2.06"/><rect class="cls-2" x="1754.95" y="266.33" width="6.33" height="6.33"/><circle class="cls-3" cx="1758.12" cy="269.49" r="3.16"/><rect class="cls-2" x="1826.61" y="59.37" width="9.89" height="9.89"/><circle class="cls-3" cx="1831.56" cy="64.31" r="4.94"/><rect class="cls-2" x="1638.78" y="152.46" width="2.94" height="2.94"/><circle class="cls-3" cx="1640.25" cy="153.92" r="1.47"/><rect class="cls-2" x="1517.58" y="67.78" width="4.76" height="4.76"/><circle class="cls-3" cx="1519.96" cy="70.16" r="2.38"/><rect class="cls-2" x="1241.05" y="4.88" width="5.72" height="5.72"/><circle class="cls-3" cx="1243.92" cy="7.74" r="2.86"/><rect class="cls-2" x="960.87" y="108.05" width="7.34" height="7.34"/><circle class="cls-3" cx="964.54" cy="111.72" r="3.67"/><rect class="cls-2" x="828.66" y="164.03" width="4.5" height="4.5"/><circle class="cls-3" cx="830.91" cy="166.28" r="2.25"/><rect class="cls-2" x="545.19" y="44.43" width="11.68" height="11.68"/><circle class="cls-3" cx="551.03" cy="50.27" r="5.84"/><rect class="cls-2" x="421.39" y="140.11" width="6.48" height="6.48"/><circle class="cls-3" cx="424.63" cy="143.35" r="3.24"/><rect class="cls-2" x="288.65" y="172.18" width="6.81" height="6.81"/><circle class="cls-3" cx="292.06" cy="175.59" r="3.41"/><rect class="cls-2" x="140.01" y="120.18" width="4.82" height="4.82"/><circle class="cls-3" cx="142.42" cy="122.59" r="2.41"/><rect class="cls-3" y="995.49" width="1920" height="276.84"/><polygon class="cls-4" points="998.66 921.71 960 975.62 1037.32 975.62 998.66 921.71"/><polygon class="cls-4" points="998.66 904.7 968.55 946.68 1028.77 946.68 998.66 904.7"/><polygon class="cls-4" points="998.66 889.5 976.86 919.9 1020.46 919.9 998.66 889.5"/><polygon class="cls-5" points="980.75 946.68 1016.57 946.68 1017.99 948.66 980.75 946.68"/><polygon class="cls-5" points="987.77 919.9 1009.56 919.9 1010.43 921.11 987.77 919.9"/><path class="cls-3" d="M995.46,889.1l-2.67,3.72A3.93,3.93,0,0,0,996,899h5.33a3.92,3.92,0,0,0,3.19-6.21l-2.66-3.72A3.93,3.93,0,0,0,995.46,889.1Z"/><circle class="cls-3" cx="991.37" cy="899.05" r="2.43"/><circle class="cls-3" cx="996.23" cy="899.05" r="2.43"/><circle class="cls-3" cx="1005.95" cy="899.05" r="2.43"/><path class="cls-3" d="M990,922.35H976.86a2.45,2.45,0,1,1,0-4.9H990a2.45,2.45,0,0,1,0,4.9Z"/><path class="cls-3" d="M998.23,922.35h-2a2.45,2.45,0,0,1,0-4.9h2a2.45,2.45,0,0,1,0,4.9Z"/><rect class="cls-6" x="993.78" y="975.62" width="9.74" height="19.88"/><polygon class="cls-4" points="148.81 857.37 76.43 958.28 221.18 958.28 148.81 857.37"/><polygon class="cls-4" points="148.81 825.52 92.44 904.11 205.17 904.11 148.81 825.52"/><polygon class="cls-4" points="148.81 797.06 107.99 853.98 189.63 853.98 148.81 797.06"/><polygon class="cls-5" points="115.28 904.11 182.33 904.11 184.99 907.83 115.28 904.11"/><polygon class="cls-5" points="128.42 853.98 169.22 853.98 170.84 856.24 128.42 853.98"/><path class="cls-3" d="M145.6,792.45,133.94,808.7a3.92,3.92,0,0,0,3.19,6.21h23.31a3.92,3.92,0,0,0,3.19-6.21L152,792.45A3.92,3.92,0,0,0,145.6,792.45Z"/><circle class="cls-3" cx="135.16" cy="814.95" r="4.55"/><circle class="cls-3" cx="144.26" cy="814.95" r="4.55"/><circle class="cls-3" cx="162.45" cy="814.95" r="4.55"/><path class="cls-3" d="M132.5,858.56H108a4.58,4.58,0,0,1,0-9.16H132.5a4.58,4.58,0,1,1,0,9.16Z"/><path class="cls-3" d="M148,858.56h-3.74a4.58,4.58,0,1,1,0-9.16H148a4.58,4.58,0,0,1,0,9.16Z"/><rect class="cls-6" x="139.67" y="958.28" width="18.23" height="37.21"/><polygon class="cls-5" points="705.63 896.13 653.57 968.73 757.7 968.73 705.63 896.13"/><polygon class="cls-5" points="705.63 873.22 665.09 929.76 746.18 929.76 705.63 873.22"/><polygon class="cls-5" points="705.63 852.75 676.27 893.69 735 893.69 705.63 852.75"/><polygon class="cls-7" points="681.52 929.76 729.75 929.76 731.66 932.43 681.52 929.76"/><polygon class="cls-7" points="690.97 893.69 720.33 893.69 721.49 895.32 690.97 893.69"/><path class="cls-3" d="M702.44,850.67l-6.24,8.71a3.93,3.93,0,0,0,3.19,6.21h12.48a3.92,3.92,0,0,0,3.19-6.21l-6.24-8.71A3.93,3.93,0,0,0,702.44,850.67Z"/><circle class="cls-3" cx="695.83" cy="865.62" r="3.27"/><circle class="cls-3" cx="702.38" cy="865.62" r="3.27"/><circle class="cls-3" cx="708.92" cy="865.62" r="3.27"/><circle class="cls-3" cx="715.46" cy="865.62" r="3.27"/><path class="cls-3" d="M746.18,933H719.77a3.3,3.3,0,1,1,0-6.59h26.41a3.3,3.3,0,0,1,0,6.59Z"/><rect class="cls-6" x="699.07" y="968.73" width="13.12" height="26.77"/><polygon class="cls-5" points="1756.93 909.6 1711.93 972.35 1801.94 972.35 1756.93 909.6"/><polygon class="cls-5" points="1756.93 889.79 1721.88 938.67 1791.98 938.67 1756.93 889.79"/><polygon class="cls-5" points="1756.93 872.1 1731.55 907.49 1782.32 907.49 1756.93 872.1"/><polygon class="cls-7" points="1736.09 938.67 1777.78 938.67 1779.44 940.98 1736.09 938.67"/><polygon class="cls-7" points="1744.26 907.49 1769.64 907.49 1770.64 908.9 1744.26 907.49"/><path class="cls-3" d="M1753.75,870.91l-4.36,6.07a3.93,3.93,0,0,0,3.19,6.22h8.71a3.93,3.93,0,0,0,3.19-6.22l-4.36-6.07A3.91,3.91,0,0,0,1753.75,870.91Z"/><circle class="cls-3" cx="1748.46" cy="883.22" r="2.83"/><circle class="cls-3" cx="1754.12" cy="883.22" r="2.83"/><circle class="cls-3" cx="1759.78" cy="883.22" r="2.83"/><circle class="cls-3" cx="1765.43" cy="883.22" r="2.83"/><path class="cls-3" d="M1792,941.48h-22.83a2.85,2.85,0,0,1,0-5.7H1792a2.85,2.85,0,0,1,0,5.7Z"/><rect class="cls-6" x="1751.26" y="972.35" width="11.34" height="23.14"/><polygon class="cls-8" points="531.03 900.89 454.43 826.28 377.82 900.89 377.82 995.49 531.03 995.49 531.03 900.89"/><path class="cls-9" d="M432.1,920.81h0a24,24,0,0,1,24,24v50.64a0,0,0,0,1,0,0H408.06a0,0,0,0,1,0,0V944.85A24,24,0,0,1,432.1,920.81Z"/><path class="cls-10" d="M494.1,920.81h0A15.23,15.23,0,0,1,509.33,936v19.72a0,0,0,0,1,0,0H478.87a0,0,0,0,1,0,0V936A15.23,15.23,0,0,1,494.1,920.81Z"/><rect class="cls-8" x="392.43" y="784.52" width="43.53" height="65.12"/><path class="cls-3" d="M357.44,916.59a15.51,15.51,0,0,1-10.95-26.48l97-96.77a15.5,15.5,0,0,1,21.9,0l97,96.77a15.5,15.5,0,0,1-21.9,21.95l-86-85.85-86,85.85A15.46,15.46,0,0,1,357.44,916.59Z"/><path class="cls-3" d="M436,786.33H390.57a7,7,0,0,1,0-14H436a7,7,0,0,1,0,14Z"/><circle class="cls-9" cx="1380.23" cy="898.17" r="68.09"/><path class="cls-11" d="M1325,904.46h-.42a6,6,0,0,1-5.58-6.4,62.43,62.43,0,0,1,91.39-50.92,6,6,0,1,1-5.6,10.62,51.09,51.09,0,0,0-8.5-3.53A50.4,50.4,0,0,0,1331,898.88,6,6,0,0,1,1325,904.46Z"/><circle class="cls-9" cx="1432.47" cy="850.21" r="4.71"/><path class="cls-8" d="M1307,921.06a6,6,0,0,0-6,5.3,22.33,22.33,0,0,1-44.26,1.2,7.79,7.79,0,0,0-7.72-6.5h0v44.56a4.55,4.55,0,0,0,4.55,4.55h137.13a4.56,4.56,0,0,0,4.56-4.55v-40a4.55,4.55,0,0,0-4.56-4.55Z"/><path class="cls-9" d="M1380.7,963.63h-49a3.5,3.5,0,0,1,0-7h49a1.06,1.06,0,0,0,1-1v-20a3.5,3.5,0,0,1,7,0v20A8.06,8.06,0,0,1,1380.7,963.63Z"/><path class="cls-10" d="M1409.15,995.49H1205.59c-17,0-31.46-13.33-32-30.37a31.32,31.32,0,0,1,59.89-13.74l-.14.07a14,14,0,0,1-15-2.49,20.32,20.32,0,1,0-13.47,35.53h193.23a11,11,0,0,1,11,11Z"/><rect class="cls-10" x="1331.24" y="976.44" width="23.54" height="11" transform="translate(2324.96 -361.07) rotate(90)"/><rect class="cls-10" x="1280.27" y="976.44" width="23.54" height="11" transform="translate(2273.98 -310.1) rotate(90)"/><circle class="cls-3" cx="1433.7" cy="838.08" r="7.83"/><circle class="cls-3" cx="1444.42" cy="848.5" r="7.83"/><circle class="cls-3" cx="1611.2" cy="958.28" r="37.22"/><circle class="cls-3" cx="1611.2" cy="902.69" r="23.59"/><path class="cls-8" d="M1596.15,882.48c2.75-13.68,9.93-23.79,23.25-21.11s16,14.77,13.29,28.46"/><path class="cls-8" d="M1638.27,893.37l-48.63-9.78a2.37,2.37,0,1,1,.93-4.64l48.63,9.77a2.37,2.37,0,0,1-.93,4.65Z"/><path class="cls-12" d="M1552.78,921.18a3.06,3.06,0,0,1-.89-.14l-22.33-7a3,3,0,0,1,1.79-5.73l17.86,5.58L1547,897.08a3,3,0,0,1,6-.78l2.79,21.49a3,3,0,0,1-3,3.39Z"/><path class="cls-12" d="M1587.61,941a2.94,2.94,0,0,1-1.48-.4l-34.83-19.77a3,3,0,0,1,3-5.22l34.82,19.78a3,3,0,0,1-1.48,5.61Z"/><path class="cls-12" d="M1653,914.33a3,3,0,0,1-3-3v-21.5a3,3,0,0,1,6,0V908.1l17.44-1.27a3,3,0,0,1,.44,6l-20.66,1.51Z"/><path class="cls-12" d="M1626.9,942.21a3,3,0,0,1-2.19-5.05l26-27.88a3,3,0,0,1,4.39,4.1l-26.06,27.88A3,3,0,0,1,1626.9,942.21Z"/><rect class="cls-13" x="1920.35" y="-18.36" width="1920" height="1052.86"/><rect class="cls-2" x="2113.02" y="557.3" width="4.15" height="4.15"/><circle class="cls-3" cx="2115.1" cy="559.37" r="2.08"/><rect class="cls-2" x="2129.19" y="505.92" width="7.06" height="7.06"/><circle class="cls-3" cx="2132.72" cy="509.45" r="3.53"/><rect class="cls-2" x="2444.35" y="425.35" width="9.57" height="9.57"/><circle class="cls-3" cx="2449.14" cy="430.14" r="4.79"/><rect class="cls-2" x="2452.04" y="308.75" width="3.3" height="3.3"/><circle class="cls-3" cx="2453.69" cy="310.39" r="1.65"/><rect class="cls-2" x="2368.35" y="99.83" width="5.91" height="5.91"/><circle class="cls-3" cx="2371.31" cy="102.79" r="2.96"/><rect class="cls-2" x="2582.76" y="226.47" width="8.6" height="8.6"/><circle class="cls-3" cx="2587.06" cy="230.77" r="4.3"/><rect class="cls-2" x="2809.37" y="283.69" width="3.02" height="3.02"/><circle class="cls-3" cx="2810.88" cy="285.2" r="1.51"/><rect class="cls-2" x="2623.5" y="519.87" width="9.27" height="9.27"/><circle class="cls-3" cx="2628.13" cy="524.51" r="4.64"/><rect class="cls-2" x="2820.63" y="555.01" width="10.76" height="10.76"/><circle class="cls-3" cx="2826" cy="560.39" r="5.38"/><rect class="cls-2" x="2938.77" y="666.66" width="7.14" height="7.14"/><circle class="cls-3" cx="2942.34" cy="670.23" r="3.57"/><rect class="cls-2" x="3171.37" y="642.1" width="5.49" height="5.49"/><circle class="cls-3" cx="3174.11" cy="644.84" r="2.74"/><rect class="cls-2" x="3185.81" y="483.71" width="10.83" height="10.83"/><circle class="cls-3" cx="3191.23" cy="489.13" r="5.42"/><rect class="cls-2" x="3080.29" y="306.72" width="7.44" height="7.44"/><circle class="cls-3" cx="3084.01" cy="310.43" r="3.72"/><rect class="cls-2" x="3329.56" y="266.83" width="11.71" height="11.71"/><circle class="cls-3" cx="3335.42" cy="272.68" r="5.86"/><rect class="cls-2" x="3306.05" y="248.39" width="7.39" height="7.39"/><circle class="cls-3" cx="3309.75" cy="252.08" r="3.7"/><rect class="cls-2" x="3552.26" y="150.26" width="3.65" height="3.65"/><circle class="cls-3" cx="3554.08" cy="152.09" r="1.83"/><rect class="cls-2" x="3370" y="441.1" width="10.51" height="10.51"/><circle class="cls-3" cx="3375.26" cy="446.36" r="5.25"/><rect class="cls-2" x="3709.94" y="421.03" width="6.32" height="6.32"/><circle class="cls-3" cx="3713.1" cy="424.19" r="3.16"/><rect class="cls-2" x="3684.64" y="553.73" width="7.28" height="7.28"/><circle class="cls-3" cx="3688.28" cy="557.37" r="3.64"/><rect class="cls-2" x="3791.26" y="601.7" width="8.44" height="8.44"/><circle class="cls-3" cx="3795.48" cy="605.92" r="4.22"/><rect class="cls-2" x="3910.26" y="672.38" width="10.43" height="10.43"/><circle class="cls-3" cx="3915.47" cy="677.6" r="5.22"/><rect class="cls-2" x="3816.94" y="594.89" width="9.37" height="9.37"/><circle class="cls-3" cx="3821.62" cy="599.57" r="4.68"/><rect class="cls-2" x="3885.33" y="422.65" width="9.27" height="9.27"/><circle class="cls-3" cx="3889.97" cy="427.29" r="4.63"/><rect class="cls-2" x="4001.86" y="263.55" width="9.87" height="9.87"/><circle class="cls-3" cx="4006.8" cy="268.49" r="4.94"/><rect class="cls-2" x="3740.3" y="118.53" width="5.92" height="5.92"/><circle class="cls-3" cx="3743.26" cy="121.49" r="2.96"/><rect class="cls-2" x="3937.31" y="250.57" width="3.75" height="3.75"/><circle class="cls-3" cx="3939.18" cy="252.44" r="1.87"/><rect class="cls-2" x="3917.59" y="256.05" width="10.79" height="10.79"/><circle class="cls-3" cx="3922.98" cy="261.45" r="5.4"/><rect class="cls-2" x="4002.72" y="326.88" width="5.3" height="5.3"/><circle class="cls-3" cx="4005.37" cy="329.53" r="2.65"/><rect class="cls-2" x="3853.6" y="384.86" width="7.18" height="7.18"/><circle class="cls-3" cx="3857.19" cy="388.45" r="3.59"/><rect class="cls-2" x="3816.72" y="518.61" width="7.12" height="7.12"/><circle class="cls-3" cx="3820.28" cy="522.17" r="3.56"/><rect class="cls-2" x="3773.85" y="646.62" width="6.28" height="6.28"/><circle class="cls-3" cx="3776.99" cy="649.76" r="3.14"/><rect class="cls-2" x="3681.96" y="755.84" width="6.02" height="6.02"/><circle class="cls-3" cx="3684.98" cy="758.85" r="3.01"/><rect class="cls-2" x="3556.62" y="684.16" width="10.52" height="10.52"/><circle class="cls-3" cx="3561.88" cy="689.41" r="5.26"/><rect class="cls-2" x="3414.77" y="933.22" width="11.41" height="11.41"/><circle class="cls-3" cx="3420.47" cy="938.93" r="5.7"/><rect class="cls-2" x="3276.05" y="842.38" width="3.56" height="3.56"/><circle class="cls-3" cx="3277.83" cy="844.16" r="1.78"/><rect class="cls-2" x="3143.01" y="751.4" width="8.33" height="8.33"/><circle class="cls-3" cx="3147.18" cy="755.57" r="4.17"/><rect class="cls-2" x="3003.23" y="911.12" width="3.3" height="3.3"/><circle class="cls-3" cx="3004.88" cy="912.77" r="1.65"/><rect class="cls-2" x="2870.69" y="775.08" width="10.32" height="10.32"/><circle class="cls-3" cx="2875.85" cy="780.24" r="5.16"/><rect class="cls-2" x="2736.4" y="890.16" width="4.79" height="4.79"/><circle class="cls-3" cx="2738.79" cy="892.56" r="2.39"/><rect class="cls-2" x="2598.03" y="779.81" width="10.43" height="10.43"/><circle class="cls-3" cx="2603.25" cy="785.03" r="5.22"/><rect class="cls-2" x="2433.13" y="909.51" width="8.99" height="8.99"/><circle class="cls-3" cx="2437.62" cy="914" r="4.5"/><rect class="cls-2" x="2372.39" y="689.48" width="6.52" height="6.52"/><circle class="cls-3" cx="2375.65" cy="692.74" r="3.26"/><rect class="cls-2" x="2362.45" y="553.73" width="11.11" height="11.11"/><circle class="cls-3" cx="2368" cy="559.29" r="5.55"/><rect class="cls-2" x="2058.1" y="568.13" width="3.91" height="3.91"/><circle class="cls-3" cx="2060.05" cy="570.09" r="1.95"/><rect class="cls-2" x="2033.06" y="410.3" width="4.72" height="4.72"/><circle class="cls-3" cx="2035.42" cy="412.66" r="2.36"/><rect class="cls-2" x="2155.27" y="248.24" width="8.08" height="8.08"/><circle class="cls-3" cx="2159.31" cy="252.28" r="4.04"/><rect class="cls-2" x="2160.9" y="93.09" width="7.27" height="7.27"/><circle class="cls-3" cx="2164.54" cy="96.72" r="3.64"/><rect class="cls-2" x="2323.4" y="131.28" width="10.43" height="10.43"/><circle class="cls-3" cx="2328.61" cy="136.49" r="5.21"/><rect class="cls-2" x="2432.69" y="27.75" width="5.93" height="5.93"/><circle class="cls-3" cx="2435.65" cy="30.72" r="2.97"/><rect class="cls-2" x="2576.78" y="115.45" width="4.32" height="4.32"/><circle class="cls-3" cx="2578.94" cy="117.61" r="2.16"/><rect class="cls-2" x="2855.81" y="72.42" width="5.03" height="5.03"/><circle class="cls-3" cx="2858.33" cy="74.94" r="2.52"/><rect class="cls-2" x="2992.89" y="139.87" width="7.05" height="7.05"/><circle class="cls-3" cx="2996.41" cy="143.4" r="3.52"/><rect class="cls-2" x="3410.5" y="211.23" width="3.42" height="3.42"/><circle class="cls-3" cx="3412.21" cy="212.94" r="1.71"/><rect class="cls-2" x="3555.35" y="104.74" width="4.82" height="4.82"/><circle class="cls-3" cx="3557.76" cy="107.15" r="2.41"/><rect class="cls-2" x="3670.15" y="200.61" width="11.67" height="11.67"/><circle class="cls-3" cx="3675.98" cy="206.44" r="5.83"/><rect class="cls-2" x="3819.46" y="116.63" width="3.79" height="3.79"/><circle class="cls-3" cx="3821.35" cy="118.53" r="1.9"/><rect class="cls-2" x="3798.32" y="92.56" width="6.83" height="6.83"/><circle class="cls-3" cx="3801.74" cy="95.98" r="3.42"/><rect class="cls-2" x="3733.45" y="242.47" width="4.94" height="4.94"/><circle class="cls-3" cx="3735.92" cy="244.94" r="2.47"/><rect class="cls-2" x="3582.28" y="139.08" width="11.05" height="11.05"/><circle class="cls-3" cx="3587.8" cy="144.61" r="5.52"/><rect class="cls-2" x="3446.21" y="410.17" width="5.28" height="5.28"/><circle class="cls-3" cx="3448.85" cy="412.81" r="2.64"/><rect class="cls-2" x="3317.58" y="156.73" width="6.98" height="6.98"/><circle class="cls-3" cx="3321.07" cy="160.22" r="3.49"/><rect class="cls-2" x="3186.75" y="138.97" width="6.14" height="6.14"/><circle class="cls-3" cx="3189.82" cy="142.04" r="3.07"/><rect class="cls-2" x="3046.86" y="139.36" width="3.88" height="3.88"/><circle class="cls-3" cx="3048.8" cy="141.3" r="1.94"/><rect class="cls-2" x="2901.41" y="195.19" width="9.68" height="9.68"/><circle class="cls-3" cx="2906.25" cy="200.03" r="4.84"/><rect class="cls-2" x="2750.7" y="152.04" width="5.15" height="5.15"/><circle class="cls-3" cx="2753.28" cy="154.61" r="2.58"/><rect class="cls-2" x="2610.56" y="122.27" width="7.01" height="7.01"/><circle class="cls-3" cx="2614.06" cy="125.77" r="3.5"/><rect class="cls-2" x="2475.23" y="188.82" width="11.1" height="11.1"/><circle class="cls-3" cx="2480.78" cy="194.37" r="5.55"/><rect class="cls-2" x="2285.93" y="202.04" width="6.46" height="6.46"/><circle class="cls-3" cx="2289.17" cy="205.27" r="3.23"/><rect class="cls-2" x="2346.28" y="419.6" width="9.5" height="9.5"/><circle class="cls-3" cx="2351.03" cy="424.36" r="4.75"/><rect class="cls-2" x="2504.65" y="279.04" width="5.9" height="5.9"/><circle class="cls-3" cx="2507.59" cy="281.99" r="2.95"/><rect class="cls-2" x="2623.41" y="611.36" width="6.65" height="6.65"/><circle class="cls-3" cx="2626.73" cy="614.68" r="3.32"/><rect class="cls-2" x="2771.98" y="425.18" width="9.41" height="9.41"/><circle class="cls-3" cx="2776.69" cy="429.88" r="4.7"/><rect class="cls-2" x="2908.42" y="388.42" width="9.04" height="9.04"/><circle class="cls-3" cx="2912.93" cy="392.93" r="4.52"/><rect class="cls-2" x="3040.64" y="405.14" width="8.23" height="8.23"/><circle class="cls-3" cx="3044.75" cy="409.26" r="4.11"/><rect class="cls-2" x="3190.36" y="518.34" width="7.24" height="7.24"/><circle class="cls-3" cx="3193.98" cy="521.96" r="3.62"/><rect class="cls-2" x="3317.24" y="412.31" width="11.41" height="11.41"/><circle class="cls-3" cx="3322.94" cy="418.01" r="5.71"/><rect class="cls-2" x="3465.14" y="338.44" width="5.86" height="5.86"/><circle class="cls-3" cx="3468.07" cy="341.37" r="2.93"/><rect class="cls-2" x="3594.51" y="569.35" width="5.33" height="5.33"/><circle class="cls-3" cx="3597.17" cy="572.01" r="2.66"/><rect class="cls-2" x="3723.56" y="536.47" width="5.7" height="5.7"/><circle class="cls-3" cx="3726.41" cy="539.32" r="2.85"/><rect class="cls-2" x="3894.42" y="360.64" width="10.29" height="10.29"/><circle class="cls-3" cx="3899.56" cy="365.78" r="5.15"/><rect class="cls-2" x="3891.62" y="566.35" width="7.11" height="7.11"/><circle class="cls-3" cx="3895.17" cy="569.91" r="3.55"/><rect class="cls-2" x="3887.81" y="521.38" width="3.09" height="3.09"/><circle class="cls-3" cx="3889.35" cy="522.93" r="1.55"/><rect class="cls-2" x="3774.05" y="750.63" width="3.6" height="3.6"/><circle class="cls-3" cx="3775.84" cy="752.43" r="1.8"/><rect class="cls-2" x="3628.91" y="541.66" width="5.14" height="5.14"/><circle class="cls-3" cx="3631.49" cy="544.23" r="2.57"/><rect class="cls-2" x="3486.58" y="604.54" width="5.98" height="5.98"/><circle class="cls-3" cx="3489.57" cy="607.53" r="2.99"/><rect class="cls-2" x="3348.15" y="477.04" width="10.92" height="10.92"/><circle class="cls-3" cx="3353.61" cy="482.5" r="5.46"/><rect class="cls-2" x="3187.66" y="751.85" width="10.75" height="10.75"/><circle class="cls-3" cx="3193.04" cy="757.23" r="5.37"/><rect class="cls-2" x="3053.27" y="774.11" width="7.57" height="7.57"/><circle class="cls-3" cx="3057.05" cy="777.89" r="3.78"/><rect class="cls-2" x="2938.39" y="416.96" width="3.53" height="3.53"/><circle class="cls-3" cx="2940.16" cy="418.73" r="1.77"/><rect class="cls-2" x="2777.83" y="701.16" width="8.38" height="8.38"/><circle class="cls-3" cx="2782.03" cy="705.35" r="4.19"/><rect class="cls-2" x="2646.27" y="439.93" width="10.65" height="10.65"/><circle class="cls-3" cx="2651.6" cy="445.26" r="5.33"/><rect class="cls-2" x="2508.97" y="555.87" width="4.11" height="4.11"/><circle class="cls-3" cx="2511.02" cy="557.92" r="2.06"/><rect class="cls-2" x="2363.16" y="581.14" width="6.33" height="6.33"/><circle class="cls-3" cx="2366.33" cy="584.31" r="3.16"/><rect class="cls-2" x="2287.95" y="784.55" width="9.89" height="9.89"/><circle class="cls-3" cx="2292.89" cy="789.49" r="4.94"/><rect class="cls-2" x="2482.73" y="698.41" width="2.94" height="2.94"/><circle class="cls-3" cx="2484.2" cy="699.88" r="1.47"/><rect class="cls-2" x="2602.1" y="781.26" width="4.76" height="4.76"/><circle class="cls-3" cx="2604.48" cy="783.64" r="2.38"/><rect class="cls-2" x="2748.54" y="872.58" width="4.91" height="4.91"/><circle class="cls-3" cx="2751" cy="875.03" r="2.46"/><rect class="cls-2" x="2877.67" y="843.2" width="5.72" height="5.72"/><circle class="cls-3" cx="2880.53" cy="846.06" r="2.86"/><rect class="cls-2" x="3023.43" y="878.64" width="2.93" height="2.93"/><circle class="cls-3" cx="3024.89" cy="880.11" r="1.46"/><rect class="cls-2" x="3156.23" y="738.41" width="7.34" height="7.34"/><circle class="cls-3" cx="3159.91" cy="742.08" r="3.67"/><rect class="cls-2" x="3291.29" y="685.28" width="4.5" height="4.5"/><circle class="cls-3" cx="3293.54" cy="687.53" r="2.25"/><rect class="cls-2" x="3432.44" y="871.73" width="7.17" height="7.17"/><circle class="cls-3" cx="3436.03" cy="875.32" r="3.59"/><rect class="cls-2" x="3567.57" y="797.69" width="11.68" height="11.68"/><circle class="cls-3" cx="3573.41" cy="803.53" r="5.84"/><rect class="cls-2" x="3696.58" y="707.21" width="6.48" height="6.48"/><circle class="cls-3" cx="3699.82" cy="710.45" r="3.24"/><rect class="cls-2" x="3828.98" y="674.81" width="6.81" height="6.81"/><circle class="cls-3" cx="3832.39" cy="678.21" r="3.41"/><rect class="cls-2" x="3979.62" y="728.81" width="4.82" height="4.82"/><circle class="cls-3" cx="3982.03" cy="731.22" r="2.41"/><rect class="cls-3" x="1920.35" y="995.49" width="1920" height="276.84"/><polygon class="cls-4" points="2919.01 921.71 2880.35 975.62 2957.67 975.62 2919.01 921.71"/><polygon class="cls-4" points="2919.01 904.7 2888.9 946.68 2949.11 946.68 2919.01 904.7"/><polygon class="cls-4" points="2919.01 889.5 2897.2 919.9 2940.81 919.9 2919.01 889.5"/><polygon class="cls-5" points="2901.1 946.68 2936.91 946.68 2938.34 948.66 2901.1 946.68"/><polygon class="cls-5" points="2908.12 919.9 2929.91 919.9 2930.78 921.11 2908.12 919.9"/><path class="cls-3" d="M2915.81,889.1l-2.67,3.72a3.92,3.92,0,0,0,3.19,6.21h5.33a3.92,3.92,0,0,0,3.19-6.21l-2.66-3.72A3.93,3.93,0,0,0,2915.81,889.1Z"/><circle class="cls-3" cx="2911.72" cy="899.05" r="2.43"/><circle class="cls-3" cx="2916.58" cy="899.05" r="2.43"/><circle class="cls-3" cx="2926.3" cy="899.05" r="2.43"/><path class="cls-3" d="M2910.3,922.35h-13.1a2.45,2.45,0,0,1,0-4.9h13.1a2.45,2.45,0,0,1,0,4.9Z"/><path class="cls-3" d="M2918.57,922.35h-2a2.45,2.45,0,1,1,0-4.9h2a2.45,2.45,0,0,1,0,4.9Z"/><rect class="cls-6" x="2914.13" y="975.62" width="9.74" height="19.88"/><polygon class="cls-4" points="2069.15 857.37 1996.78 958.28 2141.53 958.28 2069.15 857.37"/><polygon class="cls-4" points="2069.15 825.52 2012.79 904.11 2125.52 904.11 2069.15 825.52"/><polygon class="cls-4" points="2069.15 797.06 2028.34 853.98 2109.97 853.98 2069.15 797.06"/><polygon class="cls-5" points="2035.63 904.11 2102.68 904.11 2105.34 907.83 2035.63 904.11"/><polygon class="cls-5" points="2048.77 853.98 2089.56 853.98 2091.18 856.24 2048.77 853.98"/><path class="cls-3" d="M2065.94,792.45l-11.65,16.25a3.92,3.92,0,0,0,3.19,6.21h23.31a3.92,3.92,0,0,0,3.19-6.21l-11.66-16.25A3.92,3.92,0,0,0,2065.94,792.45Z"/><circle class="cls-3" cx="2055.51" cy="814.95" r="4.55"/><circle class="cls-3" cx="2064.61" cy="814.95" r="4.55"/><circle class="cls-3" cx="2082.8" cy="814.95" r="4.55"/><path class="cls-3" d="M2052.85,858.56h-24.51a4.58,4.58,0,1,1,0-9.16h24.51a4.58,4.58,0,0,1,0,9.16Z"/><path class="cls-3" d="M2068.34,858.56h-3.73a4.58,4.58,0,1,1,0-9.16h3.73a4.58,4.58,0,0,1,0,9.16Z"/><rect class="cls-6" x="2060.02" y="958.28" width="18.23" height="37.21"/><polygon class="cls-5" points="2625.98 896.13 2573.92 968.73 2678.04 968.73 2625.98 896.13"/><polygon class="cls-5" points="2625.98 873.22 2585.43 929.76 2666.53 929.76 2625.98 873.22"/><polygon class="cls-5" points="2625.98 852.75 2596.62 893.69 2655.34 893.69 2625.98 852.75"/><polygon class="cls-7" points="2601.86 929.76 2650.1 929.76 2652.01 932.43 2601.86 929.76"/><polygon class="cls-7" points="2611.32 893.69 2640.67 893.69 2641.84 895.32 2611.32 893.69"/><path class="cls-3" d="M2622.79,850.67l-6.24,8.71a3.92,3.92,0,0,0,3.19,6.21h12.48a3.92,3.92,0,0,0,3.19-6.21l-6.24-8.71A3.93,3.93,0,0,0,2622.79,850.67Z"/><circle class="cls-3" cx="2616.18" cy="865.62" r="3.27"/><circle class="cls-3" cx="2622.72" cy="865.62" r="3.27"/><circle class="cls-3" cx="2629.27" cy="865.62" r="3.27"/><circle class="cls-3" cx="2635.81" cy="865.62" r="3.27"/><path class="cls-3" d="M2666.53,933h-26.42a3.3,3.3,0,0,1,0-6.59h26.42a3.3,3.3,0,0,1,0,6.59Z"/><rect class="cls-6" x="2619.42" y="968.73" width="13.12" height="26.77"/><polygon class="cls-5" points="3677.28 909.6 3632.28 972.35 3722.29 972.35 3677.28 909.6"/><polygon class="cls-5" points="3677.28 889.79 3642.23 938.67 3712.33 938.67 3677.28 889.79"/><polygon class="cls-5" points="3677.28 872.1 3651.9 907.49 3702.67 907.49 3677.28 872.1"/><polygon class="cls-7" points="3656.43 938.67 3698.13 938.67 3699.78 940.98 3656.43 938.67"/><polygon class="cls-7" points="3664.61 907.49 3689.98 907.49 3690.99 908.9 3664.61 907.49"/><path class="cls-3" d="M3674.09,870.91l-4.36,6.07a3.93,3.93,0,0,0,3.19,6.22h8.72a3.93,3.93,0,0,0,3.19-6.22l-4.36-6.07A3.92,3.92,0,0,0,3674.09,870.91Z"/><circle class="cls-3" cx="3668.81" cy="883.22" r="2.83"/><circle class="cls-3" cx="3674.47" cy="883.22" r="2.83"/><circle class="cls-3" cx="3680.12" cy="883.22" r="2.83"/><circle class="cls-3" cx="3685.78" cy="883.22" r="2.83"/><path class="cls-3" d="M3712.33,941.48H3689.5a2.85,2.85,0,1,1,0-5.7h22.83a2.85,2.85,0,0,1,0,5.7Z"/><rect class="cls-6" x="3671.61" y="972.35" width="11.34" height="23.14"/><polygon class="cls-8" points="2451.38 900.89 2374.77 826.28 2298.17 900.89 2298.17 995.49 2451.38 995.49 2451.38 900.89"/><path class="cls-9" d="M2352.45,920.81h0a24,24,0,0,1,24,24v50.64a0,0,0,0,1,0,0h-48.08a0,0,0,0,1,0,0V944.85a24,24,0,0,1,24-24Z"/><path class="cls-10" d="M2414.45,920.81h0A15.23,15.23,0,0,1,2429.68,936v19.72a0,0,0,0,1,0,0h-30.47a0,0,0,0,1,0,0V936A15.23,15.23,0,0,1,2414.45,920.81Z"/><rect class="cls-8" x="2312.77" y="784.52" width="43.53" height="65.12"/><path class="cls-3" d="M2277.79,916.59a15.51,15.51,0,0,1-10.95-26.48l97-96.77a15.49,15.49,0,0,1,21.89,0l97,96.77a15.5,15.5,0,0,1-21.9,21.95l-86-85.85-86,85.85A15.42,15.42,0,0,1,2277.79,916.59Z"/><path class="cls-3" d="M2356.31,786.33h-45.4a7,7,0,0,1,0-14h45.4a7,7,0,0,1,0,14Z"/><circle class="cls-9" cx="3300.57" cy="898.17" r="68.09"/><path class="cls-11" d="M3245.32,904.46h-.42a6,6,0,0,1-5.57-6.4,62.43,62.43,0,0,1,91.39-50.92,6,6,0,0,1-5.6,10.62,51.09,51.09,0,0,0-8.5-3.53,50.44,50.44,0,0,0-65.32,44.66A6,6,0,0,1,3245.32,904.46Z"/><circle class="cls-9" cx="3352.81" cy="850.21" r="4.71"/><path class="cls-8" d="M3227.34,921.06a6,6,0,0,0-6,5.3,22.33,22.33,0,0,1-44.26,1.2,7.79,7.79,0,0,0-7.72-6.5h0v44.56a4.55,4.55,0,0,0,4.55,4.55h137.13a4.55,4.55,0,0,0,4.55-4.55v-40a4.55,4.55,0,0,0-4.55-4.55Z"/><path class="cls-9" d="M3301.05,963.63h-49a3.5,3.5,0,0,1,0-7h49a1.06,1.06,0,0,0,1-1v-20a3.5,3.5,0,0,1,7,0v20A8.07,8.07,0,0,1,3301.05,963.63Z"/><path class="cls-10" d="M3329.5,995.49H3125.94c-17,0-31.47-13.33-32-30.37a31.32,31.32,0,0,1,59.89-13.74l-.15.07a14,14,0,0,1-15-2.49,20.32,20.32,0,1,0-13.46,35.53H3318.5a11,11,0,0,1,11,11Z"/><rect class="cls-10" x="3251.59" y="976.44" width="23.54" height="11" transform="translate(4245.31 -2281.42) rotate(90)"/><rect class="cls-10" x="3200.62" y="976.44" width="23.54" height="11" transform="translate(4194.33 -2230.44) rotate(90)"/><circle class="cls-3" cx="3354.05" cy="838.08" r="7.83"/><circle class="cls-3" cx="3364.77" cy="848.5" r="7.83"/><circle class="cls-3" cx="3531.55" cy="958.28" r="37.22"/><circle class="cls-3" cx="3531.55" cy="902.69" r="23.59"/><path class="cls-8" d="M3516.49,882.48c2.75-13.68,9.94-23.79,23.26-21.11s16,14.77,13.29,28.46"/><path class="cls-8" d="M3558.62,893.37,3510,883.59a2.37,2.37,0,0,1,.94-4.64l48.63,9.77a2.37,2.37,0,1,1-.93,4.65Z"/><path class="cls-12" d="M3473.13,921.18a3,3,0,0,1-.89-.14l-22.33-7a3,3,0,1,1,1.79-5.73l17.85,5.58-2.18-16.84a3,3,0,0,1,6-.78l2.79,21.49a3,3,0,0,1-3,3.39Z"/><path class="cls-12" d="M3508,941a3,3,0,0,1-1.48-.4l-34.82-19.77a3,3,0,1,1,3-5.22l34.83,19.78A3,3,0,0,1,3508,941Z"/><path class="cls-12" d="M3573.3,914.33a3,3,0,0,1-3-3v-21.5a3,3,0,1,1,6,0V908.1l17.44-1.27a3,3,0,1,1,.44,6l-20.66,1.51Z"/><path class="cls-12" d="M3547.25,942.21a3,3,0,0,1-2.05-.8,3,3,0,0,1-.14-4.25l26.05-27.88a3,3,0,1,1,4.38,4.1l-26,27.88A3,3,0,0,1,3547.25,942.21Z"/><rect class="cls-14" x="3840.35" y="-18.36" width="1920" height="1052.86"/><rect class="cls-2" x="4246.86" y="870.59" width="9.57" height="9.57"/><circle class="cls-3" cx="4251.64" cy="875.38" r="4.79"/><rect class="cls-2" x="4130.25" y="869.18" width="3.3" height="3.3"/><circle class="cls-3" cx="4131.9" cy="870.83" r="1.65"/><rect class="cls-2" x="3921.34" y="950.25" width="5.91" height="5.91"/><circle class="cls-3" cx="3924.29" cy="953.21" r="2.96"/><rect class="cls-2" x="3769.4" y="717.29" width="9.12" height="9.12"/><circle class="cls-3" cx="3773.96" cy="721.84" r="4.56"/><rect class="cls-2" x="4047.98" y="733.15" width="8.6" height="8.6"/><circle class="cls-3" cx="4052.28" cy="737.45" r="4.3"/><rect class="cls-2" x="4105.2" y="512.13" width="3.02" height="3.02"/><circle class="cls-3" cx="4106.71" cy="513.64" r="1.51"/><rect class="cls-2" x="4341.38" y="691.75" width="9.27" height="9.27"/><circle class="cls-3" cx="4346.02" cy="696.38" r="4.64"/><rect class="cls-2" x="4376.52" y="493.13" width="10.76" height="10.76"/><circle class="cls-3" cx="4381.9" cy="498.51" r="5.38"/><rect class="cls-2" x="4488.17" y="378.61" width="7.14" height="7.14"/><circle class="cls-3" cx="4491.74" cy="382.18" r="3.57"/><rect class="cls-2" x="4463.6" y="147.66" width="5.49" height="5.49"/><circle class="cls-3" cx="4466.35" cy="150.4" r="2.74"/><rect class="cls-2" x="4305.22" y="127.87" width="10.83" height="10.83"/><circle class="cls-3" cx="4310.64" cy="133.29" r="5.42"/><rect class="cls-2" x="4128.22" y="236.79" width="7.44" height="7.44"/><circle class="cls-3" cx="4131.94" cy="240.51" r="3.72"/><rect class="cls-2" x="4069.9" y="11.07" width="7.39" height="7.39"/><circle class="cls-3" cx="4073.59" cy="14.77" r="3.7"/><rect class="cls-2" x="4663.89" y="44.91" width="3.56" height="3.56"/><circle class="cls-3" cx="4665.67" cy="46.69" r="1.78"/><rect class="cls-2" x="4572.91" y="173.17" width="8.33" height="8.33"/><circle class="cls-3" cx="4577.08" cy="177.34" r="4.17"/><rect class="cls-2" x="4732.63" y="317.99" width="3.3" height="3.3"/><circle class="cls-3" cx="4734.28" cy="319.64" r="1.65"/><rect class="cls-2" x="4596.59" y="443.5" width="10.32" height="10.32"/><circle class="cls-3" cx="4601.75" cy="448.67" r="5.16"/><rect class="cls-2" x="4711.67" y="583.33" width="4.79" height="4.79"/><circle class="cls-3" cx="4714.07" cy="585.72" r="2.39"/><rect class="cls-2" x="4601.32" y="716.05" width="10.43" height="10.43"/><circle class="cls-3" cx="4606.54" cy="721.27" r="5.22"/><rect class="cls-2" x="4731.02" y="882.4" width="8.99" height="8.99"/><circle class="cls-3" cx="4735.51" cy="886.89" r="4.5"/><rect class="cls-2" x="4510.99" y="945.6" width="6.52" height="6.52"/><circle class="cls-3" cx="4514.25" cy="948.86" r="3.26"/><rect class="cls-2" x="4375.24" y="950.96" width="11.11" height="11.11"/><circle class="cls-3" cx="4380.8" cy="956.51" r="5.55"/><rect class="cls-2" x="3952.79" y="990.7" width="10.43" height="10.43"/><circle class="cls-3" cx="3958" cy="995.91" r="5.21"/><rect class="cls-2" x="3849.26" y="885.9" width="5.93" height="5.93"/><circle class="cls-3" cx="3852.23" cy="888.86" r="2.97"/><rect class="cls-2" x="3936.96" y="743.41" width="4.32" height="4.32"/><circle class="cls-3" cx="3939.12" cy="745.57" r="2.16"/><rect class="cls-2" x="3734.42" y="593.29" width="9.63" height="9.63"/><circle class="cls-3" cx="3739.24" cy="598.11" r="4.81"/><rect class="cls-2" x="3893.93" y="463.67" width="5.03" height="5.03"/><circle class="cls-3" cx="3896.45" cy="466.19" r="2.52"/><rect class="cls-2" x="3961.38" y="324.58" width="7.05" height="7.05"/><circle class="cls-3" cx="3964.91" cy="328.11" r="3.52"/><rect class="cls-2" x="3787.14" y="174" width="4.3" height="4.3"/><circle class="cls-3" cx="3789.29" cy="176.15" r="2.15"/><rect class="cls-2" x="3730.68" y="32.74" width="7.18" height="7.18"/><circle class="cls-3" cx="3734.27" cy="36.33" r="3.59"/><rect class="cls-2" x="3978.24" y="-0.05" width="6.98" height="6.98"/><circle class="cls-3" cx="3981.73" cy="3.44" r="3.49"/><rect class="cls-2" x="3960.48" y="131.63" width="6.14" height="6.14"/><circle class="cls-3" cx="3963.55" cy="134.7" r="3.07"/><rect class="cls-2" x="3960.87" y="273.77" width="3.88" height="3.88"/><circle class="cls-3" cx="3962.81" cy="275.72" r="1.94"/><rect class="cls-2" x="4016.69" y="413.42" width="9.68" height="9.68"/><circle class="cls-3" cx="4021.53" cy="418.26" r="4.84"/><rect class="cls-2" x="3973.55" y="568.66" width="5.15" height="5.15"/><circle class="cls-3" cx="3976.12" cy="571.24" r="2.58"/><rect class="cls-2" x="3943.78" y="706.95" width="7.01" height="7.01"/><circle class="cls-3" cx="3947.28" cy="710.46" r="3.5"/><rect class="cls-2" x="4010.33" y="838.18" width="11.1" height="11.1"/><circle class="cls-3" cx="4015.88" cy="843.74" r="5.55"/><rect class="cls-2" x="4241.11" y="968.73" width="9.5" height="9.5"/><circle class="cls-3" cx="4245.87" cy="973.48" r="4.75"/><rect class="cls-2" x="4100.55" y="813.97" width="5.9" height="5.9"/><circle class="cls-3" cx="4103.5" cy="816.92" r="2.95"/><rect class="cls-2" x="4432.87" y="694.46" width="6.65" height="6.65"/><circle class="cls-3" cx="4436.19" cy="697.78" r="3.32"/><rect class="cls-2" x="4246.69" y="543.12" width="9.41" height="9.41"/><circle class="cls-3" cx="4251.39" cy="547.83" r="4.7"/><rect class="cls-2" x="4209.93" y="407.07" width="9.04" height="9.04"/><circle class="cls-3" cx="4214.44" cy="411.58" r="4.52"/><rect class="cls-2" x="4226.65" y="275.65" width="8.23" height="8.23"/><circle class="cls-3" cx="4230.77" cy="279.77" r="4.11"/><rect class="cls-2" x="4339.84" y="126.92" width="7.24" height="7.24"/><circle class="cls-3" cx="4343.46" cy="130.54" r="3.62"/><rect class="cls-2" x="4233.82" y="-4.13" width="11.41" height="11.41"/><circle class="cls-3" cx="4239.52" cy="1.57" r="5.71"/><rect class="cls-2" x="4573.36" y="126.11" width="10.75" height="10.75"/><circle class="cls-3" cx="4578.74" cy="131.48" r="5.37"/><rect class="cls-2" x="4595.62" y="263.68" width="7.57" height="7.57"/><circle class="cls-3" cx="4599.4" cy="267.46" r="3.78"/><rect class="cls-2" x="4238.47" y="382.59" width="3.53" height="3.53"/><circle class="cls-3" cx="4240.24" cy="384.36" r="1.77"/><rect class="cls-2" x="4522.67" y="538.3" width="8.38" height="8.38"/><circle class="cls-3" cx="4526.86" cy="542.49" r="4.19"/><rect class="cls-2" x="4261.44" y="667.6" width="10.65" height="10.65"/><circle class="cls-3" cx="4266.77" cy="672.92" r="5.33"/><rect class="cls-2" x="4377.37" y="811.44" width="4.11" height="4.11"/><circle class="cls-3" cx="4379.43" cy="813.5" r="2.06"/><rect class="cls-2" x="4402.65" y="955.02" width="6.33" height="6.33"/><circle class="cls-3" cx="4405.82" cy="958.19" r="3.16"/><rect class="cls-2" x="4519.92" y="838.85" width="2.94" height="2.94"/><circle class="cls-3" cx="4521.39" cy="840.32" r="1.47"/><rect class="cls-2" x="4602.77" y="717.65" width="4.76" height="4.76"/><circle class="cls-3" cx="4605.15" cy="720.03" r="2.38"/><rect class="cls-2" x="4694.08" y="571.06" width="4.91" height="4.91"/><circle class="cls-3" cx="4696.54" cy="573.52" r="2.46"/><rect class="cls-2" x="4664.71" y="441.12" width="5.72" height="5.72"/><circle class="cls-3" cx="4667.57" cy="443.99" r="2.86"/><rect class="cls-2" x="4700.15" y="298.16" width="2.93" height="2.93"/><circle class="cls-3" cx="4701.62" cy="299.62" r="1.46"/><rect class="cls-2" x="4559.92" y="160.94" width="7.34" height="7.34"/><circle class="cls-3" cx="4563.59" cy="164.61" r="3.67"/><rect class="cls-2" x="4506.79" y="28.73" width="4.5" height="4.5"/><circle class="cls-3" cx="4509.04" cy="30.98" r="2.25"/><rect class="cls-2" x="5260.1" y="870.59" width="9.57" height="9.57"/><circle class="cls-3" cx="5264.89" cy="875.38" r="4.79"/><rect class="cls-2" x="5143.5" y="869.18" width="3.3" height="3.3"/><circle class="cls-3" cx="5145.15" cy="870.83" r="1.65"/><rect class="cls-2" x="4934.58" y="950.25" width="5.91" height="5.91"/><circle class="cls-3" cx="4937.54" cy="953.21" r="2.96"/><rect class="cls-2" x="4782.64" y="717.29" width="9.12" height="9.12"/><circle class="cls-3" cx="4787.2" cy="721.84" r="4.56"/><rect class="cls-2" x="5061.22" y="733.15" width="8.6" height="8.6"/><circle class="cls-3" cx="5065.52" cy="737.45" r="4.3"/><rect class="cls-2" x="5118.44" y="512.13" width="3.02" height="3.02"/><circle class="cls-3" cx="5119.95" cy="513.64" r="1.51"/><rect class="cls-2" x="5354.63" y="691.75" width="9.27" height="9.27"/><circle class="cls-3" cx="5359.26" cy="696.38" r="4.64"/><rect class="cls-2" x="5389.77" y="493.13" width="10.76" height="10.76"/><circle class="cls-3" cx="5395.15" cy="498.51" r="5.38"/><rect class="cls-2" x="5501.41" y="378.61" width="7.14" height="7.14"/><circle class="cls-3" cx="5504.98" cy="382.18" r="3.57"/><rect class="cls-2" x="5476.85" y="147.66" width="5.49" height="5.49"/><circle class="cls-3" cx="5479.59" cy="150.4" r="2.74"/><rect class="cls-2" x="5318.46" y="127.87" width="10.83" height="10.83"/><circle class="cls-3" cx="5323.88" cy="133.29" r="5.42"/><rect class="cls-2" x="5141.47" y="236.79" width="7.44" height="7.44"/><circle class="cls-3" cx="5145.19" cy="240.51" r="3.72"/><rect class="cls-2" x="5083.14" y="11.07" width="7.39" height="7.39"/><circle class="cls-3" cx="5086.84" cy="14.77" r="3.7"/><rect class="cls-2" x="5677.13" y="44.91" width="3.56" height="3.56"/><circle class="cls-3" cx="5678.91" cy="46.69" r="1.78"/><rect class="cls-2" x="5586.15" y="173.17" width="8.33" height="8.33"/><circle class="cls-3" cx="5590.32" cy="177.34" r="4.17"/><rect class="cls-2" x="5745.87" y="317.99" width="3.3" height="3.3"/><circle class="cls-3" cx="5747.52" cy="319.64" r="1.65"/><rect class="cls-2" x="5609.83" y="443.5" width="10.32" height="10.32"/><circle class="cls-3" cx="5615" cy="448.67" r="5.16"/><rect class="cls-2" x="5724.92" y="583.33" width="4.79" height="4.79"/><circle class="cls-3" cx="5727.31" cy="585.72" r="2.39"/><rect class="cls-2" x="5614.56" y="716.05" width="10.43" height="10.43"/><circle class="cls-3" cx="5619.78" cy="721.27" r="5.22"/><rect class="cls-2" x="5744.26" y="882.4" width="8.99" height="8.99"/><circle class="cls-3" cx="5748.76" cy="886.89" r="4.5"/><rect class="cls-2" x="5524.23" y="945.6" width="6.52" height="6.52"/><circle class="cls-3" cx="5527.5" cy="948.86" r="3.26"/><rect class="cls-2" x="5388.49" y="950.96" width="11.11" height="11.11"/><circle class="cls-3" cx="5394.04" cy="956.51" r="5.55"/><rect class="cls-2" x="4966.03" y="990.7" width="10.43" height="10.43"/><circle class="cls-3" cx="4971.24" cy="995.91" r="5.21"/><rect class="cls-2" x="4862.5" y="885.9" width="5.93" height="5.93"/><circle class="cls-3" cx="4865.47" cy="888.86" r="2.97"/><rect class="cls-2" x="4950.21" y="743.41" width="4.32" height="4.32"/><circle class="cls-3" cx="4952.37" cy="745.57" r="2.16"/><rect class="cls-2" x="4747.67" y="593.29" width="9.63" height="9.63"/><circle class="cls-3" cx="4752.48" cy="598.11" r="4.81"/><rect class="cls-2" x="4907.18" y="463.67" width="5.03" height="5.03"/><circle class="cls-3" cx="4909.69" cy="466.19" r="2.52"/><rect class="cls-2" x="4974.63" y="324.58" width="7.05" height="7.05"/><circle class="cls-3" cx="4978.15" cy="328.11" r="3.52"/><rect class="cls-2" x="4800.38" y="174" width="4.3" height="4.3"/><circle class="cls-3" cx="4802.53" cy="176.15" r="2.15"/><rect class="cls-2" x="4743.93" y="32.74" width="7.18" height="7.18"/><circle class="cls-3" cx="4747.51" cy="36.33" r="3.59"/><rect class="cls-2" x="4991.48" y="-0.05" width="6.98" height="6.98"/><circle class="cls-3" cx="4994.97" cy="3.44" r="3.49"/><rect class="cls-2" x="4973.73" y="131.63" width="6.14" height="6.14"/><circle class="cls-3" cx="4976.79" cy="134.7" r="3.07"/><rect class="cls-2" x="4974.11" y="273.77" width="3.88" height="3.88"/><circle class="cls-3" cx="4976.05" cy="275.72" r="1.94"/><rect class="cls-2" x="5029.94" y="413.42" width="9.68" height="9.68"/><circle class="cls-3" cx="5034.78" cy="418.26" r="4.84"/><rect class="cls-2" x="4986.79" y="568.66" width="5.15" height="5.15"/><circle class="cls-3" cx="4989.37" cy="571.24" r="2.58"/><rect class="cls-2" x="4957.02" y="706.95" width="7.01" height="7.01"/><circle class="cls-3" cx="4960.52" cy="710.46" r="3.5"/><rect class="cls-2" x="5023.57" y="838.18" width="11.1" height="11.1"/><circle class="cls-3" cx="5029.12" cy="843.74" r="5.55"/><rect class="cls-2" x="5254.36" y="968.73" width="9.5" height="9.5"/><circle class="cls-3" cx="5259.11" cy="973.48" r="4.75"/><rect class="cls-2" x="5113.79" y="813.97" width="5.9" height="5.9"/><circle class="cls-3" cx="5116.74" cy="816.92" r="2.95"/><rect class="cls-2" x="5446.11" y="694.46" width="6.65" height="6.65"/><circle class="cls-3" cx="5449.44" cy="697.78" r="3.32"/><rect class="cls-2" x="5259.93" y="543.12" width="9.41" height="9.41"/><circle class="cls-3" cx="5264.64" cy="547.83" r="4.7"/><rect class="cls-2" x="5223.17" y="407.07" width="9.04" height="9.04"/><circle class="cls-3" cx="5227.69" cy="411.58" r="4.52"/><rect class="cls-2" x="5239.9" y="275.65" width="8.23" height="8.23"/><circle class="cls-3" cx="5244.01" cy="279.77" r="4.11"/><rect class="cls-2" x="5353.09" y="126.92" width="7.24" height="7.24"/><circle class="cls-3" cx="5356.71" cy="130.54" r="3.62"/><rect class="cls-2" x="5247.06" y="-4.13" width="11.41" height="11.41"/><circle class="cls-3" cx="5252.77" cy="1.57" r="5.71"/><rect class="cls-2" x="5586.61" y="126.11" width="10.75" height="10.75"/><circle class="cls-3" cx="5591.98" cy="131.48" r="5.37"/><rect class="cls-2" x="5608.86" y="263.68" width="7.57" height="7.57"/><circle class="cls-3" cx="5612.65" cy="267.46" r="3.78"/><rect class="cls-2" x="5251.71" y="382.59" width="3.53" height="3.53"/><circle class="cls-3" cx="5253.48" cy="384.36" r="1.77"/><rect class="cls-2" x="5535.91" y="538.3" width="8.38" height="8.38"/><circle class="cls-3" cx="5540.1" cy="542.49" r="4.19"/><rect class="cls-2" x="5274.69" y="667.6" width="10.65" height="10.65"/><circle class="cls-3" cx="5280.01" cy="672.92" r="5.33"/><rect class="cls-2" x="5390.62" y="811.44" width="4.11" height="4.11"/><circle class="cls-3" cx="5392.68" cy="813.5" r="2.06"/><rect class="cls-2" x="5415.9" y="955.02" width="6.33" height="6.33"/><circle class="cls-3" cx="5419.06" cy="958.19" r="3.16"/><rect class="cls-2" x="5533.16" y="838.85" width="2.94" height="2.94"/><circle class="cls-3" cx="5534.63" cy="840.32" r="1.47"/><rect class="cls-2" x="5616.01" y="717.65" width="4.76" height="4.76"/><circle class="cls-3" cx="5618.39" cy="720.03" r="2.38"/><rect class="cls-2" x="5707.33" y="571.06" width="4.91" height="4.91"/><circle class="cls-3" cx="5709.78" cy="573.52" r="2.46"/><rect class="cls-2" x="5677.96" y="441.12" width="5.72" height="5.72"/><circle class="cls-3" cx="5680.82" cy="443.99" r="2.86"/><rect class="cls-2" x="5713.4" y="298.16" width="2.93" height="2.93"/><circle class="cls-3" cx="5714.86" cy="299.62" r="1.46"/><rect class="cls-2" x="5573.16" y="160.94" width="7.34" height="7.34"/><circle class="cls-3" cx="5576.83" cy="164.61" r="3.67"/><rect class="cls-2" x="5520.03" y="28.73" width="4.5" height="4.5"/><circle class="cls-3" cx="5522.28" cy="30.98" r="2.25"/><rect class="cls-3" x="3840.35" y="995.49" width="1920" height="276.84"/><polygon class="cls-4" points="4839.01 921.71 4800.35 975.62 4877.67 975.62 4839.01 921.71"/><polygon class="cls-4" points="4839.01 904.7 4808.9 946.68 4869.11 946.68 4839.01 904.7"/><polygon class="cls-4" points="4839.01 889.5 4817.2 919.9 4860.81 919.9 4839.01 889.5"/><polygon class="cls-5" points="4821.1 946.68 4856.91 946.68 4858.34 948.66 4821.1 946.68"/><polygon class="cls-5" points="4828.12 919.9 4849.91 919.9 4850.77 921.11 4828.12 919.9"/><path class="cls-3" d="M4835.81,889.1l-2.67,3.72a3.92,3.92,0,0,0,3.19,6.21h5.33a3.92,3.92,0,0,0,3.19-6.21l-2.66-3.72A3.93,3.93,0,0,0,4835.81,889.1Z"/><circle class="cls-3" cx="4831.72" cy="899.05" r="2.43"/><circle class="cls-3" cx="4836.58" cy="899.05" r="2.43"/><circle class="cls-3" cx="4846.3" cy="899.05" r="2.43"/><path class="cls-3" d="M4830.3,922.35h-13.1a2.45,2.45,0,0,1,0-4.9h13.1a2.45,2.45,0,0,1,0,4.9Z"/><path class="cls-3" d="M4838.57,922.35h-2a2.45,2.45,0,1,1,0-4.9h2a2.45,2.45,0,1,1,0,4.9Z"/><rect class="cls-6" x="4834.13" y="975.62" width="9.74" height="19.88"/><polygon class="cls-4" points="3989.15 857.37 3916.78 958.28 4061.53 958.28 3989.15 857.37"/><polygon class="cls-4" points="3989.15 825.52 3932.79 904.11 4045.52 904.11 3989.15 825.52"/><polygon class="cls-4" points="3989.15 797.06 3948.34 853.98 4029.97 853.98 3989.15 797.06"/><polygon class="cls-5" points="3955.63 904.11 4022.68 904.11 4025.34 907.83 3955.63 904.11"/><polygon class="cls-5" points="3968.77 853.98 4009.56 853.98 4011.18 856.24 3968.77 853.98"/><path class="cls-3" d="M3985.94,792.45l-11.65,16.25a3.92,3.92,0,0,0,3.19,6.21h23.31a3.92,3.92,0,0,0,3.19-6.21l-11.66-16.25A3.92,3.92,0,0,0,3985.94,792.45Z"/><circle class="cls-3" cx="3975.51" cy="814.95" r="4.55"/><circle class="cls-3" cx="3984.61" cy="814.95" r="4.55"/><circle class="cls-3" cx="4002.8" cy="814.95" r="4.55"/><path class="cls-3" d="M3972.85,858.56h-24.51a4.58,4.58,0,1,1,0-9.16h24.51a4.58,4.58,0,0,1,0,9.16Z"/><path class="cls-3" d="M3988.34,858.56h-3.73a4.58,4.58,0,1,1,0-9.16h3.73a4.58,4.58,0,0,1,0,9.16Z"/><rect class="cls-6" x="3980.02" y="958.28" width="18.23" height="37.21"/><polygon class="cls-5" points="4545.98 896.13 4493.92 968.73 4598.04 968.73 4545.98 896.13"/><polygon class="cls-5" points="4545.98 873.22 4505.43 929.76 4586.53 929.76 4545.98 873.22"/><polygon class="cls-5" points="4545.98 852.75 4516.62 893.69 4575.34 893.69 4545.98 852.75"/><polygon class="cls-7" points="4521.86 929.76 4570.1 929.76 4572.01 932.43 4521.86 929.76"/><polygon class="cls-7" points="4531.32 893.69 4560.67 893.69 4561.84 895.32 4531.32 893.69"/><path class="cls-3" d="M4542.79,850.67l-6.24,8.71a3.92,3.92,0,0,0,3.19,6.21h12.48a3.92,3.92,0,0,0,3.19-6.21l-6.24-8.71A3.93,3.93,0,0,0,4542.79,850.67Z"/><circle class="cls-3" cx="4536.18" cy="865.62" r="3.27"/><circle class="cls-3" cx="4542.72" cy="865.62" r="3.27"/><circle class="cls-3" cx="4549.27" cy="865.62" r="3.27"/><circle class="cls-3" cx="4555.81" cy="865.62" r="3.27"/><path class="cls-3" d="M4586.53,933h-26.42a3.3,3.3,0,0,1,0-6.59h26.42a3.3,3.3,0,0,1,0,6.59Z"/><rect class="cls-6" x="4539.42" y="968.73" width="13.12" height="26.77"/><polygon class="cls-5" points="5597.28 909.6 5552.27 972.35 5642.29 972.35 5597.28 909.6"/><polygon class="cls-5" points="5597.28 889.79 5562.23 938.67 5632.33 938.67 5597.28 889.79"/><polygon class="cls-5" points="5597.28 872.1 5571.9 907.49 5622.67 907.49 5597.28 872.1"/><polygon class="cls-7" points="5576.44 938.67 5618.13 938.67 5619.78 940.98 5576.44 938.67"/><polygon class="cls-7" points="5584.61 907.49 5609.98 907.49 5610.99 908.9 5584.61 907.49"/><path class="cls-3" d="M5594.09,870.91l-4.36,6.07a3.93,3.93,0,0,0,3.19,6.22h8.72a3.93,3.93,0,0,0,3.19-6.22l-4.36-6.07A3.92,3.92,0,0,0,5594.09,870.91Z"/><circle class="cls-3" cx="5588.81" cy="883.22" r="2.83"/><circle class="cls-3" cx="5594.47" cy="883.22" r="2.83"/><circle class="cls-3" cx="5600.12" cy="883.22" r="2.83"/><circle class="cls-3" cx="5605.78" cy="883.22" r="2.83"/><path class="cls-3" d="M5632.33,941.48H5609.5a2.85,2.85,0,0,1,0-5.7h22.83a2.85,2.85,0,1,1,0,5.7Z"/><rect class="cls-6" x="5591.61" y="972.35" width="11.34" height="23.14"/><polygon class="cls-8" points="4371.38 900.89 4294.77 826.28 4218.17 900.89 4218.17 995.49 4371.38 995.49 4371.38 900.89"/><path class="cls-9" d="M4272.45,920.81h0a24,24,0,0,1,24,24v50.64a0,0,0,0,1,0,0h-48.08a0,0,0,0,1,0,0V944.85A24,24,0,0,1,4272.45,920.81Z"/><path class="cls-10" d="M4334.45,920.81h0A15.23,15.23,0,0,1,4349.68,936v19.72a0,0,0,0,1,0,0h-30.47a0,0,0,0,1,0,0V936A15.23,15.23,0,0,1,4334.45,920.81Z"/><rect class="cls-8" x="4232.77" y="784.52" width="43.53" height="65.12"/><path class="cls-3" d="M4197.79,916.59a15.51,15.51,0,0,1-10.95-26.48l97-96.77a15.49,15.49,0,0,1,21.89,0l97,96.77a15.5,15.5,0,0,1-21.9,21.95l-86-85.85-86,85.85A15.42,15.42,0,0,1,4197.79,916.59Z"/><path class="cls-3" d="M4276.31,786.33h-45.4a7,7,0,0,1,0-14h45.4a7,7,0,0,1,0,14Z"/><circle class="cls-9" cx="5220.57" cy="898.17" r="68.09"/><path class="cls-11" d="M5165.32,904.46h-.42a6,6,0,0,1-5.57-6.4,62.43,62.43,0,0,1,91.39-50.92,6,6,0,0,1-5.6,10.62,51.09,51.09,0,0,0-8.5-3.53,50.44,50.44,0,0,0-65.32,44.66A6,6,0,0,1,5165.32,904.46Z"/><circle class="cls-9" cx="5272.81" cy="850.21" r="4.71"/><path class="cls-8" d="M5147.34,921.06a6,6,0,0,0-5.95,5.3,22.33,22.33,0,0,1-44.26,1.2,7.79,7.79,0,0,0-7.72-6.5h0v44.56a4.55,4.55,0,0,0,4.55,4.55h137.13a4.55,4.55,0,0,0,4.55-4.55v-40a4.55,4.55,0,0,0-4.55-4.55Z"/><path class="cls-9" d="M5221.05,963.63h-49a3.5,3.5,0,0,1,0-7h49a1.06,1.06,0,0,0,1.05-1v-20a3.5,3.5,0,1,1,7,0v20A8.07,8.07,0,0,1,5221.05,963.63Z"/><path class="cls-10" d="M5249.5,995.49H5045.94c-17,0-31.47-13.33-32-30.37a31.32,31.32,0,0,1,59.89-13.74l-.15.07a14,14,0,0,1-15-2.49,20.32,20.32,0,1,0-13.46,35.53H5238.5a11,11,0,0,1,11,11Z"/><rect class="cls-10" x="5171.59" y="976.44" width="23.54" height="11" transform="translate(6165.31 -4201.42) rotate(90)"/><rect class="cls-10" x="5120.62" y="976.44" width="23.54" height="11" transform="translate(6114.33 -4150.44) rotate(90)"/><circle class="cls-3" cx="5274.05" cy="838.08" r="7.83"/><circle class="cls-3" cx="5284.77" cy="848.5" r="7.83"/><circle class="cls-3" cx="5451.55" cy="958.28" r="37.22"/><circle class="cls-3" cx="5451.55" cy="902.69" r="23.59"/><path class="cls-8" d="M5436.49,882.48c2.75-13.68,9.94-23.79,23.26-21.11s16,14.77,13.29,28.46"/><path class="cls-8" d="M5478.62,893.37,5430,883.59a2.37,2.37,0,1,1,.94-4.64l48.63,9.77a2.37,2.37,0,0,1-.93,4.65Z"/><path class="cls-12" d="M5393.13,921.18a3,3,0,0,1-.89-.14l-22.33-7a3,3,0,1,1,1.79-5.73l17.85,5.58-2.18-16.84a3,3,0,0,1,5.95-.78l2.79,21.49a3,3,0,0,1-3,3.39Z"/><path class="cls-12" d="M5428,941a3,3,0,0,1-1.48-.4l-34.82-19.77a3,3,0,0,1,3-5.22l34.83,19.78A3,3,0,0,1,5428,941Z"/><path class="cls-12" d="M5493.3,914.33a3,3,0,0,1-3-3v-21.5a3,3,0,1,1,6,0V908.1l17.44-1.27a3,3,0,1,1,.44,6l-20.66,1.51Z"/><path class="cls-12" d="M5467.25,942.21a3,3,0,0,1-2.05-.8,3,3,0,0,1-.14-4.25l26-27.88a3,3,0,1,1,4.38,4.1l-26.05,27.88A3,3,0,0,1,5467.25,942.21Z"/></g></g></svg>