<svg xmlns="http://www.w3.org/2000/svg" width="640" height="640" viewBox="0 0 640 640"><defs><style>.cls-1{opacity:0.3;}.cls-2{fill:red;}.cls-3{fill:#d20000;}.cls-4{fill:#fff;}.cls-5{fill:#f1f1f1;}</style></defs><title>UI liv minus</title><g id="Spilskærm_med_elementer" data-name="Spilskærm med elementer"><g class="cls-1"><path class="cls-2" d="M422.53,135c-122-32.92-258.13,136.46-258.14,136.48C100.63,335.64,77.07,417,77.07,417l80.71,48.86L365.9,454.6l12.33-32.48c10.88-30.76,12.22-57,9-78.46h0c58.39-12.92,85.28-51,96.53-74.09h0c19,7.93,34.46,39.86,34.46,39.86l49.62-29.07S544.6,168,422.53,135Z"/><path class="cls-3" d="M424,129.57c-51.68-13.95-113.86,5.72-179.8,56.88A567.68,567.68,0,0,0,160,268a.56.56,0,0,0-.05.08,324.2,324.2,0,0,0-26.63,30.42c-44,57-61,114.51-61.66,116.93a5.67,5.67,0,0,0,10.9,3.16c.17-.58,17.19-58.16,60-113.44A325.31,325.31,0,0,1,167.91,276a6.23,6.23,0,0,0,.9-.88l.16-.2c52.54-52.82,116.62-77.49,191-73.39a5.67,5.67,0,0,0,.62-11.33c-56.67-3.13-103.11,10.58-140.5,31.66,49.92-45.53,128.6-100.82,201-81.3,104.41,28.17,134.78,117.35,140.29,137.1l-40.81,23.92c-4.95-8.86-15.85-26.17-29.42-34.53a100.19,100.19,0,0,0,5.35-14.58,5.67,5.67,0,0,0-11-2.67c-.16.69-17.08,67.1-93.86,87-8.72-43.81-35.22-67.32-35.63-67.68a5.68,5.68,0,0,0-7.41,8.6c.58.49,56.91,50.45,24.34,142.56a5.67,5.67,0,1,0,10.7,3.78c10.35-29.28,12.22-54.68,9.74-76,52.78-13.31,79.86-47.14,92.74-70.78,12.3,8.12,23.51,27.21,27.12,34.67a5.71,5.71,0,0,0,3.46,3,5.68,5.68,0,0,0,4.52-.54l49.61-29.07a5.66,5.66,0,0,0,2.69-6C573.22,278.05,548,163,424,129.57Z"/><path class="cls-4" d="M302.28,510.62A545.31,545.31,0,0,1,53.6,483.9,35.46,35.46,0,0,1,77.07,417a474.84,474.84,0,0,0,216.61,23.24,483.94,483.94,0,0,0,84.55-18.1,35.46,35.46,0,0,1,21,67.74A556,556,0,0,1,302.28,510.62Z"/><path class="cls-4" d="M302.28,510.62A545.31,545.31,0,0,1,53.6,483.9,35.46,35.46,0,0,1,77.07,417a474.84,474.84,0,0,0,216.61,23.24,483.94,483.94,0,0,0,84.55-18.1,35.46,35.46,0,0,1,21,67.74A556,556,0,0,1,302.28,510.62Z"/><path class="cls-5" d="M234.18,505.5q-21.6,0-43-1.72a7.74,7.74,0,1,1,1.25-15.43A530.91,530.91,0,0,0,299.28,486a530.12,530.12,0,0,0,92.63-19.83,10.7,10.7,0,0,0,1.11-20A7.74,7.74,0,0,1,399.23,432a26.2,26.2,0,0,1-2.73,49,545.88,545.88,0,0,1-95.34,20.41A552.09,552.09,0,0,1,234.18,505.5Z"/><circle class="cls-4" cx="558.48" cy="322.73" r="51.64"/><path class="cls-5" d="M558.48,366.15a7.75,7.75,0,0,1,0-15.49,30.15,30.15,0,0,0,3.41-.21,28,28,0,0,0,23-36.74,7.74,7.74,0,1,1,14.66-5,44.14,44.14,0,0,1,2,8.74,43.42,43.42,0,0,1-37.83,48.36,46,46,0,0,1-5.25.33Z"/></g></g></svg>