<svg xmlns="http://www.w3.org/2000/svg" xmlns:xlink="http://www.w3.org/1999/xlink" width="1600" height="550" viewBox="0 0 1600 550"><defs><style>.cls-1{fill:url(#radial-gradient);}.cls-2{fill:#fbed21;}.cls-3{fill:#aa987a;}.cls-4{fill:url(#linear-gradient);}.cls-5{fill:#e2cba2;}.cls-6{fill:url(#linear-gradient-2);}.cls-7{fill:#fff;}.cls-8{fill:#f99;}.cls-9{fill:red;}.cls-10{fill:#d20000;}.cls-11{fill:#f1f1f1;}.cls-12{fill:url(#radial-gradient-2);}.cls-13{fill:none;}.cls-14{fill:#a57c52;}.cls-15{fill:#8b6239;}</style><radialGradient id="radial-gradient" cx="767.9" cy="300.44" r="767.41" gradientTransform="translate(0 264.99) scale(1 0.12)" gradientUnits="userSpaceOnUse"><stop offset="0" stop-color="#fff"/><stop offset="0.25" stop-color="#fafafa"/><stop offset="0.53" stop-color="#ededed"/><stop offset="0.82" stop-color="#d6d6d6"/><stop offset="1" stop-color="#c5c5c5"/></radialGradient><linearGradient id="linear-gradient" x1="12724.45" y1="307.59" x2="12786.39" y2="307.59" gradientTransform="matrix(-1, 0, 0, 1, 13087.09, 0)" gradientUnits="userSpaceOnUse"><stop offset="0" stop-color="#e2cba2"/><stop offset="0.35" stop-color="#dfc9a0"/><stop offset="0.58" stop-color="#d7c19a"/><stop offset="0.77" stop-color="#c8b38f"/><stop offset="0.94" stop-color="#b3a081"/><stop offset="1" stop-color="#aa987a"/></linearGradient><linearGradient id="linear-gradient-2" x1="12965.9" y1="-440.96" x2="12946.15" y2="-368.86" gradientTransform="matrix(-1, 0.06, 0.06, 1, 13268.95, -205.24)" gradientUnits="userSpaceOnUse"><stop offset="0" stop-color="#aa987a"/><stop offset="1" stop-color="#aa987a" stop-opacity="0"/></linearGradient><radialGradient id="radial-gradient-2" cx="1352.41" cy="270.1" r="177.9" gradientTransform="translate(-1.92 96.88) rotate(-0.61) scale(1 0.69)" gradientUnits="userSpaceOnUse"><stop offset="0" stop-color="#c59b6d"/><stop offset="0.26" stop-color="#bb9164"/><stop offset="0.71" stop-color="#a0764b"/><stop offset="1" stop-color="#8b6239"/></radialGradient></defs><title>UI timer</title><g id="UI-elementer"><rect class="cls-1" x="129.95" y="228.96" width="1275.9" height="142.95" rx="71.48"/><rect class="cls-2" x="129.95" y="228.96" width="266.1" height="142.95" rx="71.48"/><path class="cls-3" d="M389.08,475.86a5,5,0,0,1-4.83-3.71l-15.94-58.91-35.58-34.15a5,5,0,1,1,6.94-7.23l37.6,36.08,16.66,61.59a5,5,0,0,1-4.85,6.33Z"/><path class="cls-3" d="M226.22,438a5,5,0,0,1-1-9.92l50.72-10.79,40.53-46.42a5,5,0,1,1,7.55,6.59l-42.72,49-54,11.48A4.68,4.68,0,0,1,226.22,438Z"/><path class="cls-4" d="M324.78,206.49a207.6,207.6,0,0,1-19.89,175.13c-.68,1.1-1.36,2.19-2.06,3.27a20.06,20.06,0,0,0,34.93,19.64c.6-1.17,1.19-2.35,1.76-3.54a231.78,231.78,0,0,0,1-199.75"/><path class="cls-5" d="M278,182.7c11.43,36.15,33.89,44.58,56.08,37.56s35.72-26.82,24.29-63-50.3-72.8-65.68-67.94S266.56,146.55,278,182.7Z"/><path class="cls-6" d="M287.31,177.31c8.58,27.14,25.44,33.46,42.1,28.2s26.81-20.14,18.23-47.27-37.76-54.64-49.3-51S278.74,150.18,287.31,177.31Z"/><path class="cls-7" d="M342.38,183.5a20.93,20.93,0,0,1-9.17,14.22,17.5,17.5,0,0,1-17.12,1.07c-6.71-3.23-11.41-10.6-11.41-19.17,0-.56,0-1.11.06-1.66,0,0,10.19,5.38,19.25,6.29A77.37,77.37,0,0,0,342.38,183.5Z"/><path class="cls-3" d="M352.18,179.88a1.49,1.49,0,0,0-2-.71,44.49,44.49,0,0,1-8.19,2.9h0a48.48,48.48,0,0,1-11.9,1.46,46.1,46.1,0,0,1-24.59-6.81h0a41.41,41.41,0,0,1-4.24-3.08,1.48,1.48,0,1,0-1.89,2.27,43.46,43.46,0,0,0,4.56,3.3h0a49,49,0,0,0,26.16,7.27,51.44,51.44,0,0,0,12.62-1.55h0a48,48,0,0,0,8.72-3.09A1.48,1.48,0,0,0,352.18,179.88Z"/><path class="cls-8" d="M316.08,198.64a.76.76,0,0,0,0,.15,17.5,17.5,0,0,0,17.12-1.07c-.6-3.09-4.19-5.46-8.52-5.46C319.94,192.26,316.08,195.11,316.08,198.64Z"/><path class="cls-7" d="M297,151.11a20,20,0,0,0,.57,3.83c2,7.93,8.52,13.12,14.52,11.59s9.24-9.18,7.23-17.11a18.6,18.6,0,0,0-2.68-6c-3-4.33-7.53-6.69-11.83-5.6C299.83,139.11,296.74,144.68,297,151.11Z"/><path class="cls-3" d="M296,151.11a82.61,82.61,0,0,0,21.65-8.47c-3.29-4.78-8.3-7.37-13-6.17C299.11,137.88,295.7,144,296,151.11Z"/><circle cx="312.93" cy="155.97" r="2.26"/><path class="cls-7" d="M333.36,148.56c1.42,7.6,6.61,13,11.58,12.07s7.86-7.84,6.44-15.43a19.64,19.64,0,0,0-.56-2.26c-1.92-6.38-6.55-10.65-11-9.81-3.44.64-5.88,4.15-6.59,8.78A20,20,0,0,0,333.36,148.56Z"/><path class="cls-3" d="M331.94,141.75A91.17,91.17,0,0,0,347.28,143c1.62,0,3.22,0,4.82-.12-2.2-7.3-7.51-12.19-12.62-11.23C335.54,132.43,332.74,136.45,331.94,141.75Z"/><circle cx="343.29" cy="151.45" r="2.26"/><path class="cls-9" d="M256.7,58.22c24.36-9.88,56.72,21.65,56.73,21.65,14.78,11.63,21.69,27.82,21.69,27.82l-15.43,12.13-43.24,2.93-3.36-6.39a33.64,33.64,0,0,1-3.84-16h0a28.42,28.42,0,0,1-21.79-12.86h0c-3.73,2.12-6.11,9.1-6.11,9.1l-11-4.75A42.37,42.37,0,0,1,256.7,58.22Z"/><path class="cls-10" d="M256.26,57.12c10.31-4.18,23.64-1.69,38.54,7.21A117.6,117.6,0,0,1,314.25,79h0a68.91,68.91,0,0,1,6.27,5.61,80.87,80.87,0,0,1,15.68,22.58,1.19,1.19,0,0,1-.63,1.55,1.22,1.22,0,0,1-.46.09,1.16,1.16,0,0,1-1.08-.71,80,80,0,0,0-15.24-21.9,67.46,67.46,0,0,0-6-5.38l-.21-.16,0,0c-12.18-9.57-26-13.05-41.28-10.33a1.17,1.17,0,0,1-1.37-.95,1.19,1.19,0,0,1,.95-1.37,52.49,52.49,0,0,1,29.8,3c-11.45-8.14-29.09-17.56-43.53-11.71-20.84,8.45-24.86,27.62-25.5,31.84l9,3.91c.8-2,2.61-5.8,5.2-7.87a21.26,21.26,0,0,1-1.47-2.88,1.18,1.18,0,0,1,2.21-.83,27,27,0,0,0,21.57,15.59,26.83,26.83,0,0,1,5.64-14.87,1.18,1.18,0,0,1,1.75,1.59c-.1.12-10.47,11.85-1.42,30a1.18,1.18,0,0,1-.54,1.58,1.06,1.06,0,0,1-.52.13,1.19,1.19,0,0,1-1.06-.66,35,35,0,0,1-3.93-15.44,29.7,29.7,0,0,1-20.93-12.27c-2.33,2-4.16,6.21-4.72,7.84a1.19,1.19,0,0,1-.64.7,1.29,1.29,0,0,1-.48.1,1.09,1.09,0,0,1-.46-.1l-11-4.75a1.18,1.18,0,0,1-.71-1.18C229.2,91.54,231.51,67.16,256.26,57.12Z"/><path class="cls-7" d="M291,132.71a113.38,113.38,0,0,0,50.65-11.79,7.38,7.38,0,0,0-6.53-13.23A98.75,98.75,0,0,1,291,118a100.92,100.92,0,0,1-17.91-1.6,7.37,7.37,0,0,0-2.63,14.51A115.45,115.45,0,0,0,291,132.71Z"/><path class="cls-7" d="M291,132.71a113.38,113.38,0,0,0,50.65-11.79,7.38,7.38,0,0,0-6.53-13.23A98.75,98.75,0,0,1,291,118a100.92,100.92,0,0,1-17.91-1.6,7.37,7.37,0,0,0-2.63,14.51A115.45,115.45,0,0,0,291,132.71Z"/><path class="cls-11" d="M291,130.35a112.61,112.61,0,0,1-20.12-1.81,5,5,0,0,1-1.66-9.25,1.18,1.18,0,1,1,1.2,2,2.66,2.66,0,0,0,.88,4.9,111.74,111.74,0,0,0,41.89-.46,1.18,1.18,0,0,1,.48,2.31A113.2,113.2,0,0,1,291,130.35Z"/><circle class="cls-7" cx="233.37" cy="100.39" r="10.74"/><path class="cls-11" d="M233.37,109a8.6,8.6,0,0,1-8.59-8.59,8.71,8.71,0,0,1,.18-1.77,1.18,1.18,0,0,1,2.31.48,6.14,6.14,0,0,0-.13,1.29,6.24,6.24,0,0,0,6.23,6.24,6.33,6.33,0,0,0,.76,0,1.18,1.18,0,1,1,.29,2.34A9.24,9.24,0,0,1,233.37,109Z"/><path class="cls-12" d="M1502.05,248.62a151,151,0,0,1-301.94,0"/><ellipse class="cls-13" cx="1351.08" cy="248.62" rx="150.97" ry="36.33"/><path class="cls-14" d="M1351.08,279.44c-39.91,0-77.36-3.72-105.47-10.49-13.17-3.17-23.86-7-30.92-11-5.77-3.28-9.08-6.69-9.08-9.35s3.31-6.08,9.08-9.36c7.06-4,17.75-7.81,30.92-11,28.11-6.76,65.56-10.49,105.47-10.49s77.36,3.73,105.46,10.49c13.18,3.17,23.87,7,30.92,11,5.78,3.28,9.09,6.69,9.09,9.36s-3.31,6.07-9.09,9.35c-7,4-17.74,7.81-30.92,11C1428.44,275.72,1391,279.44,1351.08,279.44Z"/><circle class="cls-7" cx="1242.36" cy="234.63" r="33.13"/><circle class="cls-7" cx="1287.78" cy="201.5" r="33.13"/><circle class="cls-7" cx="1334.22" cy="187.27" r="33.13"/><circle class="cls-7" cx="1385.36" cy="191.6" r="25.98"/><circle class="cls-7" cx="1420.25" cy="207.64" r="38.11"/><circle class="cls-7" cx="1252.96" cy="212.29" r="16.78"/><circle class="cls-7" cx="1307.13" cy="182.4" r="16.78"/><circle class="cls-7" cx="1450.29" cy="205.05" r="16.78"/><circle class="cls-7" cx="1461.98" cy="227.41" r="21.21"/><circle class="cls-7" cx="1464.15" cy="202.64" r="7.13"/><circle class="cls-7" cx="1365.37" cy="178.73" r="16.78"/><path class="cls-13" d="M1496.55,248.62c0-1.67-1.3-3.63-3.69-5.67a25.72,25.72,0,0,1,2.15,9.16A5.81,5.81,0,0,0,1496.55,248.62Z"/><path class="cls-7" d="M1492.86,243h0a26,26,0,0,0-10-11.6h0a26,26,0,0,0-35.57,7.93,108.45,108.45,0,0,0-194.94.65,27.74,27.74,0,0,0-46.1,10.8c1.2,2.24,4.15,4.78,8.48,7.24,6.61,3.76,16.41,7.33,28.45,10.37l2.47.61c3.8.92,7.78,1.78,11.9,2.58,26.38,5.12,59.06,7.91,93.57,7.91,36.68,0,71.29-3.15,98.47-8.91q3.59-.75,7-1.58l.29-.07c13-3.15,23.63-6.92,30.63-10.91a26.75,26.75,0,0,0,7.55-5.86A25.72,25.72,0,0,0,1492.86,243Z"/><path class="cls-15" d="M1492.86,243h0a26,26,0,0,0-10-11.6h0A26,26,0,0,1,1492.86,243Z"/><path class="cls-15" d="M1482.9,230.89c0,.15-.05.31-.08.46a26,26,0,0,1,10,11.6c2.39,2,3.69,4,3.69,5.67,0,2.66-3.31,6.07-9.09,9.35-7,4-17.74,7.81-30.92,11-28.1,6.77-65.56,10.49-105.46,10.49s-77.36-3.72-105.47-10.49c-13.17-3.17-23.86-7-30.92-11-5.77-3.28-9.08-6.69-9.08-9.35,0-1.85,1.6-4.07,4.51-6.34a32.88,32.88,0,0,1-.85-6.16c-5.93,3.9-9.16,8.11-9.16,12.5,0,20.06,67.59,36.33,151,36.33s151-16.27,151-36.33C1502.05,242.18,1495.1,236.14,1482.9,230.89Z"/><path class="cls-11" d="M1276.61,218.93l-2.8-2.22a19.78,19.78,0,0,0-12.4-4.31,20,20,0,0,0-10.43,2.93,4,4,0,1,1-4.18-6.82,28,28,0,0,1,29.25,0,20.8,20.8,0,0,1,13.13-3.89,13.27,13.27,0,0,1,22.73-5.35,4,4,0,1,1-6,5.31,5.27,5.27,0,0,0-9.21,3.49,5.43,5.43,0,0,0,0,.67l.75,6-5.81-1.65a12.8,12.8,0,0,0-12.58,3.28Z"/><path class="cls-11" d="M1311.47,267.29a4,4,0,0,1-4-3.79A12.07,12.07,0,0,0,1291,252.93l-3.31,1.32-1.69-3.14a7.05,7.05,0,0,0-1.19-1.62,7.17,7.17,0,0,0-5.08-2.2,7,7,0,0,0-5.15,2.05,7.25,7.25,0,0,0-1.62,2.37,4,4,0,1,1-7.37-3.12,15.26,15.26,0,0,1,14-9.3h.23a15.06,15.06,0,0,1,10.7,4.61l.58.63a20.08,20.08,0,0,1,24.39,18.54,4,4,0,0,1-3.79,4.21Z"/><path class="cls-11" d="M1456.82,224.4a4,4,0,0,1-3.92-3.25,15.37,15.37,0,0,0-23-10.29L1425,213.8l-1.06-5.65a6,6,0,0,0-1.66-3.15,6.06,6.06,0,0,0-8.56,0c-.16.16-.31.33-.45.5l-2.21,2.75-3-1.85a9.29,9.29,0,0,0-11.47,1.34,4,4,0,0,1-5.65-5.67,17.27,17.27,0,0,1,18.46-3.9,14.07,14.07,0,0,1,18.55,1.21,13.58,13.58,0,0,1,2.08,2.65,23.38,23.38,0,0,1,30.71,17.64,4,4,0,0,1-3.18,4.68A3.91,3.91,0,0,1,1456.82,224.4Z"/><path class="cls-11" d="M1355.21,264.84a4,4,0,0,1-4-3.5,16.43,16.43,0,0,1,25.59-15.61,23.43,23.43,0,0,1,20.28,1,14.25,14.25,0,0,1,2.48-2.3,14.06,14.06,0,0,1,18.51,1.77,17.26,17.26,0,0,1,17.6,6.79,4,4,0,0,1-6.48,4.7,9.28,9.28,0,0,0-11.11-3.15l-3.26,1.35-1.75-3.07q-.16-.28-.36-.57a6.05,6.05,0,0,0-10.59,1.51l-1.94,5.4-4.4-3.69a15.39,15.39,0,0,0-17.53-1.54l-2.65,1.53-2.17-2.16a8.42,8.42,0,0,0-14.28,7,4,4,0,0,1-3.47,4.47Z"/><path class="cls-11" d="M1326.16,204.15a4.16,4.16,0,0,1-1.2-.18,4,4,0,0,1-2.62-5,23.39,23.39,0,0,1,30.91-14.69,16.42,16.42,0,0,1,23.22,4.16,4,4,0,0,1-6.64,4.47,8.39,8.39,0,0,0-13-1.14l-2.12,2.19-2.68-1.46a15.39,15.39,0,0,0-22,8.87A4,4,0,0,1,1326.16,204.15Z"/></g></svg>